  0
SECTION
  2
HEADER
  9
$ACADVER
  1
AC1009
  9
$INSBASE
 10
0.0
 20
0.0
 30
0.0
  9
$EXTMIN
 10
0.0
 20
0.0
 30
0.0
  9
$EXTMAX
 10
0.0
 20
0.0
 30
0.0
  0
ENDSEC
  0
SECTION
  2
TABLES
  0
TABLE
  2
VPORT
 70
0
  0
ENDTAB
  0
TABLE
  2
LTYPE
 70
1
  0
LTYPE
  2
CONTINUOUS
 70
0
  3
Solid line
 72
65
 73
0
 40
0.0
  0
ENDTAB
  0
TABLE
  2
LAYER
 70
1
  0
LAYER
  2
0
 70
64
 62
7
  6
continuous
  0
ENDTAB
  0
TABLE
  2
STYLE
 70
1
  0
STYLE
  2
STANDARD
 70
0
 40
0
 41
1.0
 50
0.0
 71
0
 42
1
 3
ARIAL.TTF
 4

  0
ENDTAB
  0
TABLE
  2
VIEW
 70
0
  0
ENDTAB
  0
ENDSEC
  0
SECTION
  2
BLOCKS
  0
BLOCK
  8
0
  2
PART__FEATURE
 70
0
 10
0.0
 20
0.0
 30
0.0
  3
PART__FEATURE
  0
LINE
  8
0
 62
0
 10
-6.54
 20
33.735
 30
0.0
 11
-6.54
 21
3.235
 31
0.0
  0
LINE
  8
0
 62
0
 10
-6.54
 20
3.235
 30
0.0
 11
-19.54
 21
3.235
 31
0.0
  0
ARC
  8
0
 62
0
 10
-19.54
 20
1.235
 30
0.0
 40
2.0
 50
90.0
 51
-180.0
  0
LINE
  8
0
 62
0
 10
-21.54
 20
1.235
 30
0.0
 11
-21.54
 21
-27.765
 31
0.0
  0
LINE
  8
0
 62
0
 10
-21.54
 20
-27.765
 30
0.0
 11
-38.31
 21
-27.765
 31
0.0
  0
LINE
  8
0
 62
0
 10
-38.31
 20
-27.765
 30
0.0
 11
-38.31
 21
1.235
 31
0.0
  0
ARC
  8
0
 62
0
 10
-40.31
 20
1.235
 30
0.0
 40
2.0
 50
-0.0
 51
90.0
  0
LINE
  8
0
 62
0
 10
-40.31
 20
3.235
 30
0.0
 11
-53.31
 21
3.235
 31
0.0
  0
LINE
  8
0
 62
0
 10
-53.31
 20
3.235
 30
0.0
 11
-53.31
 21
33.735
 31
0.0
  0
LINE
  8
0
 62
0
 10
-53.31
 20
33.735
 30
0.0
 11
-6.54
 21
33.735
 31
0.0
  0
LINE
  8
0
 62
0
 10
4.17
 20
33.105
 30
0.0
 11
4.17
 21
29.305
 31
0.0
  0
LINE
  8
0
 62
0
 10
0.37
 20
33.105
 30
0.0
 11
4.17
 21
33.105
 31
0.0
  0
LINE
  8
0
 62
0
 10
0.37
 20
29.305
 30
0.0
 11
0.37
 21
33.105
 31
0.0
  0
LINE
  8
0
 62
0
 10
4.17
 20
29.305
 30
0.0
 11
0.37
 21
29.305
 31
0.0
  0
LINE
  8
0
 62
0
 10
53.7
 20
-29.76
 30
0.0
 11
53.7
 21
-33.56
 31
0.0
  0
LINE
  8
0
 62
0
 10
49.9
 20
-29.76
 30
0.0
 11
53.7
 21
-29.76
 31
0.0
  0
LINE
  8
0
 62
0
 10
49.9
 20
-33.56
 30
0.0
 11
49.9
 21
-29.76
 31
0.0
  0
LINE
  8
0
 62
0
 10
53.7
 20
-33.56
 30
0.0
 11
49.9
 21
-33.56
 31
0.0
  0
LINE
  8
0
 62
0
 10
62.59
 20
33.105
 30
0.0
 11
62.59
 21
29.305
 31
0.0
  0
LINE
  8
0
 62
0
 10
58.79
 20
33.105
 30
0.0
 11
62.59
 21
33.105
 31
0.0
  0
LINE
  8
0
 62
0
 10
58.79
 20
29.305
 30
0.0
 11
58.79
 21
33.105
 31
0.0
  0
LINE
  8
0
 62
0
 10
62.59
 20
29.305
 30
0.0
 11
58.79
 21
29.305
 31
0.0
  0
LINE
  8
0
 62
0
 10
13.06
 20
-29.76
 30
0.0
 11
13.06
 21
-33.56
 31
0.0
  0
LINE
  8
0
 62
0
 10
9.26
 20
-29.76
 30
0.0
 11
13.06
 21
-29.76
 31
0.0
  0
LINE
  8
0
 62
0
 10
9.26
 20
-33.56
 30
0.0
 11
9.26
 21
-29.76
 31
0.0
  0
LINE
  8
0
 62
0
 10
13.06
 20
-33.56
 30
0.0
 11
9.26
 21
-33.56
 31
0.0
  0
LINE
  8
0
 62
0
 10
-67.5
 20
45.0
 30
0.0
 11
-67.5
 21
-45.0
 31
0.0
  0
LINE
  8
0
 62
0
 10
67.5
 20
45.0
 30
0.0
 11
-67.5
 21
45.0
 31
0.0
  0
LINE
  8
0
 62
0
 10
67.5
 20
-45.0
 30
0.0
 11
67.5
 21
45.0
 31
0.0
  0
LINE
  8
0
 62
0
 10
-67.5
 20
-45.0
 30
0.0
 11
67.5
 21
-45.0
 31
0.0
  0
ENDBLK
  0
ENDSEC
  0
SECTION
  2
ENTITIES
  0
INSERT
  2
PART__FEATURE
  8
0
 62
0
 10
0.0
 20
0.0
 30
0.0
  0
ENDSEC
  0
EOF
