G04 #@! TF.GenerationSoftware,KiCad,Pcbnew,(5.1.6)-1*
G04 #@! TF.CreationDate,2023-02-24T22:08:04-06:00*
G04 #@! TF.ProjectId,EncoderBoard3(1.2),456e636f-6465-4724-926f-617264332831,v1.0*
G04 #@! TF.SameCoordinates,Original*
G04 #@! TF.FileFunction,Legend,Top*
G04 #@! TF.FilePolarity,Positive*
%FSLAX46Y46*%
G04 Gerber Fmt 4.6, Leading zero omitted, Abs format (unit mm)*
G04 Created by KiCad (PCBNEW (5.1.6)-1) date 2023-02-24 22:08:04*
%MOMM*%
%LPD*%
G01*
G04 APERTURE LIST*
%ADD10C,0.152400*%
%ADD11C,0.120000*%
%ADD12C,0.200000*%
%ADD13C,0.127000*%
%ADD14C,0.150000*%
G04 APERTURE END LIST*
D10*
X133154057Y-110773028D02*
X133154057Y-110308571D01*
X133154057Y-111535028D02*
X133154057Y-111070571D01*
X132433422Y-112826800D02*
X132433422Y-112623600D01*
X132859175Y-112536514D02*
X132859175Y-112826800D01*
X132046375Y-112826800D01*
X132046375Y-112536514D01*
X132549537Y-112275257D02*
X132549537Y-111810800D01*
X132859175Y-112043028D02*
X132239899Y-112043028D01*
X132402942Y-111433428D02*
X132402942Y-111230228D01*
X132828695Y-111143142D02*
X132828695Y-111433428D01*
X132015895Y-111433428D01*
X132015895Y-111143142D01*
X132828695Y-110700457D02*
X132015895Y-110700457D01*
X132015895Y-110555314D01*
X132054600Y-110468228D01*
X132132009Y-110410171D01*
X132209419Y-110381142D01*
X132364238Y-110352114D01*
X132480352Y-110352114D01*
X132635171Y-110381142D01*
X132712580Y-110410171D01*
X132789990Y-110468228D01*
X132828695Y-110555314D01*
X132828695Y-110700457D01*
X132828695Y-109934828D02*
X132015895Y-109934828D01*
X132015895Y-109789685D01*
X132054600Y-109702600D01*
X132132009Y-109644542D01*
X132209419Y-109615514D01*
X132364238Y-109586485D01*
X132480352Y-109586485D01*
X132635171Y-109615514D01*
X132712580Y-109644542D01*
X132789990Y-109702600D01*
X132828695Y-109789685D01*
X132828695Y-109934828D01*
X132519057Y-109325228D02*
X132519057Y-108860771D01*
X132828695Y-109093000D02*
X132209419Y-109093000D01*
X137781695Y-94961528D02*
X136968895Y-94961528D01*
X136968895Y-94816385D01*
X137007600Y-94729300D01*
X137085009Y-94671242D01*
X137162419Y-94642214D01*
X137317238Y-94613185D01*
X137433352Y-94613185D01*
X137588171Y-94642214D01*
X137665580Y-94671242D01*
X137742990Y-94729300D01*
X137781695Y-94816385D01*
X137781695Y-94961528D01*
X137472057Y-94351928D02*
X137472057Y-93887471D01*
X137781695Y-92294528D02*
X136968895Y-92294528D01*
X136968895Y-92149385D01*
X137007600Y-92062300D01*
X137085009Y-92004242D01*
X137162419Y-91975214D01*
X137317238Y-91946185D01*
X137433352Y-91946185D01*
X137588171Y-91975214D01*
X137665580Y-92004242D01*
X137742990Y-92062300D01*
X137781695Y-92149385D01*
X137781695Y-92294528D01*
X137472057Y-91684928D02*
X137472057Y-91220471D01*
X137781695Y-91452700D02*
X137162419Y-91452700D01*
X137355942Y-109791500D02*
X137355942Y-109588300D01*
X137781695Y-109501214D02*
X137781695Y-109791500D01*
X136968895Y-109791500D01*
X136968895Y-109501214D01*
X137472057Y-109239957D02*
X137472057Y-108775500D01*
X137781695Y-109007728D02*
X137162419Y-109007728D01*
X137781695Y-102441828D02*
X136968895Y-102441828D01*
X136968895Y-102296685D01*
X137007600Y-102209600D01*
X137085009Y-102151542D01*
X137162419Y-102122514D01*
X137317238Y-102093485D01*
X137433352Y-102093485D01*
X137588171Y-102122514D01*
X137665580Y-102151542D01*
X137742990Y-102209600D01*
X137781695Y-102296685D01*
X137781695Y-102441828D01*
X137472057Y-101832228D02*
X137472057Y-101367771D01*
X137781695Y-101600000D02*
X137162419Y-101600000D01*
X137781695Y-104981828D02*
X136968895Y-104981828D01*
X136968895Y-104836685D01*
X137007600Y-104749600D01*
X137085009Y-104691542D01*
X137162419Y-104662514D01*
X137317238Y-104633485D01*
X137433352Y-104633485D01*
X137588171Y-104662514D01*
X137665580Y-104691542D01*
X137742990Y-104749600D01*
X137781695Y-104836685D01*
X137781695Y-104981828D01*
X137472057Y-104372228D02*
X137472057Y-103907771D01*
X137355942Y-107251500D02*
X137355942Y-107048300D01*
X137781695Y-106961214D02*
X137781695Y-107251500D01*
X136968895Y-107251500D01*
X136968895Y-106961214D01*
X137472057Y-106699957D02*
X137472057Y-106235500D01*
X137355942Y-97459800D02*
X137355942Y-97256600D01*
X137781695Y-97169514D02*
X137781695Y-97459800D01*
X136968895Y-97459800D01*
X136968895Y-97169514D01*
X137472057Y-96908257D02*
X137472057Y-96443800D01*
X137355942Y-99885500D02*
X137355942Y-99682300D01*
X137781695Y-99595214D02*
X137781695Y-99885500D01*
X136968895Y-99885500D01*
X136968895Y-99595214D01*
X137472057Y-99333957D02*
X137472057Y-98869500D01*
X137781695Y-99101728D02*
X137162419Y-99101728D01*
X122935395Y-97198542D02*
X122122595Y-97198542D01*
X122935395Y-96850200D01*
X122122595Y-96850200D01*
X122896690Y-96588942D02*
X122935395Y-96501857D01*
X122935395Y-96356714D01*
X122896690Y-96298657D01*
X122857985Y-96269628D01*
X122780576Y-96240600D01*
X122703166Y-96240600D01*
X122625757Y-96269628D01*
X122587052Y-96298657D01*
X122548347Y-96356714D01*
X122509642Y-96472828D01*
X122470938Y-96530885D01*
X122432233Y-96559914D01*
X122354823Y-96588942D01*
X122277414Y-96588942D01*
X122200004Y-96559914D01*
X122161300Y-96530885D01*
X122122595Y-96472828D01*
X122122595Y-96327685D01*
X122161300Y-96240600D01*
X122896690Y-96008371D02*
X122935395Y-95921285D01*
X122935395Y-95776142D01*
X122896690Y-95718085D01*
X122857985Y-95689057D01*
X122780576Y-95660028D01*
X122703166Y-95660028D01*
X122625757Y-95689057D01*
X122587052Y-95718085D01*
X122548347Y-95776142D01*
X122509642Y-95892257D01*
X122470938Y-95950314D01*
X122432233Y-95979342D01*
X122354823Y-96008371D01*
X122277414Y-96008371D01*
X122200004Y-95979342D01*
X122161300Y-95950314D01*
X122122595Y-95892257D01*
X122122595Y-95747114D01*
X122161300Y-95660028D01*
X122896690Y-99767571D02*
X122935395Y-99680485D01*
X122935395Y-99535342D01*
X122896690Y-99477285D01*
X122857985Y-99448257D01*
X122780576Y-99419228D01*
X122703166Y-99419228D01*
X122625757Y-99448257D01*
X122587052Y-99477285D01*
X122548347Y-99535342D01*
X122509642Y-99651457D01*
X122470938Y-99709514D01*
X122432233Y-99738542D01*
X122354823Y-99767571D01*
X122277414Y-99767571D01*
X122200004Y-99738542D01*
X122161300Y-99709514D01*
X122122595Y-99651457D01*
X122122595Y-99506314D01*
X122161300Y-99419228D01*
X122857985Y-98809628D02*
X122896690Y-98838657D01*
X122935395Y-98925742D01*
X122935395Y-98983800D01*
X122896690Y-99070885D01*
X122819280Y-99128942D01*
X122741871Y-99157971D01*
X122587052Y-99187000D01*
X122470938Y-99187000D01*
X122316119Y-99157971D01*
X122238709Y-99128942D01*
X122161300Y-99070885D01*
X122122595Y-98983800D01*
X122122595Y-98925742D01*
X122161300Y-98838657D01*
X122200004Y-98809628D01*
X122935395Y-98548371D02*
X122122595Y-98548371D01*
X122935395Y-98200028D02*
X122470938Y-98461285D01*
X122122595Y-98200028D02*
X122587052Y-98548371D01*
X122935395Y-102354742D02*
X122122595Y-102354742D01*
X122703166Y-102151542D01*
X122122595Y-101948342D01*
X122935395Y-101948342D01*
X122935395Y-101658057D02*
X122122595Y-101658057D01*
X122896690Y-101396800D02*
X122935395Y-101309714D01*
X122935395Y-101164571D01*
X122896690Y-101106514D01*
X122857985Y-101077485D01*
X122780576Y-101048457D01*
X122703166Y-101048457D01*
X122625757Y-101077485D01*
X122587052Y-101106514D01*
X122548347Y-101164571D01*
X122509642Y-101280685D01*
X122470938Y-101338742D01*
X122432233Y-101367771D01*
X122354823Y-101396800D01*
X122277414Y-101396800D01*
X122200004Y-101367771D01*
X122161300Y-101338742D01*
X122122595Y-101280685D01*
X122122595Y-101135542D01*
X122161300Y-101048457D01*
X122122595Y-100671085D02*
X122122595Y-100554971D01*
X122161300Y-100496914D01*
X122238709Y-100438857D01*
X122393528Y-100409828D01*
X122664461Y-100409828D01*
X122819280Y-100438857D01*
X122896690Y-100496914D01*
X122935395Y-100554971D01*
X122935395Y-100671085D01*
X122896690Y-100729142D01*
X122819280Y-100787200D01*
X122664461Y-100816228D01*
X122393528Y-100816228D01*
X122238709Y-100787200D01*
X122161300Y-100729142D01*
X122122595Y-100671085D01*
X122935395Y-104894742D02*
X122122595Y-104894742D01*
X122703166Y-104691542D01*
X122122595Y-104488342D01*
X122935395Y-104488342D01*
X122122595Y-104081942D02*
X122122595Y-103965828D01*
X122161300Y-103907771D01*
X122238709Y-103849714D01*
X122393528Y-103820685D01*
X122664461Y-103820685D01*
X122819280Y-103849714D01*
X122896690Y-103907771D01*
X122935395Y-103965828D01*
X122935395Y-104081942D01*
X122896690Y-104140000D01*
X122819280Y-104198057D01*
X122664461Y-104227085D01*
X122393528Y-104227085D01*
X122238709Y-104198057D01*
X122161300Y-104140000D01*
X122122595Y-104081942D01*
X122896690Y-103588457D02*
X122935395Y-103501371D01*
X122935395Y-103356228D01*
X122896690Y-103298171D01*
X122857985Y-103269142D01*
X122780576Y-103240114D01*
X122703166Y-103240114D01*
X122625757Y-103269142D01*
X122587052Y-103298171D01*
X122548347Y-103356228D01*
X122509642Y-103472342D01*
X122470938Y-103530400D01*
X122432233Y-103559428D01*
X122354823Y-103588457D01*
X122277414Y-103588457D01*
X122200004Y-103559428D01*
X122161300Y-103530400D01*
X122122595Y-103472342D01*
X122122595Y-103327200D01*
X122161300Y-103240114D01*
X122935395Y-102978857D02*
X122122595Y-102978857D01*
X122890280Y-93297102D02*
X122928984Y-93239045D01*
X122928984Y-93151960D01*
X122890280Y-93064874D01*
X122812870Y-93006817D01*
X122735460Y-92977788D01*
X122580641Y-92948760D01*
X122464527Y-92948760D01*
X122309708Y-92977788D01*
X122232299Y-93006817D01*
X122154889Y-93064874D01*
X122116184Y-93151960D01*
X122116184Y-93210017D01*
X122154889Y-93297102D01*
X122193594Y-93326131D01*
X122464527Y-93326131D01*
X122464527Y-93210017D01*
X122116184Y-93587388D02*
X122928984Y-93587388D01*
X122116184Y-93935731D01*
X122928984Y-93935731D01*
X122116184Y-94226017D02*
X122928984Y-94226017D01*
X122928984Y-94371160D01*
X122890280Y-94458245D01*
X122812870Y-94516302D01*
X122735460Y-94545331D01*
X122580641Y-94574360D01*
X122464527Y-94574360D01*
X122309708Y-94545331D01*
X122232299Y-94516302D01*
X122154889Y-94458245D01*
X122116184Y-94371160D01*
X122116184Y-94226017D01*
X122120055Y-92416085D02*
X122120055Y-92038714D01*
X122429693Y-92241914D01*
X122429693Y-92154828D01*
X122468398Y-92096771D01*
X122507102Y-92067742D01*
X122584512Y-92038714D01*
X122778036Y-92038714D01*
X122855445Y-92067742D01*
X122894150Y-92096771D01*
X122932855Y-92154828D01*
X122932855Y-92329000D01*
X122894150Y-92387057D01*
X122855445Y-92416085D01*
X122855445Y-91777457D02*
X122894150Y-91748428D01*
X122932855Y-91777457D01*
X122894150Y-91806485D01*
X122855445Y-91777457D01*
X122932855Y-91777457D01*
X122120055Y-91545228D02*
X122120055Y-91167857D01*
X122429693Y-91371057D01*
X122429693Y-91283971D01*
X122468398Y-91225914D01*
X122507102Y-91196885D01*
X122584512Y-91167857D01*
X122778036Y-91167857D01*
X122855445Y-91196885D01*
X122894150Y-91225914D01*
X122932855Y-91283971D01*
X122932855Y-91458142D01*
X122894150Y-91516200D01*
X122855445Y-91545228D01*
X122120055Y-90993685D02*
X122932855Y-90790485D01*
X122120055Y-90587285D01*
X125760480Y-88150095D02*
X125557280Y-87763047D01*
X125412137Y-88150095D02*
X125412137Y-87337295D01*
X125644365Y-87337295D01*
X125702422Y-87376000D01*
X125731451Y-87414704D01*
X125760480Y-87492114D01*
X125760480Y-87608228D01*
X125731451Y-87685638D01*
X125702422Y-87724342D01*
X125644365Y-87763047D01*
X125412137Y-87763047D01*
X125963680Y-87337295D02*
X126370080Y-88150095D01*
X126370080Y-87337295D02*
X125963680Y-88150095D01*
X122857622Y-87337295D02*
X123205965Y-87337295D01*
X123031794Y-88150095D02*
X123031794Y-87337295D01*
X123351108Y-87337295D02*
X123757508Y-88150095D01*
X123757508Y-87337295D02*
X123351108Y-88150095D01*
X120317622Y-87376000D02*
X120259565Y-87337295D01*
X120172480Y-87337295D01*
X120085394Y-87376000D01*
X120027337Y-87453409D01*
X119998308Y-87530819D01*
X119969280Y-87685638D01*
X119969280Y-87801752D01*
X119998308Y-87956571D01*
X120027337Y-88033980D01*
X120085394Y-88111390D01*
X120172480Y-88150095D01*
X120230537Y-88150095D01*
X120317622Y-88111390D01*
X120346651Y-88072685D01*
X120346651Y-87801752D01*
X120230537Y-87801752D01*
X120607908Y-88150095D02*
X120607908Y-87337295D01*
X120956251Y-88150095D01*
X120956251Y-87337295D01*
X121246537Y-88150095D02*
X121246537Y-87337295D01*
X121391680Y-87337295D01*
X121478765Y-87376000D01*
X121536822Y-87453409D01*
X121565851Y-87530819D01*
X121594880Y-87685638D01*
X121594880Y-87801752D01*
X121565851Y-87956571D01*
X121536822Y-88033980D01*
X121478765Y-88111390D01*
X121391680Y-88150095D01*
X121246537Y-88150095D01*
X127502194Y-87337295D02*
X127879565Y-87337295D01*
X127676365Y-87646933D01*
X127763451Y-87646933D01*
X127821508Y-87685638D01*
X127850537Y-87724342D01*
X127879565Y-87801752D01*
X127879565Y-87995276D01*
X127850537Y-88072685D01*
X127821508Y-88111390D01*
X127763451Y-88150095D01*
X127589280Y-88150095D01*
X127531222Y-88111390D01*
X127502194Y-88072685D01*
X128140822Y-88072685D02*
X128169851Y-88111390D01*
X128140822Y-88150095D01*
X128111794Y-88111390D01*
X128140822Y-88072685D01*
X128140822Y-88150095D01*
X128373051Y-87337295D02*
X128750422Y-87337295D01*
X128547222Y-87646933D01*
X128634308Y-87646933D01*
X128692365Y-87685638D01*
X128721394Y-87724342D01*
X128750422Y-87801752D01*
X128750422Y-87995276D01*
X128721394Y-88072685D01*
X128692365Y-88111390D01*
X128634308Y-88150095D01*
X128460137Y-88150095D01*
X128402080Y-88111390D01*
X128373051Y-88072685D01*
X128924594Y-87337295D02*
X129127794Y-88150095D01*
X129330994Y-87337295D01*
X120258114Y-118604695D02*
X120635485Y-118604695D01*
X120432285Y-118914333D01*
X120519371Y-118914333D01*
X120577428Y-118953038D01*
X120606457Y-118991742D01*
X120635485Y-119069152D01*
X120635485Y-119262676D01*
X120606457Y-119340085D01*
X120577428Y-119378790D01*
X120519371Y-119417495D01*
X120345200Y-119417495D01*
X120287142Y-119378790D01*
X120258114Y-119340085D01*
X120896742Y-119340085D02*
X120925771Y-119378790D01*
X120896742Y-119417495D01*
X120867714Y-119378790D01*
X120896742Y-119340085D01*
X120896742Y-119417495D01*
X121128971Y-118604695D02*
X121506342Y-118604695D01*
X121303142Y-118914333D01*
X121390228Y-118914333D01*
X121448285Y-118953038D01*
X121477314Y-118991742D01*
X121506342Y-119069152D01*
X121506342Y-119262676D01*
X121477314Y-119340085D01*
X121448285Y-119378790D01*
X121390228Y-119417495D01*
X121216057Y-119417495D01*
X121158000Y-119378790D01*
X121128971Y-119340085D01*
X121680514Y-118604695D02*
X121883714Y-119417495D01*
X122086914Y-118604695D01*
X123233542Y-118643400D02*
X123175485Y-118604695D01*
X123088400Y-118604695D01*
X123001314Y-118643400D01*
X122943257Y-118720809D01*
X122914228Y-118798219D01*
X122885200Y-118953038D01*
X122885200Y-119069152D01*
X122914228Y-119223971D01*
X122943257Y-119301380D01*
X123001314Y-119378790D01*
X123088400Y-119417495D01*
X123146457Y-119417495D01*
X123233542Y-119378790D01*
X123262571Y-119340085D01*
X123262571Y-119069152D01*
X123146457Y-119069152D01*
X123523828Y-119417495D02*
X123523828Y-118604695D01*
X123872171Y-119417495D01*
X123872171Y-118604695D01*
X124162457Y-119417495D02*
X124162457Y-118604695D01*
X124307600Y-118604695D01*
X124394685Y-118643400D01*
X124452742Y-118720809D01*
X124481771Y-118798219D01*
X124510800Y-118953038D01*
X124510800Y-119069152D01*
X124481771Y-119223971D01*
X124452742Y-119301380D01*
X124394685Y-119378790D01*
X124307600Y-119417495D01*
X124162457Y-119417495D01*
X125497771Y-119378790D02*
X125584857Y-119417495D01*
X125730000Y-119417495D01*
X125788057Y-119378790D01*
X125817085Y-119340085D01*
X125846114Y-119262676D01*
X125846114Y-119185266D01*
X125817085Y-119107857D01*
X125788057Y-119069152D01*
X125730000Y-119030447D01*
X125613885Y-118991742D01*
X125555828Y-118953038D01*
X125526800Y-118914333D01*
X125497771Y-118836923D01*
X125497771Y-118759514D01*
X125526800Y-118682104D01*
X125555828Y-118643400D01*
X125613885Y-118604695D01*
X125759028Y-118604695D01*
X125846114Y-118643400D01*
X126107371Y-119417495D02*
X126107371Y-118604695D01*
X126252514Y-118604695D01*
X126339600Y-118643400D01*
X126397657Y-118720809D01*
X126426685Y-118798219D01*
X126455714Y-118953038D01*
X126455714Y-119069152D01*
X126426685Y-119223971D01*
X126397657Y-119301380D01*
X126339600Y-119378790D01*
X126252514Y-119417495D01*
X126107371Y-119417495D01*
X126687942Y-119185266D02*
X126978228Y-119185266D01*
X126629885Y-119417495D02*
X126833085Y-118604695D01*
X127036285Y-119417495D01*
X128052285Y-119378790D02*
X128139371Y-119417495D01*
X128284514Y-119417495D01*
X128342571Y-119378790D01*
X128371600Y-119340085D01*
X128400628Y-119262676D01*
X128400628Y-119185266D01*
X128371600Y-119107857D01*
X128342571Y-119069152D01*
X128284514Y-119030447D01*
X128168400Y-118991742D01*
X128110342Y-118953038D01*
X128081314Y-118914333D01*
X128052285Y-118836923D01*
X128052285Y-118759514D01*
X128081314Y-118682104D01*
X128110342Y-118643400D01*
X128168400Y-118604695D01*
X128313542Y-118604695D01*
X128400628Y-118643400D01*
X129010228Y-119340085D02*
X128981200Y-119378790D01*
X128894114Y-119417495D01*
X128836057Y-119417495D01*
X128748971Y-119378790D01*
X128690914Y-119301380D01*
X128661885Y-119223971D01*
X128632857Y-119069152D01*
X128632857Y-118953038D01*
X128661885Y-118798219D01*
X128690914Y-118720809D01*
X128748971Y-118643400D01*
X128836057Y-118604695D01*
X128894114Y-118604695D01*
X128981200Y-118643400D01*
X129010228Y-118682104D01*
X129561771Y-119417495D02*
X129271485Y-119417495D01*
X129271485Y-118604695D01*
X139172042Y-112776000D02*
X139113985Y-112737295D01*
X139026900Y-112737295D01*
X138939814Y-112776000D01*
X138881757Y-112853409D01*
X138852728Y-112930819D01*
X138823700Y-113085638D01*
X138823700Y-113201752D01*
X138852728Y-113356571D01*
X138881757Y-113433980D01*
X138939814Y-113511390D01*
X139026900Y-113550095D01*
X139084957Y-113550095D01*
X139172042Y-113511390D01*
X139201071Y-113472685D01*
X139201071Y-113201752D01*
X139084957Y-113201752D01*
X139462328Y-113550095D02*
X139462328Y-112737295D01*
X139810671Y-113550095D01*
X139810671Y-112737295D01*
X140100957Y-113550095D02*
X140100957Y-112737295D01*
X140246100Y-112737295D01*
X140333185Y-112776000D01*
X140391242Y-112853409D01*
X140420271Y-112930819D01*
X140449300Y-113085638D01*
X140449300Y-113201752D01*
X140420271Y-113356571D01*
X140391242Y-113433980D01*
X140333185Y-113511390D01*
X140246100Y-113550095D01*
X140100957Y-113550095D01*
X136733642Y-113472685D02*
X136704614Y-113511390D01*
X136617528Y-113550095D01*
X136559471Y-113550095D01*
X136472385Y-113511390D01*
X136414328Y-113433980D01*
X136385300Y-113356571D01*
X136356271Y-113201752D01*
X136356271Y-113085638D01*
X136385300Y-112930819D01*
X136414328Y-112853409D01*
X136472385Y-112776000D01*
X136559471Y-112737295D01*
X136617528Y-112737295D01*
X136704614Y-112776000D01*
X136733642Y-112814704D01*
X137285185Y-113550095D02*
X136994900Y-113550095D01*
X136994900Y-112737295D01*
X137488385Y-113550095D02*
X137488385Y-112737295D01*
X137836728Y-113550095D02*
X137575471Y-113085638D01*
X137836728Y-112737295D02*
X137488385Y-113201752D01*
X133932385Y-113550095D02*
X133932385Y-112737295D01*
X134077528Y-112737295D01*
X134164614Y-112776000D01*
X134222671Y-112853409D01*
X134251700Y-112930819D01*
X134280728Y-113085638D01*
X134280728Y-113201752D01*
X134251700Y-113356571D01*
X134222671Y-113433980D01*
X134164614Y-113511390D01*
X134077528Y-113550095D01*
X133932385Y-113550095D01*
X134541985Y-113550095D02*
X134541985Y-112737295D01*
X134948385Y-112737295D02*
X135064500Y-112737295D01*
X135122557Y-112776000D01*
X135180614Y-112853409D01*
X135209642Y-113008228D01*
X135209642Y-113279161D01*
X135180614Y-113433980D01*
X135122557Y-113511390D01*
X135064500Y-113550095D01*
X134948385Y-113550095D01*
X134890328Y-113511390D01*
X134832271Y-113433980D01*
X134803242Y-113279161D01*
X134803242Y-113008228D01*
X134832271Y-112853409D01*
X134890328Y-112776000D01*
X134948385Y-112737295D01*
X133580777Y-98854622D02*
X133667862Y-98893327D01*
X133696891Y-98932032D01*
X133725920Y-99009441D01*
X133725920Y-99125556D01*
X133696891Y-99202965D01*
X133667862Y-99241670D01*
X133609805Y-99280375D01*
X133377577Y-99280375D01*
X133377577Y-98467575D01*
X133580777Y-98467575D01*
X133638834Y-98506280D01*
X133667862Y-98544984D01*
X133696891Y-98622394D01*
X133696891Y-98699803D01*
X133667862Y-98777213D01*
X133638834Y-98815918D01*
X133580777Y-98854622D01*
X133377577Y-98854622D01*
X134103291Y-98467575D02*
X134161348Y-98467575D01*
X134219405Y-98506280D01*
X134248434Y-98544984D01*
X134277462Y-98622394D01*
X134306491Y-98777213D01*
X134306491Y-98970737D01*
X134277462Y-99125556D01*
X134248434Y-99202965D01*
X134219405Y-99241670D01*
X134161348Y-99280375D01*
X134103291Y-99280375D01*
X134045234Y-99241670D01*
X134016205Y-99202965D01*
X133987177Y-99125556D01*
X133958148Y-98970737D01*
X133958148Y-98777213D01*
X133987177Y-98622394D01*
X134016205Y-98544984D01*
X134045234Y-98506280D01*
X134103291Y-98467575D01*
X140783491Y-132082177D02*
X140551262Y-131617720D01*
X140319034Y-132082177D01*
X140783491Y-132372462D02*
X140551262Y-132836920D01*
X140319034Y-132372462D01*
X140202920Y-130088277D02*
X140164215Y-130146334D01*
X140164215Y-130233420D01*
X140202920Y-130320505D01*
X140280329Y-130378562D01*
X140357739Y-130407591D01*
X140512558Y-130436620D01*
X140628672Y-130436620D01*
X140783491Y-130407591D01*
X140860900Y-130378562D01*
X140938310Y-130320505D01*
X140977015Y-130233420D01*
X140977015Y-130175362D01*
X140938310Y-130088277D01*
X140899605Y-130059248D01*
X140628672Y-130059248D01*
X140628672Y-130175362D01*
X140977015Y-129797991D02*
X140164215Y-129797991D01*
X140977015Y-129449648D01*
X140164215Y-129449648D01*
X140977015Y-129159362D02*
X140164215Y-129159362D01*
X140164215Y-129014220D01*
X140202920Y-128927134D01*
X140280329Y-128869077D01*
X140357739Y-128840048D01*
X140512558Y-128811020D01*
X140628672Y-128811020D01*
X140783491Y-128840048D01*
X140860900Y-128869077D01*
X140938310Y-128927134D01*
X140977015Y-129014220D01*
X140977015Y-129159362D01*
X140164215Y-135389620D02*
X140977015Y-135186420D01*
X140164215Y-134983220D01*
X140899605Y-134431677D02*
X140938310Y-134460705D01*
X140977015Y-134547791D01*
X140977015Y-134605848D01*
X140938310Y-134692934D01*
X140860900Y-134750991D01*
X140783491Y-134780020D01*
X140628672Y-134809048D01*
X140512558Y-134809048D01*
X140357739Y-134780020D01*
X140280329Y-134750991D01*
X140202920Y-134692934D01*
X140164215Y-134605848D01*
X140164215Y-134547791D01*
X140202920Y-134460705D01*
X140241624Y-134431677D01*
X140899605Y-133822077D02*
X140938310Y-133851105D01*
X140977015Y-133938191D01*
X140977015Y-133996248D01*
X140938310Y-134083334D01*
X140860900Y-134141391D01*
X140783491Y-134170420D01*
X140628672Y-134199448D01*
X140512558Y-134199448D01*
X140357739Y-134170420D01*
X140280329Y-134141391D01*
X140202920Y-134083334D01*
X140164215Y-133996248D01*
X140164215Y-133938191D01*
X140202920Y-133851105D01*
X140241624Y-133822077D01*
X130069771Y-122600357D02*
X130534228Y-122600357D01*
X130302000Y-122909995D02*
X130302000Y-122290719D01*
D11*
X132513500Y-114090300D02*
X130013500Y-114090300D01*
X132513500Y-116590300D02*
X132513500Y-114090300D01*
X120493500Y-115890300D02*
X120493500Y-114390300D01*
X119493500Y-115890300D02*
X120493500Y-115890300D01*
X131213500Y-115890300D02*
X131213500Y-114390300D01*
X132213500Y-115890300D02*
X131213500Y-115890300D01*
X119993500Y-116700300D02*
X119493500Y-116700300D01*
X119993500Y-117910300D02*
X119993500Y-116700300D01*
X131713500Y-117910300D02*
X119993500Y-117910300D01*
X131713500Y-116700300D02*
X131713500Y-117910300D01*
X132213500Y-116700300D02*
X131713500Y-116700300D01*
X119493500Y-118410300D02*
X132213500Y-118410300D01*
X119493500Y-114390300D02*
X119493500Y-118410300D01*
X132213500Y-114390300D02*
X119493500Y-114390300D01*
X132213500Y-118410300D02*
X132213500Y-114390300D01*
X140083000Y-86866547D02*
X140083000Y-86524013D01*
X139063000Y-86866547D02*
X139063000Y-86524013D01*
X136704800Y-110125693D02*
X136704800Y-110468227D01*
X135684800Y-110125693D02*
X135684800Y-110468227D01*
X126274360Y-91627720D02*
X132524360Y-91627720D01*
X126274360Y-96677720D02*
X132524360Y-96677720D01*
X126274360Y-96677720D02*
G75*
G02*
X126274360Y-91627720I0J2525000D01*
G01*
X132524360Y-96677720D02*
G75*
G03*
X132524360Y-91627720I0J2525000D01*
G01*
X135694960Y-104219827D02*
X135694960Y-103877293D01*
X136714960Y-104219827D02*
X136714960Y-103877293D01*
X135175720Y-106297547D02*
X135175720Y-105955013D01*
X134155720Y-106297547D02*
X134155720Y-105955013D01*
X134145560Y-102756787D02*
X134145560Y-102414253D01*
X135165560Y-102756787D02*
X135165560Y-102414253D01*
D12*
X131796000Y-142097800D02*
G75*
G03*
X131796000Y-142097800I-100000J0D01*
G01*
D13*
X131801000Y-151097800D02*
X131801000Y-149867800D01*
X140741000Y-151097800D02*
X131801000Y-151097800D01*
X140741000Y-149867800D02*
X140741000Y-151097800D01*
X140741000Y-145687800D02*
X140741000Y-147127800D01*
X131801000Y-145687800D02*
X131801000Y-147127800D01*
D11*
X131312080Y-82759400D02*
X128812080Y-82759400D01*
X131312080Y-85259400D02*
X131312080Y-82759400D01*
X119292080Y-84559400D02*
X119292080Y-83059400D01*
X118292080Y-84559400D02*
X119292080Y-84559400D01*
X130012080Y-84559400D02*
X130012080Y-83059400D01*
X131012080Y-84559400D02*
X130012080Y-84559400D01*
X118792080Y-85369400D02*
X118292080Y-85369400D01*
X118792080Y-86579400D02*
X118792080Y-85369400D01*
X130512080Y-86579400D02*
X118792080Y-86579400D01*
X130512080Y-85369400D02*
X130512080Y-86579400D01*
X131012080Y-85369400D02*
X130512080Y-85369400D01*
X118292080Y-87079400D02*
X131012080Y-87079400D01*
X118292080Y-83059400D02*
X118292080Y-87079400D01*
X131012080Y-83059400D02*
X118292080Y-83059400D01*
X131012080Y-87079400D02*
X131012080Y-83059400D01*
X117671700Y-88453800D02*
X117671700Y-90953800D01*
X120171700Y-88453800D02*
X117671700Y-88453800D01*
X119471700Y-105473800D02*
X117971700Y-105473800D01*
X119471700Y-106473800D02*
X119471700Y-105473800D01*
X119471700Y-89753800D02*
X117971700Y-89753800D01*
X119471700Y-88753800D02*
X119471700Y-89753800D01*
X120281700Y-105973800D02*
X120281700Y-106473800D01*
X121491700Y-105973800D02*
X120281700Y-105973800D01*
X121491700Y-89253800D02*
X121491700Y-105973800D01*
X120281700Y-89253800D02*
X121491700Y-89253800D01*
X120281700Y-88753800D02*
X120281700Y-89253800D01*
X121991700Y-106473800D02*
X121991700Y-88753800D01*
X117971700Y-106473800D02*
X121991700Y-106473800D01*
X117971700Y-88753800D02*
X117971700Y-106473800D01*
X121991700Y-88753800D02*
X117971700Y-88753800D01*
X125734500Y-127882800D02*
X129754500Y-127882800D01*
X129754500Y-127882800D02*
X129754500Y-120162800D01*
X129754500Y-120162800D02*
X125734500Y-120162800D01*
X125734500Y-120162800D02*
X125734500Y-127882800D01*
X127444500Y-127882800D02*
X127444500Y-127382800D01*
X127444500Y-127382800D02*
X126234500Y-127382800D01*
X126234500Y-127382800D02*
X126234500Y-120662800D01*
X126234500Y-120662800D02*
X127444500Y-120662800D01*
X127444500Y-120662800D02*
X127444500Y-120162800D01*
X128254500Y-127882800D02*
X128254500Y-126882800D01*
X128254500Y-126882800D02*
X129754500Y-126882800D01*
X128254500Y-120162800D02*
X128254500Y-121162800D01*
X128254500Y-121162800D02*
X129754500Y-121162800D01*
X127554500Y-128182800D02*
X130054500Y-128182800D01*
X130054500Y-128182800D02*
X130054500Y-125682800D01*
X138728733Y-137843800D02*
X139071267Y-137843800D01*
X138728733Y-138863800D02*
X139071267Y-138863800D01*
X138728733Y-139494800D02*
X139071267Y-139494800D01*
X138728733Y-140514800D02*
X139071267Y-140514800D01*
X136904000Y-120540900D02*
X135444000Y-120540900D01*
X136904000Y-117380900D02*
X134744000Y-117380900D01*
X136904000Y-117380900D02*
X136904000Y-118310900D01*
X136904000Y-120540900D02*
X136904000Y-119610900D01*
X122276687Y-111008700D02*
X121934153Y-111008700D01*
X122276687Y-112028700D02*
X121934153Y-112028700D01*
X119917027Y-108735400D02*
X119574493Y-108735400D01*
X119917027Y-109755400D02*
X119574493Y-109755400D01*
X119571953Y-107170760D02*
X119914487Y-107170760D01*
X119571953Y-108190760D02*
X119914487Y-108190760D01*
D12*
X130861000Y-136457300D02*
X130861000Y-135257300D01*
X133911000Y-134907300D02*
X131011000Y-134907300D01*
X133911000Y-134307300D02*
X133911000Y-134907300D01*
X131011000Y-134307300D02*
X133911000Y-134307300D01*
X131011000Y-134907300D02*
X131011000Y-134307300D01*
X131139000Y-137073800D02*
X132339000Y-137073800D01*
X132689000Y-140123800D02*
X132689000Y-137223800D01*
X133289000Y-140123800D02*
X132689000Y-140123800D01*
X133289000Y-137223800D02*
X133289000Y-140123800D01*
X132689000Y-137223800D02*
X133289000Y-137223800D01*
D11*
X123336233Y-125143800D02*
X123678767Y-125143800D01*
X123336233Y-126163800D02*
X123678767Y-126163800D01*
X131955000Y-122053533D02*
X131955000Y-122396067D01*
X130935000Y-122053533D02*
X130935000Y-122396067D01*
X129411000Y-131603567D02*
X129411000Y-131261033D01*
X130431000Y-131603567D02*
X130431000Y-131261033D01*
X120884767Y-136637300D02*
X120542233Y-136637300D01*
X120884767Y-137657300D02*
X120542233Y-137657300D01*
X122684000Y-120136800D02*
X124144000Y-120136800D01*
X122684000Y-123296800D02*
X124844000Y-123296800D01*
X122684000Y-123296800D02*
X122684000Y-122366800D01*
X122684000Y-120136800D02*
X122684000Y-121066800D01*
D12*
X130861000Y-131357300D02*
X130861000Y-130157300D01*
X133911000Y-129807300D02*
X131011000Y-129807300D01*
X133911000Y-129207300D02*
X133911000Y-129807300D01*
X131011000Y-129207300D02*
X133911000Y-129207300D01*
X131011000Y-129807300D02*
X131011000Y-129207300D01*
X120140500Y-135796300D02*
X120140500Y-134271300D01*
D11*
X130935000Y-125482533D02*
X130935000Y-125825067D01*
X131955000Y-125482533D02*
X131955000Y-125825067D01*
D10*
X137337800Y-124256800D02*
X137337800Y-124079000D01*
X135001000Y-124256800D02*
X137337800Y-124256800D01*
X135001000Y-121920000D02*
X135001000Y-122097800D01*
X137337800Y-121920000D02*
X135001000Y-121920000D01*
X137337800Y-122097800D02*
X137337800Y-121920000D01*
X135001000Y-124079000D02*
X135001000Y-124256800D01*
D11*
X135959667Y-126138400D02*
X135617133Y-126138400D01*
X135959667Y-125118400D02*
X135617133Y-125118400D01*
X140006800Y-124859867D02*
X140006800Y-124517333D01*
X138986800Y-124859867D02*
X138986800Y-124517333D01*
X134139400Y-123259667D02*
X134139400Y-122917133D01*
X133119400Y-123259667D02*
X133119400Y-122917133D01*
X139274733Y-122506200D02*
X139617267Y-122506200D01*
X139274733Y-121486200D02*
X139617267Y-121486200D01*
X125388553Y-113527300D02*
X125731087Y-113527300D01*
X125388553Y-112507300D02*
X125731087Y-112507300D01*
X130872413Y-90911140D02*
X131214947Y-90911140D01*
X130872413Y-89891140D02*
X131214947Y-89891140D01*
X133569893Y-97285080D02*
X133912427Y-97285080D01*
X133569893Y-98305080D02*
X133912427Y-98305080D01*
X125388553Y-112003300D02*
X125731087Y-112003300D01*
X125388553Y-110983300D02*
X125731087Y-110983300D01*
X122276687Y-112532700D02*
X121934153Y-112532700D01*
X122276687Y-113552700D02*
X121934153Y-113552700D01*
X126363913Y-90974640D02*
X126706447Y-90974640D01*
X126363913Y-89954640D02*
X126706447Y-89954640D01*
X130473267Y-97285080D02*
X130130733Y-97285080D01*
X130473267Y-98305080D02*
X130130733Y-98305080D01*
X125266267Y-97285080D02*
X124923733Y-97285080D01*
X125266267Y-98305080D02*
X124923733Y-98305080D01*
X133353500Y-116544400D02*
X133353500Y-115214400D01*
X134683500Y-116544400D02*
X133353500Y-116544400D01*
X135953500Y-116544400D02*
X135953500Y-113884400D01*
X135953500Y-113884400D02*
X141093500Y-113884400D01*
X135953500Y-116544400D02*
X141093500Y-116544400D01*
X141093500Y-116544400D02*
X141093500Y-113884400D01*
X127572953Y-136622060D02*
X127915487Y-136622060D01*
X127572953Y-137642060D02*
X127915487Y-137642060D01*
X139897000Y-137428400D02*
X139897000Y-134928400D01*
X137397000Y-137428400D02*
X139897000Y-137428400D01*
X138097000Y-127908400D02*
X139597000Y-127908400D01*
X138097000Y-126908400D02*
X138097000Y-127908400D01*
X138097000Y-136128400D02*
X139597000Y-136128400D01*
X138097000Y-137128400D02*
X138097000Y-136128400D01*
X137287000Y-127408400D02*
X137287000Y-126908400D01*
X136077000Y-127408400D02*
X137287000Y-127408400D01*
X136077000Y-136628400D02*
X136077000Y-127408400D01*
X137287000Y-136628400D02*
X136077000Y-136628400D01*
X137287000Y-137128400D02*
X137287000Y-136628400D01*
X135577000Y-126908400D02*
X135577000Y-137128400D01*
X139597000Y-126908400D02*
X135577000Y-126908400D01*
X139597000Y-137128400D02*
X139597000Y-126908400D01*
X135577000Y-137128400D02*
X139597000Y-137128400D01*
X121538000Y-120094800D02*
X121538000Y-125494800D01*
X118238000Y-120094800D02*
X118238000Y-125494800D01*
X121538000Y-120094800D02*
X118238000Y-120094800D01*
X131694300Y-101279300D02*
X131694300Y-99964300D01*
X131994300Y-101279300D02*
X131694300Y-101279300D01*
X131994300Y-101579300D02*
X131994300Y-101279300D01*
X131994300Y-108499300D02*
X131694300Y-108499300D01*
X131994300Y-108199300D02*
X131994300Y-108499300D01*
X124774300Y-101279300D02*
X125074300Y-101279300D01*
X124774300Y-101579300D02*
X124774300Y-101279300D01*
X124774300Y-108499300D02*
X125074300Y-108499300D01*
X124774300Y-108199300D02*
X124774300Y-108499300D01*
X141607000Y-84283367D02*
X141607000Y-83940833D01*
X140587000Y-84283367D02*
X140587000Y-83940833D01*
X135694960Y-100458453D02*
X135694960Y-100800987D01*
X136714960Y-100458453D02*
X136714960Y-100800987D01*
X141486200Y-89388800D02*
X137466200Y-89388800D01*
X137466200Y-89388800D02*
X137466200Y-112108800D01*
X137466200Y-112108800D02*
X141486200Y-112108800D01*
X141486200Y-112108800D02*
X141486200Y-89388800D01*
X139776200Y-89388800D02*
X139776200Y-89888800D01*
X139776200Y-89888800D02*
X140986200Y-89888800D01*
X140986200Y-89888800D02*
X140986200Y-111608800D01*
X140986200Y-111608800D02*
X139776200Y-111608800D01*
X139776200Y-111608800D02*
X139776200Y-112108800D01*
X138966200Y-89388800D02*
X138966200Y-90388800D01*
X138966200Y-90388800D02*
X137466200Y-90388800D01*
X138966200Y-112108800D02*
X138966200Y-111108800D01*
X138966200Y-111108800D02*
X137466200Y-111108800D01*
X139666200Y-89088800D02*
X137166200Y-89088800D01*
X137166200Y-89088800D02*
X137166200Y-91588800D01*
X136730200Y-94938667D02*
X136730200Y-94596133D01*
X135710200Y-94938667D02*
X135710200Y-94596133D01*
D10*
X117779800Y-116191695D02*
X117779800Y-116772266D01*
X117750771Y-116888380D01*
X117692714Y-116965790D01*
X117605628Y-117004495D01*
X117547571Y-117004495D01*
X118012028Y-116191695D02*
X118389400Y-116191695D01*
X118186200Y-116501333D01*
X118273285Y-116501333D01*
X118331342Y-116540038D01*
X118360371Y-116578742D01*
X118389400Y-116656152D01*
X118389400Y-116849676D01*
X118360371Y-116927085D01*
X118331342Y-116965790D01*
X118273285Y-117004495D01*
X118099114Y-117004495D01*
X118041057Y-116965790D01*
X118012028Y-116927085D01*
X139953395Y-84688680D02*
X139566347Y-84891880D01*
X139953395Y-85037022D02*
X139140595Y-85037022D01*
X139140595Y-84804794D01*
X139179300Y-84746737D01*
X139218004Y-84717708D01*
X139295414Y-84688680D01*
X139411528Y-84688680D01*
X139488938Y-84717708D01*
X139527642Y-84746737D01*
X139566347Y-84804794D01*
X139566347Y-85037022D01*
X139218004Y-84456451D02*
X139179300Y-84427422D01*
X139140595Y-84369365D01*
X139140595Y-84224222D01*
X139179300Y-84166165D01*
X139218004Y-84137137D01*
X139295414Y-84108108D01*
X139372823Y-84108108D01*
X139488938Y-84137137D01*
X139953395Y-84485480D01*
X139953395Y-84108108D01*
X135546495Y-110335060D02*
X135159447Y-110538260D01*
X135546495Y-110683402D02*
X134733695Y-110683402D01*
X134733695Y-110451174D01*
X134772400Y-110393117D01*
X134811104Y-110364088D01*
X134888514Y-110335060D01*
X135004628Y-110335060D01*
X135082038Y-110364088D01*
X135120742Y-110393117D01*
X135159447Y-110451174D01*
X135159447Y-110683402D01*
X134733695Y-109812545D02*
X134733695Y-109928660D01*
X134772400Y-109986717D01*
X134811104Y-110015745D01*
X134927219Y-110073802D01*
X135082038Y-110102831D01*
X135391676Y-110102831D01*
X135469085Y-110073802D01*
X135507790Y-110044774D01*
X135546495Y-109986717D01*
X135546495Y-109870602D01*
X135507790Y-109812545D01*
X135469085Y-109783517D01*
X135391676Y-109754488D01*
X135198152Y-109754488D01*
X135120742Y-109783517D01*
X135082038Y-109812545D01*
X135043333Y-109870602D01*
X135043333Y-109986717D01*
X135082038Y-110044774D01*
X135120742Y-110073802D01*
X135198152Y-110102831D01*
D14*
X128769169Y-94128910D02*
X128769169Y-94605100D01*
X128435836Y-93605100D02*
X128769169Y-94128910D01*
X129102502Y-93605100D01*
X129959645Y-94605100D02*
X129388217Y-94605100D01*
X129673931Y-94605100D02*
X129673931Y-93605100D01*
X129578693Y-93747958D01*
X129483455Y-93843196D01*
X129388217Y-93890815D01*
D10*
X136572655Y-106263440D02*
X136185607Y-106466640D01*
X136572655Y-106611782D02*
X135759855Y-106611782D01*
X135759855Y-106379554D01*
X135798560Y-106321497D01*
X135837264Y-106292468D01*
X135914674Y-106263440D01*
X136030788Y-106263440D01*
X136108198Y-106292468D01*
X136146902Y-106321497D01*
X136185607Y-106379554D01*
X136185607Y-106611782D01*
X135759855Y-105711897D02*
X135759855Y-106002182D01*
X136146902Y-106031211D01*
X136108198Y-106002182D01*
X136069493Y-105944125D01*
X136069493Y-105798982D01*
X136108198Y-105740925D01*
X136146902Y-105711897D01*
X136224312Y-105682868D01*
X136417836Y-105682868D01*
X136495245Y-105711897D01*
X136533950Y-105740925D01*
X136572655Y-105798982D01*
X136572655Y-105944125D01*
X136533950Y-106002182D01*
X136495245Y-106031211D01*
X135001725Y-108625640D02*
X135040430Y-108654668D01*
X135079135Y-108741754D01*
X135079135Y-108799811D01*
X135040430Y-108886897D01*
X134963020Y-108944954D01*
X134885611Y-108973982D01*
X134730792Y-109003011D01*
X134614678Y-109003011D01*
X134459859Y-108973982D01*
X134382449Y-108944954D01*
X134305040Y-108886897D01*
X134266335Y-108799811D01*
X134266335Y-108741754D01*
X134305040Y-108654668D01*
X134343744Y-108625640D01*
X134343744Y-108393411D02*
X134305040Y-108364382D01*
X134266335Y-108306325D01*
X134266335Y-108161182D01*
X134305040Y-108103125D01*
X134343744Y-108074097D01*
X134421154Y-108045068D01*
X134498563Y-108045068D01*
X134614678Y-108074097D01*
X135079135Y-108422440D01*
X135079135Y-108045068D01*
X134148285Y-100355400D02*
X134186990Y-100384428D01*
X134225695Y-100471514D01*
X134225695Y-100529571D01*
X134186990Y-100616657D01*
X134109580Y-100674714D01*
X134032171Y-100703742D01*
X133877352Y-100732771D01*
X133761238Y-100732771D01*
X133606419Y-100703742D01*
X133529009Y-100674714D01*
X133451600Y-100616657D01*
X133412895Y-100529571D01*
X133412895Y-100471514D01*
X133451600Y-100384428D01*
X133490304Y-100355400D01*
X134225695Y-99774828D02*
X134225695Y-100123171D01*
X134225695Y-99949000D02*
X133412895Y-99949000D01*
X133529009Y-100007057D01*
X133606419Y-100065114D01*
X133645123Y-100123171D01*
X135694057Y-149008495D02*
X135694057Y-148195695D01*
X135926285Y-148195695D01*
X135984342Y-148234400D01*
X136013371Y-148273104D01*
X136042400Y-148350514D01*
X136042400Y-148466628D01*
X136013371Y-148544038D01*
X135984342Y-148582742D01*
X135926285Y-148621447D01*
X135694057Y-148621447D01*
X136622971Y-149008495D02*
X136274628Y-149008495D01*
X136448800Y-149008495D02*
X136448800Y-148195695D01*
X136390742Y-148311809D01*
X136332685Y-148389219D01*
X136274628Y-148427923D01*
X131714240Y-82658615D02*
X131714240Y-83239186D01*
X131685211Y-83355300D01*
X131627154Y-83432710D01*
X131540068Y-83471415D01*
X131482011Y-83471415D01*
X132265782Y-82929548D02*
X132265782Y-83471415D01*
X132120640Y-82619910D02*
X131975497Y-83200481D01*
X132352868Y-83200481D01*
X122503595Y-89027000D02*
X123084166Y-89027000D01*
X123200280Y-89056028D01*
X123277690Y-89114085D01*
X123316395Y-89201171D01*
X123316395Y-89259228D01*
X122503595Y-88475457D02*
X122503595Y-88591571D01*
X122542300Y-88649628D01*
X122581004Y-88678657D01*
X122697119Y-88736714D01*
X122851938Y-88765742D01*
X123161576Y-88765742D01*
X123238985Y-88736714D01*
X123277690Y-88707685D01*
X123316395Y-88649628D01*
X123316395Y-88533514D01*
X123277690Y-88475457D01*
X123238985Y-88446428D01*
X123161576Y-88417400D01*
X122968052Y-88417400D01*
X122890642Y-88446428D01*
X122851938Y-88475457D01*
X122813233Y-88533514D01*
X122813233Y-88649628D01*
X122851938Y-88707685D01*
X122890642Y-88736714D01*
X122968052Y-88765742D01*
X126999395Y-129032000D02*
X127579966Y-129032000D01*
X127696080Y-129061028D01*
X127773490Y-129119085D01*
X127812195Y-129206171D01*
X127812195Y-129264228D01*
X127347738Y-128654628D02*
X127309033Y-128712685D01*
X127270328Y-128741714D01*
X127192919Y-128770742D01*
X127154214Y-128770742D01*
X127076804Y-128741714D01*
X127038100Y-128712685D01*
X126999395Y-128654628D01*
X126999395Y-128538514D01*
X127038100Y-128480457D01*
X127076804Y-128451428D01*
X127154214Y-128422400D01*
X127192919Y-128422400D01*
X127270328Y-128451428D01*
X127309033Y-128480457D01*
X127347738Y-128538514D01*
X127347738Y-128654628D01*
X127386442Y-128712685D01*
X127425147Y-128741714D01*
X127502557Y-128770742D01*
X127657376Y-128770742D01*
X127734785Y-128741714D01*
X127773490Y-128712685D01*
X127812195Y-128654628D01*
X127812195Y-128538514D01*
X127773490Y-128480457D01*
X127734785Y-128451428D01*
X127657376Y-128422400D01*
X127502557Y-128422400D01*
X127425147Y-128451428D01*
X127386442Y-128480457D01*
X127347738Y-128538514D01*
X135752114Y-138848495D02*
X135548914Y-138461447D01*
X135403771Y-138848495D02*
X135403771Y-138035695D01*
X135636000Y-138035695D01*
X135694057Y-138074400D01*
X135723085Y-138113104D01*
X135752114Y-138190514D01*
X135752114Y-138306628D01*
X135723085Y-138384038D01*
X135694057Y-138422742D01*
X135636000Y-138461447D01*
X135403771Y-138461447D01*
X136332685Y-138848495D02*
X135984342Y-138848495D01*
X136158514Y-138848495D02*
X136158514Y-138035695D01*
X136100457Y-138151809D01*
X136042400Y-138229219D01*
X135984342Y-138267923D01*
X136710057Y-138035695D02*
X136768114Y-138035695D01*
X136826171Y-138074400D01*
X136855200Y-138113104D01*
X136884228Y-138190514D01*
X136913257Y-138345333D01*
X136913257Y-138538857D01*
X136884228Y-138693676D01*
X136855200Y-138771085D01*
X136826171Y-138809790D01*
X136768114Y-138848495D01*
X136710057Y-138848495D01*
X136652000Y-138809790D01*
X136622971Y-138771085D01*
X136593942Y-138693676D01*
X136564914Y-138538857D01*
X136564914Y-138345333D01*
X136593942Y-138190514D01*
X136622971Y-138113104D01*
X136652000Y-138074400D01*
X136710057Y-138035695D01*
X135752114Y-140499495D02*
X135548914Y-140112447D01*
X135403771Y-140499495D02*
X135403771Y-139686695D01*
X135636000Y-139686695D01*
X135694057Y-139725400D01*
X135723085Y-139764104D01*
X135752114Y-139841514D01*
X135752114Y-139957628D01*
X135723085Y-140035038D01*
X135694057Y-140073742D01*
X135636000Y-140112447D01*
X135403771Y-140112447D01*
X136332685Y-140499495D02*
X135984342Y-140499495D01*
X136158514Y-140499495D02*
X136158514Y-139686695D01*
X136100457Y-139802809D01*
X136042400Y-139880219D01*
X135984342Y-139918923D01*
X136913257Y-140499495D02*
X136564914Y-140499495D01*
X136739085Y-140499495D02*
X136739085Y-139686695D01*
X136681028Y-139802809D01*
X136622971Y-139880219D01*
X136564914Y-139918923D01*
X133609442Y-118390004D02*
X133551385Y-118351300D01*
X133493328Y-118273890D01*
X133406242Y-118157776D01*
X133348185Y-118119071D01*
X133290128Y-118119071D01*
X133319157Y-118312595D02*
X133261100Y-118273890D01*
X133203042Y-118196480D01*
X133174014Y-118041661D01*
X133174014Y-117770728D01*
X133203042Y-117615909D01*
X133261100Y-117538500D01*
X133319157Y-117499795D01*
X133435271Y-117499795D01*
X133493328Y-117538500D01*
X133551385Y-117615909D01*
X133580414Y-117770728D01*
X133580414Y-118041661D01*
X133551385Y-118196480D01*
X133493328Y-118273890D01*
X133435271Y-118312595D01*
X133319157Y-118312595D01*
X134160985Y-118312595D02*
X133812642Y-118312595D01*
X133986814Y-118312595D02*
X133986814Y-117499795D01*
X133928757Y-117615909D01*
X133870700Y-117693319D01*
X133812642Y-117732023D01*
X119659400Y-111593085D02*
X119630371Y-111631790D01*
X119543285Y-111670495D01*
X119485228Y-111670495D01*
X119398142Y-111631790D01*
X119340085Y-111554380D01*
X119311057Y-111476971D01*
X119282028Y-111322152D01*
X119282028Y-111206038D01*
X119311057Y-111051219D01*
X119340085Y-110973809D01*
X119398142Y-110896400D01*
X119485228Y-110857695D01*
X119543285Y-110857695D01*
X119630371Y-110896400D01*
X119659400Y-110935104D01*
X119949685Y-111670495D02*
X120065800Y-111670495D01*
X120123857Y-111631790D01*
X120152885Y-111593085D01*
X120210942Y-111476971D01*
X120239971Y-111322152D01*
X120239971Y-111012514D01*
X120210942Y-110935104D01*
X120181914Y-110896400D01*
X120123857Y-110857695D01*
X120007742Y-110857695D01*
X119949685Y-110896400D01*
X119920657Y-110935104D01*
X119891628Y-111012514D01*
X119891628Y-111206038D01*
X119920657Y-111283447D01*
X119949685Y-111322152D01*
X120007742Y-111360857D01*
X120123857Y-111360857D01*
X120181914Y-111322152D01*
X120210942Y-111283447D01*
X120239971Y-111206038D01*
X121803160Y-109613095D02*
X121599960Y-109226047D01*
X121454817Y-109613095D02*
X121454817Y-108800295D01*
X121687045Y-108800295D01*
X121745102Y-108839000D01*
X121774131Y-108877704D01*
X121803160Y-108955114D01*
X121803160Y-109071228D01*
X121774131Y-109148638D01*
X121745102Y-109187342D01*
X121687045Y-109226047D01*
X121454817Y-109226047D01*
X122093445Y-109613095D02*
X122209560Y-109613095D01*
X122267617Y-109574390D01*
X122296645Y-109535685D01*
X122354702Y-109419571D01*
X122383731Y-109264752D01*
X122383731Y-108955114D01*
X122354702Y-108877704D01*
X122325674Y-108839000D01*
X122267617Y-108800295D01*
X122151502Y-108800295D01*
X122093445Y-108839000D01*
X122064417Y-108877704D01*
X122035388Y-108955114D01*
X122035388Y-109148638D01*
X122064417Y-109226047D01*
X122093445Y-109264752D01*
X122151502Y-109303457D01*
X122267617Y-109303457D01*
X122325674Y-109264752D01*
X122354702Y-109226047D01*
X122383731Y-109148638D01*
X121800620Y-108048455D02*
X121597420Y-107661407D01*
X121452277Y-108048455D02*
X121452277Y-107235655D01*
X121684505Y-107235655D01*
X121742562Y-107274360D01*
X121771591Y-107313064D01*
X121800620Y-107390474D01*
X121800620Y-107506588D01*
X121771591Y-107583998D01*
X121742562Y-107622702D01*
X121684505Y-107661407D01*
X121452277Y-107661407D01*
X122148962Y-107583998D02*
X122090905Y-107545293D01*
X122061877Y-107506588D01*
X122032848Y-107429179D01*
X122032848Y-107390474D01*
X122061877Y-107313064D01*
X122090905Y-107274360D01*
X122148962Y-107235655D01*
X122265077Y-107235655D01*
X122323134Y-107274360D01*
X122352162Y-107313064D01*
X122381191Y-107390474D01*
X122381191Y-107429179D01*
X122352162Y-107506588D01*
X122323134Y-107545293D01*
X122265077Y-107583998D01*
X122148962Y-107583998D01*
X122090905Y-107622702D01*
X122061877Y-107661407D01*
X122032848Y-107738817D01*
X122032848Y-107893636D01*
X122061877Y-107971045D01*
X122090905Y-108009750D01*
X122148962Y-108048455D01*
X122265077Y-108048455D01*
X122323134Y-108009750D01*
X122352162Y-107971045D01*
X122381191Y-107893636D01*
X122381191Y-107738817D01*
X122352162Y-107661407D01*
X122323134Y-107622702D01*
X122265077Y-107583998D01*
X134428895Y-135135257D02*
X135086876Y-135135257D01*
X135164285Y-135106228D01*
X135202990Y-135077200D01*
X135241695Y-135019142D01*
X135241695Y-134903028D01*
X135202990Y-134844971D01*
X135164285Y-134815942D01*
X135086876Y-134786914D01*
X134428895Y-134786914D01*
X134428895Y-134235371D02*
X134428895Y-134351485D01*
X134467600Y-134409542D01*
X134506304Y-134438571D01*
X134622419Y-134496628D01*
X134777238Y-134525657D01*
X135086876Y-134525657D01*
X135164285Y-134496628D01*
X135202990Y-134467600D01*
X135241695Y-134409542D01*
X135241695Y-134293428D01*
X135202990Y-134235371D01*
X135164285Y-134206342D01*
X135086876Y-134177314D01*
X134893352Y-134177314D01*
X134815942Y-134206342D01*
X134777238Y-134235371D01*
X134738533Y-134293428D01*
X134738533Y-134409542D01*
X134777238Y-134467600D01*
X134815942Y-134496628D01*
X134893352Y-134525657D01*
X129837542Y-138226195D02*
X129837542Y-138884176D01*
X129866571Y-138961585D01*
X129895600Y-139000290D01*
X129953657Y-139038995D01*
X130069771Y-139038995D01*
X130127828Y-139000290D01*
X130156857Y-138961585D01*
X130185885Y-138884176D01*
X130185885Y-138226195D01*
X130737428Y-138497128D02*
X130737428Y-139038995D01*
X130592285Y-138187490D02*
X130447142Y-138768061D01*
X130824514Y-138768061D01*
X122226614Y-127418495D02*
X122023414Y-127031447D01*
X121878271Y-127418495D02*
X121878271Y-126605695D01*
X122110500Y-126605695D01*
X122168557Y-126644400D01*
X122197585Y-126683104D01*
X122226614Y-126760514D01*
X122226614Y-126876628D01*
X122197585Y-126954038D01*
X122168557Y-126992742D01*
X122110500Y-127031447D01*
X121878271Y-127031447D01*
X122807185Y-127418495D02*
X122458842Y-127418495D01*
X122633014Y-127418495D02*
X122633014Y-126605695D01*
X122574957Y-126721809D01*
X122516900Y-126799219D01*
X122458842Y-126837923D01*
X123358728Y-126605695D02*
X123068442Y-126605695D01*
X123039414Y-126992742D01*
X123068442Y-126954038D01*
X123126500Y-126915333D01*
X123271642Y-126915333D01*
X123329700Y-126954038D01*
X123358728Y-126992742D01*
X123387757Y-127070152D01*
X123387757Y-127263676D01*
X123358728Y-127341085D01*
X123329700Y-127379790D01*
X123271642Y-127418495D01*
X123126500Y-127418495D01*
X123068442Y-127379790D01*
X123039414Y-127341085D01*
X131812695Y-120203685D02*
X131425647Y-120406885D01*
X131812695Y-120552028D02*
X130999895Y-120552028D01*
X130999895Y-120319800D01*
X131038600Y-120261742D01*
X131077304Y-120232714D01*
X131154714Y-120203685D01*
X131270828Y-120203685D01*
X131348238Y-120232714D01*
X131386942Y-120261742D01*
X131425647Y-120319800D01*
X131425647Y-120552028D01*
X131812695Y-119623114D02*
X131812695Y-119971457D01*
X131812695Y-119797285D02*
X130999895Y-119797285D01*
X131116009Y-119855342D01*
X131193419Y-119913400D01*
X131232123Y-119971457D01*
X130999895Y-119419914D02*
X130999895Y-119042542D01*
X131309533Y-119245742D01*
X131309533Y-119158657D01*
X131348238Y-119100600D01*
X131386942Y-119071571D01*
X131464352Y-119042542D01*
X131657876Y-119042542D01*
X131735285Y-119071571D01*
X131773990Y-119100600D01*
X131812695Y-119158657D01*
X131812695Y-119332828D01*
X131773990Y-119390885D01*
X131735285Y-119419914D01*
X129018695Y-131824185D02*
X128631647Y-132027385D01*
X129018695Y-132172528D02*
X128205895Y-132172528D01*
X128205895Y-131940300D01*
X128244600Y-131882242D01*
X128283304Y-131853214D01*
X128360714Y-131824185D01*
X128476828Y-131824185D01*
X128554238Y-131853214D01*
X128592942Y-131882242D01*
X128631647Y-131940300D01*
X128631647Y-132172528D01*
X129018695Y-131243614D02*
X129018695Y-131591957D01*
X129018695Y-131417785D02*
X128205895Y-131417785D01*
X128322009Y-131475842D01*
X128399419Y-131533900D01*
X128438123Y-131591957D01*
X128476828Y-130721100D02*
X129018695Y-130721100D01*
X128167190Y-130866242D02*
X128747761Y-131011385D01*
X128747761Y-130634014D01*
X119496114Y-139927995D02*
X119292914Y-139540947D01*
X119147771Y-139927995D02*
X119147771Y-139115195D01*
X119380000Y-139115195D01*
X119438057Y-139153900D01*
X119467085Y-139192604D01*
X119496114Y-139270014D01*
X119496114Y-139386128D01*
X119467085Y-139463538D01*
X119438057Y-139502242D01*
X119380000Y-139540947D01*
X119147771Y-139540947D01*
X120076685Y-139927995D02*
X119728342Y-139927995D01*
X119902514Y-139927995D02*
X119902514Y-139115195D01*
X119844457Y-139231309D01*
X119786400Y-139308719D01*
X119728342Y-139347423D01*
X120599200Y-139115195D02*
X120483085Y-139115195D01*
X120425028Y-139153900D01*
X120396000Y-139192604D01*
X120337942Y-139308719D01*
X120308914Y-139463538D01*
X120308914Y-139773176D01*
X120337942Y-139850585D01*
X120366971Y-139889290D01*
X120425028Y-139927995D01*
X120541142Y-139927995D01*
X120599200Y-139889290D01*
X120628228Y-139850585D01*
X120657257Y-139773176D01*
X120657257Y-139579652D01*
X120628228Y-139502242D01*
X120599200Y-139463538D01*
X120541142Y-139424833D01*
X120425028Y-139424833D01*
X120366971Y-139463538D01*
X120337942Y-139502242D01*
X120308914Y-139579652D01*
X122242942Y-124447904D02*
X122184885Y-124409200D01*
X122126828Y-124331790D01*
X122039742Y-124215676D01*
X121981685Y-124176971D01*
X121923628Y-124176971D01*
X121952657Y-124370495D02*
X121894600Y-124331790D01*
X121836542Y-124254380D01*
X121807514Y-124099561D01*
X121807514Y-123828628D01*
X121836542Y-123673809D01*
X121894600Y-123596400D01*
X121952657Y-123557695D01*
X122068771Y-123557695D01*
X122126828Y-123596400D01*
X122184885Y-123673809D01*
X122213914Y-123828628D01*
X122213914Y-124099561D01*
X122184885Y-124254380D01*
X122126828Y-124331790D01*
X122068771Y-124370495D01*
X121952657Y-124370495D01*
X122446142Y-123635104D02*
X122475171Y-123596400D01*
X122533228Y-123557695D01*
X122678371Y-123557695D01*
X122736428Y-123596400D01*
X122765457Y-123635104D01*
X122794485Y-123712514D01*
X122794485Y-123789923D01*
X122765457Y-123906038D01*
X122417114Y-124370495D01*
X122794485Y-124370495D01*
X134428895Y-130055257D02*
X135086876Y-130055257D01*
X135164285Y-130026228D01*
X135202990Y-129997200D01*
X135241695Y-129939142D01*
X135241695Y-129823028D01*
X135202990Y-129764971D01*
X135164285Y-129735942D01*
X135086876Y-129706914D01*
X134428895Y-129706914D01*
X134428895Y-129126342D02*
X134428895Y-129416628D01*
X134815942Y-129445657D01*
X134777238Y-129416628D01*
X134738533Y-129358571D01*
X134738533Y-129213428D01*
X134777238Y-129155371D01*
X134815942Y-129126342D01*
X134893352Y-129097314D01*
X135086876Y-129097314D01*
X135164285Y-129126342D01*
X135202990Y-129155371D01*
X135241695Y-129213428D01*
X135241695Y-129358571D01*
X135202990Y-129416628D01*
X135164285Y-129445657D01*
X118998395Y-134055757D02*
X119656376Y-134055757D01*
X119733785Y-134026728D01*
X119772490Y-133997700D01*
X119811195Y-133939642D01*
X119811195Y-133823528D01*
X119772490Y-133765471D01*
X119733785Y-133736442D01*
X119656376Y-133707414D01*
X118998395Y-133707414D01*
X118998395Y-133475185D02*
X118998395Y-133068785D01*
X119811195Y-133330042D01*
X132814785Y-126045685D02*
X132853490Y-126074714D01*
X132892195Y-126161800D01*
X132892195Y-126219857D01*
X132853490Y-126306942D01*
X132776080Y-126365000D01*
X132698671Y-126394028D01*
X132543852Y-126423057D01*
X132427738Y-126423057D01*
X132272919Y-126394028D01*
X132195509Y-126365000D01*
X132118100Y-126306942D01*
X132079395Y-126219857D01*
X132079395Y-126161800D01*
X132118100Y-126074714D01*
X132156804Y-126045685D01*
X132892195Y-125465114D02*
X132892195Y-125813457D01*
X132892195Y-125639285D02*
X132079395Y-125639285D01*
X132195509Y-125697342D01*
X132272919Y-125755400D01*
X132311623Y-125813457D01*
X132350328Y-124942600D02*
X132892195Y-124942600D01*
X132040690Y-125087742D02*
X132621261Y-125232885D01*
X132621261Y-124855514D01*
X136593942Y-120865295D02*
X136593942Y-121523276D01*
X136622971Y-121600685D01*
X136652000Y-121639390D01*
X136710057Y-121678095D01*
X136826171Y-121678095D01*
X136884228Y-121639390D01*
X136913257Y-121600685D01*
X136942285Y-121523276D01*
X136942285Y-120865295D01*
X137174514Y-120865295D02*
X137551885Y-120865295D01*
X137348685Y-121174933D01*
X137435771Y-121174933D01*
X137493828Y-121213638D01*
X137522857Y-121252342D01*
X137551885Y-121329752D01*
X137551885Y-121523276D01*
X137522857Y-121600685D01*
X137493828Y-121639390D01*
X137435771Y-121678095D01*
X137261600Y-121678095D01*
X137203542Y-121639390D01*
X137174514Y-121600685D01*
X138431935Y-125944085D02*
X138044887Y-126147285D01*
X138431935Y-126292428D02*
X137619135Y-126292428D01*
X137619135Y-126060200D01*
X137657840Y-126002142D01*
X137696544Y-125973114D01*
X137773954Y-125944085D01*
X137890068Y-125944085D01*
X137967478Y-125973114D01*
X138006182Y-126002142D01*
X138044887Y-126060200D01*
X138044887Y-126292428D01*
X138431935Y-125363514D02*
X138431935Y-125711857D01*
X138431935Y-125537685D02*
X137619135Y-125537685D01*
X137735249Y-125595742D01*
X137812659Y-125653800D01*
X137851363Y-125711857D01*
X137696544Y-125131285D02*
X137657840Y-125102257D01*
X137619135Y-125044200D01*
X137619135Y-124899057D01*
X137657840Y-124841000D01*
X137696544Y-124811971D01*
X137773954Y-124782942D01*
X137851363Y-124782942D01*
X137967478Y-124811971D01*
X138431935Y-125160314D01*
X138431935Y-124782942D01*
X140955485Y-124674085D02*
X140994190Y-124703114D01*
X141032895Y-124790200D01*
X141032895Y-124848257D01*
X140994190Y-124935342D01*
X140916780Y-124993400D01*
X140839371Y-125022428D01*
X140684552Y-125051457D01*
X140568438Y-125051457D01*
X140413619Y-125022428D01*
X140336209Y-124993400D01*
X140258800Y-124935342D01*
X140220095Y-124848257D01*
X140220095Y-124790200D01*
X140258800Y-124703114D01*
X140297504Y-124674085D01*
X141032895Y-124093514D02*
X141032895Y-124441857D01*
X141032895Y-124267685D02*
X140220095Y-124267685D01*
X140336209Y-124325742D01*
X140413619Y-124383800D01*
X140452323Y-124441857D01*
X140297504Y-123861285D02*
X140258800Y-123832257D01*
X140220095Y-123774200D01*
X140220095Y-123629057D01*
X140258800Y-123571000D01*
X140297504Y-123541971D01*
X140374914Y-123512942D01*
X140452323Y-123512942D01*
X140568438Y-123541971D01*
X141032895Y-123890314D01*
X141032895Y-123512942D01*
X133186714Y-121372085D02*
X133157685Y-121410790D01*
X133070600Y-121449495D01*
X133012542Y-121449495D01*
X132925457Y-121410790D01*
X132867400Y-121333380D01*
X132838371Y-121255971D01*
X132809342Y-121101152D01*
X132809342Y-120985038D01*
X132838371Y-120830219D01*
X132867400Y-120752809D01*
X132925457Y-120675400D01*
X133012542Y-120636695D01*
X133070600Y-120636695D01*
X133157685Y-120675400D01*
X133186714Y-120714104D01*
X133767285Y-121449495D02*
X133418942Y-121449495D01*
X133593114Y-121449495D02*
X133593114Y-120636695D01*
X133535057Y-120752809D01*
X133477000Y-120830219D01*
X133418942Y-120868923D01*
X133970485Y-120636695D02*
X134347857Y-120636695D01*
X134144657Y-120946333D01*
X134231742Y-120946333D01*
X134289800Y-120985038D01*
X134318828Y-121023742D01*
X134347857Y-121101152D01*
X134347857Y-121294676D01*
X134318828Y-121372085D01*
X134289800Y-121410790D01*
X134231742Y-121449495D01*
X134057571Y-121449495D01*
X133999514Y-121410790D01*
X133970485Y-121372085D01*
X139054114Y-121270485D02*
X139025085Y-121309190D01*
X138938000Y-121347895D01*
X138879942Y-121347895D01*
X138792857Y-121309190D01*
X138734800Y-121231780D01*
X138705771Y-121154371D01*
X138676742Y-120999552D01*
X138676742Y-120883438D01*
X138705771Y-120728619D01*
X138734800Y-120651209D01*
X138792857Y-120573800D01*
X138879942Y-120535095D01*
X138938000Y-120535095D01*
X139025085Y-120573800D01*
X139054114Y-120612504D01*
X139634685Y-121347895D02*
X139286342Y-121347895D01*
X139460514Y-121347895D02*
X139460514Y-120535095D01*
X139402457Y-120651209D01*
X139344400Y-120728619D01*
X139286342Y-120767323D01*
X140215257Y-121347895D02*
X139866914Y-121347895D01*
X140041085Y-121347895D02*
X140041085Y-120535095D01*
X139983028Y-120651209D01*
X139924971Y-120728619D01*
X139866914Y-120767323D01*
X128379220Y-113307585D02*
X128350191Y-113346290D01*
X128263105Y-113384995D01*
X128205048Y-113384995D01*
X128117962Y-113346290D01*
X128059905Y-113268880D01*
X128030877Y-113191471D01*
X128001848Y-113036652D01*
X128001848Y-112920538D01*
X128030877Y-112765719D01*
X128059905Y-112688309D01*
X128117962Y-112610900D01*
X128205048Y-112572195D01*
X128263105Y-112572195D01*
X128350191Y-112610900D01*
X128379220Y-112649604D01*
X128582420Y-112572195D02*
X128988820Y-112572195D01*
X128727562Y-113384995D01*
X128676400Y-90691425D02*
X128647371Y-90730130D01*
X128560285Y-90768835D01*
X128502228Y-90768835D01*
X128415142Y-90730130D01*
X128357085Y-90652720D01*
X128328057Y-90575311D01*
X128299028Y-90420492D01*
X128299028Y-90304378D01*
X128328057Y-90149559D01*
X128357085Y-90072149D01*
X128415142Y-89994740D01*
X128502228Y-89956035D01*
X128560285Y-89956035D01*
X128647371Y-89994740D01*
X128676400Y-90033444D01*
X128879600Y-89956035D02*
X129256971Y-89956035D01*
X129053771Y-90265673D01*
X129140857Y-90265673D01*
X129198914Y-90304378D01*
X129227942Y-90343082D01*
X129256971Y-90420492D01*
X129256971Y-90614016D01*
X129227942Y-90691425D01*
X129198914Y-90730130D01*
X129140857Y-90768835D01*
X128966685Y-90768835D01*
X128908628Y-90730130D01*
X128879600Y-90691425D01*
X132547360Y-99321015D02*
X132344160Y-98933967D01*
X132199017Y-99321015D02*
X132199017Y-98508215D01*
X132431245Y-98508215D01*
X132489302Y-98546920D01*
X132518331Y-98585624D01*
X132547360Y-98663034D01*
X132547360Y-98779148D01*
X132518331Y-98856558D01*
X132489302Y-98895262D01*
X132431245Y-98933967D01*
X132199017Y-98933967D01*
X132750560Y-98508215D02*
X133156960Y-98508215D01*
X132895702Y-99321015D01*
X128379220Y-111783585D02*
X128350191Y-111822290D01*
X128263105Y-111860995D01*
X128205048Y-111860995D01*
X128117962Y-111822290D01*
X128059905Y-111744880D01*
X128030877Y-111667471D01*
X128001848Y-111512652D01*
X128001848Y-111396538D01*
X128030877Y-111241719D01*
X128059905Y-111164309D01*
X128117962Y-111086900D01*
X128205048Y-111048195D01*
X128263105Y-111048195D01*
X128350191Y-111086900D01*
X128379220Y-111125604D01*
X128901734Y-111048195D02*
X128785620Y-111048195D01*
X128727562Y-111086900D01*
X128698534Y-111125604D01*
X128640477Y-111241719D01*
X128611448Y-111396538D01*
X128611448Y-111706176D01*
X128640477Y-111783585D01*
X128669505Y-111822290D01*
X128727562Y-111860995D01*
X128843677Y-111860995D01*
X128901734Y-111822290D01*
X128930762Y-111783585D01*
X128959791Y-111706176D01*
X128959791Y-111512652D01*
X128930762Y-111435242D01*
X128901734Y-111396538D01*
X128843677Y-111357833D01*
X128727562Y-111357833D01*
X128669505Y-111396538D01*
X128640477Y-111435242D01*
X128611448Y-111512652D01*
X118861114Y-113498085D02*
X118832085Y-113536790D01*
X118745000Y-113575495D01*
X118686942Y-113575495D01*
X118599857Y-113536790D01*
X118541800Y-113459380D01*
X118512771Y-113381971D01*
X118483742Y-113227152D01*
X118483742Y-113111038D01*
X118512771Y-112956219D01*
X118541800Y-112878809D01*
X118599857Y-112801400D01*
X118686942Y-112762695D01*
X118745000Y-112762695D01*
X118832085Y-112801400D01*
X118861114Y-112840104D01*
X119441685Y-113575495D02*
X119093342Y-113575495D01*
X119267514Y-113575495D02*
X119267514Y-112762695D01*
X119209457Y-112878809D01*
X119151400Y-112956219D01*
X119093342Y-112994923D01*
X119819057Y-112762695D02*
X119877114Y-112762695D01*
X119935171Y-112801400D01*
X119964200Y-112840104D01*
X119993228Y-112917514D01*
X120022257Y-113072333D01*
X120022257Y-113265857D01*
X119993228Y-113420676D01*
X119964200Y-113498085D01*
X119935171Y-113536790D01*
X119877114Y-113575495D01*
X119819057Y-113575495D01*
X119761000Y-113536790D01*
X119731971Y-113498085D01*
X119702942Y-113420676D01*
X119673914Y-113265857D01*
X119673914Y-113072333D01*
X119702942Y-112917514D01*
X119731971Y-112840104D01*
X119761000Y-112801400D01*
X119819057Y-112762695D01*
X124104400Y-90765085D02*
X124075371Y-90803790D01*
X123988285Y-90842495D01*
X123930228Y-90842495D01*
X123843142Y-90803790D01*
X123785085Y-90726380D01*
X123756057Y-90648971D01*
X123727028Y-90494152D01*
X123727028Y-90378038D01*
X123756057Y-90223219D01*
X123785085Y-90145809D01*
X123843142Y-90068400D01*
X123930228Y-90029695D01*
X123988285Y-90029695D01*
X124075371Y-90068400D01*
X124104400Y-90107104D01*
X124655942Y-90029695D02*
X124365657Y-90029695D01*
X124336628Y-90416742D01*
X124365657Y-90378038D01*
X124423714Y-90339333D01*
X124568857Y-90339333D01*
X124626914Y-90378038D01*
X124655942Y-90416742D01*
X124684971Y-90494152D01*
X124684971Y-90687676D01*
X124655942Y-90765085D01*
X124626914Y-90803790D01*
X124568857Y-90842495D01*
X124423714Y-90842495D01*
X124365657Y-90803790D01*
X124336628Y-90765085D01*
X129057400Y-99274085D02*
X129028371Y-99312790D01*
X128941285Y-99351495D01*
X128883228Y-99351495D01*
X128796142Y-99312790D01*
X128738085Y-99235380D01*
X128709057Y-99157971D01*
X128680028Y-99003152D01*
X128680028Y-98887038D01*
X128709057Y-98732219D01*
X128738085Y-98654809D01*
X128796142Y-98577400D01*
X128883228Y-98538695D01*
X128941285Y-98538695D01*
X129028371Y-98577400D01*
X129057400Y-98616104D01*
X129579914Y-98809628D02*
X129579914Y-99351495D01*
X129434771Y-98499990D02*
X129289628Y-99080561D01*
X129667000Y-99080561D01*
X125877320Y-99218205D02*
X125848291Y-99256910D01*
X125761205Y-99295615D01*
X125703148Y-99295615D01*
X125616062Y-99256910D01*
X125558005Y-99179500D01*
X125528977Y-99102091D01*
X125499948Y-98947272D01*
X125499948Y-98831158D01*
X125528977Y-98676339D01*
X125558005Y-98598929D01*
X125616062Y-98521520D01*
X125703148Y-98482815D01*
X125761205Y-98482815D01*
X125848291Y-98521520D01*
X125877320Y-98560224D01*
X126225662Y-98831158D02*
X126167605Y-98792453D01*
X126138577Y-98753748D01*
X126109548Y-98676339D01*
X126109548Y-98637634D01*
X126138577Y-98560224D01*
X126167605Y-98521520D01*
X126225662Y-98482815D01*
X126341777Y-98482815D01*
X126399834Y-98521520D01*
X126428862Y-98560224D01*
X126457891Y-98637634D01*
X126457891Y-98676339D01*
X126428862Y-98753748D01*
X126399834Y-98792453D01*
X126341777Y-98831158D01*
X126225662Y-98831158D01*
X126167605Y-98869862D01*
X126138577Y-98908567D01*
X126109548Y-98985977D01*
X126109548Y-99140796D01*
X126138577Y-99218205D01*
X126167605Y-99256910D01*
X126225662Y-99295615D01*
X126341777Y-99295615D01*
X126399834Y-99256910D01*
X126428862Y-99218205D01*
X126457891Y-99140796D01*
X126457891Y-98985977D01*
X126428862Y-98908567D01*
X126399834Y-98869862D01*
X126341777Y-98831158D01*
X140639800Y-117334695D02*
X140639800Y-117915266D01*
X140610771Y-118031380D01*
X140552714Y-118108790D01*
X140465628Y-118147495D01*
X140407571Y-118147495D01*
X140901057Y-117412104D02*
X140930085Y-117373400D01*
X140988142Y-117334695D01*
X141133285Y-117334695D01*
X141191342Y-117373400D01*
X141220371Y-117412104D01*
X141249400Y-117489514D01*
X141249400Y-117566923D01*
X141220371Y-117683038D01*
X140872028Y-118147495D01*
X141249400Y-118147495D01*
X127352334Y-138438345D02*
X127323305Y-138477050D01*
X127236220Y-138515755D01*
X127178162Y-138515755D01*
X127091077Y-138477050D01*
X127033020Y-138399640D01*
X127003991Y-138322231D01*
X126974962Y-138167412D01*
X126974962Y-138051298D01*
X127003991Y-137896479D01*
X127033020Y-137819069D01*
X127091077Y-137741660D01*
X127178162Y-137702955D01*
X127236220Y-137702955D01*
X127323305Y-137741660D01*
X127352334Y-137780364D01*
X127932905Y-138515755D02*
X127584562Y-138515755D01*
X127758734Y-138515755D02*
X127758734Y-137702955D01*
X127700677Y-137819069D01*
X127642620Y-137896479D01*
X127584562Y-137935183D01*
X128484448Y-137702955D02*
X128194162Y-137702955D01*
X128165134Y-138090002D01*
X128194162Y-138051298D01*
X128252220Y-138012593D01*
X128397362Y-138012593D01*
X128455420Y-138051298D01*
X128484448Y-138090002D01*
X128513477Y-138167412D01*
X128513477Y-138360936D01*
X128484448Y-138438345D01*
X128455420Y-138477050D01*
X128397362Y-138515755D01*
X128252220Y-138515755D01*
X128194162Y-138477050D01*
X128165134Y-138438345D01*
X140397895Y-137033000D02*
X140978466Y-137033000D01*
X141094580Y-137062028D01*
X141171990Y-137120085D01*
X141210695Y-137207171D01*
X141210695Y-137265228D01*
X140397895Y-136800771D02*
X140397895Y-136394371D01*
X141210695Y-136655628D01*
X119930575Y-128044302D02*
X119117775Y-128044302D01*
X119117775Y-127899160D01*
X119156480Y-127812074D01*
X119233889Y-127754017D01*
X119311299Y-127724988D01*
X119466118Y-127695960D01*
X119582232Y-127695960D01*
X119737051Y-127724988D01*
X119814460Y-127754017D01*
X119891870Y-127812074D01*
X119930575Y-127899160D01*
X119930575Y-128044302D01*
X119930575Y-127115388D02*
X119930575Y-127463731D01*
X119930575Y-127289560D02*
X119117775Y-127289560D01*
X119233889Y-127347617D01*
X119311299Y-127405674D01*
X119350003Y-127463731D01*
X123621195Y-101162757D02*
X124279176Y-101162757D01*
X124356585Y-101133728D01*
X124395290Y-101104700D01*
X124433995Y-101046642D01*
X124433995Y-100930528D01*
X124395290Y-100872471D01*
X124356585Y-100843442D01*
X124279176Y-100814414D01*
X123621195Y-100814414D01*
X124433995Y-100204814D02*
X124433995Y-100553157D01*
X124433995Y-100378985D02*
X123621195Y-100378985D01*
X123737309Y-100437042D01*
X123814719Y-100495100D01*
X123853423Y-100553157D01*
X141413895Y-86512400D02*
X141026847Y-86715600D01*
X141413895Y-86860742D02*
X140601095Y-86860742D01*
X140601095Y-86628514D01*
X140639800Y-86570457D01*
X140678504Y-86541428D01*
X140755914Y-86512400D01*
X140872028Y-86512400D01*
X140949438Y-86541428D01*
X140988142Y-86570457D01*
X141026847Y-86628514D01*
X141026847Y-86860742D01*
X141413895Y-85931828D02*
X141413895Y-86280171D01*
X141413895Y-86106000D02*
X140601095Y-86106000D01*
X140717209Y-86164057D01*
X140794619Y-86222114D01*
X140833323Y-86280171D01*
X136509155Y-98508820D02*
X136122107Y-98712020D01*
X136509155Y-98857162D02*
X135696355Y-98857162D01*
X135696355Y-98624934D01*
X135735060Y-98566877D01*
X135773764Y-98537848D01*
X135851174Y-98508820D01*
X135967288Y-98508820D01*
X136044698Y-98537848D01*
X136083402Y-98566877D01*
X136122107Y-98624934D01*
X136122107Y-98857162D01*
X135967288Y-97986305D02*
X136509155Y-97986305D01*
X135657650Y-98131448D02*
X136238221Y-98276591D01*
X136238221Y-97899220D01*
X135902095Y-108077000D02*
X136482666Y-108077000D01*
X136598780Y-108106028D01*
X136676190Y-108164085D01*
X136714895Y-108251171D01*
X136714895Y-108309228D01*
X136714895Y-107467400D02*
X136714895Y-107815742D01*
X136714895Y-107641571D02*
X135902095Y-107641571D01*
X136018209Y-107699628D01*
X136095619Y-107757685D01*
X136134323Y-107815742D01*
X136587895Y-97028000D02*
X136200847Y-97231200D01*
X136587895Y-97376342D02*
X135775095Y-97376342D01*
X135775095Y-97144114D01*
X135813800Y-97086057D01*
X135852504Y-97057028D01*
X135929914Y-97028000D01*
X136046028Y-97028000D01*
X136123438Y-97057028D01*
X136162142Y-97086057D01*
X136200847Y-97144114D01*
X136200847Y-97376342D01*
X135775095Y-96824800D02*
X135775095Y-96447428D01*
X136084733Y-96650628D01*
X136084733Y-96563542D01*
X136123438Y-96505485D01*
X136162142Y-96476457D01*
X136239552Y-96447428D01*
X136433076Y-96447428D01*
X136510485Y-96476457D01*
X136549190Y-96505485D01*
X136587895Y-96563542D01*
X136587895Y-96737714D01*
X136549190Y-96795771D01*
X136510485Y-96824800D01*
M02*
