G04 #@! TF.GenerationSoftware,KiCad,Pcbnew,(5.1.6)-1*
G04 #@! TF.CreationDate,2023-02-24T22:08:04-06:00*
G04 #@! TF.ProjectId,EncoderBoard3(1.2),456e636f-6465-4724-926f-617264332831,v1.0*
G04 #@! TF.SameCoordinates,Original*
G04 #@! TF.FileFunction,Soldermask,Bot*
G04 #@! TF.FilePolarity,Negative*
%FSLAX46Y46*%
G04 Gerber Fmt 4.6, Leading zero omitted, Abs format (unit mm)*
G04 Created by KiCad (PCBNEW (5.1.6)-1) date 2023-02-24 22:08:04*
%MOMM*%
%LPD*%
G01*
G04 APERTURE LIST*
%ADD10C,0.100000*%
G04 APERTURE END LIST*
D10*
G36*
X132063915Y-147405134D02*
G01*
X132172491Y-147438071D01*
X132172494Y-147438072D01*
X132208600Y-147457371D01*
X132272556Y-147491556D01*
X132360264Y-147563536D01*
X132432244Y-147651243D01*
X132466429Y-147715199D01*
X132485728Y-147751305D01*
X132485728Y-147751306D01*
X132485729Y-147751308D01*
X132518666Y-147859884D01*
X132527000Y-147944502D01*
X132527000Y-149051098D01*
X132518666Y-149135716D01*
X132485729Y-149244292D01*
X132485728Y-149244295D01*
X132466429Y-149280401D01*
X132432244Y-149344357D01*
X132360264Y-149432064D01*
X132272557Y-149504044D01*
X132208601Y-149538229D01*
X132172495Y-149557528D01*
X132172492Y-149557529D01*
X132063916Y-149590466D01*
X131951000Y-149601587D01*
X131838085Y-149590466D01*
X131729509Y-149557529D01*
X131729506Y-149557528D01*
X131693400Y-149538229D01*
X131629444Y-149504044D01*
X131541737Y-149432064D01*
X131469757Y-149344357D01*
X131435572Y-149280401D01*
X131416273Y-149244295D01*
X131416272Y-149244292D01*
X131383335Y-149135716D01*
X131375001Y-149051098D01*
X131375000Y-147944503D01*
X131383334Y-147859885D01*
X131416271Y-147751309D01*
X131416272Y-147751306D01*
X131435571Y-147715200D01*
X131469756Y-147651244D01*
X131541736Y-147563536D01*
X131629443Y-147491556D01*
X131693399Y-147457371D01*
X131729505Y-147438072D01*
X131729508Y-147438071D01*
X131838084Y-147405134D01*
X131951000Y-147394013D01*
X132063915Y-147405134D01*
G37*
G36*
X140703915Y-147405134D02*
G01*
X140812491Y-147438071D01*
X140812494Y-147438072D01*
X140848600Y-147457371D01*
X140912556Y-147491556D01*
X141000264Y-147563536D01*
X141072244Y-147651243D01*
X141106429Y-147715199D01*
X141125728Y-147751305D01*
X141125728Y-147751306D01*
X141125729Y-147751308D01*
X141158666Y-147859884D01*
X141167000Y-147944502D01*
X141167000Y-149051098D01*
X141158666Y-149135716D01*
X141125729Y-149244292D01*
X141125728Y-149244295D01*
X141106429Y-149280401D01*
X141072244Y-149344357D01*
X141000264Y-149432064D01*
X140912557Y-149504044D01*
X140848601Y-149538229D01*
X140812495Y-149557528D01*
X140812492Y-149557529D01*
X140703916Y-149590466D01*
X140591000Y-149601587D01*
X140478085Y-149590466D01*
X140369509Y-149557529D01*
X140369506Y-149557528D01*
X140333400Y-149538229D01*
X140269444Y-149504044D01*
X140181737Y-149432064D01*
X140109757Y-149344357D01*
X140075572Y-149280401D01*
X140056273Y-149244295D01*
X140056272Y-149244292D01*
X140023335Y-149135716D01*
X140015001Y-149051098D01*
X140015000Y-147944503D01*
X140023334Y-147859885D01*
X140056271Y-147751309D01*
X140056272Y-147751306D01*
X140075571Y-147715200D01*
X140109756Y-147651244D01*
X140181736Y-147563536D01*
X140269443Y-147491556D01*
X140333399Y-147457371D01*
X140369505Y-147438072D01*
X140369508Y-147438071D01*
X140478084Y-147405134D01*
X140591000Y-147394013D01*
X140703915Y-147405134D01*
G37*
G36*
X125634239Y-139237267D02*
G01*
X125948282Y-139299734D01*
X126539926Y-139544801D01*
X127072392Y-139900584D01*
X127525216Y-140353408D01*
X127880999Y-140885874D01*
X128126066Y-141477518D01*
X128251000Y-142105604D01*
X128251000Y-142745996D01*
X128126066Y-143374082D01*
X127880999Y-143965726D01*
X127595986Y-144392277D01*
X127525217Y-144498191D01*
X127072391Y-144951017D01*
X126966477Y-145021786D01*
X126539926Y-145306799D01*
X125948282Y-145551866D01*
X125634239Y-145614333D01*
X125320197Y-145676800D01*
X124679803Y-145676800D01*
X124365761Y-145614333D01*
X124051718Y-145551866D01*
X123460074Y-145306799D01*
X123033523Y-145021786D01*
X122927609Y-144951017D01*
X122474783Y-144498191D01*
X122404014Y-144392277D01*
X122119001Y-143965726D01*
X121873934Y-143374082D01*
X121749000Y-142745996D01*
X121749000Y-142105604D01*
X121873934Y-141477518D01*
X122119001Y-140885874D01*
X122474784Y-140353408D01*
X122927608Y-139900584D01*
X123460074Y-139544801D01*
X124051718Y-139299734D01*
X124365761Y-139237267D01*
X124679803Y-139174800D01*
X125320197Y-139174800D01*
X125634239Y-139237267D01*
G37*
G36*
X140703915Y-143225134D02*
G01*
X140812491Y-143258071D01*
X140812494Y-143258072D01*
X140848600Y-143277371D01*
X140912556Y-143311556D01*
X141000264Y-143383536D01*
X141072244Y-143471243D01*
X141106429Y-143535199D01*
X141125728Y-143571305D01*
X141125728Y-143571306D01*
X141125729Y-143571308D01*
X141158666Y-143679884D01*
X141167000Y-143764502D01*
X141167000Y-144871098D01*
X141158666Y-144955716D01*
X141133782Y-145037744D01*
X141125728Y-145064295D01*
X141106429Y-145100401D01*
X141072244Y-145164357D01*
X141000264Y-145252064D01*
X140912557Y-145324044D01*
X140848601Y-145358229D01*
X140812495Y-145377528D01*
X140812492Y-145377529D01*
X140703916Y-145410466D01*
X140591000Y-145421587D01*
X140478085Y-145410466D01*
X140369509Y-145377529D01*
X140369506Y-145377528D01*
X140333400Y-145358229D01*
X140269444Y-145324044D01*
X140181737Y-145252064D01*
X140109757Y-145164357D01*
X140075572Y-145100401D01*
X140056273Y-145064295D01*
X140048219Y-145037744D01*
X140023335Y-144955716D01*
X140015001Y-144871098D01*
X140015000Y-143764503D01*
X140023334Y-143679885D01*
X140056271Y-143571309D01*
X140056272Y-143571306D01*
X140075571Y-143535200D01*
X140109756Y-143471244D01*
X140181736Y-143383536D01*
X140269443Y-143311556D01*
X140333399Y-143277371D01*
X140369505Y-143258072D01*
X140369508Y-143258071D01*
X140478084Y-143225134D01*
X140591000Y-143214013D01*
X140703915Y-143225134D01*
G37*
G36*
X132063915Y-143225134D02*
G01*
X132172491Y-143258071D01*
X132172494Y-143258072D01*
X132208600Y-143277371D01*
X132272556Y-143311556D01*
X132360264Y-143383536D01*
X132432244Y-143471243D01*
X132466429Y-143535199D01*
X132485728Y-143571305D01*
X132485728Y-143571306D01*
X132485729Y-143571308D01*
X132518666Y-143679884D01*
X132527000Y-143764502D01*
X132527000Y-144871098D01*
X132518666Y-144955716D01*
X132493782Y-145037744D01*
X132485728Y-145064295D01*
X132466429Y-145100401D01*
X132432244Y-145164357D01*
X132360264Y-145252064D01*
X132272557Y-145324044D01*
X132208601Y-145358229D01*
X132172495Y-145377528D01*
X132172492Y-145377529D01*
X132063916Y-145410466D01*
X131951000Y-145421587D01*
X131838085Y-145410466D01*
X131729509Y-145377529D01*
X131729506Y-145377528D01*
X131693400Y-145358229D01*
X131629444Y-145324044D01*
X131541737Y-145252064D01*
X131469757Y-145164357D01*
X131435572Y-145100401D01*
X131416273Y-145064295D01*
X131408219Y-145037744D01*
X131383335Y-144955716D01*
X131375001Y-144871098D01*
X131375000Y-143764503D01*
X131383334Y-143679885D01*
X131416271Y-143571309D01*
X131416272Y-143571306D01*
X131435571Y-143535200D01*
X131469756Y-143471244D01*
X131541736Y-143383536D01*
X131629443Y-143311556D01*
X131693399Y-143277371D01*
X131729505Y-143258072D01*
X131729508Y-143258071D01*
X131838084Y-143225134D01*
X131951000Y-143214013D01*
X132063915Y-143225134D01*
G37*
G36*
X139239231Y-144454505D02*
G01*
X139277967Y-144462210D01*
X139308195Y-144474731D01*
X139350944Y-144492438D01*
X139416622Y-144536323D01*
X139472477Y-144592178D01*
X139516362Y-144657856D01*
X139546590Y-144730834D01*
X139562000Y-144808304D01*
X139562000Y-144887296D01*
X139546590Y-144964766D01*
X139516362Y-145037744D01*
X139472477Y-145103422D01*
X139416622Y-145159277D01*
X139350944Y-145203162D01*
X139308195Y-145220869D01*
X139277967Y-145233390D01*
X139239231Y-145241095D01*
X139200496Y-145248800D01*
X139121504Y-145248800D01*
X139082769Y-145241095D01*
X139044033Y-145233390D01*
X139013805Y-145220869D01*
X138971056Y-145203162D01*
X138905378Y-145159277D01*
X138849523Y-145103422D01*
X138805638Y-145037744D01*
X138775410Y-144964766D01*
X138760000Y-144887296D01*
X138760000Y-144808304D01*
X138775410Y-144730834D01*
X138805638Y-144657856D01*
X138849523Y-144592178D01*
X138905378Y-144536323D01*
X138971056Y-144492438D01*
X139013805Y-144474731D01*
X139044033Y-144462210D01*
X139082769Y-144454505D01*
X139121504Y-144446800D01*
X139200496Y-144446800D01*
X139239231Y-144454505D01*
G37*
G36*
X133459231Y-144454505D02*
G01*
X133497967Y-144462210D01*
X133528195Y-144474731D01*
X133570944Y-144492438D01*
X133636622Y-144536323D01*
X133692477Y-144592178D01*
X133736362Y-144657856D01*
X133766590Y-144730834D01*
X133782000Y-144808304D01*
X133782000Y-144887296D01*
X133766590Y-144964766D01*
X133736362Y-145037744D01*
X133692477Y-145103422D01*
X133636622Y-145159277D01*
X133570944Y-145203162D01*
X133528195Y-145220869D01*
X133497967Y-145233390D01*
X133459231Y-145241095D01*
X133420496Y-145248800D01*
X133341504Y-145248800D01*
X133302769Y-145241095D01*
X133264033Y-145233390D01*
X133233805Y-145220869D01*
X133191056Y-145203162D01*
X133125378Y-145159277D01*
X133069523Y-145103422D01*
X133025638Y-145037744D01*
X132995410Y-144964766D01*
X132980000Y-144887296D01*
X132980000Y-144808304D01*
X132995410Y-144730834D01*
X133025638Y-144657856D01*
X133069523Y-144592178D01*
X133125378Y-144536323D01*
X133191056Y-144492438D01*
X133233805Y-144474731D01*
X133264033Y-144462210D01*
X133302769Y-144454505D01*
X133341504Y-144446800D01*
X133420496Y-144446800D01*
X133459231Y-144454505D01*
G37*
G36*
X138170600Y-133621389D02*
G01*
X138203652Y-133631415D01*
X138234103Y-133647692D01*
X138260799Y-133669601D01*
X138282708Y-133696297D01*
X138298985Y-133726748D01*
X138309011Y-133759800D01*
X138313000Y-133800303D01*
X138313000Y-135236497D01*
X138309011Y-135277000D01*
X138298985Y-135310052D01*
X138282708Y-135340503D01*
X138260799Y-135367199D01*
X138234103Y-135389108D01*
X138203652Y-135405385D01*
X138170600Y-135415411D01*
X138130097Y-135419400D01*
X136443903Y-135419400D01*
X136403400Y-135415411D01*
X136370348Y-135405385D01*
X136339897Y-135389108D01*
X136313201Y-135367199D01*
X136291292Y-135340503D01*
X136275015Y-135310052D01*
X136264989Y-135277000D01*
X136261000Y-135236497D01*
X136261000Y-133800303D01*
X136264989Y-133759800D01*
X136275015Y-133726748D01*
X136291292Y-133696297D01*
X136313201Y-133669601D01*
X136339897Y-133647692D01*
X136370348Y-133631415D01*
X136403400Y-133621389D01*
X136443903Y-133617400D01*
X138130097Y-133617400D01*
X138170600Y-133621389D01*
G37*
G36*
X137522442Y-131123918D02*
G01*
X137588627Y-131130437D01*
X137758466Y-131181957D01*
X137914991Y-131265622D01*
X137950729Y-131294952D01*
X138052186Y-131378214D01*
X138135448Y-131479671D01*
X138164778Y-131515409D01*
X138248443Y-131671934D01*
X138299963Y-131841773D01*
X138317359Y-132018400D01*
X138299963Y-132195027D01*
X138248443Y-132364866D01*
X138164778Y-132521391D01*
X138135448Y-132557129D01*
X138052186Y-132658586D01*
X137950729Y-132741848D01*
X137914991Y-132771178D01*
X137758466Y-132854843D01*
X137588627Y-132906363D01*
X137522442Y-132912882D01*
X137456260Y-132919400D01*
X137117740Y-132919400D01*
X137051558Y-132912882D01*
X136985373Y-132906363D01*
X136815534Y-132854843D01*
X136659009Y-132771178D01*
X136623271Y-132741848D01*
X136521814Y-132658586D01*
X136438552Y-132557129D01*
X136409222Y-132521391D01*
X136325557Y-132364866D01*
X136274037Y-132195027D01*
X136256641Y-132018400D01*
X136274037Y-131841773D01*
X136325557Y-131671934D01*
X136409222Y-131515409D01*
X136438552Y-131479671D01*
X136521814Y-131378214D01*
X136623271Y-131294952D01*
X136659009Y-131265622D01*
X136815534Y-131181957D01*
X136985373Y-131130437D01*
X137051558Y-131123918D01*
X137117740Y-131117400D01*
X137456260Y-131117400D01*
X137522442Y-131123918D01*
G37*
G36*
X137522442Y-128623918D02*
G01*
X137588627Y-128630437D01*
X137758466Y-128681957D01*
X137914991Y-128765622D01*
X137950729Y-128794952D01*
X138052186Y-128878214D01*
X138135448Y-128979671D01*
X138164778Y-129015409D01*
X138248443Y-129171934D01*
X138299963Y-129341773D01*
X138317359Y-129518400D01*
X138299963Y-129695027D01*
X138248443Y-129864866D01*
X138164778Y-130021391D01*
X138135448Y-130057129D01*
X138052186Y-130158586D01*
X137950729Y-130241848D01*
X137914991Y-130271178D01*
X137758466Y-130354843D01*
X137588627Y-130406363D01*
X137522442Y-130412882D01*
X137456260Y-130419400D01*
X137117740Y-130419400D01*
X137051558Y-130412882D01*
X136985373Y-130406363D01*
X136815534Y-130354843D01*
X136659009Y-130271178D01*
X136623271Y-130241848D01*
X136521814Y-130158586D01*
X136438552Y-130057129D01*
X136409222Y-130021391D01*
X136325557Y-129864866D01*
X136274037Y-129695027D01*
X136256641Y-129518400D01*
X136274037Y-129341773D01*
X136325557Y-129171934D01*
X136409222Y-129015409D01*
X136438552Y-128979671D01*
X136521814Y-128878214D01*
X136623271Y-128794952D01*
X136659009Y-128765622D01*
X136815534Y-128681957D01*
X136985373Y-128630437D01*
X137051558Y-128623918D01*
X137117740Y-128617400D01*
X137456260Y-128617400D01*
X137522442Y-128623918D01*
G37*
G36*
X128353100Y-124375789D02*
G01*
X128386152Y-124385815D01*
X128416603Y-124402092D01*
X128443299Y-124424001D01*
X128465208Y-124450697D01*
X128481485Y-124481148D01*
X128491511Y-124514200D01*
X128495500Y-124554703D01*
X128495500Y-125990897D01*
X128491511Y-126031400D01*
X128481485Y-126064452D01*
X128465208Y-126094903D01*
X128443299Y-126121599D01*
X128416603Y-126143508D01*
X128386152Y-126159785D01*
X128353100Y-126169811D01*
X128312597Y-126173800D01*
X126576403Y-126173800D01*
X126535900Y-126169811D01*
X126502848Y-126159785D01*
X126472397Y-126143508D01*
X126445701Y-126121599D01*
X126423792Y-126094903D01*
X126407515Y-126064452D01*
X126397489Y-126031400D01*
X126393500Y-125990897D01*
X126393500Y-124554703D01*
X126397489Y-124514200D01*
X126407515Y-124481148D01*
X126423792Y-124450697D01*
X126445701Y-124424001D01*
X126472397Y-124402092D01*
X126502848Y-124385815D01*
X126535900Y-124375789D01*
X126576403Y-124371800D01*
X128312597Y-124371800D01*
X128353100Y-124375789D01*
G37*
G36*
X127704942Y-121878318D02*
G01*
X127771127Y-121884837D01*
X127940966Y-121936357D01*
X128097491Y-122020022D01*
X128133229Y-122049352D01*
X128234686Y-122132614D01*
X128317948Y-122234071D01*
X128347278Y-122269809D01*
X128430943Y-122426334D01*
X128482463Y-122596173D01*
X128499859Y-122772800D01*
X128482463Y-122949427D01*
X128430943Y-123119266D01*
X128347278Y-123275791D01*
X128317948Y-123311529D01*
X128234686Y-123412986D01*
X128133229Y-123496248D01*
X128097491Y-123525578D01*
X127940966Y-123609243D01*
X127771127Y-123660763D01*
X127704942Y-123667282D01*
X127638760Y-123673800D01*
X127250240Y-123673800D01*
X127184058Y-123667282D01*
X127117873Y-123660763D01*
X126948034Y-123609243D01*
X126791509Y-123525578D01*
X126755771Y-123496248D01*
X126654314Y-123412986D01*
X126571052Y-123311529D01*
X126541722Y-123275791D01*
X126458057Y-123119266D01*
X126406537Y-122949427D01*
X126389141Y-122772800D01*
X126406537Y-122596173D01*
X126458057Y-122426334D01*
X126541722Y-122269809D01*
X126571052Y-122234071D01*
X126654314Y-122132614D01*
X126755771Y-122049352D01*
X126791509Y-122020022D01*
X126948034Y-121936357D01*
X127117873Y-121884837D01*
X127184058Y-121878318D01*
X127250240Y-121871800D01*
X127638760Y-121871800D01*
X127704942Y-121878318D01*
G37*
G36*
X127280127Y-115687337D02*
G01*
X127449966Y-115738857D01*
X127606491Y-115822522D01*
X127642229Y-115851852D01*
X127743686Y-115935114D01*
X127807486Y-116012856D01*
X127856278Y-116072309D01*
X127939943Y-116228834D01*
X127991463Y-116398674D01*
X128004500Y-116531043D01*
X128004500Y-116869558D01*
X127991463Y-117001927D01*
X127939943Y-117171766D01*
X127856278Y-117328291D01*
X127826948Y-117364029D01*
X127743686Y-117465486D01*
X127606489Y-117578079D01*
X127449967Y-117661742D01*
X127449965Y-117661743D01*
X127280126Y-117713263D01*
X127103500Y-117730659D01*
X126926873Y-117713263D01*
X126757034Y-117661743D01*
X126600509Y-117578078D01*
X126558250Y-117543397D01*
X126463314Y-117465486D01*
X126350721Y-117328289D01*
X126267058Y-117171767D01*
X126267057Y-117171765D01*
X126215537Y-117001926D01*
X126202500Y-116869557D01*
X126202500Y-116531042D01*
X126215537Y-116398673D01*
X126267057Y-116228834D01*
X126350722Y-116072309D01*
X126463315Y-115935115D01*
X126600510Y-115822522D01*
X126757035Y-115738857D01*
X126926874Y-115687337D01*
X127103500Y-115669941D01*
X127280127Y-115687337D01*
G37*
G36*
X124780127Y-115687337D02*
G01*
X124949966Y-115738857D01*
X125106491Y-115822522D01*
X125142229Y-115851852D01*
X125243686Y-115935114D01*
X125307486Y-116012856D01*
X125356278Y-116072309D01*
X125439943Y-116228834D01*
X125491463Y-116398674D01*
X125504500Y-116531043D01*
X125504500Y-116869558D01*
X125491463Y-117001927D01*
X125439943Y-117171766D01*
X125356278Y-117328291D01*
X125326948Y-117364029D01*
X125243686Y-117465486D01*
X125106489Y-117578079D01*
X124949967Y-117661742D01*
X124949965Y-117661743D01*
X124780126Y-117713263D01*
X124603500Y-117730659D01*
X124426873Y-117713263D01*
X124257034Y-117661743D01*
X124100509Y-117578078D01*
X124058250Y-117543397D01*
X123963314Y-117465486D01*
X123850721Y-117328289D01*
X123767058Y-117171767D01*
X123767057Y-117171765D01*
X123715537Y-117001926D01*
X123702500Y-116869557D01*
X123702500Y-116531042D01*
X123715537Y-116398673D01*
X123767057Y-116228834D01*
X123850722Y-116072309D01*
X123963315Y-115935115D01*
X124100510Y-115822522D01*
X124257035Y-115738857D01*
X124426874Y-115687337D01*
X124603500Y-115669941D01*
X124780127Y-115687337D01*
G37*
G36*
X122280127Y-115687337D02*
G01*
X122449966Y-115738857D01*
X122606491Y-115822522D01*
X122642229Y-115851852D01*
X122743686Y-115935114D01*
X122807486Y-116012856D01*
X122856278Y-116072309D01*
X122939943Y-116228834D01*
X122991463Y-116398674D01*
X123004500Y-116531043D01*
X123004500Y-116869558D01*
X122991463Y-117001927D01*
X122939943Y-117171766D01*
X122856278Y-117328291D01*
X122826948Y-117364029D01*
X122743686Y-117465486D01*
X122606489Y-117578079D01*
X122449967Y-117661742D01*
X122449965Y-117661743D01*
X122280126Y-117713263D01*
X122103500Y-117730659D01*
X121926873Y-117713263D01*
X121757034Y-117661743D01*
X121600509Y-117578078D01*
X121558250Y-117543397D01*
X121463314Y-117465486D01*
X121350721Y-117328289D01*
X121267058Y-117171767D01*
X121267057Y-117171765D01*
X121215537Y-117001926D01*
X121202500Y-116869557D01*
X121202500Y-116531042D01*
X121215537Y-116398673D01*
X121267057Y-116228834D01*
X121350722Y-116072309D01*
X121463315Y-115935115D01*
X121600510Y-115822522D01*
X121757035Y-115738857D01*
X121926874Y-115687337D01*
X122103500Y-115669941D01*
X122280127Y-115687337D01*
G37*
G36*
X130362100Y-115678289D02*
G01*
X130395152Y-115688315D01*
X130425603Y-115704592D01*
X130452299Y-115726501D01*
X130474208Y-115753197D01*
X130490485Y-115783648D01*
X130500511Y-115816700D01*
X130504500Y-115857203D01*
X130504500Y-117543397D01*
X130500511Y-117583900D01*
X130490485Y-117616952D01*
X130474208Y-117647403D01*
X130452299Y-117674099D01*
X130425603Y-117696008D01*
X130395152Y-117712285D01*
X130362100Y-117722311D01*
X130321597Y-117726300D01*
X128885403Y-117726300D01*
X128844900Y-117722311D01*
X128811848Y-117712285D01*
X128781397Y-117696008D01*
X128754701Y-117674099D01*
X128732792Y-117647403D01*
X128716515Y-117616952D01*
X128706489Y-117583900D01*
X128702500Y-117543397D01*
X128702500Y-115857203D01*
X128706489Y-115816700D01*
X128716515Y-115783648D01*
X128732792Y-115753197D01*
X128754701Y-115726501D01*
X128781397Y-115704592D01*
X128811848Y-115688315D01*
X128844900Y-115678289D01*
X128885403Y-115674300D01*
X130321597Y-115674300D01*
X130362100Y-115678289D01*
G37*
G36*
X139877012Y-114318327D02*
G01*
X140026312Y-114348024D01*
X140190284Y-114415944D01*
X140337854Y-114514547D01*
X140463353Y-114640046D01*
X140561956Y-114787616D01*
X140629876Y-114951588D01*
X140664500Y-115125659D01*
X140664500Y-115303141D01*
X140629876Y-115477212D01*
X140561956Y-115641184D01*
X140463353Y-115788754D01*
X140337854Y-115914253D01*
X140190284Y-116012856D01*
X140026312Y-116080776D01*
X139877012Y-116110473D01*
X139852242Y-116115400D01*
X139674758Y-116115400D01*
X139649988Y-116110473D01*
X139500688Y-116080776D01*
X139336716Y-116012856D01*
X139189146Y-115914253D01*
X139063647Y-115788754D01*
X138965044Y-115641184D01*
X138897124Y-115477212D01*
X138862500Y-115303141D01*
X138862500Y-115125659D01*
X138897124Y-114951588D01*
X138965044Y-114787616D01*
X139063647Y-114640046D01*
X139189146Y-114514547D01*
X139336716Y-114415944D01*
X139500688Y-114348024D01*
X139649988Y-114318327D01*
X139674758Y-114313400D01*
X139852242Y-114313400D01*
X139877012Y-114318327D01*
G37*
G36*
X137337012Y-114318327D02*
G01*
X137486312Y-114348024D01*
X137650284Y-114415944D01*
X137797854Y-114514547D01*
X137923353Y-114640046D01*
X138021956Y-114787616D01*
X138089876Y-114951588D01*
X138124500Y-115125659D01*
X138124500Y-115303141D01*
X138089876Y-115477212D01*
X138021956Y-115641184D01*
X137923353Y-115788754D01*
X137797854Y-115914253D01*
X137650284Y-116012856D01*
X137486312Y-116080776D01*
X137337012Y-116110473D01*
X137312242Y-116115400D01*
X137134758Y-116115400D01*
X137109988Y-116110473D01*
X136960688Y-116080776D01*
X136796716Y-116012856D01*
X136649146Y-115914253D01*
X136523647Y-115788754D01*
X136425044Y-115641184D01*
X136357124Y-115477212D01*
X136322500Y-115303141D01*
X136322500Y-115125659D01*
X136357124Y-114951588D01*
X136425044Y-114787616D01*
X136523647Y-114640046D01*
X136649146Y-114514547D01*
X136796716Y-114415944D01*
X136960688Y-114348024D01*
X137109988Y-114318327D01*
X137134758Y-114313400D01*
X137312242Y-114313400D01*
X137337012Y-114318327D01*
G37*
G36*
X135584500Y-116115400D02*
G01*
X133782500Y-116115400D01*
X133782500Y-114313400D01*
X135584500Y-114313400D01*
X135584500Y-116115400D01*
G37*
G36*
X140011643Y-108604319D02*
G01*
X140077827Y-108610837D01*
X140247666Y-108662357D01*
X140404191Y-108746022D01*
X140439929Y-108775352D01*
X140541386Y-108858614D01*
X140624648Y-108960071D01*
X140653978Y-108995809D01*
X140737643Y-109152334D01*
X140789163Y-109322173D01*
X140806559Y-109498800D01*
X140789163Y-109675427D01*
X140737643Y-109845266D01*
X140653978Y-110001791D01*
X140624648Y-110037529D01*
X140541386Y-110138986D01*
X140439929Y-110222248D01*
X140404191Y-110251578D01*
X140247666Y-110335243D01*
X140077827Y-110386763D01*
X140011642Y-110393282D01*
X139945460Y-110399800D01*
X139606940Y-110399800D01*
X139540758Y-110393282D01*
X139474573Y-110386763D01*
X139304734Y-110335243D01*
X139148209Y-110251578D01*
X139112471Y-110222248D01*
X139011014Y-110138986D01*
X138927752Y-110037529D01*
X138898422Y-110001791D01*
X138814757Y-109845266D01*
X138763237Y-109675427D01*
X138745841Y-109498800D01*
X138763237Y-109322173D01*
X138814757Y-109152334D01*
X138898422Y-108995809D01*
X138927752Y-108960071D01*
X139011014Y-108858614D01*
X139112471Y-108775352D01*
X139148209Y-108746022D01*
X139304734Y-108662357D01*
X139474573Y-108610837D01*
X139540757Y-108604319D01*
X139606940Y-108597800D01*
X139945460Y-108597800D01*
X140011643Y-108604319D01*
G37*
G36*
X140011643Y-106104319D02*
G01*
X140077827Y-106110837D01*
X140247666Y-106162357D01*
X140404191Y-106246022D01*
X140439929Y-106275352D01*
X140541386Y-106358614D01*
X140624648Y-106460071D01*
X140653978Y-106495809D01*
X140737643Y-106652334D01*
X140789163Y-106822173D01*
X140806559Y-106998800D01*
X140789163Y-107175427D01*
X140737643Y-107345266D01*
X140653978Y-107501791D01*
X140624648Y-107537529D01*
X140541386Y-107638986D01*
X140439929Y-107722248D01*
X140404191Y-107751578D01*
X140247666Y-107835243D01*
X140077827Y-107886763D01*
X140011642Y-107893282D01*
X139945460Y-107899800D01*
X139606940Y-107899800D01*
X139540758Y-107893282D01*
X139474573Y-107886763D01*
X139304734Y-107835243D01*
X139148209Y-107751578D01*
X139112471Y-107722248D01*
X139011014Y-107638986D01*
X138927752Y-107537529D01*
X138898422Y-107501791D01*
X138814757Y-107345266D01*
X138763237Y-107175427D01*
X138745841Y-106998800D01*
X138763237Y-106822173D01*
X138814757Y-106652334D01*
X138898422Y-106495809D01*
X138927752Y-106460071D01*
X139011014Y-106358614D01*
X139112471Y-106275352D01*
X139148209Y-106246022D01*
X139304734Y-106162357D01*
X139474573Y-106110837D01*
X139540757Y-106104319D01*
X139606940Y-106097800D01*
X139945460Y-106097800D01*
X140011643Y-106104319D01*
G37*
G36*
X140011642Y-103604318D02*
G01*
X140077827Y-103610837D01*
X140247666Y-103662357D01*
X140404191Y-103746022D01*
X140439929Y-103775352D01*
X140541386Y-103858614D01*
X140624648Y-103960071D01*
X140653978Y-103995809D01*
X140737643Y-104152334D01*
X140789163Y-104322173D01*
X140806559Y-104498800D01*
X140789163Y-104675427D01*
X140737643Y-104845266D01*
X140653978Y-105001791D01*
X140624648Y-105037529D01*
X140541386Y-105138986D01*
X140439929Y-105222248D01*
X140404191Y-105251578D01*
X140247666Y-105335243D01*
X140077827Y-105386763D01*
X140011642Y-105393282D01*
X139945460Y-105399800D01*
X139606940Y-105399800D01*
X139540758Y-105393282D01*
X139474573Y-105386763D01*
X139304734Y-105335243D01*
X139148209Y-105251578D01*
X139112471Y-105222248D01*
X139011014Y-105138986D01*
X138927752Y-105037529D01*
X138898422Y-105001791D01*
X138814757Y-104845266D01*
X138763237Y-104675427D01*
X138745841Y-104498800D01*
X138763237Y-104322173D01*
X138814757Y-104152334D01*
X138898422Y-103995809D01*
X138927752Y-103960071D01*
X139011014Y-103858614D01*
X139112471Y-103775352D01*
X139148209Y-103746022D01*
X139304734Y-103662357D01*
X139474573Y-103610837D01*
X139540758Y-103604318D01*
X139606940Y-103597800D01*
X139945460Y-103597800D01*
X140011642Y-103604318D01*
G37*
G36*
X120517142Y-102969318D02*
G01*
X120583327Y-102975837D01*
X120753166Y-103027357D01*
X120909691Y-103111022D01*
X120945429Y-103140352D01*
X121046886Y-103223614D01*
X121130148Y-103325071D01*
X121159478Y-103360809D01*
X121243143Y-103517334D01*
X121294663Y-103687173D01*
X121312059Y-103863800D01*
X121294663Y-104040427D01*
X121243143Y-104210266D01*
X121159478Y-104366791D01*
X121130148Y-104402529D01*
X121046886Y-104503986D01*
X120945429Y-104587248D01*
X120909691Y-104616578D01*
X120753166Y-104700243D01*
X120583327Y-104751763D01*
X120517143Y-104758281D01*
X120450960Y-104764800D01*
X120112440Y-104764800D01*
X120046257Y-104758281D01*
X119980073Y-104751763D01*
X119810234Y-104700243D01*
X119653709Y-104616578D01*
X119617971Y-104587248D01*
X119516514Y-104503986D01*
X119433252Y-104402529D01*
X119403922Y-104366791D01*
X119320257Y-104210266D01*
X119268737Y-104040427D01*
X119251341Y-103863800D01*
X119268737Y-103687173D01*
X119320257Y-103517334D01*
X119403922Y-103360809D01*
X119433252Y-103325071D01*
X119516514Y-103223614D01*
X119617971Y-103140352D01*
X119653709Y-103111022D01*
X119810234Y-103027357D01*
X119980073Y-102975837D01*
X120046258Y-102969318D01*
X120112440Y-102962800D01*
X120450960Y-102962800D01*
X120517142Y-102969318D01*
G37*
G36*
X140011643Y-101104319D02*
G01*
X140077827Y-101110837D01*
X140247666Y-101162357D01*
X140404191Y-101246022D01*
X140439929Y-101275352D01*
X140541386Y-101358614D01*
X140624648Y-101460071D01*
X140653978Y-101495809D01*
X140737643Y-101652334D01*
X140789163Y-101822173D01*
X140806559Y-101998800D01*
X140789163Y-102175427D01*
X140737643Y-102345266D01*
X140653978Y-102501791D01*
X140624648Y-102537529D01*
X140541386Y-102638986D01*
X140439929Y-102722248D01*
X140404191Y-102751578D01*
X140247666Y-102835243D01*
X140077827Y-102886763D01*
X140011642Y-102893282D01*
X139945460Y-102899800D01*
X139606940Y-102899800D01*
X139540758Y-102893282D01*
X139474573Y-102886763D01*
X139304734Y-102835243D01*
X139148209Y-102751578D01*
X139112471Y-102722248D01*
X139011014Y-102638986D01*
X138927752Y-102537529D01*
X138898422Y-102501791D01*
X138814757Y-102345266D01*
X138763237Y-102175427D01*
X138745841Y-101998800D01*
X138763237Y-101822173D01*
X138814757Y-101652334D01*
X138898422Y-101495809D01*
X138927752Y-101460071D01*
X139011014Y-101358614D01*
X139112471Y-101275352D01*
X139148209Y-101246022D01*
X139304734Y-101162357D01*
X139474573Y-101110837D01*
X139540758Y-101104318D01*
X139606940Y-101097800D01*
X139945460Y-101097800D01*
X140011643Y-101104319D01*
G37*
G36*
X120517143Y-100469319D02*
G01*
X120583327Y-100475837D01*
X120753166Y-100527357D01*
X120909691Y-100611022D01*
X120945429Y-100640352D01*
X121046886Y-100723614D01*
X121130148Y-100825071D01*
X121159478Y-100860809D01*
X121243143Y-101017334D01*
X121294663Y-101187173D01*
X121312059Y-101363800D01*
X121294663Y-101540427D01*
X121243143Y-101710266D01*
X121159478Y-101866791D01*
X121130148Y-101902529D01*
X121046886Y-102003986D01*
X120945429Y-102087248D01*
X120909691Y-102116578D01*
X120753166Y-102200243D01*
X120583327Y-102251763D01*
X120517143Y-102258281D01*
X120450960Y-102264800D01*
X120112440Y-102264800D01*
X120046257Y-102258281D01*
X119980073Y-102251763D01*
X119810234Y-102200243D01*
X119653709Y-102116578D01*
X119617971Y-102087248D01*
X119516514Y-102003986D01*
X119433252Y-101902529D01*
X119403922Y-101866791D01*
X119320257Y-101710266D01*
X119268737Y-101540427D01*
X119251341Y-101363800D01*
X119268737Y-101187173D01*
X119320257Y-101017334D01*
X119403922Y-100860809D01*
X119433252Y-100825071D01*
X119516514Y-100723614D01*
X119617971Y-100640352D01*
X119653709Y-100611022D01*
X119810234Y-100527357D01*
X119980073Y-100475837D01*
X120046257Y-100469319D01*
X120112440Y-100462800D01*
X120450960Y-100462800D01*
X120517143Y-100469319D01*
G37*
G36*
X140011642Y-98604318D02*
G01*
X140077827Y-98610837D01*
X140247666Y-98662357D01*
X140404191Y-98746022D01*
X140439929Y-98775352D01*
X140541386Y-98858614D01*
X140624648Y-98960071D01*
X140653978Y-98995809D01*
X140737643Y-99152334D01*
X140789163Y-99322173D01*
X140806559Y-99498800D01*
X140789163Y-99675427D01*
X140737643Y-99845266D01*
X140653978Y-100001791D01*
X140624648Y-100037529D01*
X140541386Y-100138986D01*
X140439929Y-100222248D01*
X140404191Y-100251578D01*
X140247666Y-100335243D01*
X140077827Y-100386763D01*
X140011642Y-100393282D01*
X139945460Y-100399800D01*
X139606940Y-100399800D01*
X139540758Y-100393282D01*
X139474573Y-100386763D01*
X139304734Y-100335243D01*
X139148209Y-100251578D01*
X139112471Y-100222248D01*
X139011014Y-100138986D01*
X138927752Y-100037529D01*
X138898422Y-100001791D01*
X138814757Y-99845266D01*
X138763237Y-99675427D01*
X138745841Y-99498800D01*
X138763237Y-99322173D01*
X138814757Y-99152334D01*
X138898422Y-98995809D01*
X138927752Y-98960071D01*
X139011014Y-98858614D01*
X139112471Y-98775352D01*
X139148209Y-98746022D01*
X139304734Y-98662357D01*
X139474573Y-98610837D01*
X139540758Y-98604318D01*
X139606940Y-98597800D01*
X139945460Y-98597800D01*
X140011642Y-98604318D01*
G37*
G36*
X120517143Y-97969319D02*
G01*
X120583327Y-97975837D01*
X120753166Y-98027357D01*
X120909691Y-98111022D01*
X120945429Y-98140352D01*
X121046886Y-98223614D01*
X121130148Y-98325071D01*
X121159478Y-98360809D01*
X121243143Y-98517334D01*
X121294663Y-98687173D01*
X121312059Y-98863800D01*
X121294663Y-99040427D01*
X121243143Y-99210266D01*
X121159478Y-99366791D01*
X121130148Y-99402529D01*
X121046886Y-99503986D01*
X120945429Y-99587248D01*
X120909691Y-99616578D01*
X120753166Y-99700243D01*
X120583327Y-99751763D01*
X120517142Y-99758282D01*
X120450960Y-99764800D01*
X120112440Y-99764800D01*
X120046257Y-99758281D01*
X119980073Y-99751763D01*
X119810234Y-99700243D01*
X119653709Y-99616578D01*
X119617971Y-99587248D01*
X119516514Y-99503986D01*
X119433252Y-99402529D01*
X119403922Y-99366791D01*
X119320257Y-99210266D01*
X119268737Y-99040427D01*
X119251341Y-98863800D01*
X119268737Y-98687173D01*
X119320257Y-98517334D01*
X119403922Y-98360809D01*
X119433252Y-98325071D01*
X119516514Y-98223614D01*
X119617971Y-98140352D01*
X119653709Y-98111022D01*
X119810234Y-98027357D01*
X119980073Y-97975837D01*
X120046257Y-97969319D01*
X120112440Y-97962800D01*
X120450960Y-97962800D01*
X120517143Y-97969319D01*
G37*
G36*
X140011643Y-96104319D02*
G01*
X140077827Y-96110837D01*
X140247666Y-96162357D01*
X140404191Y-96246022D01*
X140439929Y-96275352D01*
X140541386Y-96358614D01*
X140624648Y-96460071D01*
X140653978Y-96495809D01*
X140737643Y-96652334D01*
X140789163Y-96822173D01*
X140806559Y-96998800D01*
X140789163Y-97175427D01*
X140737643Y-97345266D01*
X140653978Y-97501791D01*
X140624648Y-97537529D01*
X140541386Y-97638986D01*
X140439929Y-97722248D01*
X140404191Y-97751578D01*
X140247666Y-97835243D01*
X140077827Y-97886763D01*
X140011642Y-97893282D01*
X139945460Y-97899800D01*
X139606940Y-97899800D01*
X139540758Y-97893282D01*
X139474573Y-97886763D01*
X139304734Y-97835243D01*
X139148209Y-97751578D01*
X139112471Y-97722248D01*
X139011014Y-97638986D01*
X138927752Y-97537529D01*
X138898422Y-97501791D01*
X138814757Y-97345266D01*
X138763237Y-97175427D01*
X138745841Y-96998800D01*
X138763237Y-96822173D01*
X138814757Y-96652334D01*
X138898422Y-96495809D01*
X138927752Y-96460071D01*
X139011014Y-96358614D01*
X139112471Y-96275352D01*
X139148209Y-96246022D01*
X139304734Y-96162357D01*
X139474573Y-96110837D01*
X139540758Y-96104318D01*
X139606940Y-96097800D01*
X139945460Y-96097800D01*
X140011643Y-96104319D01*
G37*
G36*
X120517143Y-95469319D02*
G01*
X120583327Y-95475837D01*
X120753166Y-95527357D01*
X120909691Y-95611022D01*
X120945429Y-95640352D01*
X121046886Y-95723614D01*
X121130148Y-95825071D01*
X121159478Y-95860809D01*
X121243143Y-96017334D01*
X121294663Y-96187173D01*
X121312059Y-96363800D01*
X121294663Y-96540427D01*
X121243143Y-96710266D01*
X121159478Y-96866791D01*
X121130148Y-96902529D01*
X121046886Y-97003986D01*
X120945429Y-97087248D01*
X120909691Y-97116578D01*
X120753166Y-97200243D01*
X120583327Y-97251763D01*
X120517143Y-97258281D01*
X120450960Y-97264800D01*
X120112440Y-97264800D01*
X120046257Y-97258281D01*
X119980073Y-97251763D01*
X119810234Y-97200243D01*
X119653709Y-97116578D01*
X119617971Y-97087248D01*
X119516514Y-97003986D01*
X119433252Y-96902529D01*
X119403922Y-96866791D01*
X119320257Y-96710266D01*
X119268737Y-96540427D01*
X119251341Y-96363800D01*
X119268737Y-96187173D01*
X119320257Y-96017334D01*
X119403922Y-95860809D01*
X119433252Y-95825071D01*
X119516514Y-95723614D01*
X119617971Y-95640352D01*
X119653709Y-95611022D01*
X119810234Y-95527357D01*
X119980073Y-95475837D01*
X120046257Y-95469319D01*
X120112440Y-95462800D01*
X120450960Y-95462800D01*
X120517143Y-95469319D01*
G37*
G36*
X140011642Y-93604318D02*
G01*
X140077827Y-93610837D01*
X140247666Y-93662357D01*
X140404191Y-93746022D01*
X140437434Y-93773304D01*
X140541386Y-93858614D01*
X140624648Y-93960071D01*
X140653978Y-93995809D01*
X140737643Y-94152334D01*
X140789163Y-94322173D01*
X140806559Y-94498800D01*
X140789163Y-94675427D01*
X140737643Y-94845266D01*
X140653978Y-95001791D01*
X140624648Y-95037529D01*
X140541386Y-95138986D01*
X140439929Y-95222248D01*
X140404191Y-95251578D01*
X140247666Y-95335243D01*
X140077827Y-95386763D01*
X140011643Y-95393281D01*
X139945460Y-95399800D01*
X139606940Y-95399800D01*
X139540757Y-95393281D01*
X139474573Y-95386763D01*
X139304734Y-95335243D01*
X139148209Y-95251578D01*
X139112471Y-95222248D01*
X139011014Y-95138986D01*
X138927752Y-95037529D01*
X138898422Y-95001791D01*
X138814757Y-94845266D01*
X138763237Y-94675427D01*
X138745841Y-94498800D01*
X138763237Y-94322173D01*
X138814757Y-94152334D01*
X138898422Y-93995809D01*
X138927752Y-93960071D01*
X139011014Y-93858614D01*
X139114966Y-93773304D01*
X139148209Y-93746022D01*
X139304734Y-93662357D01*
X139474573Y-93610837D01*
X139540758Y-93604318D01*
X139606940Y-93597800D01*
X139945460Y-93597800D01*
X140011642Y-93604318D01*
G37*
G36*
X127193002Y-93382501D02*
G01*
X127338774Y-93442882D01*
X127338776Y-93442883D01*
X127469968Y-93530542D01*
X127581538Y-93642112D01*
X127669197Y-93773304D01*
X127669198Y-93773306D01*
X127729579Y-93919078D01*
X127760360Y-94073827D01*
X127760360Y-94231613D01*
X127729579Y-94386362D01*
X127680857Y-94503986D01*
X127669197Y-94532136D01*
X127581538Y-94663328D01*
X127469968Y-94774898D01*
X127338776Y-94862557D01*
X127338775Y-94862558D01*
X127338774Y-94862558D01*
X127193002Y-94922939D01*
X127038253Y-94953720D01*
X126880467Y-94953720D01*
X126725718Y-94922939D01*
X126579946Y-94862558D01*
X126579945Y-94862558D01*
X126579944Y-94862557D01*
X126448752Y-94774898D01*
X126337182Y-94663328D01*
X126249523Y-94532136D01*
X126237863Y-94503986D01*
X126189141Y-94386362D01*
X126158360Y-94231613D01*
X126158360Y-94073827D01*
X126189141Y-93919078D01*
X126249522Y-93773306D01*
X126249523Y-93773304D01*
X126337182Y-93642112D01*
X126448752Y-93530542D01*
X126579944Y-93442883D01*
X126579946Y-93442882D01*
X126725718Y-93382501D01*
X126880467Y-93351720D01*
X127038253Y-93351720D01*
X127193002Y-93382501D01*
G37*
G36*
X132073002Y-93382501D02*
G01*
X132218774Y-93442882D01*
X132218776Y-93442883D01*
X132349968Y-93530542D01*
X132461538Y-93642112D01*
X132549197Y-93773304D01*
X132549198Y-93773306D01*
X132609579Y-93919078D01*
X132640360Y-94073827D01*
X132640360Y-94231613D01*
X132609579Y-94386362D01*
X132560857Y-94503986D01*
X132549197Y-94532136D01*
X132461538Y-94663328D01*
X132349968Y-94774898D01*
X132218776Y-94862557D01*
X132218775Y-94862558D01*
X132218774Y-94862558D01*
X132073002Y-94922939D01*
X131918253Y-94953720D01*
X131760467Y-94953720D01*
X131605718Y-94922939D01*
X131459946Y-94862558D01*
X131459945Y-94862558D01*
X131459944Y-94862557D01*
X131328752Y-94774898D01*
X131217182Y-94663328D01*
X131129523Y-94532136D01*
X131117863Y-94503986D01*
X131069141Y-94386362D01*
X131038360Y-94231613D01*
X131038360Y-94073827D01*
X131069141Y-93919078D01*
X131129522Y-93773306D01*
X131129523Y-93773304D01*
X131217182Y-93642112D01*
X131328752Y-93530542D01*
X131459944Y-93442883D01*
X131459946Y-93442882D01*
X131605718Y-93382501D01*
X131760467Y-93351720D01*
X131918253Y-93351720D01*
X132073002Y-93382501D01*
G37*
G36*
X120517143Y-92969319D02*
G01*
X120583327Y-92975837D01*
X120753166Y-93027357D01*
X120909691Y-93111022D01*
X120945429Y-93140352D01*
X121046886Y-93223614D01*
X121130148Y-93325071D01*
X121159478Y-93360809D01*
X121243143Y-93517334D01*
X121294663Y-93687173D01*
X121312059Y-93863800D01*
X121294663Y-94040427D01*
X121243143Y-94210266D01*
X121159478Y-94366791D01*
X121130148Y-94402529D01*
X121046886Y-94503986D01*
X120945429Y-94587248D01*
X120909691Y-94616578D01*
X120753166Y-94700243D01*
X120583327Y-94751763D01*
X120517142Y-94758282D01*
X120450960Y-94764800D01*
X120112440Y-94764800D01*
X120046258Y-94758282D01*
X119980073Y-94751763D01*
X119810234Y-94700243D01*
X119653709Y-94616578D01*
X119617971Y-94587248D01*
X119516514Y-94503986D01*
X119433252Y-94402529D01*
X119403922Y-94366791D01*
X119320257Y-94210266D01*
X119268737Y-94040427D01*
X119251341Y-93863800D01*
X119268737Y-93687173D01*
X119320257Y-93517334D01*
X119403922Y-93360809D01*
X119433252Y-93325071D01*
X119516514Y-93223614D01*
X119617971Y-93140352D01*
X119653709Y-93111022D01*
X119810234Y-93027357D01*
X119980073Y-92975837D01*
X120046257Y-92969319D01*
X120112440Y-92962800D01*
X120450960Y-92962800D01*
X120517143Y-92969319D01*
G37*
G36*
X140659800Y-91101789D02*
G01*
X140692852Y-91111815D01*
X140723303Y-91128092D01*
X140749999Y-91150001D01*
X140771908Y-91176697D01*
X140788185Y-91207148D01*
X140798211Y-91240200D01*
X140802200Y-91280703D01*
X140802200Y-92716897D01*
X140798211Y-92757400D01*
X140788185Y-92790452D01*
X140771908Y-92820903D01*
X140749999Y-92847599D01*
X140723303Y-92869508D01*
X140692852Y-92885785D01*
X140659800Y-92895811D01*
X140619297Y-92899800D01*
X138933103Y-92899800D01*
X138892600Y-92895811D01*
X138859548Y-92885785D01*
X138829097Y-92869508D01*
X138802401Y-92847599D01*
X138780492Y-92820903D01*
X138764215Y-92790452D01*
X138754189Y-92757400D01*
X138750200Y-92716897D01*
X138750200Y-91280703D01*
X138754189Y-91240200D01*
X138764215Y-91207148D01*
X138780492Y-91176697D01*
X138802401Y-91150001D01*
X138829097Y-91128092D01*
X138859548Y-91111815D01*
X138892600Y-91101789D01*
X138933103Y-91097800D01*
X140619297Y-91097800D01*
X140659800Y-91101789D01*
G37*
G36*
X121165300Y-90466789D02*
G01*
X121198352Y-90476815D01*
X121228803Y-90493092D01*
X121255499Y-90515001D01*
X121277408Y-90541697D01*
X121293685Y-90572148D01*
X121303711Y-90605200D01*
X121307700Y-90645703D01*
X121307700Y-92081897D01*
X121303711Y-92122400D01*
X121293685Y-92155452D01*
X121277408Y-92185903D01*
X121255499Y-92212599D01*
X121228803Y-92234508D01*
X121198352Y-92250785D01*
X121165300Y-92260811D01*
X121124797Y-92264800D01*
X119438603Y-92264800D01*
X119398100Y-92260811D01*
X119365048Y-92250785D01*
X119334597Y-92234508D01*
X119307901Y-92212599D01*
X119285992Y-92185903D01*
X119269715Y-92155452D01*
X119259689Y-92122400D01*
X119255700Y-92081897D01*
X119255700Y-90645703D01*
X119259689Y-90605200D01*
X119269715Y-90572148D01*
X119285992Y-90541697D01*
X119307901Y-90515001D01*
X119334597Y-90493092D01*
X119365048Y-90476815D01*
X119398100Y-90466789D01*
X119438603Y-90462800D01*
X121124797Y-90462800D01*
X121165300Y-90466789D01*
G37*
G36*
X135634239Y-82714267D02*
G01*
X135948282Y-82776734D01*
X136539926Y-83021801D01*
X137072392Y-83377584D01*
X137525216Y-83830408D01*
X137880999Y-84362874D01*
X138102628Y-84897934D01*
X138126066Y-84954519D01*
X138251000Y-85582603D01*
X138251000Y-86222997D01*
X138219300Y-86382363D01*
X138126066Y-86851082D01*
X137880999Y-87442726D01*
X137525216Y-87975192D01*
X137072392Y-88428016D01*
X136539926Y-88783799D01*
X135948282Y-89028866D01*
X135634239Y-89091333D01*
X135320197Y-89153800D01*
X134679803Y-89153800D01*
X134365761Y-89091333D01*
X134051718Y-89028866D01*
X133460074Y-88783799D01*
X132927608Y-88428016D01*
X132474784Y-87975192D01*
X132119001Y-87442726D01*
X131873934Y-86851082D01*
X131780700Y-86382363D01*
X131749000Y-86222997D01*
X131749000Y-85582603D01*
X131873934Y-84954519D01*
X131897372Y-84897934D01*
X132119001Y-84362874D01*
X132474784Y-83830408D01*
X132927608Y-83377584D01*
X133460074Y-83021801D01*
X134051718Y-82776734D01*
X134365761Y-82714267D01*
X134679803Y-82651800D01*
X135320197Y-82651800D01*
X135634239Y-82714267D01*
G37*
G36*
X121078707Y-84356437D02*
G01*
X121248546Y-84407957D01*
X121405071Y-84491622D01*
X121440809Y-84520952D01*
X121542266Y-84604214D01*
X121625528Y-84705671D01*
X121654858Y-84741409D01*
X121738523Y-84897934D01*
X121790043Y-85067774D01*
X121803080Y-85200143D01*
X121803080Y-85538658D01*
X121790043Y-85671027D01*
X121738523Y-85840866D01*
X121654858Y-85997391D01*
X121625528Y-86033129D01*
X121542266Y-86134586D01*
X121405069Y-86247179D01*
X121248547Y-86330842D01*
X121248545Y-86330843D01*
X121078706Y-86382363D01*
X120902080Y-86399759D01*
X120725453Y-86382363D01*
X120555614Y-86330843D01*
X120399089Y-86247178D01*
X120356830Y-86212497D01*
X120261894Y-86134586D01*
X120149301Y-85997389D01*
X120065638Y-85840867D01*
X120065637Y-85840865D01*
X120014117Y-85671026D01*
X120001080Y-85538657D01*
X120001080Y-85200142D01*
X120014117Y-85067773D01*
X120065637Y-84897934D01*
X120149302Y-84741409D01*
X120261895Y-84604215D01*
X120399090Y-84491622D01*
X120555615Y-84407957D01*
X120725454Y-84356437D01*
X120902080Y-84339041D01*
X121078707Y-84356437D01*
G37*
G36*
X123578707Y-84356437D02*
G01*
X123748546Y-84407957D01*
X123905071Y-84491622D01*
X123940809Y-84520952D01*
X124042266Y-84604214D01*
X124125528Y-84705671D01*
X124154858Y-84741409D01*
X124238523Y-84897934D01*
X124290043Y-85067774D01*
X124303080Y-85200143D01*
X124303080Y-85538658D01*
X124290043Y-85671027D01*
X124238523Y-85840866D01*
X124154858Y-85997391D01*
X124125528Y-86033129D01*
X124042266Y-86134586D01*
X123905069Y-86247179D01*
X123748547Y-86330842D01*
X123748545Y-86330843D01*
X123578706Y-86382363D01*
X123402080Y-86399759D01*
X123225453Y-86382363D01*
X123055614Y-86330843D01*
X122899089Y-86247178D01*
X122856830Y-86212497D01*
X122761894Y-86134586D01*
X122649301Y-85997389D01*
X122565638Y-85840867D01*
X122565637Y-85840865D01*
X122514117Y-85671026D01*
X122501080Y-85538657D01*
X122501080Y-85200142D01*
X122514117Y-85067773D01*
X122565637Y-84897934D01*
X122649302Y-84741409D01*
X122761895Y-84604215D01*
X122899090Y-84491622D01*
X123055615Y-84407957D01*
X123225454Y-84356437D01*
X123402080Y-84339041D01*
X123578707Y-84356437D01*
G37*
G36*
X126078707Y-84356437D02*
G01*
X126248546Y-84407957D01*
X126405071Y-84491622D01*
X126440809Y-84520952D01*
X126542266Y-84604214D01*
X126625528Y-84705671D01*
X126654858Y-84741409D01*
X126738523Y-84897934D01*
X126790043Y-85067774D01*
X126803080Y-85200143D01*
X126803080Y-85538658D01*
X126790043Y-85671027D01*
X126738523Y-85840866D01*
X126654858Y-85997391D01*
X126625528Y-86033129D01*
X126542266Y-86134586D01*
X126405069Y-86247179D01*
X126248547Y-86330842D01*
X126248545Y-86330843D01*
X126078706Y-86382363D01*
X125902080Y-86399759D01*
X125725453Y-86382363D01*
X125555614Y-86330843D01*
X125399089Y-86247178D01*
X125356830Y-86212497D01*
X125261894Y-86134586D01*
X125149301Y-85997389D01*
X125065638Y-85840867D01*
X125065637Y-85840865D01*
X125014117Y-85671026D01*
X125001080Y-85538657D01*
X125001080Y-85200142D01*
X125014117Y-85067773D01*
X125065637Y-84897934D01*
X125149302Y-84741409D01*
X125261895Y-84604215D01*
X125399090Y-84491622D01*
X125555615Y-84407957D01*
X125725454Y-84356437D01*
X125902080Y-84339041D01*
X126078707Y-84356437D01*
G37*
G36*
X129160680Y-84347389D02*
G01*
X129193732Y-84357415D01*
X129224183Y-84373692D01*
X129250879Y-84395601D01*
X129272788Y-84422297D01*
X129289065Y-84452748D01*
X129299091Y-84485800D01*
X129303080Y-84526303D01*
X129303080Y-86212497D01*
X129299091Y-86253000D01*
X129289065Y-86286052D01*
X129272788Y-86316503D01*
X129250879Y-86343199D01*
X129224183Y-86365108D01*
X129193732Y-86381385D01*
X129160680Y-86391411D01*
X129120177Y-86395400D01*
X127683983Y-86395400D01*
X127643480Y-86391411D01*
X127610428Y-86381385D01*
X127579977Y-86365108D01*
X127553281Y-86343199D01*
X127531372Y-86316503D01*
X127515095Y-86286052D01*
X127505069Y-86253000D01*
X127501080Y-86212497D01*
X127501080Y-84526303D01*
X127505069Y-84485800D01*
X127515095Y-84452748D01*
X127531372Y-84422297D01*
X127553281Y-84395601D01*
X127579977Y-84373692D01*
X127610428Y-84357415D01*
X127643480Y-84347389D01*
X127683983Y-84343400D01*
X129120177Y-84343400D01*
X129160680Y-84347389D01*
G37*
M02*
