M48
; DRILL file {KiCad (5.1.6)-1} date 02/24/23 22:08:08
; FORMAT={-:-/ absolute / inch / decimal}
; #@! TF.CreationDate,2023-02-24T22:08:08-06:00
; #@! TF.GenerationSoftware,Kicad,Pcbnew,(5.1.6)-1
; #@! TF.FileFunction,Plated,1,2,PTH
FMAT,2
INCH
T1C0.0079
T2C0.0250
T3C0.0256
T4C0.0315
T5C0.0374
T6C0.0394
T7C0.1260
%
G90
G05
T1
X4.68Y-4.3472
X4.7025Y-5.3145
X4.7025Y-5.357
X4.7183Y-4.4195
X4.7475Y-5.1795
X4.7475Y-5.2095
X4.7475Y-5.2395
X4.7825Y-5.1795
X4.7825Y-5.2095
X4.7825Y-5.2395
X4.8175Y-5.1795
X4.8175Y-5.2095
X4.8175Y-5.2395
X4.8233Y-4.3499
X4.8525Y-5.1795
X4.8525Y-5.2095
X4.8525Y-5.2395
X4.8875Y-5.1795
X4.8875Y-5.2095
X4.8875Y-5.2395
X4.8906Y-3.894
X4.897Y-4.292
X4.8975Y-5.002
X4.9225Y-5.1795
X4.9225Y-5.2095
X4.9225Y-5.2395
X4.9467Y-3.5066
X4.9467Y-4.1767
X4.9575Y-5.1795
X4.9575Y-5.2095
X4.9575Y-5.2395
X5.0233Y-4.3895
X5.0233Y-4.4495
X5.1093Y-5.3989
X5.115Y-5.0795
X5.1242Y-3.5066
X5.1352Y-3.8932
X5.2189Y-3.9851
X5.237Y-5.555
X5.3014Y-3.9528
X5.3034Y-3.895
X5.3172Y-4.3862
X5.355Y-4.2126
X5.361Y-4.787
X5.431Y-4.8785
X5.493Y-5.5934
X5.495Y-3.2906
X5.537Y-4.944
X5.538Y-4.845
X5.555Y-5.447
X5.555Y-5.512
T2
X4.855Y-5.397
X5.115Y-5.3295
T4
X4.9984Y-3.7068
X5.1905Y-3.7068
T5
X5.503Y-3.622
X5.503Y-3.7204
X5.503Y-3.8189
X5.503Y-3.9173
X5.503Y-4.0157
X5.503Y-4.1141
X5.503Y-4.2126
X5.503Y-4.311
X4.7355Y-3.597
X4.7355Y-3.6954
X4.7355Y-3.7939
X4.7355Y-3.8923
X4.7355Y-3.9907
X4.7355Y-4.0891
X4.7599Y-3.361
X4.8583Y-3.361
X4.9568Y-3.361
X5.0552Y-3.361
X5.405Y-5.0991
X5.405Y-5.1976
X5.405Y-5.296
X4.8072Y-4.5945
X4.9056Y-4.5945
X5.0041Y-4.5945
X5.1025Y-4.5945
T6
X5.3025Y-4.536
X5.4025Y-4.536
X5.5025Y-4.536
X5.0175Y-4.8336
X5.0175Y-4.932
T7
X5.315Y-3.382
X4.9213Y-5.6073
T3
G00X5.1949Y-5.6601
M15
G01X5.1949Y-5.7035
M16
G05
G00X5.1949Y-5.8346
M15
G01X5.1949Y-5.8582
M16
G05
G00X5.5351Y-5.6601
M15
G01X5.5351Y-5.7035
M16
G05
G00X5.5351Y-5.8346
M15
G01X5.5351Y-5.8582
M16
G05
T0
M30
