G04 #@! TF.GenerationSoftware,KiCad,Pcbnew,(5.1.6)-1*
G04 #@! TF.CreationDate,2023-02-24T22:08:04-06:00*
G04 #@! TF.ProjectId,EncoderBoard3(1.2),456e636f-6465-4724-926f-617264332831,v1.0*
G04 #@! TF.SameCoordinates,Original*
G04 #@! TF.FileFunction,Copper,L1,Top*
G04 #@! TF.FilePolarity,Positive*
%FSLAX46Y46*%
G04 Gerber Fmt 4.6, Leading zero omitted, Abs format (unit mm)*
G04 Created by KiCad (PCBNEW (5.1.6)-1) date 2023-02-24 22:08:04*
%MOMM*%
%LPD*%
G01*
G04 APERTURE LIST*
G04 #@! TA.AperFunction,ComponentPad*
%ADD10O,1.700000X1.950000*%
G04 #@! TD*
G04 #@! TA.AperFunction,ComponentPad*
%ADD11C,1.500000*%
G04 #@! TD*
G04 #@! TA.AperFunction,ComponentPad*
%ADD12O,1.050000X2.100000*%
G04 #@! TD*
G04 #@! TA.AperFunction,SMDPad,CuDef*
%ADD13R,0.600000X1.450000*%
G04 #@! TD*
G04 #@! TA.AperFunction,SMDPad,CuDef*
%ADD14R,0.300000X1.450000*%
G04 #@! TD*
G04 #@! TA.AperFunction,ComponentPad*
%ADD15O,1.950000X1.700000*%
G04 #@! TD*
G04 #@! TA.AperFunction,ComponentPad*
%ADD16O,2.000000X1.700000*%
G04 #@! TD*
G04 #@! TA.AperFunction,SMDPad,CuDef*
%ADD17R,0.900000X0.800000*%
G04 #@! TD*
G04 #@! TA.AperFunction,SMDPad,CuDef*
%ADD18R,0.600000X1.200000*%
G04 #@! TD*
G04 #@! TA.AperFunction,SMDPad,CuDef*
%ADD19R,1.200000X0.600000*%
G04 #@! TD*
G04 #@! TA.AperFunction,SMDPad,CuDef*
%ADD20R,0.700000X1.525000*%
G04 #@! TD*
G04 #@! TA.AperFunction,SMDPad,CuDef*
%ADD21R,3.402000X2.513000*%
G04 #@! TD*
G04 #@! TA.AperFunction,SMDPad,CuDef*
%ADD22R,0.610000X1.420000*%
G04 #@! TD*
G04 #@! TA.AperFunction,SMDPad,CuDef*
%ADD23R,0.804800X0.300000*%
G04 #@! TD*
G04 #@! TA.AperFunction,ComponentPad*
%ADD24O,1.700000X1.700000*%
G04 #@! TD*
G04 #@! TA.AperFunction,ComponentPad*
%ADD25R,1.700000X1.700000*%
G04 #@! TD*
G04 #@! TA.AperFunction,ComponentPad*
%ADD26C,6.400000*%
G04 #@! TD*
G04 #@! TA.AperFunction,SMDPad,CuDef*
%ADD27R,1.800000X2.500000*%
G04 #@! TD*
G04 #@! TA.AperFunction,ViaPad*
%ADD28C,0.450000*%
G04 #@! TD*
G04 #@! TA.AperFunction,ViaPad*
%ADD29C,1.270000*%
G04 #@! TD*
G04 #@! TA.AperFunction,Conductor*
%ADD30C,0.635000*%
G04 #@! TD*
G04 #@! TA.AperFunction,Conductor*
%ADD31C,0.254000*%
G04 #@! TD*
G04 #@! TA.AperFunction,Conductor*
%ADD32C,2.540000*%
G04 #@! TD*
G04 #@! TA.AperFunction,Conductor*
%ADD33C,0.127000*%
G04 #@! TD*
G04 #@! TA.AperFunction,Conductor*
%ADD34C,1.270000*%
G04 #@! TD*
G04 APERTURE END LIST*
G04 #@! TA.AperFunction,ComponentPad*
G36*
G01*
X130453500Y-115975300D02*
X130453500Y-117425300D01*
G75*
G02*
X130203500Y-117675300I-250000J0D01*
G01*
X129003500Y-117675300D01*
G75*
G02*
X128753500Y-117425300I0J250000D01*
G01*
X128753500Y-115975300D01*
G75*
G02*
X129003500Y-115725300I250000J0D01*
G01*
X130203500Y-115725300D01*
G75*
G02*
X130453500Y-115975300I0J-250000D01*
G01*
G37*
G04 #@! TD.AperFunction*
D10*
X127103500Y-116700300D03*
X124603500Y-116700300D03*
X122103500Y-116700300D03*
G04 #@! TA.AperFunction,SMDPad,CuDef*
G36*
G01*
X139810500Y-88095280D02*
X139335500Y-88095280D01*
G75*
G02*
X139098000Y-87857780I0J237500D01*
G01*
X139098000Y-87282780D01*
G75*
G02*
X139335500Y-87045280I237500J0D01*
G01*
X139810500Y-87045280D01*
G75*
G02*
X140048000Y-87282780I0J-237500D01*
G01*
X140048000Y-87857780D01*
G75*
G02*
X139810500Y-88095280I-237500J0D01*
G01*
G37*
G04 #@! TD.AperFunction*
G04 #@! TA.AperFunction,SMDPad,CuDef*
G36*
G01*
X139810500Y-86345280D02*
X139335500Y-86345280D01*
G75*
G02*
X139098000Y-86107780I0J237500D01*
G01*
X139098000Y-85532780D01*
G75*
G02*
X139335500Y-85295280I237500J0D01*
G01*
X139810500Y-85295280D01*
G75*
G02*
X140048000Y-85532780I0J-237500D01*
G01*
X140048000Y-86107780D01*
G75*
G02*
X139810500Y-86345280I-237500J0D01*
G01*
G37*
G04 #@! TD.AperFunction*
G04 #@! TA.AperFunction,SMDPad,CuDef*
G36*
G01*
X135957300Y-110646960D02*
X136432300Y-110646960D01*
G75*
G02*
X136669800Y-110884460I0J-237500D01*
G01*
X136669800Y-111459460D01*
G75*
G02*
X136432300Y-111696960I-237500J0D01*
G01*
X135957300Y-111696960D01*
G75*
G02*
X135719800Y-111459460I0J237500D01*
G01*
X135719800Y-110884460D01*
G75*
G02*
X135957300Y-110646960I237500J0D01*
G01*
G37*
G04 #@! TD.AperFunction*
G04 #@! TA.AperFunction,SMDPad,CuDef*
G36*
G01*
X135957300Y-108896960D02*
X136432300Y-108896960D01*
G75*
G02*
X136669800Y-109134460I0J-237500D01*
G01*
X136669800Y-109709460D01*
G75*
G02*
X136432300Y-109946960I-237500J0D01*
G01*
X135957300Y-109946960D01*
G75*
G02*
X135719800Y-109709460I0J237500D01*
G01*
X135719800Y-109134460D01*
G75*
G02*
X135957300Y-108896960I237500J0D01*
G01*
G37*
G04 #@! TD.AperFunction*
D11*
X126959360Y-94152720D03*
X131839360Y-94152720D03*
G04 #@! TA.AperFunction,SMDPad,CuDef*
G36*
G01*
X136442460Y-103698560D02*
X135967460Y-103698560D01*
G75*
G02*
X135729960Y-103461060I0J237500D01*
G01*
X135729960Y-102886060D01*
G75*
G02*
X135967460Y-102648560I237500J0D01*
G01*
X136442460Y-102648560D01*
G75*
G02*
X136679960Y-102886060I0J-237500D01*
G01*
X136679960Y-103461060D01*
G75*
G02*
X136442460Y-103698560I-237500J0D01*
G01*
G37*
G04 #@! TD.AperFunction*
G04 #@! TA.AperFunction,SMDPad,CuDef*
G36*
G01*
X136442460Y-105448560D02*
X135967460Y-105448560D01*
G75*
G02*
X135729960Y-105211060I0J237500D01*
G01*
X135729960Y-104636060D01*
G75*
G02*
X135967460Y-104398560I237500J0D01*
G01*
X136442460Y-104398560D01*
G75*
G02*
X136679960Y-104636060I0J-237500D01*
G01*
X136679960Y-105211060D01*
G75*
G02*
X136442460Y-105448560I-237500J0D01*
G01*
G37*
G04 #@! TD.AperFunction*
G04 #@! TA.AperFunction,SMDPad,CuDef*
G36*
G01*
X134903220Y-105776280D02*
X134428220Y-105776280D01*
G75*
G02*
X134190720Y-105538780I0J237500D01*
G01*
X134190720Y-104963780D01*
G75*
G02*
X134428220Y-104726280I237500J0D01*
G01*
X134903220Y-104726280D01*
G75*
G02*
X135140720Y-104963780I0J-237500D01*
G01*
X135140720Y-105538780D01*
G75*
G02*
X134903220Y-105776280I-237500J0D01*
G01*
G37*
G04 #@! TD.AperFunction*
G04 #@! TA.AperFunction,SMDPad,CuDef*
G36*
G01*
X134903220Y-107526280D02*
X134428220Y-107526280D01*
G75*
G02*
X134190720Y-107288780I0J237500D01*
G01*
X134190720Y-106713780D01*
G75*
G02*
X134428220Y-106476280I237500J0D01*
G01*
X134903220Y-106476280D01*
G75*
G02*
X135140720Y-106713780I0J-237500D01*
G01*
X135140720Y-107288780D01*
G75*
G02*
X134903220Y-107526280I-237500J0D01*
G01*
G37*
G04 #@! TD.AperFunction*
G04 #@! TA.AperFunction,SMDPad,CuDef*
G36*
G01*
X134893060Y-103985520D02*
X134418060Y-103985520D01*
G75*
G02*
X134180560Y-103748020I0J237500D01*
G01*
X134180560Y-103173020D01*
G75*
G02*
X134418060Y-102935520I237500J0D01*
G01*
X134893060Y-102935520D01*
G75*
G02*
X135130560Y-103173020I0J-237500D01*
G01*
X135130560Y-103748020D01*
G75*
G02*
X134893060Y-103985520I-237500J0D01*
G01*
G37*
G04 #@! TD.AperFunction*
G04 #@! TA.AperFunction,SMDPad,CuDef*
G36*
G01*
X134893060Y-102235520D02*
X134418060Y-102235520D01*
G75*
G02*
X134180560Y-101998020I0J237500D01*
G01*
X134180560Y-101423020D01*
G75*
G02*
X134418060Y-101185520I237500J0D01*
G01*
X134893060Y-101185520D01*
G75*
G02*
X135130560Y-101423020I0J-237500D01*
G01*
X135130560Y-101998020D01*
G75*
G02*
X134893060Y-102235520I-237500J0D01*
G01*
G37*
G04 #@! TD.AperFunction*
D12*
X140591000Y-148497800D03*
X131951000Y-148497800D03*
X140591000Y-144317800D03*
X131951000Y-144317800D03*
D13*
X139521000Y-143402800D03*
X138721000Y-143402800D03*
D14*
X138021000Y-143402800D03*
X137521000Y-143402800D03*
X137021000Y-143402800D03*
X136521000Y-143402800D03*
X134521000Y-143402800D03*
X135021000Y-143402800D03*
X135521000Y-143402800D03*
X136021000Y-143402800D03*
D13*
X133821000Y-143402800D03*
X133021000Y-143402800D03*
G04 #@! TA.AperFunction,ComponentPad*
G36*
G01*
X129252080Y-84644400D02*
X129252080Y-86094400D01*
G75*
G02*
X129002080Y-86344400I-250000J0D01*
G01*
X127802080Y-86344400D01*
G75*
G02*
X127552080Y-86094400I0J250000D01*
G01*
X127552080Y-84644400D01*
G75*
G02*
X127802080Y-84394400I250000J0D01*
G01*
X129002080Y-84394400D01*
G75*
G02*
X129252080Y-84644400I0J-250000D01*
G01*
G37*
G04 #@! TD.AperFunction*
D10*
X125902080Y-85369400D03*
X123402080Y-85369400D03*
X120902080Y-85369400D03*
G04 #@! TA.AperFunction,ComponentPad*
G36*
G01*
X119556700Y-90513800D02*
X121006700Y-90513800D01*
G75*
G02*
X121256700Y-90763800I0J-250000D01*
G01*
X121256700Y-91963800D01*
G75*
G02*
X121006700Y-92213800I-250000J0D01*
G01*
X119556700Y-92213800D01*
G75*
G02*
X119306700Y-91963800I0J250000D01*
G01*
X119306700Y-90763800D01*
G75*
G02*
X119556700Y-90513800I250000J0D01*
G01*
G37*
G04 #@! TD.AperFunction*
D15*
X120281700Y-93863800D03*
X120281700Y-96363800D03*
X120281700Y-98863800D03*
X120281700Y-101363800D03*
X120281700Y-103863800D03*
D16*
X127444500Y-122772800D03*
G04 #@! TA.AperFunction,ComponentPad*
G36*
G01*
X128194500Y-126122800D02*
X126694500Y-126122800D01*
G75*
G02*
X126444500Y-125872800I0J250000D01*
G01*
X126444500Y-124672800D01*
G75*
G02*
X126694500Y-124422800I250000J0D01*
G01*
X128194500Y-124422800D01*
G75*
G02*
X128444500Y-124672800I0J-250000D01*
G01*
X128444500Y-125872800D01*
G75*
G02*
X128194500Y-126122800I-250000J0D01*
G01*
G37*
G04 #@! TD.AperFunction*
G04 #@! TA.AperFunction,SMDPad,CuDef*
G36*
G01*
X139250000Y-138591300D02*
X139250000Y-138116300D01*
G75*
G02*
X139487500Y-137878800I237500J0D01*
G01*
X140062500Y-137878800D01*
G75*
G02*
X140300000Y-138116300I0J-237500D01*
G01*
X140300000Y-138591300D01*
G75*
G02*
X140062500Y-138828800I-237500J0D01*
G01*
X139487500Y-138828800D01*
G75*
G02*
X139250000Y-138591300I0J237500D01*
G01*
G37*
G04 #@! TD.AperFunction*
G04 #@! TA.AperFunction,SMDPad,CuDef*
G36*
G01*
X137500000Y-138591300D02*
X137500000Y-138116300D01*
G75*
G02*
X137737500Y-137878800I237500J0D01*
G01*
X138312500Y-137878800D01*
G75*
G02*
X138550000Y-138116300I0J-237500D01*
G01*
X138550000Y-138591300D01*
G75*
G02*
X138312500Y-138828800I-237500J0D01*
G01*
X137737500Y-138828800D01*
G75*
G02*
X137500000Y-138591300I0J237500D01*
G01*
G37*
G04 #@! TD.AperFunction*
G04 #@! TA.AperFunction,SMDPad,CuDef*
G36*
G01*
X139250000Y-140242300D02*
X139250000Y-139767300D01*
G75*
G02*
X139487500Y-139529800I237500J0D01*
G01*
X140062500Y-139529800D01*
G75*
G02*
X140300000Y-139767300I0J-237500D01*
G01*
X140300000Y-140242300D01*
G75*
G02*
X140062500Y-140479800I-237500J0D01*
G01*
X139487500Y-140479800D01*
G75*
G02*
X139250000Y-140242300I0J237500D01*
G01*
G37*
G04 #@! TD.AperFunction*
G04 #@! TA.AperFunction,SMDPad,CuDef*
G36*
G01*
X137500000Y-140242300D02*
X137500000Y-139767300D01*
G75*
G02*
X137737500Y-139529800I237500J0D01*
G01*
X138312500Y-139529800D01*
G75*
G02*
X138550000Y-139767300I0J-237500D01*
G01*
X138550000Y-140242300D01*
G75*
G02*
X138312500Y-140479800I-237500J0D01*
G01*
X137737500Y-140479800D01*
G75*
G02*
X137500000Y-140242300I0J237500D01*
G01*
G37*
G04 #@! TD.AperFunction*
D17*
X137144000Y-118960900D03*
X135144000Y-119910900D03*
X135144000Y-118010900D03*
G04 #@! TA.AperFunction,SMDPad,CuDef*
G36*
G01*
X121755420Y-111281200D02*
X121755420Y-111756200D01*
G75*
G02*
X121517920Y-111993700I-237500J0D01*
G01*
X120942920Y-111993700D01*
G75*
G02*
X120705420Y-111756200I0J237500D01*
G01*
X120705420Y-111281200D01*
G75*
G02*
X120942920Y-111043700I237500J0D01*
G01*
X121517920Y-111043700D01*
G75*
G02*
X121755420Y-111281200I0J-237500D01*
G01*
G37*
G04 #@! TD.AperFunction*
G04 #@! TA.AperFunction,SMDPad,CuDef*
G36*
G01*
X123505420Y-111281200D02*
X123505420Y-111756200D01*
G75*
G02*
X123267920Y-111993700I-237500J0D01*
G01*
X122692920Y-111993700D01*
G75*
G02*
X122455420Y-111756200I0J237500D01*
G01*
X122455420Y-111281200D01*
G75*
G02*
X122692920Y-111043700I237500J0D01*
G01*
X123267920Y-111043700D01*
G75*
G02*
X123505420Y-111281200I0J-237500D01*
G01*
G37*
G04 #@! TD.AperFunction*
G04 #@! TA.AperFunction,SMDPad,CuDef*
G36*
G01*
X121145760Y-109007900D02*
X121145760Y-109482900D01*
G75*
G02*
X120908260Y-109720400I-237500J0D01*
G01*
X120333260Y-109720400D01*
G75*
G02*
X120095760Y-109482900I0J237500D01*
G01*
X120095760Y-109007900D01*
G75*
G02*
X120333260Y-108770400I237500J0D01*
G01*
X120908260Y-108770400D01*
G75*
G02*
X121145760Y-109007900I0J-237500D01*
G01*
G37*
G04 #@! TD.AperFunction*
G04 #@! TA.AperFunction,SMDPad,CuDef*
G36*
G01*
X119395760Y-109007900D02*
X119395760Y-109482900D01*
G75*
G02*
X119158260Y-109720400I-237500J0D01*
G01*
X118583260Y-109720400D01*
G75*
G02*
X118345760Y-109482900I0J237500D01*
G01*
X118345760Y-109007900D01*
G75*
G02*
X118583260Y-108770400I237500J0D01*
G01*
X119158260Y-108770400D01*
G75*
G02*
X119395760Y-109007900I0J-237500D01*
G01*
G37*
G04 #@! TD.AperFunction*
G04 #@! TA.AperFunction,SMDPad,CuDef*
G36*
G01*
X120093220Y-107918260D02*
X120093220Y-107443260D01*
G75*
G02*
X120330720Y-107205760I237500J0D01*
G01*
X120905720Y-107205760D01*
G75*
G02*
X121143220Y-107443260I0J-237500D01*
G01*
X121143220Y-107918260D01*
G75*
G02*
X120905720Y-108155760I-237500J0D01*
G01*
X120330720Y-108155760D01*
G75*
G02*
X120093220Y-107918260I0J237500D01*
G01*
G37*
G04 #@! TD.AperFunction*
G04 #@! TA.AperFunction,SMDPad,CuDef*
G36*
G01*
X118343220Y-107918260D02*
X118343220Y-107443260D01*
G75*
G02*
X118580720Y-107205760I237500J0D01*
G01*
X119155720Y-107205760D01*
G75*
G02*
X119393220Y-107443260I0J-237500D01*
G01*
X119393220Y-107918260D01*
G75*
G02*
X119155720Y-108155760I-237500J0D01*
G01*
X118580720Y-108155760D01*
G75*
G02*
X118343220Y-107918260I0J237500D01*
G01*
G37*
G04 #@! TD.AperFunction*
D18*
X131511000Y-133357300D03*
X132461000Y-133357300D03*
X133411000Y-133357300D03*
X133411000Y-135857300D03*
X132461000Y-135857300D03*
X131511000Y-135857300D03*
D19*
X134239000Y-137723800D03*
X134239000Y-138673800D03*
X134239000Y-139623800D03*
X131739000Y-139623800D03*
X131739000Y-138673800D03*
X131739000Y-137723800D03*
G04 #@! TA.AperFunction,SMDPad,CuDef*
G36*
G01*
X123857500Y-125891300D02*
X123857500Y-125416300D01*
G75*
G02*
X124095000Y-125178800I237500J0D01*
G01*
X124670000Y-125178800D01*
G75*
G02*
X124907500Y-125416300I0J-237500D01*
G01*
X124907500Y-125891300D01*
G75*
G02*
X124670000Y-126128800I-237500J0D01*
G01*
X124095000Y-126128800D01*
G75*
G02*
X123857500Y-125891300I0J237500D01*
G01*
G37*
G04 #@! TD.AperFunction*
G04 #@! TA.AperFunction,SMDPad,CuDef*
G36*
G01*
X122107500Y-125891300D02*
X122107500Y-125416300D01*
G75*
G02*
X122345000Y-125178800I237500J0D01*
G01*
X122920000Y-125178800D01*
G75*
G02*
X123157500Y-125416300I0J-237500D01*
G01*
X123157500Y-125891300D01*
G75*
G02*
X122920000Y-126128800I-237500J0D01*
G01*
X122345000Y-126128800D01*
G75*
G02*
X122107500Y-125891300I0J237500D01*
G01*
G37*
G04 #@! TD.AperFunction*
G04 #@! TA.AperFunction,SMDPad,CuDef*
G36*
G01*
X131207500Y-122574800D02*
X131682500Y-122574800D01*
G75*
G02*
X131920000Y-122812300I0J-237500D01*
G01*
X131920000Y-123387300D01*
G75*
G02*
X131682500Y-123624800I-237500J0D01*
G01*
X131207500Y-123624800D01*
G75*
G02*
X130970000Y-123387300I0J237500D01*
G01*
X130970000Y-122812300D01*
G75*
G02*
X131207500Y-122574800I237500J0D01*
G01*
G37*
G04 #@! TD.AperFunction*
G04 #@! TA.AperFunction,SMDPad,CuDef*
G36*
G01*
X131207500Y-120824800D02*
X131682500Y-120824800D01*
G75*
G02*
X131920000Y-121062300I0J-237500D01*
G01*
X131920000Y-121637300D01*
G75*
G02*
X131682500Y-121874800I-237500J0D01*
G01*
X131207500Y-121874800D01*
G75*
G02*
X130970000Y-121637300I0J237500D01*
G01*
X130970000Y-121062300D01*
G75*
G02*
X131207500Y-120824800I237500J0D01*
G01*
G37*
G04 #@! TD.AperFunction*
G04 #@! TA.AperFunction,SMDPad,CuDef*
G36*
G01*
X130158500Y-131082300D02*
X129683500Y-131082300D01*
G75*
G02*
X129446000Y-130844800I0J237500D01*
G01*
X129446000Y-130269800D01*
G75*
G02*
X129683500Y-130032300I237500J0D01*
G01*
X130158500Y-130032300D01*
G75*
G02*
X130396000Y-130269800I0J-237500D01*
G01*
X130396000Y-130844800D01*
G75*
G02*
X130158500Y-131082300I-237500J0D01*
G01*
G37*
G04 #@! TD.AperFunction*
G04 #@! TA.AperFunction,SMDPad,CuDef*
G36*
G01*
X130158500Y-132832300D02*
X129683500Y-132832300D01*
G75*
G02*
X129446000Y-132594800I0J237500D01*
G01*
X129446000Y-132019800D01*
G75*
G02*
X129683500Y-131782300I237500J0D01*
G01*
X130158500Y-131782300D01*
G75*
G02*
X130396000Y-132019800I0J-237500D01*
G01*
X130396000Y-132594800D01*
G75*
G02*
X130158500Y-132832300I-237500J0D01*
G01*
G37*
G04 #@! TD.AperFunction*
G04 #@! TA.AperFunction,SMDPad,CuDef*
G36*
G01*
X122113500Y-136909800D02*
X122113500Y-137384800D01*
G75*
G02*
X121876000Y-137622300I-237500J0D01*
G01*
X121301000Y-137622300D01*
G75*
G02*
X121063500Y-137384800I0J237500D01*
G01*
X121063500Y-136909800D01*
G75*
G02*
X121301000Y-136672300I237500J0D01*
G01*
X121876000Y-136672300D01*
G75*
G02*
X122113500Y-136909800I0J-237500D01*
G01*
G37*
G04 #@! TD.AperFunction*
G04 #@! TA.AperFunction,SMDPad,CuDef*
G36*
G01*
X120363500Y-136909800D02*
X120363500Y-137384800D01*
G75*
G02*
X120126000Y-137622300I-237500J0D01*
G01*
X119551000Y-137622300D01*
G75*
G02*
X119313500Y-137384800I0J237500D01*
G01*
X119313500Y-136909800D01*
G75*
G02*
X119551000Y-136672300I237500J0D01*
G01*
X120126000Y-136672300D01*
G75*
G02*
X120363500Y-136909800I0J-237500D01*
G01*
G37*
G04 #@! TD.AperFunction*
D17*
X122444000Y-121716800D03*
X124444000Y-120766800D03*
X124444000Y-122666800D03*
D18*
X131511000Y-128257300D03*
X132461000Y-128257300D03*
X133411000Y-128257300D03*
X133411000Y-130757300D03*
X132461000Y-130757300D03*
X131511000Y-130757300D03*
D20*
X120840500Y-135033300D03*
X122110500Y-135033300D03*
X123380500Y-135033300D03*
X124650500Y-135033300D03*
X124650500Y-129609300D03*
X123380500Y-129609300D03*
X122110500Y-129609300D03*
X120840500Y-129609300D03*
D21*
X122745500Y-132321300D03*
G04 #@! TA.AperFunction,SMDPad,CuDef*
G36*
G01*
X131207500Y-126003800D02*
X131682500Y-126003800D01*
G75*
G02*
X131920000Y-126241300I0J-237500D01*
G01*
X131920000Y-126816300D01*
G75*
G02*
X131682500Y-127053800I-237500J0D01*
G01*
X131207500Y-127053800D01*
G75*
G02*
X130970000Y-126816300I0J237500D01*
G01*
X130970000Y-126241300D01*
G75*
G02*
X131207500Y-126003800I237500J0D01*
G01*
G37*
G04 #@! TD.AperFunction*
G04 #@! TA.AperFunction,SMDPad,CuDef*
G36*
G01*
X131207500Y-124253800D02*
X131682500Y-124253800D01*
G75*
G02*
X131920000Y-124491300I0J-237500D01*
G01*
X131920000Y-125066300D01*
G75*
G02*
X131682500Y-125303800I-237500J0D01*
G01*
X131207500Y-125303800D01*
G75*
G02*
X130970000Y-125066300I0J237500D01*
G01*
X130970000Y-124491300D01*
G75*
G02*
X131207500Y-124253800I237500J0D01*
G01*
G37*
G04 #@! TD.AperFunction*
D22*
X136169400Y-123088400D03*
D23*
X135217000Y-123588400D03*
X135217000Y-123088400D03*
X135217000Y-122588400D03*
X137121800Y-122588400D03*
X137121800Y-123088400D03*
X137121800Y-123588400D03*
G04 #@! TA.AperFunction,SMDPad,CuDef*
G36*
G01*
X135438400Y-125390900D02*
X135438400Y-125865900D01*
G75*
G02*
X135200900Y-126103400I-237500J0D01*
G01*
X134625900Y-126103400D01*
G75*
G02*
X134388400Y-125865900I0J237500D01*
G01*
X134388400Y-125390900D01*
G75*
G02*
X134625900Y-125153400I237500J0D01*
G01*
X135200900Y-125153400D01*
G75*
G02*
X135438400Y-125390900I0J-237500D01*
G01*
G37*
G04 #@! TD.AperFunction*
G04 #@! TA.AperFunction,SMDPad,CuDef*
G36*
G01*
X137188400Y-125390900D02*
X137188400Y-125865900D01*
G75*
G02*
X136950900Y-126103400I-237500J0D01*
G01*
X136375900Y-126103400D01*
G75*
G02*
X136138400Y-125865900I0J237500D01*
G01*
X136138400Y-125390900D01*
G75*
G02*
X136375900Y-125153400I237500J0D01*
G01*
X136950900Y-125153400D01*
G75*
G02*
X137188400Y-125390900I0J-237500D01*
G01*
G37*
G04 #@! TD.AperFunction*
G04 #@! TA.AperFunction,SMDPad,CuDef*
G36*
G01*
X139734300Y-124338600D02*
X139259300Y-124338600D01*
G75*
G02*
X139021800Y-124101100I0J237500D01*
G01*
X139021800Y-123526100D01*
G75*
G02*
X139259300Y-123288600I237500J0D01*
G01*
X139734300Y-123288600D01*
G75*
G02*
X139971800Y-123526100I0J-237500D01*
G01*
X139971800Y-124101100D01*
G75*
G02*
X139734300Y-124338600I-237500J0D01*
G01*
G37*
G04 #@! TD.AperFunction*
G04 #@! TA.AperFunction,SMDPad,CuDef*
G36*
G01*
X139734300Y-126088600D02*
X139259300Y-126088600D01*
G75*
G02*
X139021800Y-125851100I0J237500D01*
G01*
X139021800Y-125276100D01*
G75*
G02*
X139259300Y-125038600I237500J0D01*
G01*
X139734300Y-125038600D01*
G75*
G02*
X139971800Y-125276100I0J-237500D01*
G01*
X139971800Y-125851100D01*
G75*
G02*
X139734300Y-126088600I-237500J0D01*
G01*
G37*
G04 #@! TD.AperFunction*
G04 #@! TA.AperFunction,SMDPad,CuDef*
G36*
G01*
X133866900Y-122738400D02*
X133391900Y-122738400D01*
G75*
G02*
X133154400Y-122500900I0J237500D01*
G01*
X133154400Y-121925900D01*
G75*
G02*
X133391900Y-121688400I237500J0D01*
G01*
X133866900Y-121688400D01*
G75*
G02*
X134104400Y-121925900I0J-237500D01*
G01*
X134104400Y-122500900D01*
G75*
G02*
X133866900Y-122738400I-237500J0D01*
G01*
G37*
G04 #@! TD.AperFunction*
G04 #@! TA.AperFunction,SMDPad,CuDef*
G36*
G01*
X133866900Y-124488400D02*
X133391900Y-124488400D01*
G75*
G02*
X133154400Y-124250900I0J237500D01*
G01*
X133154400Y-123675900D01*
G75*
G02*
X133391900Y-123438400I237500J0D01*
G01*
X133866900Y-123438400D01*
G75*
G02*
X134104400Y-123675900I0J-237500D01*
G01*
X134104400Y-124250900D01*
G75*
G02*
X133866900Y-124488400I-237500J0D01*
G01*
G37*
G04 #@! TD.AperFunction*
G04 #@! TA.AperFunction,SMDPad,CuDef*
G36*
G01*
X139796000Y-122233700D02*
X139796000Y-121758700D01*
G75*
G02*
X140033500Y-121521200I237500J0D01*
G01*
X140608500Y-121521200D01*
G75*
G02*
X140846000Y-121758700I0J-237500D01*
G01*
X140846000Y-122233700D01*
G75*
G02*
X140608500Y-122471200I-237500J0D01*
G01*
X140033500Y-122471200D01*
G75*
G02*
X139796000Y-122233700I0J237500D01*
G01*
G37*
G04 #@! TD.AperFunction*
G04 #@! TA.AperFunction,SMDPad,CuDef*
G36*
G01*
X138046000Y-122233700D02*
X138046000Y-121758700D01*
G75*
G02*
X138283500Y-121521200I237500J0D01*
G01*
X138858500Y-121521200D01*
G75*
G02*
X139096000Y-121758700I0J-237500D01*
G01*
X139096000Y-122233700D01*
G75*
G02*
X138858500Y-122471200I-237500J0D01*
G01*
X138283500Y-122471200D01*
G75*
G02*
X138046000Y-122233700I0J237500D01*
G01*
G37*
G04 #@! TD.AperFunction*
G04 #@! TA.AperFunction,SMDPad,CuDef*
G36*
G01*
X125909820Y-113254800D02*
X125909820Y-112779800D01*
G75*
G02*
X126147320Y-112542300I237500J0D01*
G01*
X126722320Y-112542300D01*
G75*
G02*
X126959820Y-112779800I0J-237500D01*
G01*
X126959820Y-113254800D01*
G75*
G02*
X126722320Y-113492300I-237500J0D01*
G01*
X126147320Y-113492300D01*
G75*
G02*
X125909820Y-113254800I0J237500D01*
G01*
G37*
G04 #@! TD.AperFunction*
G04 #@! TA.AperFunction,SMDPad,CuDef*
G36*
G01*
X124159820Y-113254800D02*
X124159820Y-112779800D01*
G75*
G02*
X124397320Y-112542300I237500J0D01*
G01*
X124972320Y-112542300D01*
G75*
G02*
X125209820Y-112779800I0J-237500D01*
G01*
X125209820Y-113254800D01*
G75*
G02*
X124972320Y-113492300I-237500J0D01*
G01*
X124397320Y-113492300D01*
G75*
G02*
X124159820Y-113254800I0J237500D01*
G01*
G37*
G04 #@! TD.AperFunction*
G04 #@! TA.AperFunction,SMDPad,CuDef*
G36*
G01*
X131393680Y-90638640D02*
X131393680Y-90163640D01*
G75*
G02*
X131631180Y-89926140I237500J0D01*
G01*
X132206180Y-89926140D01*
G75*
G02*
X132443680Y-90163640I0J-237500D01*
G01*
X132443680Y-90638640D01*
G75*
G02*
X132206180Y-90876140I-237500J0D01*
G01*
X131631180Y-90876140D01*
G75*
G02*
X131393680Y-90638640I0J237500D01*
G01*
G37*
G04 #@! TD.AperFunction*
G04 #@! TA.AperFunction,SMDPad,CuDef*
G36*
G01*
X129643680Y-90638640D02*
X129643680Y-90163640D01*
G75*
G02*
X129881180Y-89926140I237500J0D01*
G01*
X130456180Y-89926140D01*
G75*
G02*
X130693680Y-90163640I0J-237500D01*
G01*
X130693680Y-90638640D01*
G75*
G02*
X130456180Y-90876140I-237500J0D01*
G01*
X129881180Y-90876140D01*
G75*
G02*
X129643680Y-90638640I0J237500D01*
G01*
G37*
G04 #@! TD.AperFunction*
G04 #@! TA.AperFunction,SMDPad,CuDef*
G36*
G01*
X134091160Y-98032580D02*
X134091160Y-97557580D01*
G75*
G02*
X134328660Y-97320080I237500J0D01*
G01*
X134903660Y-97320080D01*
G75*
G02*
X135141160Y-97557580I0J-237500D01*
G01*
X135141160Y-98032580D01*
G75*
G02*
X134903660Y-98270080I-237500J0D01*
G01*
X134328660Y-98270080D01*
G75*
G02*
X134091160Y-98032580I0J237500D01*
G01*
G37*
G04 #@! TD.AperFunction*
G04 #@! TA.AperFunction,SMDPad,CuDef*
G36*
G01*
X132341160Y-98032580D02*
X132341160Y-97557580D01*
G75*
G02*
X132578660Y-97320080I237500J0D01*
G01*
X133153660Y-97320080D01*
G75*
G02*
X133391160Y-97557580I0J-237500D01*
G01*
X133391160Y-98032580D01*
G75*
G02*
X133153660Y-98270080I-237500J0D01*
G01*
X132578660Y-98270080D01*
G75*
G02*
X132341160Y-98032580I0J237500D01*
G01*
G37*
G04 #@! TD.AperFunction*
G04 #@! TA.AperFunction,SMDPad,CuDef*
G36*
G01*
X125909820Y-111730800D02*
X125909820Y-111255800D01*
G75*
G02*
X126147320Y-111018300I237500J0D01*
G01*
X126722320Y-111018300D01*
G75*
G02*
X126959820Y-111255800I0J-237500D01*
G01*
X126959820Y-111730800D01*
G75*
G02*
X126722320Y-111968300I-237500J0D01*
G01*
X126147320Y-111968300D01*
G75*
G02*
X125909820Y-111730800I0J237500D01*
G01*
G37*
G04 #@! TD.AperFunction*
G04 #@! TA.AperFunction,SMDPad,CuDef*
G36*
G01*
X124159820Y-111730800D02*
X124159820Y-111255800D01*
G75*
G02*
X124397320Y-111018300I237500J0D01*
G01*
X124972320Y-111018300D01*
G75*
G02*
X125209820Y-111255800I0J-237500D01*
G01*
X125209820Y-111730800D01*
G75*
G02*
X124972320Y-111968300I-237500J0D01*
G01*
X124397320Y-111968300D01*
G75*
G02*
X124159820Y-111730800I0J237500D01*
G01*
G37*
G04 #@! TD.AperFunction*
G04 #@! TA.AperFunction,SMDPad,CuDef*
G36*
G01*
X121755420Y-112805200D02*
X121755420Y-113280200D01*
G75*
G02*
X121517920Y-113517700I-237500J0D01*
G01*
X120942920Y-113517700D01*
G75*
G02*
X120705420Y-113280200I0J237500D01*
G01*
X120705420Y-112805200D01*
G75*
G02*
X120942920Y-112567700I237500J0D01*
G01*
X121517920Y-112567700D01*
G75*
G02*
X121755420Y-112805200I0J-237500D01*
G01*
G37*
G04 #@! TD.AperFunction*
G04 #@! TA.AperFunction,SMDPad,CuDef*
G36*
G01*
X123505420Y-112805200D02*
X123505420Y-113280200D01*
G75*
G02*
X123267920Y-113517700I-237500J0D01*
G01*
X122692920Y-113517700D01*
G75*
G02*
X122455420Y-113280200I0J237500D01*
G01*
X122455420Y-112805200D01*
G75*
G02*
X122692920Y-112567700I237500J0D01*
G01*
X123267920Y-112567700D01*
G75*
G02*
X123505420Y-112805200I0J-237500D01*
G01*
G37*
G04 #@! TD.AperFunction*
G04 #@! TA.AperFunction,SMDPad,CuDef*
G36*
G01*
X126885180Y-90702140D02*
X126885180Y-90227140D01*
G75*
G02*
X127122680Y-89989640I237500J0D01*
G01*
X127697680Y-89989640D01*
G75*
G02*
X127935180Y-90227140I0J-237500D01*
G01*
X127935180Y-90702140D01*
G75*
G02*
X127697680Y-90939640I-237500J0D01*
G01*
X127122680Y-90939640D01*
G75*
G02*
X126885180Y-90702140I0J237500D01*
G01*
G37*
G04 #@! TD.AperFunction*
G04 #@! TA.AperFunction,SMDPad,CuDef*
G36*
G01*
X125135180Y-90702140D02*
X125135180Y-90227140D01*
G75*
G02*
X125372680Y-89989640I237500J0D01*
G01*
X125947680Y-89989640D01*
G75*
G02*
X126185180Y-90227140I0J-237500D01*
G01*
X126185180Y-90702140D01*
G75*
G02*
X125947680Y-90939640I-237500J0D01*
G01*
X125372680Y-90939640D01*
G75*
G02*
X125135180Y-90702140I0J237500D01*
G01*
G37*
G04 #@! TD.AperFunction*
G04 #@! TA.AperFunction,SMDPad,CuDef*
G36*
G01*
X129952000Y-97557580D02*
X129952000Y-98032580D01*
G75*
G02*
X129714500Y-98270080I-237500J0D01*
G01*
X129139500Y-98270080D01*
G75*
G02*
X128902000Y-98032580I0J237500D01*
G01*
X128902000Y-97557580D01*
G75*
G02*
X129139500Y-97320080I237500J0D01*
G01*
X129714500Y-97320080D01*
G75*
G02*
X129952000Y-97557580I0J-237500D01*
G01*
G37*
G04 #@! TD.AperFunction*
G04 #@! TA.AperFunction,SMDPad,CuDef*
G36*
G01*
X131702000Y-97557580D02*
X131702000Y-98032580D01*
G75*
G02*
X131464500Y-98270080I-237500J0D01*
G01*
X130889500Y-98270080D01*
G75*
G02*
X130652000Y-98032580I0J237500D01*
G01*
X130652000Y-97557580D01*
G75*
G02*
X130889500Y-97320080I237500J0D01*
G01*
X131464500Y-97320080D01*
G75*
G02*
X131702000Y-97557580I0J-237500D01*
G01*
G37*
G04 #@! TD.AperFunction*
G04 #@! TA.AperFunction,SMDPad,CuDef*
G36*
G01*
X124745000Y-97557580D02*
X124745000Y-98032580D01*
G75*
G02*
X124507500Y-98270080I-237500J0D01*
G01*
X123932500Y-98270080D01*
G75*
G02*
X123695000Y-98032580I0J237500D01*
G01*
X123695000Y-97557580D01*
G75*
G02*
X123932500Y-97320080I237500J0D01*
G01*
X124507500Y-97320080D01*
G75*
G02*
X124745000Y-97557580I0J-237500D01*
G01*
G37*
G04 #@! TD.AperFunction*
G04 #@! TA.AperFunction,SMDPad,CuDef*
G36*
G01*
X126495000Y-97557580D02*
X126495000Y-98032580D01*
G75*
G02*
X126257500Y-98270080I-237500J0D01*
G01*
X125682500Y-98270080D01*
G75*
G02*
X125445000Y-98032580I0J237500D01*
G01*
X125445000Y-97557580D01*
G75*
G02*
X125682500Y-97320080I237500J0D01*
G01*
X126257500Y-97320080D01*
G75*
G02*
X126495000Y-97557580I0J-237500D01*
G01*
G37*
G04 #@! TD.AperFunction*
D24*
X139763500Y-115214400D03*
X137223500Y-115214400D03*
D25*
X134683500Y-115214400D03*
G04 #@! TA.AperFunction,SMDPad,CuDef*
G36*
G01*
X126344220Y-137369560D02*
X126344220Y-136894560D01*
G75*
G02*
X126581720Y-136657060I237500J0D01*
G01*
X127156720Y-136657060D01*
G75*
G02*
X127394220Y-136894560I0J-237500D01*
G01*
X127394220Y-137369560D01*
G75*
G02*
X127156720Y-137607060I-237500J0D01*
G01*
X126581720Y-137607060D01*
G75*
G02*
X126344220Y-137369560I0J237500D01*
G01*
G37*
G04 #@! TD.AperFunction*
G04 #@! TA.AperFunction,SMDPad,CuDef*
G36*
G01*
X128094220Y-137369560D02*
X128094220Y-136894560D01*
G75*
G02*
X128331720Y-136657060I237500J0D01*
G01*
X128906720Y-136657060D01*
G75*
G02*
X129144220Y-136894560I0J-237500D01*
G01*
X129144220Y-137369560D01*
G75*
G02*
X128906720Y-137607060I-237500J0D01*
G01*
X128331720Y-137607060D01*
G75*
G02*
X128094220Y-137369560I0J237500D01*
G01*
G37*
G04 #@! TD.AperFunction*
D26*
X125000000Y-142425800D03*
D15*
X137287000Y-129518400D03*
X137287000Y-132018400D03*
G04 #@! TA.AperFunction,ComponentPad*
G36*
G01*
X138012000Y-135368400D02*
X136562000Y-135368400D01*
G75*
G02*
X136312000Y-135118400I0J250000D01*
G01*
X136312000Y-133918400D01*
G75*
G02*
X136562000Y-133668400I250000J0D01*
G01*
X138012000Y-133668400D01*
G75*
G02*
X138262000Y-133918400I0J-250000D01*
G01*
X138262000Y-135118400D01*
G75*
G02*
X138012000Y-135368400I-250000J0D01*
G01*
G37*
G04 #@! TD.AperFunction*
D27*
X119888000Y-125494800D03*
X119888000Y-121494800D03*
G04 #@! TA.AperFunction,SMDPad,CuDef*
G36*
G01*
X131934300Y-101839300D02*
X133184300Y-101839300D01*
G75*
G02*
X133309300Y-101964300I0J-125000D01*
G01*
X133309300Y-102214300D01*
G75*
G02*
X133184300Y-102339300I-125000J0D01*
G01*
X131934300Y-102339300D01*
G75*
G02*
X131809300Y-102214300I0J125000D01*
G01*
X131809300Y-101964300D01*
G75*
G02*
X131934300Y-101839300I125000J0D01*
G01*
G37*
G04 #@! TD.AperFunction*
G04 #@! TA.AperFunction,SMDPad,CuDef*
G36*
G01*
X131934300Y-102639300D02*
X133184300Y-102639300D01*
G75*
G02*
X133309300Y-102764300I0J-125000D01*
G01*
X133309300Y-103014300D01*
G75*
G02*
X133184300Y-103139300I-125000J0D01*
G01*
X131934300Y-103139300D01*
G75*
G02*
X131809300Y-103014300I0J125000D01*
G01*
X131809300Y-102764300D01*
G75*
G02*
X131934300Y-102639300I125000J0D01*
G01*
G37*
G04 #@! TD.AperFunction*
G04 #@! TA.AperFunction,SMDPad,CuDef*
G36*
G01*
X131934300Y-103439300D02*
X133184300Y-103439300D01*
G75*
G02*
X133309300Y-103564300I0J-125000D01*
G01*
X133309300Y-103814300D01*
G75*
G02*
X133184300Y-103939300I-125000J0D01*
G01*
X131934300Y-103939300D01*
G75*
G02*
X131809300Y-103814300I0J125000D01*
G01*
X131809300Y-103564300D01*
G75*
G02*
X131934300Y-103439300I125000J0D01*
G01*
G37*
G04 #@! TD.AperFunction*
G04 #@! TA.AperFunction,SMDPad,CuDef*
G36*
G01*
X131934300Y-104239300D02*
X133184300Y-104239300D01*
G75*
G02*
X133309300Y-104364300I0J-125000D01*
G01*
X133309300Y-104614300D01*
G75*
G02*
X133184300Y-104739300I-125000J0D01*
G01*
X131934300Y-104739300D01*
G75*
G02*
X131809300Y-104614300I0J125000D01*
G01*
X131809300Y-104364300D01*
G75*
G02*
X131934300Y-104239300I125000J0D01*
G01*
G37*
G04 #@! TD.AperFunction*
G04 #@! TA.AperFunction,SMDPad,CuDef*
G36*
G01*
X131934300Y-105039300D02*
X133184300Y-105039300D01*
G75*
G02*
X133309300Y-105164300I0J-125000D01*
G01*
X133309300Y-105414300D01*
G75*
G02*
X133184300Y-105539300I-125000J0D01*
G01*
X131934300Y-105539300D01*
G75*
G02*
X131809300Y-105414300I0J125000D01*
G01*
X131809300Y-105164300D01*
G75*
G02*
X131934300Y-105039300I125000J0D01*
G01*
G37*
G04 #@! TD.AperFunction*
G04 #@! TA.AperFunction,SMDPad,CuDef*
G36*
G01*
X131934300Y-105839300D02*
X133184300Y-105839300D01*
G75*
G02*
X133309300Y-105964300I0J-125000D01*
G01*
X133309300Y-106214300D01*
G75*
G02*
X133184300Y-106339300I-125000J0D01*
G01*
X131934300Y-106339300D01*
G75*
G02*
X131809300Y-106214300I0J125000D01*
G01*
X131809300Y-105964300D01*
G75*
G02*
X131934300Y-105839300I125000J0D01*
G01*
G37*
G04 #@! TD.AperFunction*
G04 #@! TA.AperFunction,SMDPad,CuDef*
G36*
G01*
X131934300Y-106639300D02*
X133184300Y-106639300D01*
G75*
G02*
X133309300Y-106764300I0J-125000D01*
G01*
X133309300Y-107014300D01*
G75*
G02*
X133184300Y-107139300I-125000J0D01*
G01*
X131934300Y-107139300D01*
G75*
G02*
X131809300Y-107014300I0J125000D01*
G01*
X131809300Y-106764300D01*
G75*
G02*
X131934300Y-106639300I125000J0D01*
G01*
G37*
G04 #@! TD.AperFunction*
G04 #@! TA.AperFunction,SMDPad,CuDef*
G36*
G01*
X131934300Y-107439300D02*
X133184300Y-107439300D01*
G75*
G02*
X133309300Y-107564300I0J-125000D01*
G01*
X133309300Y-107814300D01*
G75*
G02*
X133184300Y-107939300I-125000J0D01*
G01*
X131934300Y-107939300D01*
G75*
G02*
X131809300Y-107814300I0J125000D01*
G01*
X131809300Y-107564300D01*
G75*
G02*
X131934300Y-107439300I125000J0D01*
G01*
G37*
G04 #@! TD.AperFunction*
G04 #@! TA.AperFunction,SMDPad,CuDef*
G36*
G01*
X131059300Y-108314300D02*
X131309300Y-108314300D01*
G75*
G02*
X131434300Y-108439300I0J-125000D01*
G01*
X131434300Y-109689300D01*
G75*
G02*
X131309300Y-109814300I-125000J0D01*
G01*
X131059300Y-109814300D01*
G75*
G02*
X130934300Y-109689300I0J125000D01*
G01*
X130934300Y-108439300D01*
G75*
G02*
X131059300Y-108314300I125000J0D01*
G01*
G37*
G04 #@! TD.AperFunction*
G04 #@! TA.AperFunction,SMDPad,CuDef*
G36*
G01*
X130259300Y-108314300D02*
X130509300Y-108314300D01*
G75*
G02*
X130634300Y-108439300I0J-125000D01*
G01*
X130634300Y-109689300D01*
G75*
G02*
X130509300Y-109814300I-125000J0D01*
G01*
X130259300Y-109814300D01*
G75*
G02*
X130134300Y-109689300I0J125000D01*
G01*
X130134300Y-108439300D01*
G75*
G02*
X130259300Y-108314300I125000J0D01*
G01*
G37*
G04 #@! TD.AperFunction*
G04 #@! TA.AperFunction,SMDPad,CuDef*
G36*
G01*
X129459300Y-108314300D02*
X129709300Y-108314300D01*
G75*
G02*
X129834300Y-108439300I0J-125000D01*
G01*
X129834300Y-109689300D01*
G75*
G02*
X129709300Y-109814300I-125000J0D01*
G01*
X129459300Y-109814300D01*
G75*
G02*
X129334300Y-109689300I0J125000D01*
G01*
X129334300Y-108439300D01*
G75*
G02*
X129459300Y-108314300I125000J0D01*
G01*
G37*
G04 #@! TD.AperFunction*
G04 #@! TA.AperFunction,SMDPad,CuDef*
G36*
G01*
X128659300Y-108314300D02*
X128909300Y-108314300D01*
G75*
G02*
X129034300Y-108439300I0J-125000D01*
G01*
X129034300Y-109689300D01*
G75*
G02*
X128909300Y-109814300I-125000J0D01*
G01*
X128659300Y-109814300D01*
G75*
G02*
X128534300Y-109689300I0J125000D01*
G01*
X128534300Y-108439300D01*
G75*
G02*
X128659300Y-108314300I125000J0D01*
G01*
G37*
G04 #@! TD.AperFunction*
G04 #@! TA.AperFunction,SMDPad,CuDef*
G36*
G01*
X127859300Y-108314300D02*
X128109300Y-108314300D01*
G75*
G02*
X128234300Y-108439300I0J-125000D01*
G01*
X128234300Y-109689300D01*
G75*
G02*
X128109300Y-109814300I-125000J0D01*
G01*
X127859300Y-109814300D01*
G75*
G02*
X127734300Y-109689300I0J125000D01*
G01*
X127734300Y-108439300D01*
G75*
G02*
X127859300Y-108314300I125000J0D01*
G01*
G37*
G04 #@! TD.AperFunction*
G04 #@! TA.AperFunction,SMDPad,CuDef*
G36*
G01*
X127059300Y-108314300D02*
X127309300Y-108314300D01*
G75*
G02*
X127434300Y-108439300I0J-125000D01*
G01*
X127434300Y-109689300D01*
G75*
G02*
X127309300Y-109814300I-125000J0D01*
G01*
X127059300Y-109814300D01*
G75*
G02*
X126934300Y-109689300I0J125000D01*
G01*
X126934300Y-108439300D01*
G75*
G02*
X127059300Y-108314300I125000J0D01*
G01*
G37*
G04 #@! TD.AperFunction*
G04 #@! TA.AperFunction,SMDPad,CuDef*
G36*
G01*
X126259300Y-108314300D02*
X126509300Y-108314300D01*
G75*
G02*
X126634300Y-108439300I0J-125000D01*
G01*
X126634300Y-109689300D01*
G75*
G02*
X126509300Y-109814300I-125000J0D01*
G01*
X126259300Y-109814300D01*
G75*
G02*
X126134300Y-109689300I0J125000D01*
G01*
X126134300Y-108439300D01*
G75*
G02*
X126259300Y-108314300I125000J0D01*
G01*
G37*
G04 #@! TD.AperFunction*
G04 #@! TA.AperFunction,SMDPad,CuDef*
G36*
G01*
X125459300Y-108314300D02*
X125709300Y-108314300D01*
G75*
G02*
X125834300Y-108439300I0J-125000D01*
G01*
X125834300Y-109689300D01*
G75*
G02*
X125709300Y-109814300I-125000J0D01*
G01*
X125459300Y-109814300D01*
G75*
G02*
X125334300Y-109689300I0J125000D01*
G01*
X125334300Y-108439300D01*
G75*
G02*
X125459300Y-108314300I125000J0D01*
G01*
G37*
G04 #@! TD.AperFunction*
G04 #@! TA.AperFunction,SMDPad,CuDef*
G36*
G01*
X123584300Y-107439300D02*
X124834300Y-107439300D01*
G75*
G02*
X124959300Y-107564300I0J-125000D01*
G01*
X124959300Y-107814300D01*
G75*
G02*
X124834300Y-107939300I-125000J0D01*
G01*
X123584300Y-107939300D01*
G75*
G02*
X123459300Y-107814300I0J125000D01*
G01*
X123459300Y-107564300D01*
G75*
G02*
X123584300Y-107439300I125000J0D01*
G01*
G37*
G04 #@! TD.AperFunction*
G04 #@! TA.AperFunction,SMDPad,CuDef*
G36*
G01*
X123584300Y-106639300D02*
X124834300Y-106639300D01*
G75*
G02*
X124959300Y-106764300I0J-125000D01*
G01*
X124959300Y-107014300D01*
G75*
G02*
X124834300Y-107139300I-125000J0D01*
G01*
X123584300Y-107139300D01*
G75*
G02*
X123459300Y-107014300I0J125000D01*
G01*
X123459300Y-106764300D01*
G75*
G02*
X123584300Y-106639300I125000J0D01*
G01*
G37*
G04 #@! TD.AperFunction*
G04 #@! TA.AperFunction,SMDPad,CuDef*
G36*
G01*
X123584300Y-105839300D02*
X124834300Y-105839300D01*
G75*
G02*
X124959300Y-105964300I0J-125000D01*
G01*
X124959300Y-106214300D01*
G75*
G02*
X124834300Y-106339300I-125000J0D01*
G01*
X123584300Y-106339300D01*
G75*
G02*
X123459300Y-106214300I0J125000D01*
G01*
X123459300Y-105964300D01*
G75*
G02*
X123584300Y-105839300I125000J0D01*
G01*
G37*
G04 #@! TD.AperFunction*
G04 #@! TA.AperFunction,SMDPad,CuDef*
G36*
G01*
X123584300Y-105039300D02*
X124834300Y-105039300D01*
G75*
G02*
X124959300Y-105164300I0J-125000D01*
G01*
X124959300Y-105414300D01*
G75*
G02*
X124834300Y-105539300I-125000J0D01*
G01*
X123584300Y-105539300D01*
G75*
G02*
X123459300Y-105414300I0J125000D01*
G01*
X123459300Y-105164300D01*
G75*
G02*
X123584300Y-105039300I125000J0D01*
G01*
G37*
G04 #@! TD.AperFunction*
G04 #@! TA.AperFunction,SMDPad,CuDef*
G36*
G01*
X123584300Y-104239300D02*
X124834300Y-104239300D01*
G75*
G02*
X124959300Y-104364300I0J-125000D01*
G01*
X124959300Y-104614300D01*
G75*
G02*
X124834300Y-104739300I-125000J0D01*
G01*
X123584300Y-104739300D01*
G75*
G02*
X123459300Y-104614300I0J125000D01*
G01*
X123459300Y-104364300D01*
G75*
G02*
X123584300Y-104239300I125000J0D01*
G01*
G37*
G04 #@! TD.AperFunction*
G04 #@! TA.AperFunction,SMDPad,CuDef*
G36*
G01*
X123584300Y-103439300D02*
X124834300Y-103439300D01*
G75*
G02*
X124959300Y-103564300I0J-125000D01*
G01*
X124959300Y-103814300D01*
G75*
G02*
X124834300Y-103939300I-125000J0D01*
G01*
X123584300Y-103939300D01*
G75*
G02*
X123459300Y-103814300I0J125000D01*
G01*
X123459300Y-103564300D01*
G75*
G02*
X123584300Y-103439300I125000J0D01*
G01*
G37*
G04 #@! TD.AperFunction*
G04 #@! TA.AperFunction,SMDPad,CuDef*
G36*
G01*
X123584300Y-102639300D02*
X124834300Y-102639300D01*
G75*
G02*
X124959300Y-102764300I0J-125000D01*
G01*
X124959300Y-103014300D01*
G75*
G02*
X124834300Y-103139300I-125000J0D01*
G01*
X123584300Y-103139300D01*
G75*
G02*
X123459300Y-103014300I0J125000D01*
G01*
X123459300Y-102764300D01*
G75*
G02*
X123584300Y-102639300I125000J0D01*
G01*
G37*
G04 #@! TD.AperFunction*
G04 #@! TA.AperFunction,SMDPad,CuDef*
G36*
G01*
X123584300Y-101839300D02*
X124834300Y-101839300D01*
G75*
G02*
X124959300Y-101964300I0J-125000D01*
G01*
X124959300Y-102214300D01*
G75*
G02*
X124834300Y-102339300I-125000J0D01*
G01*
X123584300Y-102339300D01*
G75*
G02*
X123459300Y-102214300I0J125000D01*
G01*
X123459300Y-101964300D01*
G75*
G02*
X123584300Y-101839300I125000J0D01*
G01*
G37*
G04 #@! TD.AperFunction*
G04 #@! TA.AperFunction,SMDPad,CuDef*
G36*
G01*
X125459300Y-99964300D02*
X125709300Y-99964300D01*
G75*
G02*
X125834300Y-100089300I0J-125000D01*
G01*
X125834300Y-101339300D01*
G75*
G02*
X125709300Y-101464300I-125000J0D01*
G01*
X125459300Y-101464300D01*
G75*
G02*
X125334300Y-101339300I0J125000D01*
G01*
X125334300Y-100089300D01*
G75*
G02*
X125459300Y-99964300I125000J0D01*
G01*
G37*
G04 #@! TD.AperFunction*
G04 #@! TA.AperFunction,SMDPad,CuDef*
G36*
G01*
X126259300Y-99964300D02*
X126509300Y-99964300D01*
G75*
G02*
X126634300Y-100089300I0J-125000D01*
G01*
X126634300Y-101339300D01*
G75*
G02*
X126509300Y-101464300I-125000J0D01*
G01*
X126259300Y-101464300D01*
G75*
G02*
X126134300Y-101339300I0J125000D01*
G01*
X126134300Y-100089300D01*
G75*
G02*
X126259300Y-99964300I125000J0D01*
G01*
G37*
G04 #@! TD.AperFunction*
G04 #@! TA.AperFunction,SMDPad,CuDef*
G36*
G01*
X127059300Y-99964300D02*
X127309300Y-99964300D01*
G75*
G02*
X127434300Y-100089300I0J-125000D01*
G01*
X127434300Y-101339300D01*
G75*
G02*
X127309300Y-101464300I-125000J0D01*
G01*
X127059300Y-101464300D01*
G75*
G02*
X126934300Y-101339300I0J125000D01*
G01*
X126934300Y-100089300D01*
G75*
G02*
X127059300Y-99964300I125000J0D01*
G01*
G37*
G04 #@! TD.AperFunction*
G04 #@! TA.AperFunction,SMDPad,CuDef*
G36*
G01*
X127859300Y-99964300D02*
X128109300Y-99964300D01*
G75*
G02*
X128234300Y-100089300I0J-125000D01*
G01*
X128234300Y-101339300D01*
G75*
G02*
X128109300Y-101464300I-125000J0D01*
G01*
X127859300Y-101464300D01*
G75*
G02*
X127734300Y-101339300I0J125000D01*
G01*
X127734300Y-100089300D01*
G75*
G02*
X127859300Y-99964300I125000J0D01*
G01*
G37*
G04 #@! TD.AperFunction*
G04 #@! TA.AperFunction,SMDPad,CuDef*
G36*
G01*
X128659300Y-99964300D02*
X128909300Y-99964300D01*
G75*
G02*
X129034300Y-100089300I0J-125000D01*
G01*
X129034300Y-101339300D01*
G75*
G02*
X128909300Y-101464300I-125000J0D01*
G01*
X128659300Y-101464300D01*
G75*
G02*
X128534300Y-101339300I0J125000D01*
G01*
X128534300Y-100089300D01*
G75*
G02*
X128659300Y-99964300I125000J0D01*
G01*
G37*
G04 #@! TD.AperFunction*
G04 #@! TA.AperFunction,SMDPad,CuDef*
G36*
G01*
X129459300Y-99964300D02*
X129709300Y-99964300D01*
G75*
G02*
X129834300Y-100089300I0J-125000D01*
G01*
X129834300Y-101339300D01*
G75*
G02*
X129709300Y-101464300I-125000J0D01*
G01*
X129459300Y-101464300D01*
G75*
G02*
X129334300Y-101339300I0J125000D01*
G01*
X129334300Y-100089300D01*
G75*
G02*
X129459300Y-99964300I125000J0D01*
G01*
G37*
G04 #@! TD.AperFunction*
G04 #@! TA.AperFunction,SMDPad,CuDef*
G36*
G01*
X130259300Y-99964300D02*
X130509300Y-99964300D01*
G75*
G02*
X130634300Y-100089300I0J-125000D01*
G01*
X130634300Y-101339300D01*
G75*
G02*
X130509300Y-101464300I-125000J0D01*
G01*
X130259300Y-101464300D01*
G75*
G02*
X130134300Y-101339300I0J125000D01*
G01*
X130134300Y-100089300D01*
G75*
G02*
X130259300Y-99964300I125000J0D01*
G01*
G37*
G04 #@! TD.AperFunction*
G04 #@! TA.AperFunction,SMDPad,CuDef*
G36*
G01*
X131059300Y-99964300D02*
X131309300Y-99964300D01*
G75*
G02*
X131434300Y-100089300I0J-125000D01*
G01*
X131434300Y-101339300D01*
G75*
G02*
X131309300Y-101464300I-125000J0D01*
G01*
X131059300Y-101464300D01*
G75*
G02*
X130934300Y-101339300I0J125000D01*
G01*
X130934300Y-100089300D01*
G75*
G02*
X131059300Y-99964300I125000J0D01*
G01*
G37*
G04 #@! TD.AperFunction*
G04 #@! TA.AperFunction,SMDPad,CuDef*
G36*
G01*
X141334500Y-85512100D02*
X140859500Y-85512100D01*
G75*
G02*
X140622000Y-85274600I0J237500D01*
G01*
X140622000Y-84699600D01*
G75*
G02*
X140859500Y-84462100I237500J0D01*
G01*
X141334500Y-84462100D01*
G75*
G02*
X141572000Y-84699600I0J-237500D01*
G01*
X141572000Y-85274600D01*
G75*
G02*
X141334500Y-85512100I-237500J0D01*
G01*
G37*
G04 #@! TD.AperFunction*
G04 #@! TA.AperFunction,SMDPad,CuDef*
G36*
G01*
X141334500Y-83762100D02*
X140859500Y-83762100D01*
G75*
G02*
X140622000Y-83524600I0J237500D01*
G01*
X140622000Y-82949600D01*
G75*
G02*
X140859500Y-82712100I237500J0D01*
G01*
X141334500Y-82712100D01*
G75*
G02*
X141572000Y-82949600I0J-237500D01*
G01*
X141572000Y-83524600D01*
G75*
G02*
X141334500Y-83762100I-237500J0D01*
G01*
G37*
G04 #@! TD.AperFunction*
G04 #@! TA.AperFunction,SMDPad,CuDef*
G36*
G01*
X135967460Y-99229720D02*
X136442460Y-99229720D01*
G75*
G02*
X136679960Y-99467220I0J-237500D01*
G01*
X136679960Y-100042220D01*
G75*
G02*
X136442460Y-100279720I-237500J0D01*
G01*
X135967460Y-100279720D01*
G75*
G02*
X135729960Y-100042220I0J237500D01*
G01*
X135729960Y-99467220D01*
G75*
G02*
X135967460Y-99229720I237500J0D01*
G01*
G37*
G04 #@! TD.AperFunction*
G04 #@! TA.AperFunction,SMDPad,CuDef*
G36*
G01*
X135967460Y-100979720D02*
X136442460Y-100979720D01*
G75*
G02*
X136679960Y-101217220I0J-237500D01*
G01*
X136679960Y-101792220D01*
G75*
G02*
X136442460Y-102029720I-237500J0D01*
G01*
X135967460Y-102029720D01*
G75*
G02*
X135729960Y-101792220I0J237500D01*
G01*
X135729960Y-101217220D01*
G75*
G02*
X135967460Y-100979720I237500J0D01*
G01*
G37*
G04 #@! TD.AperFunction*
D15*
X139776200Y-109498800D03*
X139776200Y-106998800D03*
X139776200Y-104498800D03*
X139776200Y-101998800D03*
X139776200Y-99498800D03*
X139776200Y-96998800D03*
X139776200Y-94498800D03*
G04 #@! TA.AperFunction,ComponentPad*
G36*
G01*
X139051200Y-91148800D02*
X140501200Y-91148800D01*
G75*
G02*
X140751200Y-91398800I0J-250000D01*
G01*
X140751200Y-92598800D01*
G75*
G02*
X140501200Y-92848800I-250000J0D01*
G01*
X139051200Y-92848800D01*
G75*
G02*
X138801200Y-92598800I0J250000D01*
G01*
X138801200Y-91398800D01*
G75*
G02*
X139051200Y-91148800I250000J0D01*
G01*
G37*
G04 #@! TD.AperFunction*
G04 #@! TA.AperFunction,SMDPad,CuDef*
G36*
G01*
X136457700Y-96167400D02*
X135982700Y-96167400D01*
G75*
G02*
X135745200Y-95929900I0J237500D01*
G01*
X135745200Y-95354900D01*
G75*
G02*
X135982700Y-95117400I237500J0D01*
G01*
X136457700Y-95117400D01*
G75*
G02*
X136695200Y-95354900I0J-237500D01*
G01*
X136695200Y-95929900D01*
G75*
G02*
X136457700Y-96167400I-237500J0D01*
G01*
G37*
G04 #@! TD.AperFunction*
G04 #@! TA.AperFunction,SMDPad,CuDef*
G36*
G01*
X136457700Y-94417400D02*
X135982700Y-94417400D01*
G75*
G02*
X135745200Y-94179900I0J237500D01*
G01*
X135745200Y-93604900D01*
G75*
G02*
X135982700Y-93367400I237500J0D01*
G01*
X136457700Y-93367400D01*
G75*
G02*
X136695200Y-93604900I0J-237500D01*
G01*
X136695200Y-94179900D01*
G75*
G02*
X136457700Y-94417400I-237500J0D01*
G01*
G37*
G04 #@! TD.AperFunction*
D26*
X135000000Y-85902800D03*
D28*
X121475500Y-133083300D03*
X124142500Y-131559300D03*
X124142500Y-132321300D03*
X124142500Y-133083300D03*
X123253500Y-133083300D03*
X123253500Y-132321300D03*
X123253500Y-131559300D03*
X129921000Y-129019300D03*
X124396500Y-127050800D03*
X119443500Y-134988300D03*
X136169400Y-121589800D03*
D29*
X129921000Y-135369300D03*
X123317000Y-137083800D03*
D28*
X125031500Y-133083300D03*
X125031500Y-132321300D03*
X125031500Y-131559300D03*
X122364500Y-131559300D03*
X122364500Y-132321300D03*
X122364500Y-133083300D03*
X125920500Y-133083300D03*
X125920500Y-132321300D03*
X125920500Y-131559300D03*
X121475500Y-131559300D03*
X121475500Y-132321300D03*
X120586500Y-131559300D03*
X120586500Y-132321300D03*
X120586500Y-133083300D03*
X127591820Y-111493300D03*
X127591820Y-113017300D03*
X122511820Y-110488700D03*
X119844820Y-112255300D03*
X125647300Y-106089300D03*
X125646180Y-89067640D03*
X137947400Y-123913900D03*
X124383800Y-109016800D03*
X139521000Y-142072800D03*
X141097000Y-140004800D03*
X133021000Y-141095800D03*
X141097000Y-138353800D03*
X129776220Y-137132060D03*
X140665200Y-123063000D03*
X132559300Y-101222300D03*
X119443500Y-136067800D03*
X140639800Y-125577600D03*
X130154680Y-89067640D03*
X134706360Y-98933000D03*
X134655560Y-100401120D03*
X136018240Y-107001280D03*
X135056880Y-111409480D03*
X139573000Y-83581240D03*
X124220000Y-98906360D03*
X130434080Y-98887280D03*
X118870760Y-110420120D03*
D30*
X129921000Y-130557300D02*
X129921000Y-129019300D01*
D31*
X136669400Y-123588400D02*
X136169400Y-123088400D01*
X137121800Y-123588400D02*
X136669400Y-123588400D01*
D30*
X119488500Y-135033300D02*
X119443500Y-134988300D01*
X120840500Y-135033300D02*
X119488500Y-135033300D01*
D32*
X122745500Y-132321300D02*
X121983500Y-132321300D01*
X122745500Y-132321300D02*
X125158500Y-132321300D01*
X121983500Y-132321300D02*
X120713500Y-132321300D01*
D31*
X126434820Y-111493300D02*
X127591820Y-111493300D01*
X126434820Y-113017300D02*
X127591820Y-113017300D01*
X124209300Y-106089300D02*
X125647300Y-106089300D01*
X125660180Y-90464640D02*
X125660180Y-89081640D01*
X137121800Y-123588400D02*
X137621900Y-123588400D01*
X137621900Y-123588400D02*
X137947400Y-123913900D01*
X124209300Y-107689300D02*
X124209300Y-108842300D01*
X124209300Y-108842300D02*
X124383800Y-109016800D01*
X139521000Y-143402800D02*
X139521000Y-142072800D01*
X139775000Y-140004800D02*
X141097000Y-140004800D01*
X133021000Y-142402800D02*
X133021000Y-141095800D01*
X139775000Y-138353800D02*
X141097000Y-138353800D01*
D30*
X131739000Y-138673800D02*
X132527000Y-138673800D01*
X133021000Y-139167800D02*
X133021000Y-141095800D01*
X132527000Y-138673800D02*
X133021000Y-139167800D01*
X129776220Y-137132060D02*
X128619220Y-137132060D01*
D33*
X132762500Y-102089300D02*
X132762500Y-101222300D01*
D30*
X131023000Y-135369300D02*
X131511000Y-135857300D01*
X129921000Y-135369300D02*
X131023000Y-135369300D01*
X124382500Y-125653800D02*
X124382500Y-127036800D01*
D31*
X121230420Y-111518700D02*
X121724420Y-111518700D01*
X121724420Y-111518700D02*
X122130820Y-111112300D01*
X122130820Y-110869700D02*
X122511820Y-110488700D01*
X122130820Y-111112300D02*
X122130820Y-110869700D01*
X120443020Y-112255300D02*
X121230420Y-113042700D01*
X119844820Y-112255300D02*
X120443020Y-112255300D01*
X130168680Y-89081640D02*
X130154680Y-89067640D01*
X130168680Y-90401140D02*
X130168680Y-89081640D01*
X139496800Y-125563600D02*
X140625800Y-125563600D01*
X140665200Y-122340400D02*
X140321000Y-121996200D01*
X140665200Y-123063000D02*
X140665200Y-122340400D01*
X136169400Y-123088400D02*
X136169400Y-121589800D01*
X134616160Y-97795080D02*
X134616160Y-98842800D01*
X134616160Y-98842800D02*
X134706360Y-98933000D01*
X134655560Y-101710520D02*
X134655560Y-100401120D01*
X134665720Y-107001280D02*
X136018240Y-107001280D01*
X136194800Y-111171960D02*
X135294400Y-111171960D01*
X135294400Y-111171960D02*
X135056880Y-111409480D01*
X139573000Y-85820280D02*
X139573000Y-83581240D01*
X124220000Y-97795080D02*
X124220000Y-98906360D01*
X129427000Y-97795080D02*
X129768600Y-97795080D01*
X129768600Y-97795080D02*
X130434080Y-98460560D01*
X130434080Y-98460560D02*
X130434080Y-98887280D01*
X118870760Y-109245400D02*
X118870760Y-110420120D01*
X123317000Y-135096800D02*
X123380500Y-135033300D01*
D30*
X123317000Y-137083800D02*
X123317000Y-136575800D01*
X123380500Y-136512300D02*
X123380500Y-135033300D01*
X123317000Y-136575800D02*
X123380500Y-136512300D01*
D31*
X119443500Y-136067800D02*
X119824500Y-136448800D01*
X119824500Y-137133300D02*
X119838500Y-137147300D01*
X119824500Y-136448800D02*
X119824500Y-137133300D01*
X133021000Y-142402800D02*
X133021000Y-143402800D01*
X122980420Y-113042700D02*
X122980420Y-111518700D01*
X124684820Y-113017300D02*
X124684820Y-111493300D01*
X131184300Y-100714300D02*
X131184300Y-102089300D01*
X125584300Y-108070300D02*
X125584300Y-109064300D01*
X129654300Y-104000300D02*
X125584300Y-108070300D01*
D30*
X138571000Y-121996200D02*
X138571000Y-121855200D01*
X124659420Y-111518700D02*
X124684820Y-111493300D01*
X119766080Y-83718400D02*
X127767080Y-83718400D01*
X128402080Y-84353400D02*
X128402080Y-85369400D01*
X127767080Y-83718400D02*
X128402080Y-84353400D01*
D31*
X137978800Y-122588400D02*
X138571000Y-121996200D01*
X137121800Y-122588400D02*
X137978800Y-122588400D01*
X134888000Y-120166900D02*
X135144000Y-119910900D01*
X131184300Y-97802380D02*
X131177000Y-97795080D01*
X131184300Y-100714300D02*
X131184300Y-97802380D01*
X137121800Y-122588400D02*
X137121800Y-121033440D01*
X137121800Y-121033440D02*
X136860280Y-120771920D01*
X136860280Y-120771920D02*
X135249920Y-120771920D01*
X135144000Y-120666000D02*
X135144000Y-119910900D01*
X135249920Y-120771920D02*
X135144000Y-120666000D01*
X122980420Y-111518700D02*
X123139200Y-111359920D01*
X123139200Y-111359920D02*
X123139200Y-109753400D01*
X123139200Y-109753400D02*
X122031760Y-108645960D01*
X122031760Y-108645960D02*
X122031760Y-107370880D01*
X122513340Y-106889300D02*
X124209300Y-106889300D01*
X122031760Y-107370880D02*
X122513340Y-106889300D01*
X124684820Y-111493300D02*
X124684820Y-111169420D01*
X125584300Y-110269940D02*
X125584300Y-109064300D01*
X124684820Y-111169420D02*
X125584300Y-110269940D01*
D30*
X122980420Y-113544380D02*
X122980420Y-113042700D01*
X122103500Y-114421300D02*
X122980420Y-113544380D01*
X122103500Y-115386500D02*
X123358260Y-115386500D01*
X122103500Y-115386500D02*
X122103500Y-114421300D01*
X122103500Y-116700300D02*
X122103500Y-115386500D01*
X124684820Y-114059940D02*
X124684820Y-113017300D01*
X123358260Y-115386500D02*
X124684820Y-114059940D01*
X119766080Y-83718400D02*
X118577360Y-84907120D01*
X118577360Y-89659460D02*
X120281700Y-91363800D01*
X118577360Y-84907120D02*
X118577360Y-89659460D01*
X122103500Y-116700300D02*
X122103500Y-117755020D01*
X122103500Y-117755020D02*
X122880120Y-118531640D01*
X122880120Y-118531640D02*
X132323840Y-118531640D01*
X133703100Y-119910900D02*
X135144000Y-119910900D01*
X132323840Y-118531640D02*
X133703100Y-119910900D01*
X131177000Y-97795080D02*
X131177000Y-97138520D01*
X131177000Y-97138520D02*
X133380480Y-94935040D01*
X133380480Y-94935040D02*
X133380480Y-89992200D01*
X133380480Y-89992200D02*
X130256280Y-86868000D01*
X130256280Y-86868000D02*
X130256280Y-85806280D01*
X129819400Y-85369400D02*
X128402080Y-85369400D01*
X130256280Y-85806280D02*
X129819400Y-85369400D01*
D31*
X129654300Y-103619300D02*
X129654300Y-104000300D01*
X131184300Y-102089300D02*
X129654300Y-103619300D01*
X131184300Y-109064300D02*
X131184300Y-109924500D01*
X131184300Y-109924500D02*
X134950200Y-113690400D01*
X135699500Y-113690400D02*
X137223500Y-115214400D01*
X134950200Y-113690400D02*
X135699500Y-113690400D01*
X130384300Y-109064300D02*
X130384300Y-110262420D01*
X134683500Y-114561620D02*
X134683500Y-115214400D01*
X130384300Y-110262420D02*
X134683500Y-114561620D01*
D30*
X119888000Y-121494800D02*
X119919500Y-121494800D01*
X120647500Y-120766800D02*
X124444000Y-120766800D01*
X119919500Y-121494800D02*
X120647500Y-120766800D01*
X124462500Y-120766800D02*
X125671500Y-119557800D01*
X124444000Y-120766800D02*
X124462500Y-120766800D01*
X125671500Y-119557800D02*
X131953000Y-119557800D01*
X135445500Y-132676900D02*
X137287000Y-134518400D01*
X135445500Y-127939800D02*
X135445500Y-132676900D01*
X133540500Y-126034800D02*
X135445500Y-127939800D01*
D31*
X132334000Y-124155200D02*
X133540500Y-125361700D01*
X133540500Y-125361700D02*
X133540500Y-126034800D01*
X131953000Y-119557800D02*
X132334000Y-119938800D01*
X132334000Y-119938800D02*
X132334000Y-124155200D01*
X138485880Y-117048280D02*
X137523260Y-118010900D01*
X138485880Y-114284760D02*
X138485880Y-117048280D01*
X137195560Y-112994440D02*
X138485880Y-114284760D01*
X133561940Y-106089300D02*
X133761480Y-106288840D01*
X132559300Y-106089300D02*
X133561940Y-106089300D01*
X133761480Y-111226600D02*
X135529320Y-112994440D01*
X133761480Y-106288840D02*
X133761480Y-111226600D01*
X137523260Y-118010900D02*
X135144000Y-118010900D01*
X135529320Y-112994440D02*
X137195560Y-112994440D01*
D30*
X133411000Y-135857300D02*
X133411000Y-135562300D01*
X131511000Y-129007402D02*
X131511000Y-128257300D01*
X132030898Y-129527300D02*
X131511000Y-129007402D01*
X133411000Y-135857300D02*
X133411000Y-135435300D01*
X133411000Y-135435300D02*
X134366000Y-134480300D01*
X134366000Y-130012198D02*
X134366000Y-134480300D01*
X133881102Y-129527300D02*
X134366000Y-130012198D01*
X132030898Y-129527300D02*
X133881102Y-129527300D01*
X127444500Y-125272800D02*
X128841500Y-125272800D01*
X130097500Y-126528800D02*
X131445000Y-126528800D01*
X128841500Y-125272800D02*
X130097500Y-126528800D01*
X131445000Y-126528800D02*
X131445000Y-127241300D01*
X131511000Y-127307300D02*
X131511000Y-128257300D01*
X131445000Y-127241300D02*
X131511000Y-127307300D01*
D34*
X126515500Y-122772800D02*
X127444500Y-122772800D01*
D30*
X126301500Y-121208800D02*
X127190500Y-121208800D01*
X127444500Y-121462800D02*
X127444500Y-122772800D01*
X127190500Y-121208800D02*
X127444500Y-121462800D01*
D31*
X121539000Y-123494800D02*
X119126000Y-123494800D01*
X119126000Y-123494800D02*
X118999000Y-123494800D01*
D30*
X121539000Y-123494800D02*
X121983500Y-123494800D01*
X122444000Y-123034300D02*
X122444000Y-121716800D01*
X121983500Y-123494800D02*
X122444000Y-123034300D01*
X125793500Y-121716800D02*
X126301500Y-121208800D01*
X122444000Y-121716800D02*
X125793500Y-121716800D01*
X130022000Y-122772800D02*
X131445000Y-121349800D01*
X127444500Y-122772800D02*
X130022000Y-122772800D01*
X125666500Y-123621800D02*
X126515500Y-122772800D01*
X124650500Y-129609300D02*
X124650500Y-128892300D01*
X125666500Y-127876300D02*
X125666500Y-123621800D01*
X124650500Y-128892300D02*
X125666500Y-127876300D01*
D31*
X118999000Y-123494800D02*
X118734840Y-123494800D01*
X118734840Y-123494800D02*
X118470680Y-123230640D01*
X118470680Y-123230640D02*
X118470680Y-118765320D01*
X118470680Y-118765320D02*
X118912640Y-118323360D01*
D30*
X118912640Y-118323360D02*
X118912640Y-111861600D01*
X118912640Y-111861600D02*
X119562880Y-111211360D01*
D31*
X119562880Y-111211360D02*
X119562880Y-111196120D01*
X119562880Y-111196120D02*
X119735600Y-111023400D01*
X119735600Y-108548140D02*
X118868220Y-107680760D01*
X119735600Y-111023400D02*
X119735600Y-108548140D01*
X127184300Y-110044380D02*
X127184300Y-109064300D01*
X127579120Y-110439200D02*
X127184300Y-110044380D01*
X127579120Y-110439200D02*
X128371600Y-110439200D01*
X129603500Y-111671100D02*
X129603500Y-116700300D01*
X128371600Y-110439200D02*
X129603500Y-111671100D01*
X126384300Y-109064300D02*
X126384300Y-109914940D01*
X126384300Y-109914940D02*
X127426720Y-110957360D01*
X127426720Y-110957360D02*
X128270000Y-110957360D01*
X128270000Y-110957360D02*
X128498600Y-111185960D01*
X128498600Y-115305200D02*
X127103500Y-116700300D01*
X128498600Y-111185960D02*
X128498600Y-115305200D01*
X126151640Y-99496880D02*
X126384300Y-99729540D01*
X123972320Y-99496880D02*
X126151640Y-99496880D01*
X123184920Y-98709480D02*
X123972320Y-99496880D01*
X126384300Y-100714300D02*
X126384300Y-99729540D01*
X125902080Y-87600160D02*
X123184920Y-90317320D01*
X123184920Y-90317320D02*
X123184920Y-98709480D01*
X125902080Y-85369400D02*
X125902080Y-87600160D01*
X123402080Y-85369400D02*
X123402080Y-85416400D01*
X123402080Y-85369400D02*
X123402080Y-88251040D01*
X123402080Y-88251040D02*
X122275600Y-89377520D01*
X122275600Y-89377520D02*
X122275600Y-97073720D01*
X122275600Y-97073720D02*
X122514360Y-97312480D01*
X122514360Y-97312480D02*
X122514360Y-98765360D01*
X122514360Y-98765360D02*
X122529600Y-98765360D01*
X124478540Y-100714300D02*
X125584300Y-100714300D01*
X122529600Y-98765360D02*
X124478540Y-100714300D01*
X133821000Y-144035002D02*
X134346798Y-144560800D01*
X133821000Y-143402800D02*
X133821000Y-144035002D01*
X138721000Y-144035002D02*
X138721000Y-143402800D01*
X138195202Y-144560800D02*
X138721000Y-144035002D01*
X136271000Y-144560800D02*
X138195202Y-144560800D01*
D30*
X134112000Y-140512800D02*
X133821000Y-140803800D01*
X135321000Y-138673800D02*
X135636000Y-138988800D01*
X135636000Y-140131800D02*
X135255000Y-140512800D01*
X135636000Y-138988800D02*
X135636000Y-140131800D01*
X134239000Y-138673800D02*
X135321000Y-138673800D01*
X135255000Y-140512800D02*
X134112000Y-140512800D01*
X122473500Y-125494800D02*
X122632500Y-125653800D01*
X119888000Y-125494800D02*
X122473500Y-125494800D01*
X122632500Y-125653800D02*
X122632500Y-125195300D01*
X124444000Y-123383800D02*
X124444000Y-122666800D01*
X122632500Y-125195300D02*
X124444000Y-123383800D01*
X122632500Y-126655800D02*
X122632500Y-125653800D01*
X121729500Y-127368300D02*
X122301000Y-127368300D01*
X122632500Y-127036800D02*
X122632500Y-126655800D01*
X122301000Y-127368300D02*
X122632500Y-127036800D01*
X120840500Y-128257300D02*
X121729500Y-127368300D01*
X120840500Y-129609300D02*
X120840500Y-128257300D01*
X139319000Y-137083800D02*
X141466490Y-134936310D01*
X135443000Y-138673800D02*
X135763000Y-138353800D01*
X135763000Y-138353800D02*
X135763000Y-137845800D01*
X135321000Y-138673800D02*
X135443000Y-138673800D01*
X135763000Y-137845800D02*
X136525000Y-137083800D01*
X136525000Y-137083800D02*
X139319000Y-137083800D01*
X141466490Y-134936310D02*
X141466490Y-123606560D01*
X141466490Y-123606560D02*
X141466490Y-120832880D01*
X141466490Y-120832880D02*
X141466490Y-120709610D01*
X141466490Y-120709610D02*
X140903960Y-120147080D01*
X140903960Y-120147080D02*
X138836400Y-120147080D01*
D31*
X136626600Y-120147080D02*
X138836400Y-120147080D01*
X136169400Y-119374920D02*
X136169400Y-119689880D01*
X135752840Y-118958360D02*
X136169400Y-119374920D01*
X136169400Y-119689880D02*
X136626600Y-120147080D01*
X133847840Y-118958360D02*
X135752840Y-118958360D01*
X131754880Y-116865400D02*
X133847840Y-118958360D01*
X128784300Y-110003540D02*
X128784300Y-109064300D01*
X130362960Y-111582200D02*
X128784300Y-110003540D01*
D30*
X124650500Y-136385300D02*
X124650500Y-135033300D01*
X125397260Y-137132060D02*
X124650500Y-136385300D01*
X126869220Y-137715020D02*
X126869220Y-137132060D01*
X130683000Y-144449800D02*
X130683000Y-141528800D01*
X118681500Y-138036300D02*
X119189500Y-138544300D01*
X130683000Y-141528800D02*
X127190500Y-138036300D01*
X120840500Y-129609300D02*
X120250500Y-129609300D01*
X127190500Y-138036300D02*
X126869220Y-137715020D01*
X120250500Y-129609300D02*
X118681500Y-131178300D01*
X118681500Y-131178300D02*
X118681500Y-138036300D01*
X119189500Y-138544300D02*
X125539500Y-138544300D01*
X126062740Y-138021060D02*
X126062740Y-137132060D01*
X125539500Y-138544300D02*
X126062740Y-138021060D01*
X126869220Y-137132060D02*
X126062740Y-137132060D01*
X126062740Y-137132060D02*
X125397260Y-137132060D01*
X133821000Y-142454800D02*
X133821000Y-143402800D01*
X133821000Y-140803800D02*
X133821000Y-142454800D01*
X130683000Y-144449800D02*
X130683000Y-145338800D01*
X130683000Y-145338800D02*
X131572000Y-146227800D01*
X131572000Y-146227800D02*
X134874000Y-146227800D01*
X134874000Y-146227800D02*
X135255000Y-145846800D01*
D31*
X135255000Y-145846800D02*
X135493000Y-145608800D01*
X134346798Y-144560800D02*
X135493000Y-144560800D01*
X135493000Y-145608800D02*
X135493000Y-144560800D01*
X135493000Y-144560800D02*
X136271000Y-144560800D01*
X130362960Y-111582200D02*
X130362960Y-113268760D01*
X131754880Y-114660680D02*
X131754880Y-116865400D01*
X130362960Y-113268760D02*
X131754880Y-114660680D01*
X131511000Y-133357300D02*
X131511000Y-132763300D01*
X131511000Y-132763300D02*
X132207000Y-132067300D01*
X133411000Y-131611300D02*
X133411000Y-130757300D01*
X132955000Y-132067300D02*
X133411000Y-131611300D01*
X132207000Y-132067300D02*
X132955000Y-132067300D01*
X129286000Y-133337300D02*
X129032000Y-133337300D01*
X133411000Y-134211300D02*
X133015000Y-134607300D01*
X130556000Y-134607300D02*
X129286000Y-133337300D01*
X133015000Y-134607300D02*
X130556000Y-134607300D01*
X129159000Y-131432300D02*
X130836000Y-131432300D01*
X133411000Y-133357300D02*
X133411000Y-134211300D01*
X129032000Y-133337300D02*
X128778000Y-133083300D01*
X128778000Y-133083300D02*
X128778000Y-131813300D01*
X128778000Y-131813300D02*
X129159000Y-131432300D01*
X130836000Y-131432300D02*
X131511000Y-130757300D01*
X136194800Y-109421960D02*
X136194800Y-108539280D01*
X137836280Y-106897800D02*
X139700000Y-106897800D01*
X136194800Y-108539280D02*
X137836280Y-106897800D01*
X140683000Y-99397800D02*
X139700000Y-99397800D01*
X141097000Y-84987100D02*
X141097000Y-86918800D01*
X141605000Y-87426800D02*
X141605000Y-98475800D01*
X141097000Y-86918800D02*
X141605000Y-87426800D01*
X141160500Y-98920300D02*
X140683000Y-99397800D01*
X141605000Y-98475800D02*
X141160500Y-98920300D01*
X139343080Y-99754720D02*
X139700000Y-99397800D01*
X136204960Y-99754720D02*
X139343080Y-99754720D01*
X141605000Y-99364800D02*
X141160500Y-98920300D01*
X137144000Y-118960900D02*
X139118340Y-118960900D01*
X139118340Y-118960900D02*
X141605000Y-116474240D01*
X139700000Y-109498800D02*
X140563000Y-109498800D01*
X140563000Y-109498800D02*
X141605000Y-110540800D01*
X141605000Y-116474240D02*
X141605000Y-110540800D01*
X141605000Y-110540800D02*
X141605000Y-99364800D01*
X139306920Y-101504720D02*
X139700000Y-101897800D01*
X136204960Y-101504720D02*
X139306920Y-101504720D01*
X138424240Y-103173560D02*
X139700000Y-101897800D01*
X136204960Y-103173560D02*
X138424240Y-103173560D01*
X141097000Y-89094280D02*
X139573000Y-87570280D01*
X141097000Y-96062800D02*
X141097000Y-89094280D01*
X139700000Y-96897800D02*
X140262000Y-96897800D01*
X140262000Y-96897800D02*
X141097000Y-96062800D01*
X139346300Y-92251500D02*
X139700000Y-91897800D01*
X137705400Y-93892400D02*
X139700000Y-91897800D01*
X136220200Y-93892400D02*
X137705400Y-93892400D01*
X140962139Y-83102239D02*
X141097000Y-83237100D01*
X138684000Y-83449160D02*
X139030921Y-83102239D01*
X138684000Y-90881800D02*
X138684000Y-83449160D01*
X139030921Y-83102239D02*
X140962139Y-83102239D01*
X139700000Y-91897800D02*
X138684000Y-90881800D01*
X135217000Y-125551000D02*
X135294400Y-125628400D01*
X134913400Y-123892000D02*
X135217000Y-123588400D01*
X134913400Y-125628400D02*
X134913400Y-123892000D01*
X131878680Y-90361140D02*
X131918680Y-90401140D01*
X130384300Y-100714300D02*
X130384300Y-99574100D01*
X130384300Y-99574100D02*
X129540000Y-98729800D01*
X129540000Y-98729800D02*
X128905000Y-98729800D01*
X128905000Y-98729800D02*
X128016000Y-97840800D01*
X128016000Y-97840800D02*
X128016000Y-96443800D01*
X130307080Y-94152720D02*
X131839360Y-94152720D01*
X128016000Y-96443800D02*
X130307080Y-94152720D01*
X131839360Y-90480460D02*
X131918680Y-90401140D01*
X131839360Y-94152720D02*
X131839360Y-90480460D01*
X136906000Y-139472800D02*
X138025000Y-138353800D01*
X135021000Y-141294800D02*
X135168000Y-141147800D01*
X135021000Y-143402800D02*
X135021000Y-141294800D01*
X136779000Y-141147800D02*
X136906000Y-141020800D01*
X135168000Y-141147800D02*
X136779000Y-141147800D01*
X136906000Y-141020800D02*
X136906000Y-139472800D01*
X138025000Y-143398800D02*
X138021000Y-143402800D01*
X138021000Y-140008800D02*
X138025000Y-140004800D01*
X138021000Y-143402800D02*
X138021000Y-140008800D01*
X132461000Y-131178300D02*
X132461000Y-130757300D01*
X129921000Y-132307300D02*
X131332000Y-132307300D01*
X132461000Y-130757300D02*
X132461000Y-131057300D01*
X131332000Y-132307300D02*
X132461000Y-131178300D01*
X124209300Y-102089300D02*
X123323700Y-102089300D01*
X123323700Y-102089300D02*
X123007120Y-101772720D01*
X123007120Y-101772720D02*
X123007120Y-100111560D01*
X123007120Y-100111560D02*
X121884440Y-98988880D01*
X121884440Y-97966540D02*
X120281700Y-96363800D01*
X121884440Y-98988880D02*
X121884440Y-97966540D01*
X124209300Y-102889300D02*
X123112780Y-102889300D01*
X123112780Y-102889300D02*
X122194320Y-101970840D01*
X122194320Y-100776420D02*
X120281700Y-98863800D01*
X122194320Y-101970840D02*
X122194320Y-100776420D01*
X120281700Y-101363800D02*
X120281700Y-101526340D01*
X122444660Y-103689300D02*
X124209300Y-103689300D01*
X120281700Y-101526340D02*
X122444660Y-103689300D01*
X120281700Y-103863800D02*
X121140880Y-103863800D01*
X121766380Y-104489300D02*
X124209300Y-104489300D01*
X121140880Y-103863800D02*
X121766380Y-104489300D01*
X132559300Y-107689300D02*
X130930300Y-107689300D01*
X130930300Y-107689300D02*
X130416300Y-107175300D01*
X130416300Y-107175300D02*
X130416300Y-104127300D01*
X130854300Y-103689300D02*
X132559300Y-103689300D01*
X130416300Y-104127300D02*
X130854300Y-103689300D01*
X134426780Y-103689300D02*
X134655560Y-103460520D01*
X132559300Y-103689300D02*
X134426780Y-103689300D01*
X135392160Y-102723920D02*
X134655560Y-103460520D01*
X135392160Y-98963480D02*
X135392160Y-102723920D01*
X136220200Y-95642400D02*
X136220200Y-98135440D01*
X136220200Y-98135440D02*
X135392160Y-98963480D01*
X132559300Y-106889300D02*
X131400300Y-106889300D01*
X131400300Y-106889300D02*
X131178300Y-106667300D01*
X131178300Y-106667300D02*
X131178300Y-105651300D01*
X131540300Y-105289300D02*
X132559300Y-105289300D01*
X131178300Y-105651300D02*
X131540300Y-105289300D01*
X134627700Y-105289300D02*
X134665720Y-105251280D01*
X132559300Y-105289300D02*
X134627700Y-105289300D01*
X134665720Y-105251280D02*
X135261320Y-105251280D01*
X135589040Y-104923560D02*
X136204960Y-104923560D01*
X135261320Y-105251280D02*
X135589040Y-104923560D01*
X127424180Y-90478640D02*
X127410180Y-90464640D01*
X129584300Y-99964300D02*
X129584300Y-100714300D01*
X129584300Y-100714300D02*
X129584300Y-99409100D01*
X129584300Y-99409100D02*
X129413000Y-99237800D01*
X129413000Y-99237800D02*
X128778000Y-99237800D01*
X126959360Y-97419160D02*
X126959360Y-97292160D01*
X128778000Y-99237800D02*
X126959360Y-97419160D01*
X126959360Y-94152720D02*
X126959360Y-97292160D01*
X127410180Y-93701900D02*
X126959360Y-94152720D01*
X127410180Y-90464640D02*
X127410180Y-93701900D01*
X128620181Y-99618810D02*
X128493171Y-99491800D01*
X127666720Y-99491800D02*
X125970000Y-97795080D01*
X128493171Y-99491800D02*
X127666720Y-99491800D01*
X128620181Y-99618810D02*
X128620530Y-99618810D01*
X128784300Y-99782580D02*
X128784300Y-100714300D01*
X128620530Y-99618810D02*
X128784300Y-99782580D01*
X137121800Y-123088400D02*
X138771600Y-123088400D01*
X137287000Y-132018400D02*
X138771000Y-132018400D01*
X138771000Y-132018400D02*
X139141200Y-131648200D01*
X139141200Y-128106200D02*
X136663400Y-125628400D01*
X139141200Y-131648200D02*
X139141200Y-128106200D01*
X138771600Y-123088400D02*
X139496800Y-123813600D01*
X136663400Y-125628400D02*
X137850880Y-125628400D01*
X139496800Y-123982480D02*
X139496800Y-123813600D01*
X137850880Y-125628400D02*
X139496800Y-123982480D01*
X134004400Y-122588400D02*
X133629400Y-122213400D01*
X135217000Y-122588400D02*
X134004400Y-122588400D01*
X134504400Y-123088400D02*
X133629400Y-123963400D01*
X135217000Y-123088400D02*
X134504400Y-123088400D01*
D30*
X132094000Y-124778800D02*
X131445000Y-124778800D01*
X131445000Y-124778800D02*
X131445000Y-123099800D01*
X132461000Y-125145800D02*
X132094000Y-124778800D01*
X132461000Y-128257300D02*
X132461000Y-125145800D01*
D31*
X132559300Y-102889300D02*
X133498340Y-102889300D01*
X133498340Y-102889300D02*
X133761480Y-102626160D01*
X133761480Y-98690400D02*
X132866160Y-97795080D01*
X133761480Y-102626160D02*
X133761480Y-98690400D01*
D30*
X120618220Y-106229180D02*
X121554240Y-105293160D01*
D31*
X124205440Y-105293160D02*
X124209300Y-105289300D01*
X121554240Y-105293160D02*
X124205440Y-105293160D01*
D30*
X120620760Y-107683300D02*
X120618220Y-107680760D01*
X120620760Y-109245400D02*
X120620760Y-107683300D01*
X120618220Y-107680760D02*
X120618220Y-106229180D01*
D31*
X122350500Y-135273300D02*
X122110500Y-135033300D01*
D30*
X122110500Y-136625300D02*
X122110500Y-135033300D01*
X121588500Y-137147300D02*
X122110500Y-136625300D01*
D31*
G36*
X123507500Y-134906300D02*
G01*
X123527500Y-134906300D01*
X123527500Y-135160300D01*
X123507500Y-135160300D01*
X123507500Y-136272050D01*
X123666250Y-136430800D01*
X123698023Y-136432319D01*
X123711783Y-136572022D01*
X123766248Y-136751568D01*
X123854694Y-136917041D01*
X123973722Y-137062078D01*
X124010069Y-137091907D01*
X124509961Y-137591800D01*
X122723772Y-137591800D01*
X122734748Y-137555616D01*
X122751572Y-137384800D01*
X122751572Y-137331381D01*
X122787278Y-137302078D01*
X122906306Y-137157041D01*
X122994752Y-136991569D01*
X123049217Y-136812023D01*
X123063000Y-136672085D01*
X123063000Y-136672084D01*
X123067608Y-136625301D01*
X123063000Y-136578516D01*
X123063000Y-136432318D01*
X123094750Y-136430800D01*
X123253500Y-136272050D01*
X123253500Y-135160300D01*
X123233500Y-135160300D01*
X123233500Y-134906300D01*
X123253500Y-134906300D01*
X123253500Y-134886300D01*
X123507500Y-134886300D01*
X123507500Y-134906300D01*
G37*
X123507500Y-134906300D02*
X123527500Y-134906300D01*
X123527500Y-135160300D01*
X123507500Y-135160300D01*
X123507500Y-136272050D01*
X123666250Y-136430800D01*
X123698023Y-136432319D01*
X123711783Y-136572022D01*
X123766248Y-136751568D01*
X123854694Y-136917041D01*
X123973722Y-137062078D01*
X124010069Y-137091907D01*
X124509961Y-137591800D01*
X122723772Y-137591800D01*
X122734748Y-137555616D01*
X122751572Y-137384800D01*
X122751572Y-137331381D01*
X122787278Y-137302078D01*
X122906306Y-137157041D01*
X122994752Y-136991569D01*
X123049217Y-136812023D01*
X123063000Y-136672085D01*
X123063000Y-136672084D01*
X123067608Y-136625301D01*
X123063000Y-136578516D01*
X123063000Y-136432318D01*
X123094750Y-136430800D01*
X123253500Y-136272050D01*
X123253500Y-135160300D01*
X123233500Y-135160300D01*
X123233500Y-134906300D01*
X123253500Y-134906300D01*
X123253500Y-134886300D01*
X123507500Y-134886300D01*
X123507500Y-134906300D01*
G36*
X128841500Y-129837562D02*
G01*
X128820188Y-129907818D01*
X128807928Y-130032300D01*
X128811000Y-130271550D01*
X128841500Y-130302050D01*
X128841500Y-130737986D01*
X128733608Y-130795655D01*
X128617578Y-130890878D01*
X128593716Y-130919954D01*
X128265649Y-131248021D01*
X128236579Y-131271878D01*
X128212722Y-131300948D01*
X128212721Y-131300949D01*
X128141355Y-131387908D01*
X128070599Y-131520285D01*
X128027027Y-131663922D01*
X128012314Y-131813300D01*
X128016001Y-131850733D01*
X128016000Y-133045876D01*
X128012314Y-133083300D01*
X128016000Y-133120723D01*
X128016000Y-133120725D01*
X128027026Y-133232677D01*
X128070598Y-133376314D01*
X128103535Y-133437935D01*
X128141355Y-133508692D01*
X128180983Y-133556978D01*
X128236578Y-133624722D01*
X128265654Y-133648584D01*
X128466716Y-133849646D01*
X128490578Y-133878722D01*
X128606608Y-133973945D01*
X128738985Y-134044702D01*
X128841500Y-134075800D01*
X128841500Y-136085530D01*
X128746220Y-136180810D01*
X128746220Y-137005060D01*
X128766220Y-137005060D01*
X128766220Y-137259060D01*
X128746220Y-137259060D01*
X128746220Y-137279060D01*
X128492220Y-137279060D01*
X128492220Y-137259060D01*
X128472220Y-137259060D01*
X128472220Y-137005060D01*
X128492220Y-137005060D01*
X128492220Y-136180810D01*
X128333470Y-136022060D01*
X128094220Y-136018988D01*
X127969738Y-136031248D01*
X127850040Y-136067558D01*
X127739726Y-136126523D01*
X127667059Y-136186159D01*
X127643162Y-136166548D01*
X127491787Y-136085637D01*
X127327536Y-136035812D01*
X127156720Y-136018988D01*
X126581720Y-136018988D01*
X126410904Y-136035812D01*
X126246653Y-136085637D01*
X126095278Y-136166548D01*
X126082648Y-136176913D01*
X126062740Y-136174952D01*
X126015955Y-136179560D01*
X125791799Y-136179560D01*
X125604483Y-135992244D01*
X125626312Y-135920282D01*
X125638572Y-135795800D01*
X125638572Y-134270800D01*
X125626312Y-134146318D01*
X125590002Y-134026620D01*
X125531037Y-133916306D01*
X125451685Y-133819615D01*
X125354994Y-133740263D01*
X125244680Y-133681298D01*
X125124982Y-133644988D01*
X125078407Y-133640401D01*
X125084572Y-133577800D01*
X125081500Y-132607050D01*
X124922750Y-132448300D01*
X122872500Y-132448300D01*
X122872500Y-132468300D01*
X122618500Y-132468300D01*
X122618500Y-132448300D01*
X120568250Y-132448300D01*
X120409500Y-132607050D01*
X120406428Y-133577800D01*
X120412593Y-133640401D01*
X120366018Y-133644988D01*
X120246320Y-133681298D01*
X120136006Y-133740263D01*
X120039315Y-133819615D01*
X119959963Y-133916306D01*
X119900998Y-134026620D01*
X119864688Y-134146318D01*
X119852428Y-134270800D01*
X119855500Y-134747550D01*
X120014250Y-134906300D01*
X120713500Y-134906300D01*
X120713500Y-134886300D01*
X120967500Y-134886300D01*
X120967500Y-134906300D01*
X120987500Y-134906300D01*
X120987500Y-135160300D01*
X120967500Y-135160300D01*
X120967500Y-135180300D01*
X120713500Y-135180300D01*
X120713500Y-135160300D01*
X120014250Y-135160300D01*
X119855500Y-135319050D01*
X119852428Y-135795800D01*
X119864688Y-135920282D01*
X119900998Y-136039980D01*
X119959963Y-136150294D01*
X119983083Y-136178467D01*
X119965500Y-136196050D01*
X119965500Y-137020300D01*
X119985500Y-137020300D01*
X119985500Y-137274300D01*
X119965500Y-137274300D01*
X119965500Y-137294300D01*
X119711500Y-137294300D01*
X119711500Y-137274300D01*
X119691500Y-137274300D01*
X119691500Y-137020300D01*
X119711500Y-137020300D01*
X119711500Y-136196050D01*
X119634000Y-136118550D01*
X119634000Y-131572838D01*
X120245809Y-130961029D01*
X120246320Y-130961302D01*
X120366018Y-130997612D01*
X120412593Y-131002199D01*
X120406428Y-131064800D01*
X120409500Y-132035550D01*
X120568250Y-132194300D01*
X122618500Y-132194300D01*
X122618500Y-132174300D01*
X122872500Y-132174300D01*
X122872500Y-132194300D01*
X124922750Y-132194300D01*
X125081500Y-132035550D01*
X125084572Y-131064800D01*
X125078407Y-131002199D01*
X125124982Y-130997612D01*
X125244680Y-130961302D01*
X125354994Y-130902337D01*
X125451685Y-130822985D01*
X125531037Y-130726294D01*
X125590002Y-130615980D01*
X125626312Y-130496282D01*
X125638572Y-130371800D01*
X125638572Y-129251266D01*
X126251539Y-128638300D01*
X128841500Y-128638300D01*
X128841500Y-129837562D01*
G37*
X128841500Y-129837562D02*
X128820188Y-129907818D01*
X128807928Y-130032300D01*
X128811000Y-130271550D01*
X128841500Y-130302050D01*
X128841500Y-130737986D01*
X128733608Y-130795655D01*
X128617578Y-130890878D01*
X128593716Y-130919954D01*
X128265649Y-131248021D01*
X128236579Y-131271878D01*
X128212722Y-131300948D01*
X128212721Y-131300949D01*
X128141355Y-131387908D01*
X128070599Y-131520285D01*
X128027027Y-131663922D01*
X128012314Y-131813300D01*
X128016001Y-131850733D01*
X128016000Y-133045876D01*
X128012314Y-133083300D01*
X128016000Y-133120723D01*
X128016000Y-133120725D01*
X128027026Y-133232677D01*
X128070598Y-133376314D01*
X128103535Y-133437935D01*
X128141355Y-133508692D01*
X128180983Y-133556978D01*
X128236578Y-133624722D01*
X128265654Y-133648584D01*
X128466716Y-133849646D01*
X128490578Y-133878722D01*
X128606608Y-133973945D01*
X128738985Y-134044702D01*
X128841500Y-134075800D01*
X128841500Y-136085530D01*
X128746220Y-136180810D01*
X128746220Y-137005060D01*
X128766220Y-137005060D01*
X128766220Y-137259060D01*
X128746220Y-137259060D01*
X128746220Y-137279060D01*
X128492220Y-137279060D01*
X128492220Y-137259060D01*
X128472220Y-137259060D01*
X128472220Y-137005060D01*
X128492220Y-137005060D01*
X128492220Y-136180810D01*
X128333470Y-136022060D01*
X128094220Y-136018988D01*
X127969738Y-136031248D01*
X127850040Y-136067558D01*
X127739726Y-136126523D01*
X127667059Y-136186159D01*
X127643162Y-136166548D01*
X127491787Y-136085637D01*
X127327536Y-136035812D01*
X127156720Y-136018988D01*
X126581720Y-136018988D01*
X126410904Y-136035812D01*
X126246653Y-136085637D01*
X126095278Y-136166548D01*
X126082648Y-136176913D01*
X126062740Y-136174952D01*
X126015955Y-136179560D01*
X125791799Y-136179560D01*
X125604483Y-135992244D01*
X125626312Y-135920282D01*
X125638572Y-135795800D01*
X125638572Y-134270800D01*
X125626312Y-134146318D01*
X125590002Y-134026620D01*
X125531037Y-133916306D01*
X125451685Y-133819615D01*
X125354994Y-133740263D01*
X125244680Y-133681298D01*
X125124982Y-133644988D01*
X125078407Y-133640401D01*
X125084572Y-133577800D01*
X125081500Y-132607050D01*
X124922750Y-132448300D01*
X122872500Y-132448300D01*
X122872500Y-132468300D01*
X122618500Y-132468300D01*
X122618500Y-132448300D01*
X120568250Y-132448300D01*
X120409500Y-132607050D01*
X120406428Y-133577800D01*
X120412593Y-133640401D01*
X120366018Y-133644988D01*
X120246320Y-133681298D01*
X120136006Y-133740263D01*
X120039315Y-133819615D01*
X119959963Y-133916306D01*
X119900998Y-134026620D01*
X119864688Y-134146318D01*
X119852428Y-134270800D01*
X119855500Y-134747550D01*
X120014250Y-134906300D01*
X120713500Y-134906300D01*
X120713500Y-134886300D01*
X120967500Y-134886300D01*
X120967500Y-134906300D01*
X120987500Y-134906300D01*
X120987500Y-135160300D01*
X120967500Y-135160300D01*
X120967500Y-135180300D01*
X120713500Y-135180300D01*
X120713500Y-135160300D01*
X120014250Y-135160300D01*
X119855500Y-135319050D01*
X119852428Y-135795800D01*
X119864688Y-135920282D01*
X119900998Y-136039980D01*
X119959963Y-136150294D01*
X119983083Y-136178467D01*
X119965500Y-136196050D01*
X119965500Y-137020300D01*
X119985500Y-137020300D01*
X119985500Y-137274300D01*
X119965500Y-137274300D01*
X119965500Y-137294300D01*
X119711500Y-137294300D01*
X119711500Y-137274300D01*
X119691500Y-137274300D01*
X119691500Y-137020300D01*
X119711500Y-137020300D01*
X119711500Y-136196050D01*
X119634000Y-136118550D01*
X119634000Y-131572838D01*
X120245809Y-130961029D01*
X120246320Y-130961302D01*
X120366018Y-130997612D01*
X120412593Y-131002199D01*
X120406428Y-131064800D01*
X120409500Y-132035550D01*
X120568250Y-132194300D01*
X122618500Y-132194300D01*
X122618500Y-132174300D01*
X122872500Y-132174300D01*
X122872500Y-132194300D01*
X124922750Y-132194300D01*
X125081500Y-132035550D01*
X125084572Y-131064800D01*
X125078407Y-131002199D01*
X125124982Y-130997612D01*
X125244680Y-130961302D01*
X125354994Y-130902337D01*
X125451685Y-130822985D01*
X125531037Y-130726294D01*
X125590002Y-130615980D01*
X125626312Y-130496282D01*
X125638572Y-130371800D01*
X125638572Y-129251266D01*
X126251539Y-128638300D01*
X128841500Y-128638300D01*
X128841500Y-129837562D01*
M02*
