G04 #@! TF.GenerationSoftware,KiCad,Pcbnew,(5.1.6)-1*
G04 #@! TF.CreationDate,2023-02-24T22:08:04-06:00*
G04 #@! TF.ProjectId,EncoderBoard3(1.2),456e636f-6465-4724-926f-617264332831,v1.0*
G04 #@! TF.SameCoordinates,Original*
G04 #@! TF.FileFunction,Copper,L2,Bot*
G04 #@! TF.FilePolarity,Positive*
%FSLAX46Y46*%
G04 Gerber Fmt 4.6, Leading zero omitted, Abs format (unit mm)*
G04 Created by KiCad (PCBNEW (5.1.6)-1) date 2023-02-24 22:08:04*
%MOMM*%
%LPD*%
G01*
G04 APERTURE LIST*
G04 #@! TA.AperFunction,ComponentPad*
%ADD10O,1.700000X1.950000*%
G04 #@! TD*
G04 #@! TA.AperFunction,ComponentPad*
%ADD11C,1.500000*%
G04 #@! TD*
G04 #@! TA.AperFunction,ComponentPad*
%ADD12O,1.050000X2.100000*%
G04 #@! TD*
G04 #@! TA.AperFunction,ComponentPad*
%ADD13O,1.950000X1.700000*%
G04 #@! TD*
G04 #@! TA.AperFunction,ComponentPad*
%ADD14O,2.000000X1.700000*%
G04 #@! TD*
G04 #@! TA.AperFunction,ComponentPad*
%ADD15O,1.700000X1.700000*%
G04 #@! TD*
G04 #@! TA.AperFunction,ComponentPad*
%ADD16R,1.700000X1.700000*%
G04 #@! TD*
G04 #@! TA.AperFunction,ComponentPad*
%ADD17C,6.400000*%
G04 #@! TD*
G04 #@! TA.AperFunction,ViaPad*
%ADD18C,0.450000*%
G04 #@! TD*
G04 #@! TA.AperFunction,ViaPad*
%ADD19C,1.270000*%
G04 #@! TD*
G04 #@! TA.AperFunction,Conductor*
%ADD20C,0.254000*%
G04 #@! TD*
G04 APERTURE END LIST*
G04 #@! TA.AperFunction,ComponentPad*
G36*
G01*
X130453500Y-115975300D02*
X130453500Y-117425300D01*
G75*
G02*
X130203500Y-117675300I-250000J0D01*
G01*
X129003500Y-117675300D01*
G75*
G02*
X128753500Y-117425300I0J250000D01*
G01*
X128753500Y-115975300D01*
G75*
G02*
X129003500Y-115725300I250000J0D01*
G01*
X130203500Y-115725300D01*
G75*
G02*
X130453500Y-115975300I0J-250000D01*
G01*
G37*
G04 #@! TD.AperFunction*
D10*
X127103500Y-116700300D03*
X124603500Y-116700300D03*
X122103500Y-116700300D03*
D11*
X126959360Y-94152720D03*
X131839360Y-94152720D03*
D12*
X140591000Y-148497800D03*
X131951000Y-148497800D03*
X140591000Y-144317800D03*
X131951000Y-144317800D03*
G04 #@! TA.AperFunction,ComponentPad*
G36*
G01*
X129252080Y-84644400D02*
X129252080Y-86094400D01*
G75*
G02*
X129002080Y-86344400I-250000J0D01*
G01*
X127802080Y-86344400D01*
G75*
G02*
X127552080Y-86094400I0J250000D01*
G01*
X127552080Y-84644400D01*
G75*
G02*
X127802080Y-84394400I250000J0D01*
G01*
X129002080Y-84394400D01*
G75*
G02*
X129252080Y-84644400I0J-250000D01*
G01*
G37*
G04 #@! TD.AperFunction*
D10*
X125902080Y-85369400D03*
X123402080Y-85369400D03*
X120902080Y-85369400D03*
G04 #@! TA.AperFunction,ComponentPad*
G36*
G01*
X119556700Y-90513800D02*
X121006700Y-90513800D01*
G75*
G02*
X121256700Y-90763800I0J-250000D01*
G01*
X121256700Y-91963800D01*
G75*
G02*
X121006700Y-92213800I-250000J0D01*
G01*
X119556700Y-92213800D01*
G75*
G02*
X119306700Y-91963800I0J250000D01*
G01*
X119306700Y-90763800D01*
G75*
G02*
X119556700Y-90513800I250000J0D01*
G01*
G37*
G04 #@! TD.AperFunction*
D13*
X120281700Y-93863800D03*
X120281700Y-96363800D03*
X120281700Y-98863800D03*
X120281700Y-101363800D03*
X120281700Y-103863800D03*
D14*
X127444500Y-122772800D03*
G04 #@! TA.AperFunction,ComponentPad*
G36*
G01*
X128194500Y-126122800D02*
X126694500Y-126122800D01*
G75*
G02*
X126444500Y-125872800I0J250000D01*
G01*
X126444500Y-124672800D01*
G75*
G02*
X126694500Y-124422800I250000J0D01*
G01*
X128194500Y-124422800D01*
G75*
G02*
X128444500Y-124672800I0J-250000D01*
G01*
X128444500Y-125872800D01*
G75*
G02*
X128194500Y-126122800I-250000J0D01*
G01*
G37*
G04 #@! TD.AperFunction*
D15*
X139763500Y-115214400D03*
X137223500Y-115214400D03*
D16*
X134683500Y-115214400D03*
D17*
X125000000Y-142425800D03*
D13*
X137287000Y-129518400D03*
X137287000Y-132018400D03*
G04 #@! TA.AperFunction,ComponentPad*
G36*
G01*
X138012000Y-135368400D02*
X136562000Y-135368400D01*
G75*
G02*
X136312000Y-135118400I0J250000D01*
G01*
X136312000Y-133918400D01*
G75*
G02*
X136562000Y-133668400I250000J0D01*
G01*
X138012000Y-133668400D01*
G75*
G02*
X138262000Y-133918400I0J-250000D01*
G01*
X138262000Y-135118400D01*
G75*
G02*
X138012000Y-135368400I-250000J0D01*
G01*
G37*
G04 #@! TD.AperFunction*
X139776200Y-109498800D03*
X139776200Y-106998800D03*
X139776200Y-104498800D03*
X139776200Y-101998800D03*
X139776200Y-99498800D03*
X139776200Y-96998800D03*
X139776200Y-94498800D03*
G04 #@! TA.AperFunction,ComponentPad*
G36*
G01*
X139051200Y-91148800D02*
X140501200Y-91148800D01*
G75*
G02*
X140751200Y-91398800I0J-250000D01*
G01*
X140751200Y-92598800D01*
G75*
G02*
X140501200Y-92848800I-250000J0D01*
G01*
X139051200Y-92848800D01*
G75*
G02*
X138801200Y-92598800I0J250000D01*
G01*
X138801200Y-91398800D01*
G75*
G02*
X139051200Y-91148800I250000J0D01*
G01*
G37*
G04 #@! TD.AperFunction*
D17*
X135000000Y-85902800D03*
D18*
X121475500Y-133083300D03*
X124142500Y-131559300D03*
X124142500Y-132321300D03*
X124142500Y-133083300D03*
X123253500Y-133083300D03*
X123253500Y-132321300D03*
X123253500Y-131559300D03*
X129921000Y-129019300D03*
X124396500Y-127050800D03*
X119443500Y-134988300D03*
X136169400Y-121589800D03*
D19*
X129921000Y-135369300D03*
X123317000Y-137083800D03*
D18*
X125031500Y-133083300D03*
X125031500Y-132321300D03*
X125031500Y-131559300D03*
X122364500Y-131559300D03*
X122364500Y-132321300D03*
X122364500Y-133083300D03*
X125920500Y-133083300D03*
X125920500Y-132321300D03*
X125920500Y-131559300D03*
X121475500Y-131559300D03*
X121475500Y-132321300D03*
X120586500Y-131559300D03*
X120586500Y-132321300D03*
X120586500Y-133083300D03*
X127591820Y-111493300D03*
X127591820Y-113017300D03*
X122511820Y-110488700D03*
X119844820Y-112255300D03*
X125647300Y-106089300D03*
X125646180Y-89067640D03*
X137947400Y-123913900D03*
X124383800Y-109016800D03*
X139521000Y-142072800D03*
X141097000Y-140004800D03*
X133021000Y-141095800D03*
X141097000Y-138353800D03*
X129776220Y-137132060D03*
X140665200Y-123063000D03*
X132559300Y-101222300D03*
X119443500Y-136067800D03*
X140639800Y-125577600D03*
X130154680Y-89067640D03*
X134706360Y-98933000D03*
X134655560Y-100401120D03*
X136018240Y-107001280D03*
X135056880Y-111409480D03*
X139573000Y-83581240D03*
X124220000Y-98906360D03*
X130434080Y-98887280D03*
X118870760Y-110420120D03*
D20*
G36*
X132478724Y-83201919D02*
G01*
X135000000Y-85723195D01*
X137521276Y-83201919D01*
X137321111Y-82929800D01*
X141276000Y-82929800D01*
X141276000Y-90973504D01*
X141239605Y-90905414D01*
X141129162Y-90770838D01*
X140994586Y-90660395D01*
X140841050Y-90578328D01*
X140674454Y-90527792D01*
X140501200Y-90510728D01*
X139051200Y-90510728D01*
X138877946Y-90527792D01*
X138711350Y-90578328D01*
X138557814Y-90660395D01*
X138423238Y-90770838D01*
X138312795Y-90905414D01*
X138230728Y-91058950D01*
X138180192Y-91225546D01*
X138163128Y-91398800D01*
X138163128Y-92598800D01*
X138180192Y-92772054D01*
X138230728Y-92938650D01*
X138312795Y-93092186D01*
X138423238Y-93226762D01*
X138557814Y-93337205D01*
X138663161Y-93393514D01*
X138641771Y-93409751D01*
X138448704Y-93627607D01*
X138301848Y-93878942D01*
X138209724Y-94141910D01*
X138331045Y-94371800D01*
X139649200Y-94371800D01*
X139649200Y-94351800D01*
X139903200Y-94351800D01*
X139903200Y-94371800D01*
X139923200Y-94371800D01*
X139923200Y-94625800D01*
X139903200Y-94625800D01*
X139903200Y-94645800D01*
X139649200Y-94645800D01*
X139649200Y-94625800D01*
X138331045Y-94625800D01*
X138209724Y-94855690D01*
X138301848Y-95118658D01*
X138448704Y-95369993D01*
X138641771Y-95587849D01*
X138847922Y-95744338D01*
X138822186Y-95758094D01*
X138596066Y-95943666D01*
X138410494Y-96169786D01*
X138272601Y-96427766D01*
X138187687Y-96707689D01*
X138159015Y-96998800D01*
X138187687Y-97289911D01*
X138272601Y-97569834D01*
X138410494Y-97827814D01*
X138596066Y-98053934D01*
X138822186Y-98239506D01*
X138839574Y-98248800D01*
X138822186Y-98258094D01*
X138596066Y-98443666D01*
X138410494Y-98669786D01*
X138272601Y-98927766D01*
X138187687Y-99207689D01*
X138159015Y-99498800D01*
X138187687Y-99789911D01*
X138272601Y-100069834D01*
X138410494Y-100327814D01*
X138596066Y-100553934D01*
X138822186Y-100739506D01*
X138839574Y-100748800D01*
X138822186Y-100758094D01*
X138596066Y-100943666D01*
X138410494Y-101169786D01*
X138272601Y-101427766D01*
X138187687Y-101707689D01*
X138159015Y-101998800D01*
X138187687Y-102289911D01*
X138272601Y-102569834D01*
X138410494Y-102827814D01*
X138596066Y-103053934D01*
X138822186Y-103239506D01*
X138847922Y-103253262D01*
X138641771Y-103409751D01*
X138448704Y-103627607D01*
X138301848Y-103878942D01*
X138209724Y-104141910D01*
X138331045Y-104371800D01*
X139649200Y-104371800D01*
X139649200Y-104351800D01*
X139903200Y-104351800D01*
X139903200Y-104371800D01*
X139923200Y-104371800D01*
X139923200Y-104625800D01*
X139903200Y-104625800D01*
X139903200Y-104645800D01*
X139649200Y-104645800D01*
X139649200Y-104625800D01*
X138331045Y-104625800D01*
X138209724Y-104855690D01*
X138301848Y-105118658D01*
X138448704Y-105369993D01*
X138641771Y-105587849D01*
X138847922Y-105744338D01*
X138822186Y-105758094D01*
X138596066Y-105943666D01*
X138410494Y-106169786D01*
X138272601Y-106427766D01*
X138187687Y-106707689D01*
X138159015Y-106998800D01*
X138187687Y-107289911D01*
X138272601Y-107569834D01*
X138410494Y-107827814D01*
X138596066Y-108053934D01*
X138822186Y-108239506D01*
X138839574Y-108248800D01*
X138822186Y-108258094D01*
X138596066Y-108443666D01*
X138410494Y-108669786D01*
X138272601Y-108927766D01*
X138187687Y-109207689D01*
X138159015Y-109498800D01*
X138187687Y-109789911D01*
X138272601Y-110069834D01*
X138410494Y-110327814D01*
X138596066Y-110553934D01*
X138822186Y-110739506D01*
X139080166Y-110877399D01*
X139360089Y-110962313D01*
X139578250Y-110983800D01*
X139974150Y-110983800D01*
X140192311Y-110962313D01*
X140472234Y-110877399D01*
X140730214Y-110739506D01*
X140956334Y-110553934D01*
X141141906Y-110327814D01*
X141276000Y-110076941D01*
X141276001Y-142853100D01*
X141129864Y-142757737D01*
X140896810Y-142673836D01*
X140718000Y-142799637D01*
X140718000Y-144190800D01*
X140738000Y-144190800D01*
X140738000Y-144444800D01*
X140718000Y-144444800D01*
X140718000Y-145835963D01*
X140896810Y-145961764D01*
X141129864Y-145877863D01*
X141276001Y-145782499D01*
X141276001Y-147033101D01*
X141129864Y-146937737D01*
X140896810Y-146853836D01*
X140718000Y-146979637D01*
X140718000Y-148370800D01*
X140738000Y-148370800D01*
X140738000Y-148624800D01*
X140718000Y-148624800D01*
X140718000Y-148644800D01*
X140464000Y-148644800D01*
X140464000Y-148624800D01*
X139431000Y-148624800D01*
X139431000Y-149149800D01*
X139478066Y-149373665D01*
X139567901Y-149584046D01*
X139697053Y-149772859D01*
X139860559Y-149932847D01*
X140052136Y-150057863D01*
X140285190Y-150141764D01*
X140290001Y-150138379D01*
X140290001Y-150285870D01*
X132210000Y-150249922D01*
X132210000Y-150108831D01*
X132256810Y-150141764D01*
X132489864Y-150057863D01*
X132681441Y-149932847D01*
X132844947Y-149772859D01*
X132974099Y-149584046D01*
X133063934Y-149373665D01*
X133111000Y-149149800D01*
X133111000Y-148624800D01*
X132078000Y-148624800D01*
X132078000Y-148644800D01*
X131824000Y-148644800D01*
X131824000Y-148624800D01*
X131804000Y-148624800D01*
X131804000Y-148370800D01*
X131824000Y-148370800D01*
X131824000Y-146979637D01*
X132078000Y-146979637D01*
X132078000Y-148370800D01*
X133111000Y-148370800D01*
X133111000Y-147845800D01*
X139431000Y-147845800D01*
X139431000Y-148370800D01*
X140464000Y-148370800D01*
X140464000Y-146979637D01*
X140285190Y-146853836D01*
X140052136Y-146937737D01*
X139860559Y-147062753D01*
X139697053Y-147222741D01*
X139567901Y-147411554D01*
X139478066Y-147621935D01*
X139431000Y-147845800D01*
X133111000Y-147845800D01*
X133063934Y-147621935D01*
X132974099Y-147411554D01*
X132844947Y-147222741D01*
X132681441Y-147062753D01*
X132489864Y-146937737D01*
X132256810Y-146853836D01*
X132078000Y-146979637D01*
X131824000Y-146979637D01*
X131645190Y-146853836D01*
X131412136Y-146937737D01*
X131410000Y-146939131D01*
X131410000Y-146354877D01*
X131413435Y-146320000D01*
X131399727Y-146180816D01*
X131359128Y-146046980D01*
X131293200Y-145923637D01*
X131204475Y-145815525D01*
X131096363Y-145726800D01*
X130973020Y-145660872D01*
X130839184Y-145620273D01*
X130734877Y-145610000D01*
X130700000Y-145606565D01*
X130665123Y-145610000D01*
X127165757Y-145610000D01*
X127521276Y-145126681D01*
X125000000Y-142605405D01*
X122478724Y-145126681D01*
X122834243Y-145610000D01*
X118050000Y-145610000D01*
X118050000Y-142401495D01*
X121146520Y-142401495D01*
X121215822Y-143153738D01*
X121430548Y-143878008D01*
X121782445Y-144546470D01*
X121809452Y-144586888D01*
X122299119Y-144947076D01*
X124820395Y-142425800D01*
X125179605Y-142425800D01*
X127700881Y-144947076D01*
X128190548Y-144586888D01*
X128267651Y-144444800D01*
X130791000Y-144444800D01*
X130791000Y-144969800D01*
X130838066Y-145193665D01*
X130927901Y-145404046D01*
X131057053Y-145592859D01*
X131220559Y-145752847D01*
X131412136Y-145877863D01*
X131645190Y-145961764D01*
X131824000Y-145835963D01*
X131824000Y-144444800D01*
X130791000Y-144444800D01*
X128267651Y-144444800D01*
X128550849Y-143922918D01*
X128630619Y-143665800D01*
X130791000Y-143665800D01*
X130791000Y-144190800D01*
X131824000Y-144190800D01*
X131824000Y-142799637D01*
X132078000Y-142799637D01*
X132078000Y-144190800D01*
X132098000Y-144190800D01*
X132098000Y-144444800D01*
X132078000Y-144444800D01*
X132078000Y-145835963D01*
X132256810Y-145961764D01*
X132489864Y-145877863D01*
X132681441Y-145752847D01*
X132795507Y-145641235D01*
X132914428Y-145720696D01*
X133093686Y-145794947D01*
X133283986Y-145832800D01*
X133478014Y-145832800D01*
X133668314Y-145794947D01*
X133847572Y-145720696D01*
X134008901Y-145612899D01*
X134146099Y-145475701D01*
X134253896Y-145314372D01*
X134328147Y-145135114D01*
X134366000Y-144944814D01*
X134366000Y-144750786D01*
X138176000Y-144750786D01*
X138176000Y-144944814D01*
X138213853Y-145135114D01*
X138288104Y-145314372D01*
X138395901Y-145475701D01*
X138533099Y-145612899D01*
X138694428Y-145720696D01*
X138873686Y-145794947D01*
X139063986Y-145832800D01*
X139258014Y-145832800D01*
X139448314Y-145794947D01*
X139627572Y-145720696D01*
X139746493Y-145641235D01*
X139860559Y-145752847D01*
X140052136Y-145877863D01*
X140285190Y-145961764D01*
X140464000Y-145835963D01*
X140464000Y-144444800D01*
X140444000Y-144444800D01*
X140444000Y-144190800D01*
X140464000Y-144190800D01*
X140464000Y-142799637D01*
X140285190Y-142673836D01*
X140052136Y-142757737D01*
X139860559Y-142882753D01*
X139697053Y-143042741D01*
X139567901Y-143231554D01*
X139478066Y-143441935D01*
X139431000Y-143665800D01*
X139431000Y-143897209D01*
X139258014Y-143862800D01*
X139063986Y-143862800D01*
X138873686Y-143900653D01*
X138694428Y-143974904D01*
X138533099Y-144082701D01*
X138395901Y-144219899D01*
X138288104Y-144381228D01*
X138213853Y-144560486D01*
X138176000Y-144750786D01*
X134366000Y-144750786D01*
X134328147Y-144560486D01*
X134253896Y-144381228D01*
X134146099Y-144219899D01*
X134008901Y-144082701D01*
X133847572Y-143974904D01*
X133668314Y-143900653D01*
X133478014Y-143862800D01*
X133283986Y-143862800D01*
X133111000Y-143897209D01*
X133111000Y-143665800D01*
X133063934Y-143441935D01*
X132974099Y-143231554D01*
X132844947Y-143042741D01*
X132681441Y-142882753D01*
X132489864Y-142757737D01*
X132256810Y-142673836D01*
X132078000Y-142799637D01*
X131824000Y-142799637D01*
X131645190Y-142673836D01*
X131412136Y-142757737D01*
X131220559Y-142882753D01*
X131057053Y-143042741D01*
X130927901Y-143231554D01*
X130838066Y-143441935D01*
X130791000Y-143665800D01*
X128630619Y-143665800D01*
X128774694Y-143201415D01*
X128853480Y-142450105D01*
X128784178Y-141697862D01*
X128569452Y-140973592D01*
X128217555Y-140305130D01*
X128190548Y-140264712D01*
X127700881Y-139904524D01*
X125179605Y-142425800D01*
X124820395Y-142425800D01*
X122299119Y-139904524D01*
X121809452Y-140264712D01*
X121449151Y-140928682D01*
X121225306Y-141650185D01*
X121146520Y-142401495D01*
X118050000Y-142401495D01*
X118050000Y-139724919D01*
X122478724Y-139724919D01*
X125000000Y-142246195D01*
X127521276Y-139724919D01*
X127161088Y-139235252D01*
X126497118Y-138874951D01*
X125775615Y-138651106D01*
X125024305Y-138572320D01*
X124272062Y-138641622D01*
X123547792Y-138856348D01*
X122879330Y-139208245D01*
X122838912Y-139235252D01*
X122478724Y-139724919D01*
X118050000Y-139724919D01*
X118050000Y-132018400D01*
X135669815Y-132018400D01*
X135698487Y-132309511D01*
X135783401Y-132589434D01*
X135921294Y-132847414D01*
X136106866Y-133073534D01*
X136170337Y-133125623D01*
X136068614Y-133179995D01*
X135934038Y-133290438D01*
X135823595Y-133425014D01*
X135741528Y-133578550D01*
X135690992Y-133745146D01*
X135673928Y-133918400D01*
X135673928Y-135118400D01*
X135690992Y-135291654D01*
X135741528Y-135458250D01*
X135823595Y-135611786D01*
X135934038Y-135746362D01*
X136068614Y-135856805D01*
X136222150Y-135938872D01*
X136388746Y-135989408D01*
X136562000Y-136006472D01*
X138012000Y-136006472D01*
X138185254Y-135989408D01*
X138351850Y-135938872D01*
X138505386Y-135856805D01*
X138639962Y-135746362D01*
X138750405Y-135611786D01*
X138832472Y-135458250D01*
X138883008Y-135291654D01*
X138900072Y-135118400D01*
X138900072Y-133918400D01*
X138883008Y-133745146D01*
X138832472Y-133578550D01*
X138750405Y-133425014D01*
X138639962Y-133290438D01*
X138505386Y-133179995D01*
X138403663Y-133125623D01*
X138467134Y-133073534D01*
X138652706Y-132847414D01*
X138790599Y-132589434D01*
X138875513Y-132309511D01*
X138904185Y-132018400D01*
X138875513Y-131727289D01*
X138790599Y-131447366D01*
X138652706Y-131189386D01*
X138467134Y-130963266D01*
X138241014Y-130777694D01*
X138215278Y-130763938D01*
X138421429Y-130607449D01*
X138614496Y-130389593D01*
X138761352Y-130138258D01*
X138853476Y-129875290D01*
X138732155Y-129645400D01*
X137414000Y-129645400D01*
X137414000Y-129665400D01*
X137160000Y-129665400D01*
X137160000Y-129645400D01*
X135841845Y-129645400D01*
X135720524Y-129875290D01*
X135812648Y-130138258D01*
X135959504Y-130389593D01*
X136152571Y-130607449D01*
X136358722Y-130763938D01*
X136332986Y-130777694D01*
X136106866Y-130963266D01*
X135921294Y-131189386D01*
X135783401Y-131447366D01*
X135698487Y-131727289D01*
X135669815Y-132018400D01*
X118050000Y-132018400D01*
X118050000Y-129161510D01*
X135720524Y-129161510D01*
X135841845Y-129391400D01*
X137160000Y-129391400D01*
X137160000Y-128192235D01*
X137414000Y-128192235D01*
X137414000Y-129391400D01*
X138732155Y-129391400D01*
X138853476Y-129161510D01*
X138761352Y-128898542D01*
X138614496Y-128647207D01*
X138421429Y-128429351D01*
X138189570Y-128253347D01*
X137927830Y-128125958D01*
X137646267Y-128052080D01*
X137414000Y-128192235D01*
X137160000Y-128192235D01*
X136927733Y-128052080D01*
X136646170Y-128125958D01*
X136384430Y-128253347D01*
X136152571Y-128429351D01*
X135959504Y-128647207D01*
X135812648Y-128898542D01*
X135720524Y-129161510D01*
X118050000Y-129161510D01*
X118050000Y-122772800D01*
X125802315Y-122772800D01*
X125830987Y-123063911D01*
X125915901Y-123343834D01*
X126053794Y-123601814D01*
X126239366Y-123827934D01*
X126302837Y-123880023D01*
X126201114Y-123934395D01*
X126066538Y-124044838D01*
X125956095Y-124179414D01*
X125874028Y-124332950D01*
X125823492Y-124499546D01*
X125806428Y-124672800D01*
X125806428Y-125872800D01*
X125823492Y-126046054D01*
X125874028Y-126212650D01*
X125956095Y-126366186D01*
X126066538Y-126500762D01*
X126201114Y-126611205D01*
X126354650Y-126693272D01*
X126521246Y-126743808D01*
X126694500Y-126760872D01*
X128194500Y-126760872D01*
X128367754Y-126743808D01*
X128534350Y-126693272D01*
X128687886Y-126611205D01*
X128822462Y-126500762D01*
X128932905Y-126366186D01*
X129014972Y-126212650D01*
X129065508Y-126046054D01*
X129082572Y-125872800D01*
X129082572Y-124672800D01*
X129065508Y-124499546D01*
X129014972Y-124332950D01*
X128932905Y-124179414D01*
X128822462Y-124044838D01*
X128687886Y-123934395D01*
X128586163Y-123880023D01*
X128649634Y-123827934D01*
X128835206Y-123601814D01*
X128973099Y-123343834D01*
X129058013Y-123063911D01*
X129086685Y-122772800D01*
X129058013Y-122481689D01*
X128973099Y-122201766D01*
X128835206Y-121943786D01*
X128649634Y-121717666D01*
X128423514Y-121532094D01*
X128165534Y-121394201D01*
X127885611Y-121309287D01*
X127667450Y-121287800D01*
X127221550Y-121287800D01*
X127003389Y-121309287D01*
X126723466Y-121394201D01*
X126465486Y-121532094D01*
X126239366Y-121717666D01*
X126053794Y-121943786D01*
X125915901Y-122201766D01*
X125830987Y-122481689D01*
X125802315Y-122772800D01*
X118050000Y-122772800D01*
X118050000Y-116502350D01*
X120618500Y-116502350D01*
X120618500Y-116898249D01*
X120639987Y-117116410D01*
X120724901Y-117396333D01*
X120862794Y-117654313D01*
X121048366Y-117880434D01*
X121274486Y-118066006D01*
X121532466Y-118203899D01*
X121812389Y-118288813D01*
X122103500Y-118317485D01*
X122394610Y-118288813D01*
X122674533Y-118203899D01*
X122932513Y-118066006D01*
X123158634Y-117880434D01*
X123344206Y-117654314D01*
X123357962Y-117628578D01*
X123514451Y-117834729D01*
X123732307Y-118027796D01*
X123983642Y-118174652D01*
X124246610Y-118266776D01*
X124476500Y-118145455D01*
X124476500Y-116827300D01*
X124456500Y-116827300D01*
X124456500Y-116573300D01*
X124476500Y-116573300D01*
X124476500Y-115255145D01*
X124730500Y-115255145D01*
X124730500Y-116573300D01*
X124750500Y-116573300D01*
X124750500Y-116827300D01*
X124730500Y-116827300D01*
X124730500Y-118145455D01*
X124960390Y-118266776D01*
X125223358Y-118174652D01*
X125474693Y-118027796D01*
X125692549Y-117834729D01*
X125849038Y-117628578D01*
X125862794Y-117654313D01*
X126048366Y-117880434D01*
X126274486Y-118066006D01*
X126532466Y-118203899D01*
X126812389Y-118288813D01*
X127103500Y-118317485D01*
X127394610Y-118288813D01*
X127674533Y-118203899D01*
X127932513Y-118066006D01*
X128158634Y-117880434D01*
X128210723Y-117816963D01*
X128265095Y-117918686D01*
X128375538Y-118053262D01*
X128510114Y-118163705D01*
X128663650Y-118245772D01*
X128830246Y-118296308D01*
X129003500Y-118313372D01*
X130203500Y-118313372D01*
X130376754Y-118296308D01*
X130543350Y-118245772D01*
X130696886Y-118163705D01*
X130831462Y-118053262D01*
X130941905Y-117918686D01*
X131023972Y-117765150D01*
X131074508Y-117598554D01*
X131091572Y-117425300D01*
X131091572Y-115975300D01*
X131074508Y-115802046D01*
X131023972Y-115635450D01*
X130941905Y-115481914D01*
X130831462Y-115347338D01*
X130696886Y-115236895D01*
X130543350Y-115154828D01*
X130376754Y-115104292D01*
X130203500Y-115087228D01*
X129003500Y-115087228D01*
X128830246Y-115104292D01*
X128663650Y-115154828D01*
X128510114Y-115236895D01*
X128375538Y-115347338D01*
X128265095Y-115481914D01*
X128210723Y-115583637D01*
X128158634Y-115520166D01*
X127932514Y-115334594D01*
X127674534Y-115196701D01*
X127394611Y-115111787D01*
X127103500Y-115083115D01*
X126812390Y-115111787D01*
X126532467Y-115196701D01*
X126274487Y-115334594D01*
X126048366Y-115520166D01*
X125862794Y-115746286D01*
X125849038Y-115772022D01*
X125692549Y-115565871D01*
X125474693Y-115372804D01*
X125223358Y-115225948D01*
X124960390Y-115133824D01*
X124730500Y-115255145D01*
X124476500Y-115255145D01*
X124246610Y-115133824D01*
X123983642Y-115225948D01*
X123732307Y-115372804D01*
X123514451Y-115565871D01*
X123357962Y-115772022D01*
X123344206Y-115746286D01*
X123158634Y-115520166D01*
X122932514Y-115334594D01*
X122674534Y-115196701D01*
X122394611Y-115111787D01*
X122103500Y-115083115D01*
X121812390Y-115111787D01*
X121532467Y-115196701D01*
X121274487Y-115334594D01*
X121048366Y-115520166D01*
X120862794Y-115746286D01*
X120724901Y-116004266D01*
X120639987Y-116284189D01*
X120618500Y-116502350D01*
X118050000Y-116502350D01*
X118050000Y-114364400D01*
X133195428Y-114364400D01*
X133195428Y-116064400D01*
X133207688Y-116188882D01*
X133243998Y-116308580D01*
X133302963Y-116418894D01*
X133382315Y-116515585D01*
X133479006Y-116594937D01*
X133589320Y-116653902D01*
X133709018Y-116690212D01*
X133833500Y-116702472D01*
X135533500Y-116702472D01*
X135657982Y-116690212D01*
X135777680Y-116653902D01*
X135887994Y-116594937D01*
X135984685Y-116515585D01*
X136064037Y-116418894D01*
X136123002Y-116308580D01*
X136145013Y-116236020D01*
X136276868Y-116367875D01*
X136520089Y-116530390D01*
X136790342Y-116642332D01*
X137077240Y-116699400D01*
X137369760Y-116699400D01*
X137656658Y-116642332D01*
X137926911Y-116530390D01*
X138170132Y-116367875D01*
X138376975Y-116161032D01*
X138498695Y-115978866D01*
X138568322Y-116095755D01*
X138763231Y-116311988D01*
X138996580Y-116486041D01*
X139259401Y-116611225D01*
X139406610Y-116655876D01*
X139636500Y-116534555D01*
X139636500Y-115341400D01*
X139890500Y-115341400D01*
X139890500Y-116534555D01*
X140120390Y-116655876D01*
X140267599Y-116611225D01*
X140530420Y-116486041D01*
X140763769Y-116311988D01*
X140958678Y-116095755D01*
X141107657Y-115845652D01*
X141204981Y-115571291D01*
X141084314Y-115341400D01*
X139890500Y-115341400D01*
X139636500Y-115341400D01*
X139616500Y-115341400D01*
X139616500Y-115087400D01*
X139636500Y-115087400D01*
X139636500Y-113894245D01*
X139890500Y-113894245D01*
X139890500Y-115087400D01*
X141084314Y-115087400D01*
X141204981Y-114857509D01*
X141107657Y-114583148D01*
X140958678Y-114333045D01*
X140763769Y-114116812D01*
X140530420Y-113942759D01*
X140267599Y-113817575D01*
X140120390Y-113772924D01*
X139890500Y-113894245D01*
X139636500Y-113894245D01*
X139406610Y-113772924D01*
X139259401Y-113817575D01*
X138996580Y-113942759D01*
X138763231Y-114116812D01*
X138568322Y-114333045D01*
X138498695Y-114449934D01*
X138376975Y-114267768D01*
X138170132Y-114060925D01*
X137926911Y-113898410D01*
X137656658Y-113786468D01*
X137369760Y-113729400D01*
X137077240Y-113729400D01*
X136790342Y-113786468D01*
X136520089Y-113898410D01*
X136276868Y-114060925D01*
X136145013Y-114192780D01*
X136123002Y-114120220D01*
X136064037Y-114009906D01*
X135984685Y-113913215D01*
X135887994Y-113833863D01*
X135777680Y-113774898D01*
X135657982Y-113738588D01*
X135533500Y-113726328D01*
X133833500Y-113726328D01*
X133709018Y-113738588D01*
X133589320Y-113774898D01*
X133479006Y-113833863D01*
X133382315Y-113913215D01*
X133302963Y-114009906D01*
X133243998Y-114120220D01*
X133207688Y-114239918D01*
X133195428Y-114364400D01*
X118050000Y-114364400D01*
X118050000Y-96363800D01*
X118664515Y-96363800D01*
X118693187Y-96654911D01*
X118778101Y-96934834D01*
X118915994Y-97192814D01*
X119101566Y-97418934D01*
X119327686Y-97604506D01*
X119345074Y-97613800D01*
X119327686Y-97623094D01*
X119101566Y-97808666D01*
X118915994Y-98034786D01*
X118778101Y-98292766D01*
X118693187Y-98572689D01*
X118664515Y-98863800D01*
X118693187Y-99154911D01*
X118778101Y-99434834D01*
X118915994Y-99692814D01*
X119101566Y-99918934D01*
X119327686Y-100104506D01*
X119345074Y-100113800D01*
X119327686Y-100123094D01*
X119101566Y-100308666D01*
X118915994Y-100534786D01*
X118778101Y-100792766D01*
X118693187Y-101072689D01*
X118664515Y-101363800D01*
X118693187Y-101654911D01*
X118778101Y-101934834D01*
X118915994Y-102192814D01*
X119101566Y-102418934D01*
X119327686Y-102604506D01*
X119345074Y-102613800D01*
X119327686Y-102623094D01*
X119101566Y-102808666D01*
X118915994Y-103034786D01*
X118778101Y-103292766D01*
X118693187Y-103572689D01*
X118664515Y-103863800D01*
X118693187Y-104154911D01*
X118778101Y-104434834D01*
X118915994Y-104692814D01*
X119101566Y-104918934D01*
X119327686Y-105104506D01*
X119585666Y-105242399D01*
X119865589Y-105327313D01*
X120083750Y-105348800D01*
X120479650Y-105348800D01*
X120697811Y-105327313D01*
X120977734Y-105242399D01*
X121235714Y-105104506D01*
X121461834Y-104918934D01*
X121647406Y-104692814D01*
X121785299Y-104434834D01*
X121870213Y-104154911D01*
X121898885Y-103863800D01*
X121870213Y-103572689D01*
X121785299Y-103292766D01*
X121647406Y-103034786D01*
X121461834Y-102808666D01*
X121235714Y-102623094D01*
X121218326Y-102613800D01*
X121235714Y-102604506D01*
X121461834Y-102418934D01*
X121647406Y-102192814D01*
X121785299Y-101934834D01*
X121870213Y-101654911D01*
X121898885Y-101363800D01*
X121870213Y-101072689D01*
X121785299Y-100792766D01*
X121647406Y-100534786D01*
X121461834Y-100308666D01*
X121235714Y-100123094D01*
X121218326Y-100113800D01*
X121235714Y-100104506D01*
X121461834Y-99918934D01*
X121647406Y-99692814D01*
X121785299Y-99434834D01*
X121870213Y-99154911D01*
X121898885Y-98863800D01*
X121870213Y-98572689D01*
X121785299Y-98292766D01*
X121647406Y-98034786D01*
X121461834Y-97808666D01*
X121235714Y-97623094D01*
X121218326Y-97613800D01*
X121235714Y-97604506D01*
X121461834Y-97418934D01*
X121647406Y-97192814D01*
X121785299Y-96934834D01*
X121870213Y-96654911D01*
X121898885Y-96363800D01*
X121870213Y-96072689D01*
X121785299Y-95792766D01*
X121647406Y-95534786D01*
X121461834Y-95308666D01*
X121235714Y-95123094D01*
X121209978Y-95109338D01*
X121416129Y-94952849D01*
X121609196Y-94734993D01*
X121756052Y-94483658D01*
X121848176Y-94220690D01*
X121740317Y-94016309D01*
X125574360Y-94016309D01*
X125574360Y-94289131D01*
X125627585Y-94556709D01*
X125731989Y-94808763D01*
X125883561Y-95035606D01*
X126076474Y-95228519D01*
X126303317Y-95380091D01*
X126555371Y-95484495D01*
X126822949Y-95537720D01*
X127095771Y-95537720D01*
X127363349Y-95484495D01*
X127615403Y-95380091D01*
X127842246Y-95228519D01*
X128035159Y-95035606D01*
X128186731Y-94808763D01*
X128291135Y-94556709D01*
X128344360Y-94289131D01*
X128344360Y-94016309D01*
X130454360Y-94016309D01*
X130454360Y-94289131D01*
X130507585Y-94556709D01*
X130611989Y-94808763D01*
X130763561Y-95035606D01*
X130956474Y-95228519D01*
X131183317Y-95380091D01*
X131435371Y-95484495D01*
X131702949Y-95537720D01*
X131975771Y-95537720D01*
X132243349Y-95484495D01*
X132495403Y-95380091D01*
X132722246Y-95228519D01*
X132915159Y-95035606D01*
X133066731Y-94808763D01*
X133171135Y-94556709D01*
X133224360Y-94289131D01*
X133224360Y-94016309D01*
X133171135Y-93748731D01*
X133066731Y-93496677D01*
X132915159Y-93269834D01*
X132722246Y-93076921D01*
X132495403Y-92925349D01*
X132243349Y-92820945D01*
X131975771Y-92767720D01*
X131702949Y-92767720D01*
X131435371Y-92820945D01*
X131183317Y-92925349D01*
X130956474Y-93076921D01*
X130763561Y-93269834D01*
X130611989Y-93496677D01*
X130507585Y-93748731D01*
X130454360Y-94016309D01*
X128344360Y-94016309D01*
X128291135Y-93748731D01*
X128186731Y-93496677D01*
X128035159Y-93269834D01*
X127842246Y-93076921D01*
X127615403Y-92925349D01*
X127363349Y-92820945D01*
X127095771Y-92767720D01*
X126822949Y-92767720D01*
X126555371Y-92820945D01*
X126303317Y-92925349D01*
X126076474Y-93076921D01*
X125883561Y-93269834D01*
X125731989Y-93496677D01*
X125627585Y-93748731D01*
X125574360Y-94016309D01*
X121740317Y-94016309D01*
X121726855Y-93990800D01*
X120408700Y-93990800D01*
X120408700Y-94010800D01*
X120154700Y-94010800D01*
X120154700Y-93990800D01*
X118836545Y-93990800D01*
X118715224Y-94220690D01*
X118807348Y-94483658D01*
X118954204Y-94734993D01*
X119147271Y-94952849D01*
X119353422Y-95109338D01*
X119327686Y-95123094D01*
X119101566Y-95308666D01*
X118915994Y-95534786D01*
X118778101Y-95792766D01*
X118693187Y-96072689D01*
X118664515Y-96363800D01*
X118050000Y-96363800D01*
X118050000Y-90763800D01*
X118668628Y-90763800D01*
X118668628Y-91963800D01*
X118685692Y-92137054D01*
X118736228Y-92303650D01*
X118818295Y-92457186D01*
X118928738Y-92591762D01*
X119063314Y-92702205D01*
X119168661Y-92758514D01*
X119147271Y-92774751D01*
X118954204Y-92992607D01*
X118807348Y-93243942D01*
X118715224Y-93506910D01*
X118836545Y-93736800D01*
X120154700Y-93736800D01*
X120154700Y-93716800D01*
X120408700Y-93716800D01*
X120408700Y-93736800D01*
X121726855Y-93736800D01*
X121848176Y-93506910D01*
X121756052Y-93243942D01*
X121609196Y-92992607D01*
X121416129Y-92774751D01*
X121394739Y-92758514D01*
X121500086Y-92702205D01*
X121634662Y-92591762D01*
X121745105Y-92457186D01*
X121827172Y-92303650D01*
X121877708Y-92137054D01*
X121894772Y-91963800D01*
X121894772Y-90763800D01*
X121877708Y-90590546D01*
X121827172Y-90423950D01*
X121745105Y-90270414D01*
X121634662Y-90135838D01*
X121500086Y-90025395D01*
X121346550Y-89943328D01*
X121179954Y-89892792D01*
X121006700Y-89875728D01*
X119556700Y-89875728D01*
X119383446Y-89892792D01*
X119216850Y-89943328D01*
X119063314Y-90025395D01*
X118928738Y-90135838D01*
X118818295Y-90270414D01*
X118736228Y-90423950D01*
X118685692Y-90590546D01*
X118668628Y-90763800D01*
X118050000Y-90763800D01*
X118050000Y-88603681D01*
X132478724Y-88603681D01*
X132838912Y-89093348D01*
X133502882Y-89453649D01*
X134224385Y-89677494D01*
X134975695Y-89756280D01*
X135727938Y-89686978D01*
X136452208Y-89472252D01*
X137120670Y-89120355D01*
X137161088Y-89093348D01*
X137521276Y-88603681D01*
X135000000Y-86082405D01*
X132478724Y-88603681D01*
X118050000Y-88603681D01*
X118050000Y-85728667D01*
X119435760Y-85728667D01*
X119509638Y-86010230D01*
X119637027Y-86271970D01*
X119813031Y-86503829D01*
X120030887Y-86696896D01*
X120282222Y-86843752D01*
X120545190Y-86935876D01*
X120775080Y-86814555D01*
X120775080Y-85496400D01*
X119575915Y-85496400D01*
X119435760Y-85728667D01*
X118050000Y-85728667D01*
X118050000Y-85010133D01*
X119435760Y-85010133D01*
X119575915Y-85242400D01*
X120775080Y-85242400D01*
X120775080Y-83924245D01*
X121029080Y-83924245D01*
X121029080Y-85242400D01*
X121049080Y-85242400D01*
X121049080Y-85496400D01*
X121029080Y-85496400D01*
X121029080Y-86814555D01*
X121258970Y-86935876D01*
X121521938Y-86843752D01*
X121773273Y-86696896D01*
X121991129Y-86503829D01*
X122147618Y-86297678D01*
X122161374Y-86323413D01*
X122346946Y-86549534D01*
X122573066Y-86735106D01*
X122831046Y-86872999D01*
X123110969Y-86957913D01*
X123402080Y-86986585D01*
X123693190Y-86957913D01*
X123973113Y-86872999D01*
X124231093Y-86735106D01*
X124457214Y-86549534D01*
X124642786Y-86323414D01*
X124652080Y-86306026D01*
X124661374Y-86323413D01*
X124846946Y-86549534D01*
X125073066Y-86735106D01*
X125331046Y-86872999D01*
X125610969Y-86957913D01*
X125902080Y-86986585D01*
X126193190Y-86957913D01*
X126473113Y-86872999D01*
X126731093Y-86735106D01*
X126957214Y-86549534D01*
X127009303Y-86486063D01*
X127063675Y-86587786D01*
X127174118Y-86722362D01*
X127308694Y-86832805D01*
X127462230Y-86914872D01*
X127628826Y-86965408D01*
X127802080Y-86982472D01*
X129002080Y-86982472D01*
X129175334Y-86965408D01*
X129341930Y-86914872D01*
X129495466Y-86832805D01*
X129630042Y-86722362D01*
X129740485Y-86587786D01*
X129822552Y-86434250D01*
X129873088Y-86267654D01*
X129890152Y-86094400D01*
X129890152Y-85878495D01*
X131146520Y-85878495D01*
X131215822Y-86630738D01*
X131430548Y-87355008D01*
X131782445Y-88023470D01*
X131809452Y-88063888D01*
X132299119Y-88424076D01*
X134820395Y-85902800D01*
X135179605Y-85902800D01*
X137700881Y-88424076D01*
X138190548Y-88063888D01*
X138550849Y-87399918D01*
X138774694Y-86678415D01*
X138853480Y-85927105D01*
X138784178Y-85174862D01*
X138569452Y-84450592D01*
X138217555Y-83782130D01*
X138190548Y-83741712D01*
X137700881Y-83381524D01*
X135179605Y-85902800D01*
X134820395Y-85902800D01*
X132299119Y-83381524D01*
X131809452Y-83741712D01*
X131449151Y-84405682D01*
X131225306Y-85127185D01*
X131146520Y-85878495D01*
X129890152Y-85878495D01*
X129890152Y-84644400D01*
X129873088Y-84471146D01*
X129822552Y-84304550D01*
X129740485Y-84151014D01*
X129630042Y-84016438D01*
X129495466Y-83905995D01*
X129341930Y-83823928D01*
X129175334Y-83773392D01*
X129002080Y-83756328D01*
X127802080Y-83756328D01*
X127628826Y-83773392D01*
X127462230Y-83823928D01*
X127308694Y-83905995D01*
X127174118Y-84016438D01*
X127063675Y-84151014D01*
X127009303Y-84252737D01*
X126957214Y-84189266D01*
X126731094Y-84003694D01*
X126473114Y-83865801D01*
X126193191Y-83780887D01*
X125902080Y-83752215D01*
X125610970Y-83780887D01*
X125331047Y-83865801D01*
X125073067Y-84003694D01*
X124846946Y-84189266D01*
X124661374Y-84415386D01*
X124652080Y-84432774D01*
X124642786Y-84415386D01*
X124457214Y-84189266D01*
X124231094Y-84003694D01*
X123973114Y-83865801D01*
X123693191Y-83780887D01*
X123402080Y-83752215D01*
X123110970Y-83780887D01*
X122831047Y-83865801D01*
X122573067Y-84003694D01*
X122346946Y-84189266D01*
X122161374Y-84415386D01*
X122147618Y-84441122D01*
X121991129Y-84234971D01*
X121773273Y-84041904D01*
X121521938Y-83895048D01*
X121258970Y-83802924D01*
X121029080Y-83924245D01*
X120775080Y-83924245D01*
X120545190Y-83802924D01*
X120282222Y-83895048D01*
X120030887Y-84041904D01*
X119813031Y-84234971D01*
X119637027Y-84466830D01*
X119509638Y-84728570D01*
X119435760Y-85010133D01*
X118050000Y-85010133D01*
X118050000Y-82929800D01*
X132678889Y-82929800D01*
X132478724Y-83201919D01*
G37*
X132478724Y-83201919D02*
X135000000Y-85723195D01*
X137521276Y-83201919D01*
X137321111Y-82929800D01*
X141276000Y-82929800D01*
X141276000Y-90973504D01*
X141239605Y-90905414D01*
X141129162Y-90770838D01*
X140994586Y-90660395D01*
X140841050Y-90578328D01*
X140674454Y-90527792D01*
X140501200Y-90510728D01*
X139051200Y-90510728D01*
X138877946Y-90527792D01*
X138711350Y-90578328D01*
X138557814Y-90660395D01*
X138423238Y-90770838D01*
X138312795Y-90905414D01*
X138230728Y-91058950D01*
X138180192Y-91225546D01*
X138163128Y-91398800D01*
X138163128Y-92598800D01*
X138180192Y-92772054D01*
X138230728Y-92938650D01*
X138312795Y-93092186D01*
X138423238Y-93226762D01*
X138557814Y-93337205D01*
X138663161Y-93393514D01*
X138641771Y-93409751D01*
X138448704Y-93627607D01*
X138301848Y-93878942D01*
X138209724Y-94141910D01*
X138331045Y-94371800D01*
X139649200Y-94371800D01*
X139649200Y-94351800D01*
X139903200Y-94351800D01*
X139903200Y-94371800D01*
X139923200Y-94371800D01*
X139923200Y-94625800D01*
X139903200Y-94625800D01*
X139903200Y-94645800D01*
X139649200Y-94645800D01*
X139649200Y-94625800D01*
X138331045Y-94625800D01*
X138209724Y-94855690D01*
X138301848Y-95118658D01*
X138448704Y-95369993D01*
X138641771Y-95587849D01*
X138847922Y-95744338D01*
X138822186Y-95758094D01*
X138596066Y-95943666D01*
X138410494Y-96169786D01*
X138272601Y-96427766D01*
X138187687Y-96707689D01*
X138159015Y-96998800D01*
X138187687Y-97289911D01*
X138272601Y-97569834D01*
X138410494Y-97827814D01*
X138596066Y-98053934D01*
X138822186Y-98239506D01*
X138839574Y-98248800D01*
X138822186Y-98258094D01*
X138596066Y-98443666D01*
X138410494Y-98669786D01*
X138272601Y-98927766D01*
X138187687Y-99207689D01*
X138159015Y-99498800D01*
X138187687Y-99789911D01*
X138272601Y-100069834D01*
X138410494Y-100327814D01*
X138596066Y-100553934D01*
X138822186Y-100739506D01*
X138839574Y-100748800D01*
X138822186Y-100758094D01*
X138596066Y-100943666D01*
X138410494Y-101169786D01*
X138272601Y-101427766D01*
X138187687Y-101707689D01*
X138159015Y-101998800D01*
X138187687Y-102289911D01*
X138272601Y-102569834D01*
X138410494Y-102827814D01*
X138596066Y-103053934D01*
X138822186Y-103239506D01*
X138847922Y-103253262D01*
X138641771Y-103409751D01*
X138448704Y-103627607D01*
X138301848Y-103878942D01*
X138209724Y-104141910D01*
X138331045Y-104371800D01*
X139649200Y-104371800D01*
X139649200Y-104351800D01*
X139903200Y-104351800D01*
X139903200Y-104371800D01*
X139923200Y-104371800D01*
X139923200Y-104625800D01*
X139903200Y-104625800D01*
X139903200Y-104645800D01*
X139649200Y-104645800D01*
X139649200Y-104625800D01*
X138331045Y-104625800D01*
X138209724Y-104855690D01*
X138301848Y-105118658D01*
X138448704Y-105369993D01*
X138641771Y-105587849D01*
X138847922Y-105744338D01*
X138822186Y-105758094D01*
X138596066Y-105943666D01*
X138410494Y-106169786D01*
X138272601Y-106427766D01*
X138187687Y-106707689D01*
X138159015Y-106998800D01*
X138187687Y-107289911D01*
X138272601Y-107569834D01*
X138410494Y-107827814D01*
X138596066Y-108053934D01*
X138822186Y-108239506D01*
X138839574Y-108248800D01*
X138822186Y-108258094D01*
X138596066Y-108443666D01*
X138410494Y-108669786D01*
X138272601Y-108927766D01*
X138187687Y-109207689D01*
X138159015Y-109498800D01*
X138187687Y-109789911D01*
X138272601Y-110069834D01*
X138410494Y-110327814D01*
X138596066Y-110553934D01*
X138822186Y-110739506D01*
X139080166Y-110877399D01*
X139360089Y-110962313D01*
X139578250Y-110983800D01*
X139974150Y-110983800D01*
X140192311Y-110962313D01*
X140472234Y-110877399D01*
X140730214Y-110739506D01*
X140956334Y-110553934D01*
X141141906Y-110327814D01*
X141276000Y-110076941D01*
X141276001Y-142853100D01*
X141129864Y-142757737D01*
X140896810Y-142673836D01*
X140718000Y-142799637D01*
X140718000Y-144190800D01*
X140738000Y-144190800D01*
X140738000Y-144444800D01*
X140718000Y-144444800D01*
X140718000Y-145835963D01*
X140896810Y-145961764D01*
X141129864Y-145877863D01*
X141276001Y-145782499D01*
X141276001Y-147033101D01*
X141129864Y-146937737D01*
X140896810Y-146853836D01*
X140718000Y-146979637D01*
X140718000Y-148370800D01*
X140738000Y-148370800D01*
X140738000Y-148624800D01*
X140718000Y-148624800D01*
X140718000Y-148644800D01*
X140464000Y-148644800D01*
X140464000Y-148624800D01*
X139431000Y-148624800D01*
X139431000Y-149149800D01*
X139478066Y-149373665D01*
X139567901Y-149584046D01*
X139697053Y-149772859D01*
X139860559Y-149932847D01*
X140052136Y-150057863D01*
X140285190Y-150141764D01*
X140290001Y-150138379D01*
X140290001Y-150285870D01*
X132210000Y-150249922D01*
X132210000Y-150108831D01*
X132256810Y-150141764D01*
X132489864Y-150057863D01*
X132681441Y-149932847D01*
X132844947Y-149772859D01*
X132974099Y-149584046D01*
X133063934Y-149373665D01*
X133111000Y-149149800D01*
X133111000Y-148624800D01*
X132078000Y-148624800D01*
X132078000Y-148644800D01*
X131824000Y-148644800D01*
X131824000Y-148624800D01*
X131804000Y-148624800D01*
X131804000Y-148370800D01*
X131824000Y-148370800D01*
X131824000Y-146979637D01*
X132078000Y-146979637D01*
X132078000Y-148370800D01*
X133111000Y-148370800D01*
X133111000Y-147845800D01*
X139431000Y-147845800D01*
X139431000Y-148370800D01*
X140464000Y-148370800D01*
X140464000Y-146979637D01*
X140285190Y-146853836D01*
X140052136Y-146937737D01*
X139860559Y-147062753D01*
X139697053Y-147222741D01*
X139567901Y-147411554D01*
X139478066Y-147621935D01*
X139431000Y-147845800D01*
X133111000Y-147845800D01*
X133063934Y-147621935D01*
X132974099Y-147411554D01*
X132844947Y-147222741D01*
X132681441Y-147062753D01*
X132489864Y-146937737D01*
X132256810Y-146853836D01*
X132078000Y-146979637D01*
X131824000Y-146979637D01*
X131645190Y-146853836D01*
X131412136Y-146937737D01*
X131410000Y-146939131D01*
X131410000Y-146354877D01*
X131413435Y-146320000D01*
X131399727Y-146180816D01*
X131359128Y-146046980D01*
X131293200Y-145923637D01*
X131204475Y-145815525D01*
X131096363Y-145726800D01*
X130973020Y-145660872D01*
X130839184Y-145620273D01*
X130734877Y-145610000D01*
X130700000Y-145606565D01*
X130665123Y-145610000D01*
X127165757Y-145610000D01*
X127521276Y-145126681D01*
X125000000Y-142605405D01*
X122478724Y-145126681D01*
X122834243Y-145610000D01*
X118050000Y-145610000D01*
X118050000Y-142401495D01*
X121146520Y-142401495D01*
X121215822Y-143153738D01*
X121430548Y-143878008D01*
X121782445Y-144546470D01*
X121809452Y-144586888D01*
X122299119Y-144947076D01*
X124820395Y-142425800D01*
X125179605Y-142425800D01*
X127700881Y-144947076D01*
X128190548Y-144586888D01*
X128267651Y-144444800D01*
X130791000Y-144444800D01*
X130791000Y-144969800D01*
X130838066Y-145193665D01*
X130927901Y-145404046D01*
X131057053Y-145592859D01*
X131220559Y-145752847D01*
X131412136Y-145877863D01*
X131645190Y-145961764D01*
X131824000Y-145835963D01*
X131824000Y-144444800D01*
X130791000Y-144444800D01*
X128267651Y-144444800D01*
X128550849Y-143922918D01*
X128630619Y-143665800D01*
X130791000Y-143665800D01*
X130791000Y-144190800D01*
X131824000Y-144190800D01*
X131824000Y-142799637D01*
X132078000Y-142799637D01*
X132078000Y-144190800D01*
X132098000Y-144190800D01*
X132098000Y-144444800D01*
X132078000Y-144444800D01*
X132078000Y-145835963D01*
X132256810Y-145961764D01*
X132489864Y-145877863D01*
X132681441Y-145752847D01*
X132795507Y-145641235D01*
X132914428Y-145720696D01*
X133093686Y-145794947D01*
X133283986Y-145832800D01*
X133478014Y-145832800D01*
X133668314Y-145794947D01*
X133847572Y-145720696D01*
X134008901Y-145612899D01*
X134146099Y-145475701D01*
X134253896Y-145314372D01*
X134328147Y-145135114D01*
X134366000Y-144944814D01*
X134366000Y-144750786D01*
X138176000Y-144750786D01*
X138176000Y-144944814D01*
X138213853Y-145135114D01*
X138288104Y-145314372D01*
X138395901Y-145475701D01*
X138533099Y-145612899D01*
X138694428Y-145720696D01*
X138873686Y-145794947D01*
X139063986Y-145832800D01*
X139258014Y-145832800D01*
X139448314Y-145794947D01*
X139627572Y-145720696D01*
X139746493Y-145641235D01*
X139860559Y-145752847D01*
X140052136Y-145877863D01*
X140285190Y-145961764D01*
X140464000Y-145835963D01*
X140464000Y-144444800D01*
X140444000Y-144444800D01*
X140444000Y-144190800D01*
X140464000Y-144190800D01*
X140464000Y-142799637D01*
X140285190Y-142673836D01*
X140052136Y-142757737D01*
X139860559Y-142882753D01*
X139697053Y-143042741D01*
X139567901Y-143231554D01*
X139478066Y-143441935D01*
X139431000Y-143665800D01*
X139431000Y-143897209D01*
X139258014Y-143862800D01*
X139063986Y-143862800D01*
X138873686Y-143900653D01*
X138694428Y-143974904D01*
X138533099Y-144082701D01*
X138395901Y-144219899D01*
X138288104Y-144381228D01*
X138213853Y-144560486D01*
X138176000Y-144750786D01*
X134366000Y-144750786D01*
X134328147Y-144560486D01*
X134253896Y-144381228D01*
X134146099Y-144219899D01*
X134008901Y-144082701D01*
X133847572Y-143974904D01*
X133668314Y-143900653D01*
X133478014Y-143862800D01*
X133283986Y-143862800D01*
X133111000Y-143897209D01*
X133111000Y-143665800D01*
X133063934Y-143441935D01*
X132974099Y-143231554D01*
X132844947Y-143042741D01*
X132681441Y-142882753D01*
X132489864Y-142757737D01*
X132256810Y-142673836D01*
X132078000Y-142799637D01*
X131824000Y-142799637D01*
X131645190Y-142673836D01*
X131412136Y-142757737D01*
X131220559Y-142882753D01*
X131057053Y-143042741D01*
X130927901Y-143231554D01*
X130838066Y-143441935D01*
X130791000Y-143665800D01*
X128630619Y-143665800D01*
X128774694Y-143201415D01*
X128853480Y-142450105D01*
X128784178Y-141697862D01*
X128569452Y-140973592D01*
X128217555Y-140305130D01*
X128190548Y-140264712D01*
X127700881Y-139904524D01*
X125179605Y-142425800D01*
X124820395Y-142425800D01*
X122299119Y-139904524D01*
X121809452Y-140264712D01*
X121449151Y-140928682D01*
X121225306Y-141650185D01*
X121146520Y-142401495D01*
X118050000Y-142401495D01*
X118050000Y-139724919D01*
X122478724Y-139724919D01*
X125000000Y-142246195D01*
X127521276Y-139724919D01*
X127161088Y-139235252D01*
X126497118Y-138874951D01*
X125775615Y-138651106D01*
X125024305Y-138572320D01*
X124272062Y-138641622D01*
X123547792Y-138856348D01*
X122879330Y-139208245D01*
X122838912Y-139235252D01*
X122478724Y-139724919D01*
X118050000Y-139724919D01*
X118050000Y-132018400D01*
X135669815Y-132018400D01*
X135698487Y-132309511D01*
X135783401Y-132589434D01*
X135921294Y-132847414D01*
X136106866Y-133073534D01*
X136170337Y-133125623D01*
X136068614Y-133179995D01*
X135934038Y-133290438D01*
X135823595Y-133425014D01*
X135741528Y-133578550D01*
X135690992Y-133745146D01*
X135673928Y-133918400D01*
X135673928Y-135118400D01*
X135690992Y-135291654D01*
X135741528Y-135458250D01*
X135823595Y-135611786D01*
X135934038Y-135746362D01*
X136068614Y-135856805D01*
X136222150Y-135938872D01*
X136388746Y-135989408D01*
X136562000Y-136006472D01*
X138012000Y-136006472D01*
X138185254Y-135989408D01*
X138351850Y-135938872D01*
X138505386Y-135856805D01*
X138639962Y-135746362D01*
X138750405Y-135611786D01*
X138832472Y-135458250D01*
X138883008Y-135291654D01*
X138900072Y-135118400D01*
X138900072Y-133918400D01*
X138883008Y-133745146D01*
X138832472Y-133578550D01*
X138750405Y-133425014D01*
X138639962Y-133290438D01*
X138505386Y-133179995D01*
X138403663Y-133125623D01*
X138467134Y-133073534D01*
X138652706Y-132847414D01*
X138790599Y-132589434D01*
X138875513Y-132309511D01*
X138904185Y-132018400D01*
X138875513Y-131727289D01*
X138790599Y-131447366D01*
X138652706Y-131189386D01*
X138467134Y-130963266D01*
X138241014Y-130777694D01*
X138215278Y-130763938D01*
X138421429Y-130607449D01*
X138614496Y-130389593D01*
X138761352Y-130138258D01*
X138853476Y-129875290D01*
X138732155Y-129645400D01*
X137414000Y-129645400D01*
X137414000Y-129665400D01*
X137160000Y-129665400D01*
X137160000Y-129645400D01*
X135841845Y-129645400D01*
X135720524Y-129875290D01*
X135812648Y-130138258D01*
X135959504Y-130389593D01*
X136152571Y-130607449D01*
X136358722Y-130763938D01*
X136332986Y-130777694D01*
X136106866Y-130963266D01*
X135921294Y-131189386D01*
X135783401Y-131447366D01*
X135698487Y-131727289D01*
X135669815Y-132018400D01*
X118050000Y-132018400D01*
X118050000Y-129161510D01*
X135720524Y-129161510D01*
X135841845Y-129391400D01*
X137160000Y-129391400D01*
X137160000Y-128192235D01*
X137414000Y-128192235D01*
X137414000Y-129391400D01*
X138732155Y-129391400D01*
X138853476Y-129161510D01*
X138761352Y-128898542D01*
X138614496Y-128647207D01*
X138421429Y-128429351D01*
X138189570Y-128253347D01*
X137927830Y-128125958D01*
X137646267Y-128052080D01*
X137414000Y-128192235D01*
X137160000Y-128192235D01*
X136927733Y-128052080D01*
X136646170Y-128125958D01*
X136384430Y-128253347D01*
X136152571Y-128429351D01*
X135959504Y-128647207D01*
X135812648Y-128898542D01*
X135720524Y-129161510D01*
X118050000Y-129161510D01*
X118050000Y-122772800D01*
X125802315Y-122772800D01*
X125830987Y-123063911D01*
X125915901Y-123343834D01*
X126053794Y-123601814D01*
X126239366Y-123827934D01*
X126302837Y-123880023D01*
X126201114Y-123934395D01*
X126066538Y-124044838D01*
X125956095Y-124179414D01*
X125874028Y-124332950D01*
X125823492Y-124499546D01*
X125806428Y-124672800D01*
X125806428Y-125872800D01*
X125823492Y-126046054D01*
X125874028Y-126212650D01*
X125956095Y-126366186D01*
X126066538Y-126500762D01*
X126201114Y-126611205D01*
X126354650Y-126693272D01*
X126521246Y-126743808D01*
X126694500Y-126760872D01*
X128194500Y-126760872D01*
X128367754Y-126743808D01*
X128534350Y-126693272D01*
X128687886Y-126611205D01*
X128822462Y-126500762D01*
X128932905Y-126366186D01*
X129014972Y-126212650D01*
X129065508Y-126046054D01*
X129082572Y-125872800D01*
X129082572Y-124672800D01*
X129065508Y-124499546D01*
X129014972Y-124332950D01*
X128932905Y-124179414D01*
X128822462Y-124044838D01*
X128687886Y-123934395D01*
X128586163Y-123880023D01*
X128649634Y-123827934D01*
X128835206Y-123601814D01*
X128973099Y-123343834D01*
X129058013Y-123063911D01*
X129086685Y-122772800D01*
X129058013Y-122481689D01*
X128973099Y-122201766D01*
X128835206Y-121943786D01*
X128649634Y-121717666D01*
X128423514Y-121532094D01*
X128165534Y-121394201D01*
X127885611Y-121309287D01*
X127667450Y-121287800D01*
X127221550Y-121287800D01*
X127003389Y-121309287D01*
X126723466Y-121394201D01*
X126465486Y-121532094D01*
X126239366Y-121717666D01*
X126053794Y-121943786D01*
X125915901Y-122201766D01*
X125830987Y-122481689D01*
X125802315Y-122772800D01*
X118050000Y-122772800D01*
X118050000Y-116502350D01*
X120618500Y-116502350D01*
X120618500Y-116898249D01*
X120639987Y-117116410D01*
X120724901Y-117396333D01*
X120862794Y-117654313D01*
X121048366Y-117880434D01*
X121274486Y-118066006D01*
X121532466Y-118203899D01*
X121812389Y-118288813D01*
X122103500Y-118317485D01*
X122394610Y-118288813D01*
X122674533Y-118203899D01*
X122932513Y-118066006D01*
X123158634Y-117880434D01*
X123344206Y-117654314D01*
X123357962Y-117628578D01*
X123514451Y-117834729D01*
X123732307Y-118027796D01*
X123983642Y-118174652D01*
X124246610Y-118266776D01*
X124476500Y-118145455D01*
X124476500Y-116827300D01*
X124456500Y-116827300D01*
X124456500Y-116573300D01*
X124476500Y-116573300D01*
X124476500Y-115255145D01*
X124730500Y-115255145D01*
X124730500Y-116573300D01*
X124750500Y-116573300D01*
X124750500Y-116827300D01*
X124730500Y-116827300D01*
X124730500Y-118145455D01*
X124960390Y-118266776D01*
X125223358Y-118174652D01*
X125474693Y-118027796D01*
X125692549Y-117834729D01*
X125849038Y-117628578D01*
X125862794Y-117654313D01*
X126048366Y-117880434D01*
X126274486Y-118066006D01*
X126532466Y-118203899D01*
X126812389Y-118288813D01*
X127103500Y-118317485D01*
X127394610Y-118288813D01*
X127674533Y-118203899D01*
X127932513Y-118066006D01*
X128158634Y-117880434D01*
X128210723Y-117816963D01*
X128265095Y-117918686D01*
X128375538Y-118053262D01*
X128510114Y-118163705D01*
X128663650Y-118245772D01*
X128830246Y-118296308D01*
X129003500Y-118313372D01*
X130203500Y-118313372D01*
X130376754Y-118296308D01*
X130543350Y-118245772D01*
X130696886Y-118163705D01*
X130831462Y-118053262D01*
X130941905Y-117918686D01*
X131023972Y-117765150D01*
X131074508Y-117598554D01*
X131091572Y-117425300D01*
X131091572Y-115975300D01*
X131074508Y-115802046D01*
X131023972Y-115635450D01*
X130941905Y-115481914D01*
X130831462Y-115347338D01*
X130696886Y-115236895D01*
X130543350Y-115154828D01*
X130376754Y-115104292D01*
X130203500Y-115087228D01*
X129003500Y-115087228D01*
X128830246Y-115104292D01*
X128663650Y-115154828D01*
X128510114Y-115236895D01*
X128375538Y-115347338D01*
X128265095Y-115481914D01*
X128210723Y-115583637D01*
X128158634Y-115520166D01*
X127932514Y-115334594D01*
X127674534Y-115196701D01*
X127394611Y-115111787D01*
X127103500Y-115083115D01*
X126812390Y-115111787D01*
X126532467Y-115196701D01*
X126274487Y-115334594D01*
X126048366Y-115520166D01*
X125862794Y-115746286D01*
X125849038Y-115772022D01*
X125692549Y-115565871D01*
X125474693Y-115372804D01*
X125223358Y-115225948D01*
X124960390Y-115133824D01*
X124730500Y-115255145D01*
X124476500Y-115255145D01*
X124246610Y-115133824D01*
X123983642Y-115225948D01*
X123732307Y-115372804D01*
X123514451Y-115565871D01*
X123357962Y-115772022D01*
X123344206Y-115746286D01*
X123158634Y-115520166D01*
X122932514Y-115334594D01*
X122674534Y-115196701D01*
X122394611Y-115111787D01*
X122103500Y-115083115D01*
X121812390Y-115111787D01*
X121532467Y-115196701D01*
X121274487Y-115334594D01*
X121048366Y-115520166D01*
X120862794Y-115746286D01*
X120724901Y-116004266D01*
X120639987Y-116284189D01*
X120618500Y-116502350D01*
X118050000Y-116502350D01*
X118050000Y-114364400D01*
X133195428Y-114364400D01*
X133195428Y-116064400D01*
X133207688Y-116188882D01*
X133243998Y-116308580D01*
X133302963Y-116418894D01*
X133382315Y-116515585D01*
X133479006Y-116594937D01*
X133589320Y-116653902D01*
X133709018Y-116690212D01*
X133833500Y-116702472D01*
X135533500Y-116702472D01*
X135657982Y-116690212D01*
X135777680Y-116653902D01*
X135887994Y-116594937D01*
X135984685Y-116515585D01*
X136064037Y-116418894D01*
X136123002Y-116308580D01*
X136145013Y-116236020D01*
X136276868Y-116367875D01*
X136520089Y-116530390D01*
X136790342Y-116642332D01*
X137077240Y-116699400D01*
X137369760Y-116699400D01*
X137656658Y-116642332D01*
X137926911Y-116530390D01*
X138170132Y-116367875D01*
X138376975Y-116161032D01*
X138498695Y-115978866D01*
X138568322Y-116095755D01*
X138763231Y-116311988D01*
X138996580Y-116486041D01*
X139259401Y-116611225D01*
X139406610Y-116655876D01*
X139636500Y-116534555D01*
X139636500Y-115341400D01*
X139890500Y-115341400D01*
X139890500Y-116534555D01*
X140120390Y-116655876D01*
X140267599Y-116611225D01*
X140530420Y-116486041D01*
X140763769Y-116311988D01*
X140958678Y-116095755D01*
X141107657Y-115845652D01*
X141204981Y-115571291D01*
X141084314Y-115341400D01*
X139890500Y-115341400D01*
X139636500Y-115341400D01*
X139616500Y-115341400D01*
X139616500Y-115087400D01*
X139636500Y-115087400D01*
X139636500Y-113894245D01*
X139890500Y-113894245D01*
X139890500Y-115087400D01*
X141084314Y-115087400D01*
X141204981Y-114857509D01*
X141107657Y-114583148D01*
X140958678Y-114333045D01*
X140763769Y-114116812D01*
X140530420Y-113942759D01*
X140267599Y-113817575D01*
X140120390Y-113772924D01*
X139890500Y-113894245D01*
X139636500Y-113894245D01*
X139406610Y-113772924D01*
X139259401Y-113817575D01*
X138996580Y-113942759D01*
X138763231Y-114116812D01*
X138568322Y-114333045D01*
X138498695Y-114449934D01*
X138376975Y-114267768D01*
X138170132Y-114060925D01*
X137926911Y-113898410D01*
X137656658Y-113786468D01*
X137369760Y-113729400D01*
X137077240Y-113729400D01*
X136790342Y-113786468D01*
X136520089Y-113898410D01*
X136276868Y-114060925D01*
X136145013Y-114192780D01*
X136123002Y-114120220D01*
X136064037Y-114009906D01*
X135984685Y-113913215D01*
X135887994Y-113833863D01*
X135777680Y-113774898D01*
X135657982Y-113738588D01*
X135533500Y-113726328D01*
X133833500Y-113726328D01*
X133709018Y-113738588D01*
X133589320Y-113774898D01*
X133479006Y-113833863D01*
X133382315Y-113913215D01*
X133302963Y-114009906D01*
X133243998Y-114120220D01*
X133207688Y-114239918D01*
X133195428Y-114364400D01*
X118050000Y-114364400D01*
X118050000Y-96363800D01*
X118664515Y-96363800D01*
X118693187Y-96654911D01*
X118778101Y-96934834D01*
X118915994Y-97192814D01*
X119101566Y-97418934D01*
X119327686Y-97604506D01*
X119345074Y-97613800D01*
X119327686Y-97623094D01*
X119101566Y-97808666D01*
X118915994Y-98034786D01*
X118778101Y-98292766D01*
X118693187Y-98572689D01*
X118664515Y-98863800D01*
X118693187Y-99154911D01*
X118778101Y-99434834D01*
X118915994Y-99692814D01*
X119101566Y-99918934D01*
X119327686Y-100104506D01*
X119345074Y-100113800D01*
X119327686Y-100123094D01*
X119101566Y-100308666D01*
X118915994Y-100534786D01*
X118778101Y-100792766D01*
X118693187Y-101072689D01*
X118664515Y-101363800D01*
X118693187Y-101654911D01*
X118778101Y-101934834D01*
X118915994Y-102192814D01*
X119101566Y-102418934D01*
X119327686Y-102604506D01*
X119345074Y-102613800D01*
X119327686Y-102623094D01*
X119101566Y-102808666D01*
X118915994Y-103034786D01*
X118778101Y-103292766D01*
X118693187Y-103572689D01*
X118664515Y-103863800D01*
X118693187Y-104154911D01*
X118778101Y-104434834D01*
X118915994Y-104692814D01*
X119101566Y-104918934D01*
X119327686Y-105104506D01*
X119585666Y-105242399D01*
X119865589Y-105327313D01*
X120083750Y-105348800D01*
X120479650Y-105348800D01*
X120697811Y-105327313D01*
X120977734Y-105242399D01*
X121235714Y-105104506D01*
X121461834Y-104918934D01*
X121647406Y-104692814D01*
X121785299Y-104434834D01*
X121870213Y-104154911D01*
X121898885Y-103863800D01*
X121870213Y-103572689D01*
X121785299Y-103292766D01*
X121647406Y-103034786D01*
X121461834Y-102808666D01*
X121235714Y-102623094D01*
X121218326Y-102613800D01*
X121235714Y-102604506D01*
X121461834Y-102418934D01*
X121647406Y-102192814D01*
X121785299Y-101934834D01*
X121870213Y-101654911D01*
X121898885Y-101363800D01*
X121870213Y-101072689D01*
X121785299Y-100792766D01*
X121647406Y-100534786D01*
X121461834Y-100308666D01*
X121235714Y-100123094D01*
X121218326Y-100113800D01*
X121235714Y-100104506D01*
X121461834Y-99918934D01*
X121647406Y-99692814D01*
X121785299Y-99434834D01*
X121870213Y-99154911D01*
X121898885Y-98863800D01*
X121870213Y-98572689D01*
X121785299Y-98292766D01*
X121647406Y-98034786D01*
X121461834Y-97808666D01*
X121235714Y-97623094D01*
X121218326Y-97613800D01*
X121235714Y-97604506D01*
X121461834Y-97418934D01*
X121647406Y-97192814D01*
X121785299Y-96934834D01*
X121870213Y-96654911D01*
X121898885Y-96363800D01*
X121870213Y-96072689D01*
X121785299Y-95792766D01*
X121647406Y-95534786D01*
X121461834Y-95308666D01*
X121235714Y-95123094D01*
X121209978Y-95109338D01*
X121416129Y-94952849D01*
X121609196Y-94734993D01*
X121756052Y-94483658D01*
X121848176Y-94220690D01*
X121740317Y-94016309D01*
X125574360Y-94016309D01*
X125574360Y-94289131D01*
X125627585Y-94556709D01*
X125731989Y-94808763D01*
X125883561Y-95035606D01*
X126076474Y-95228519D01*
X126303317Y-95380091D01*
X126555371Y-95484495D01*
X126822949Y-95537720D01*
X127095771Y-95537720D01*
X127363349Y-95484495D01*
X127615403Y-95380091D01*
X127842246Y-95228519D01*
X128035159Y-95035606D01*
X128186731Y-94808763D01*
X128291135Y-94556709D01*
X128344360Y-94289131D01*
X128344360Y-94016309D01*
X130454360Y-94016309D01*
X130454360Y-94289131D01*
X130507585Y-94556709D01*
X130611989Y-94808763D01*
X130763561Y-95035606D01*
X130956474Y-95228519D01*
X131183317Y-95380091D01*
X131435371Y-95484495D01*
X131702949Y-95537720D01*
X131975771Y-95537720D01*
X132243349Y-95484495D01*
X132495403Y-95380091D01*
X132722246Y-95228519D01*
X132915159Y-95035606D01*
X133066731Y-94808763D01*
X133171135Y-94556709D01*
X133224360Y-94289131D01*
X133224360Y-94016309D01*
X133171135Y-93748731D01*
X133066731Y-93496677D01*
X132915159Y-93269834D01*
X132722246Y-93076921D01*
X132495403Y-92925349D01*
X132243349Y-92820945D01*
X131975771Y-92767720D01*
X131702949Y-92767720D01*
X131435371Y-92820945D01*
X131183317Y-92925349D01*
X130956474Y-93076921D01*
X130763561Y-93269834D01*
X130611989Y-93496677D01*
X130507585Y-93748731D01*
X130454360Y-94016309D01*
X128344360Y-94016309D01*
X128291135Y-93748731D01*
X128186731Y-93496677D01*
X128035159Y-93269834D01*
X127842246Y-93076921D01*
X127615403Y-92925349D01*
X127363349Y-92820945D01*
X127095771Y-92767720D01*
X126822949Y-92767720D01*
X126555371Y-92820945D01*
X126303317Y-92925349D01*
X126076474Y-93076921D01*
X125883561Y-93269834D01*
X125731989Y-93496677D01*
X125627585Y-93748731D01*
X125574360Y-94016309D01*
X121740317Y-94016309D01*
X121726855Y-93990800D01*
X120408700Y-93990800D01*
X120408700Y-94010800D01*
X120154700Y-94010800D01*
X120154700Y-93990800D01*
X118836545Y-93990800D01*
X118715224Y-94220690D01*
X118807348Y-94483658D01*
X118954204Y-94734993D01*
X119147271Y-94952849D01*
X119353422Y-95109338D01*
X119327686Y-95123094D01*
X119101566Y-95308666D01*
X118915994Y-95534786D01*
X118778101Y-95792766D01*
X118693187Y-96072689D01*
X118664515Y-96363800D01*
X118050000Y-96363800D01*
X118050000Y-90763800D01*
X118668628Y-90763800D01*
X118668628Y-91963800D01*
X118685692Y-92137054D01*
X118736228Y-92303650D01*
X118818295Y-92457186D01*
X118928738Y-92591762D01*
X119063314Y-92702205D01*
X119168661Y-92758514D01*
X119147271Y-92774751D01*
X118954204Y-92992607D01*
X118807348Y-93243942D01*
X118715224Y-93506910D01*
X118836545Y-93736800D01*
X120154700Y-93736800D01*
X120154700Y-93716800D01*
X120408700Y-93716800D01*
X120408700Y-93736800D01*
X121726855Y-93736800D01*
X121848176Y-93506910D01*
X121756052Y-93243942D01*
X121609196Y-92992607D01*
X121416129Y-92774751D01*
X121394739Y-92758514D01*
X121500086Y-92702205D01*
X121634662Y-92591762D01*
X121745105Y-92457186D01*
X121827172Y-92303650D01*
X121877708Y-92137054D01*
X121894772Y-91963800D01*
X121894772Y-90763800D01*
X121877708Y-90590546D01*
X121827172Y-90423950D01*
X121745105Y-90270414D01*
X121634662Y-90135838D01*
X121500086Y-90025395D01*
X121346550Y-89943328D01*
X121179954Y-89892792D01*
X121006700Y-89875728D01*
X119556700Y-89875728D01*
X119383446Y-89892792D01*
X119216850Y-89943328D01*
X119063314Y-90025395D01*
X118928738Y-90135838D01*
X118818295Y-90270414D01*
X118736228Y-90423950D01*
X118685692Y-90590546D01*
X118668628Y-90763800D01*
X118050000Y-90763800D01*
X118050000Y-88603681D01*
X132478724Y-88603681D01*
X132838912Y-89093348D01*
X133502882Y-89453649D01*
X134224385Y-89677494D01*
X134975695Y-89756280D01*
X135727938Y-89686978D01*
X136452208Y-89472252D01*
X137120670Y-89120355D01*
X137161088Y-89093348D01*
X137521276Y-88603681D01*
X135000000Y-86082405D01*
X132478724Y-88603681D01*
X118050000Y-88603681D01*
X118050000Y-85728667D01*
X119435760Y-85728667D01*
X119509638Y-86010230D01*
X119637027Y-86271970D01*
X119813031Y-86503829D01*
X120030887Y-86696896D01*
X120282222Y-86843752D01*
X120545190Y-86935876D01*
X120775080Y-86814555D01*
X120775080Y-85496400D01*
X119575915Y-85496400D01*
X119435760Y-85728667D01*
X118050000Y-85728667D01*
X118050000Y-85010133D01*
X119435760Y-85010133D01*
X119575915Y-85242400D01*
X120775080Y-85242400D01*
X120775080Y-83924245D01*
X121029080Y-83924245D01*
X121029080Y-85242400D01*
X121049080Y-85242400D01*
X121049080Y-85496400D01*
X121029080Y-85496400D01*
X121029080Y-86814555D01*
X121258970Y-86935876D01*
X121521938Y-86843752D01*
X121773273Y-86696896D01*
X121991129Y-86503829D01*
X122147618Y-86297678D01*
X122161374Y-86323413D01*
X122346946Y-86549534D01*
X122573066Y-86735106D01*
X122831046Y-86872999D01*
X123110969Y-86957913D01*
X123402080Y-86986585D01*
X123693190Y-86957913D01*
X123973113Y-86872999D01*
X124231093Y-86735106D01*
X124457214Y-86549534D01*
X124642786Y-86323414D01*
X124652080Y-86306026D01*
X124661374Y-86323413D01*
X124846946Y-86549534D01*
X125073066Y-86735106D01*
X125331046Y-86872999D01*
X125610969Y-86957913D01*
X125902080Y-86986585D01*
X126193190Y-86957913D01*
X126473113Y-86872999D01*
X126731093Y-86735106D01*
X126957214Y-86549534D01*
X127009303Y-86486063D01*
X127063675Y-86587786D01*
X127174118Y-86722362D01*
X127308694Y-86832805D01*
X127462230Y-86914872D01*
X127628826Y-86965408D01*
X127802080Y-86982472D01*
X129002080Y-86982472D01*
X129175334Y-86965408D01*
X129341930Y-86914872D01*
X129495466Y-86832805D01*
X129630042Y-86722362D01*
X129740485Y-86587786D01*
X129822552Y-86434250D01*
X129873088Y-86267654D01*
X129890152Y-86094400D01*
X129890152Y-85878495D01*
X131146520Y-85878495D01*
X131215822Y-86630738D01*
X131430548Y-87355008D01*
X131782445Y-88023470D01*
X131809452Y-88063888D01*
X132299119Y-88424076D01*
X134820395Y-85902800D01*
X135179605Y-85902800D01*
X137700881Y-88424076D01*
X138190548Y-88063888D01*
X138550849Y-87399918D01*
X138774694Y-86678415D01*
X138853480Y-85927105D01*
X138784178Y-85174862D01*
X138569452Y-84450592D01*
X138217555Y-83782130D01*
X138190548Y-83741712D01*
X137700881Y-83381524D01*
X135179605Y-85902800D01*
X134820395Y-85902800D01*
X132299119Y-83381524D01*
X131809452Y-83741712D01*
X131449151Y-84405682D01*
X131225306Y-85127185D01*
X131146520Y-85878495D01*
X129890152Y-85878495D01*
X129890152Y-84644400D01*
X129873088Y-84471146D01*
X129822552Y-84304550D01*
X129740485Y-84151014D01*
X129630042Y-84016438D01*
X129495466Y-83905995D01*
X129341930Y-83823928D01*
X129175334Y-83773392D01*
X129002080Y-83756328D01*
X127802080Y-83756328D01*
X127628826Y-83773392D01*
X127462230Y-83823928D01*
X127308694Y-83905995D01*
X127174118Y-84016438D01*
X127063675Y-84151014D01*
X127009303Y-84252737D01*
X126957214Y-84189266D01*
X126731094Y-84003694D01*
X126473114Y-83865801D01*
X126193191Y-83780887D01*
X125902080Y-83752215D01*
X125610970Y-83780887D01*
X125331047Y-83865801D01*
X125073067Y-84003694D01*
X124846946Y-84189266D01*
X124661374Y-84415386D01*
X124652080Y-84432774D01*
X124642786Y-84415386D01*
X124457214Y-84189266D01*
X124231094Y-84003694D01*
X123973114Y-83865801D01*
X123693191Y-83780887D01*
X123402080Y-83752215D01*
X123110970Y-83780887D01*
X122831047Y-83865801D01*
X122573067Y-84003694D01*
X122346946Y-84189266D01*
X122161374Y-84415386D01*
X122147618Y-84441122D01*
X121991129Y-84234971D01*
X121773273Y-84041904D01*
X121521938Y-83895048D01*
X121258970Y-83802924D01*
X121029080Y-83924245D01*
X120775080Y-83924245D01*
X120545190Y-83802924D01*
X120282222Y-83895048D01*
X120030887Y-84041904D01*
X119813031Y-84234971D01*
X119637027Y-84466830D01*
X119509638Y-84728570D01*
X119435760Y-85010133D01*
X118050000Y-85010133D01*
X118050000Y-82929800D01*
X132678889Y-82929800D01*
X132478724Y-83201919D01*
M02*
