G04 #@! TF.GenerationSoftware,KiCad,Pcbnew,(5.1.6)-1*
G04 #@! TF.CreationDate,2023-02-24T22:08:04-06:00*
G04 #@! TF.ProjectId,EncoderBoard3(1.2),456e636f-6465-4724-926f-617264332831,v1.0*
G04 #@! TF.SameCoordinates,Original*
G04 #@! TF.FileFunction,Soldermask,Top*
G04 #@! TF.FilePolarity,Negative*
%FSLAX46Y46*%
G04 Gerber Fmt 4.6, Leading zero omitted, Abs format (unit mm)*
G04 Created by KiCad (PCBNEW (5.1.6)-1) date 2023-02-24 22:08:04*
%MOMM*%
%LPD*%
G01*
G04 APERTURE LIST*
%ADD10C,0.100000*%
G04 APERTURE END LIST*
D10*
G36*
X140703915Y-147405134D02*
G01*
X140812491Y-147438071D01*
X140812494Y-147438072D01*
X140848600Y-147457371D01*
X140912556Y-147491556D01*
X141000264Y-147563536D01*
X141072244Y-147651243D01*
X141106429Y-147715199D01*
X141125728Y-147751305D01*
X141125728Y-147751306D01*
X141125729Y-147751308D01*
X141158666Y-147859884D01*
X141167000Y-147944502D01*
X141167000Y-149051098D01*
X141158666Y-149135716D01*
X141125729Y-149244292D01*
X141125728Y-149244295D01*
X141106429Y-149280401D01*
X141072244Y-149344357D01*
X141000264Y-149432064D01*
X140912557Y-149504044D01*
X140848601Y-149538229D01*
X140812495Y-149557528D01*
X140812492Y-149557529D01*
X140703916Y-149590466D01*
X140591000Y-149601587D01*
X140478085Y-149590466D01*
X140369509Y-149557529D01*
X140369506Y-149557528D01*
X140333400Y-149538229D01*
X140269444Y-149504044D01*
X140181737Y-149432064D01*
X140109757Y-149344357D01*
X140075572Y-149280401D01*
X140056273Y-149244295D01*
X140056272Y-149244292D01*
X140023335Y-149135716D01*
X140015001Y-149051098D01*
X140015000Y-147944503D01*
X140023334Y-147859885D01*
X140056271Y-147751309D01*
X140056272Y-147751306D01*
X140075571Y-147715200D01*
X140109756Y-147651244D01*
X140181736Y-147563536D01*
X140269443Y-147491556D01*
X140333399Y-147457371D01*
X140369505Y-147438072D01*
X140369508Y-147438071D01*
X140478084Y-147405134D01*
X140591000Y-147394013D01*
X140703915Y-147405134D01*
G37*
G36*
X132063915Y-147405134D02*
G01*
X132172491Y-147438071D01*
X132172494Y-147438072D01*
X132208600Y-147457371D01*
X132272556Y-147491556D01*
X132360264Y-147563536D01*
X132432244Y-147651243D01*
X132466429Y-147715199D01*
X132485728Y-147751305D01*
X132485728Y-147751306D01*
X132485729Y-147751308D01*
X132518666Y-147859884D01*
X132527000Y-147944502D01*
X132527000Y-149051098D01*
X132518666Y-149135716D01*
X132485729Y-149244292D01*
X132485728Y-149244295D01*
X132466429Y-149280401D01*
X132432244Y-149344357D01*
X132360264Y-149432064D01*
X132272557Y-149504044D01*
X132208601Y-149538229D01*
X132172495Y-149557528D01*
X132172492Y-149557529D01*
X132063916Y-149590466D01*
X131951000Y-149601587D01*
X131838085Y-149590466D01*
X131729509Y-149557529D01*
X131729506Y-149557528D01*
X131693400Y-149538229D01*
X131629444Y-149504044D01*
X131541737Y-149432064D01*
X131469757Y-149344357D01*
X131435572Y-149280401D01*
X131416273Y-149244295D01*
X131416272Y-149244292D01*
X131383335Y-149135716D01*
X131375001Y-149051098D01*
X131375000Y-147944503D01*
X131383334Y-147859885D01*
X131416271Y-147751309D01*
X131416272Y-147751306D01*
X131435571Y-147715200D01*
X131469756Y-147651244D01*
X131541736Y-147563536D01*
X131629443Y-147491556D01*
X131693399Y-147457371D01*
X131729505Y-147438072D01*
X131729508Y-147438071D01*
X131838084Y-147405134D01*
X131951000Y-147394013D01*
X132063915Y-147405134D01*
G37*
G36*
X125634239Y-139237267D02*
G01*
X125948282Y-139299734D01*
X126539926Y-139544801D01*
X127072392Y-139900584D01*
X127525216Y-140353408D01*
X127880999Y-140885874D01*
X128126066Y-141477518D01*
X128251000Y-142105604D01*
X128251000Y-142745996D01*
X128126066Y-143374082D01*
X127880999Y-143965726D01*
X127655105Y-144303799D01*
X127525217Y-144498191D01*
X127072391Y-144951017D01*
X126966477Y-145021786D01*
X126539926Y-145306799D01*
X125948282Y-145551866D01*
X125634239Y-145614333D01*
X125320197Y-145676800D01*
X124679803Y-145676800D01*
X124365761Y-145614333D01*
X124051718Y-145551866D01*
X123460074Y-145306799D01*
X123033523Y-145021786D01*
X122927609Y-144951017D01*
X122474783Y-144498191D01*
X122344895Y-144303799D01*
X122119001Y-143965726D01*
X121873934Y-143374082D01*
X121749000Y-142745996D01*
X121749000Y-142105604D01*
X121873934Y-141477518D01*
X122119001Y-140885874D01*
X122474784Y-140353408D01*
X122927608Y-139900584D01*
X123460074Y-139544801D01*
X124051718Y-139299734D01*
X124365761Y-139237267D01*
X124679803Y-139174800D01*
X125320197Y-139174800D01*
X125634239Y-139237267D01*
G37*
G36*
X139872000Y-143417032D02*
G01*
X139874402Y-143441418D01*
X139881515Y-143464867D01*
X139893066Y-143486478D01*
X139908611Y-143505420D01*
X139927553Y-143520965D01*
X139949164Y-143532516D01*
X139972613Y-143539629D01*
X139996999Y-143542031D01*
X140021385Y-143539629D01*
X140044834Y-143532516D01*
X140066445Y-143520965D01*
X140085387Y-143505420D01*
X140107234Y-143475962D01*
X140109756Y-143471244D01*
X140181736Y-143383536D01*
X140269443Y-143311556D01*
X140333399Y-143277371D01*
X140369505Y-143258072D01*
X140369508Y-143258071D01*
X140478084Y-143225134D01*
X140591000Y-143214013D01*
X140703915Y-143225134D01*
X140812491Y-143258071D01*
X140812494Y-143258072D01*
X140848600Y-143277371D01*
X140912556Y-143311556D01*
X141000264Y-143383536D01*
X141072244Y-143471243D01*
X141102191Y-143527271D01*
X141125728Y-143571305D01*
X141125728Y-143571306D01*
X141125729Y-143571308D01*
X141158666Y-143679884D01*
X141167000Y-143764502D01*
X141167000Y-144871098D01*
X141158666Y-144955716D01*
X141133782Y-145037744D01*
X141125728Y-145064295D01*
X141106429Y-145100401D01*
X141072244Y-145164357D01*
X141000264Y-145252064D01*
X140912557Y-145324044D01*
X140848601Y-145358229D01*
X140812495Y-145377528D01*
X140812492Y-145377529D01*
X140703916Y-145410466D01*
X140591000Y-145421587D01*
X140478085Y-145410466D01*
X140369509Y-145377529D01*
X140369506Y-145377528D01*
X140333400Y-145358229D01*
X140269444Y-145324044D01*
X140181737Y-145252064D01*
X140109757Y-145164357D01*
X140075572Y-145100401D01*
X140056273Y-145064295D01*
X140048219Y-145037744D01*
X140023335Y-144955716D01*
X140015001Y-144871098D01*
X140015001Y-144592178D01*
X140015000Y-144303799D01*
X140012598Y-144279413D01*
X140005485Y-144255964D01*
X139993934Y-144234353D01*
X139978388Y-144215411D01*
X139959447Y-144199866D01*
X139937836Y-144188315D01*
X139914387Y-144181202D01*
X139890001Y-144178800D01*
X132651999Y-144178800D01*
X132627613Y-144181202D01*
X132604164Y-144188315D01*
X132582553Y-144199866D01*
X132563611Y-144215411D01*
X132548066Y-144234353D01*
X132536515Y-144255964D01*
X132529402Y-144279413D01*
X132527000Y-144303799D01*
X132527000Y-144871098D01*
X132518666Y-144955716D01*
X132493782Y-145037744D01*
X132485728Y-145064295D01*
X132466429Y-145100401D01*
X132432244Y-145164357D01*
X132360264Y-145252064D01*
X132272557Y-145324044D01*
X132208601Y-145358229D01*
X132172495Y-145377528D01*
X132172492Y-145377529D01*
X132063916Y-145410466D01*
X131951000Y-145421587D01*
X131838085Y-145410466D01*
X131729509Y-145377529D01*
X131729506Y-145377528D01*
X131693400Y-145358229D01*
X131629444Y-145324044D01*
X131541737Y-145252064D01*
X131469757Y-145164357D01*
X131435572Y-145100401D01*
X131416273Y-145064295D01*
X131408219Y-145037744D01*
X131383335Y-144955716D01*
X131375001Y-144871098D01*
X131375000Y-143764503D01*
X131383334Y-143679885D01*
X131416271Y-143571309D01*
X131416272Y-143571306D01*
X131437006Y-143532516D01*
X131469756Y-143471244D01*
X131541736Y-143383536D01*
X131629443Y-143311556D01*
X131693399Y-143277371D01*
X131729505Y-143258072D01*
X131729508Y-143258071D01*
X131838084Y-143225134D01*
X131951000Y-143214013D01*
X132063915Y-143225134D01*
X132172491Y-143258071D01*
X132172494Y-143258072D01*
X132208600Y-143277371D01*
X132272556Y-143311556D01*
X132360264Y-143383536D01*
X132432244Y-143471243D01*
X132434768Y-143475964D01*
X132448376Y-143496330D01*
X132465703Y-143513657D01*
X132486078Y-143527271D01*
X132508717Y-143536648D01*
X132532750Y-143541428D01*
X132557254Y-143541428D01*
X132581287Y-143536647D01*
X132603926Y-143527270D01*
X132624300Y-143513656D01*
X132641627Y-143496329D01*
X132655241Y-143475954D01*
X132664618Y-143453315D01*
X132670000Y-143417031D01*
X132670000Y-142626800D01*
X139872000Y-142626800D01*
X139872000Y-143417032D01*
G37*
G36*
X133459231Y-144454505D02*
G01*
X133497967Y-144462210D01*
X133528195Y-144474731D01*
X133570944Y-144492438D01*
X133636622Y-144536323D01*
X133692477Y-144592178D01*
X133736362Y-144657856D01*
X133766590Y-144730834D01*
X133782000Y-144808304D01*
X133782000Y-144887296D01*
X133766590Y-144964766D01*
X133736362Y-145037744D01*
X133692477Y-145103422D01*
X133636622Y-145159277D01*
X133570944Y-145203162D01*
X133528195Y-145220869D01*
X133497967Y-145233390D01*
X133459231Y-145241095D01*
X133420496Y-145248800D01*
X133341504Y-145248800D01*
X133302769Y-145241095D01*
X133264033Y-145233390D01*
X133233805Y-145220869D01*
X133191056Y-145203162D01*
X133125378Y-145159277D01*
X133069523Y-145103422D01*
X133025638Y-145037744D01*
X132995410Y-144964766D01*
X132980000Y-144887296D01*
X132980000Y-144808304D01*
X132995410Y-144730834D01*
X133025638Y-144657856D01*
X133069523Y-144592178D01*
X133125378Y-144536323D01*
X133191056Y-144492438D01*
X133233805Y-144474731D01*
X133264033Y-144462210D01*
X133302769Y-144454505D01*
X133341504Y-144446800D01*
X133420496Y-144446800D01*
X133459231Y-144454505D01*
G37*
G36*
X139239231Y-144454505D02*
G01*
X139277967Y-144462210D01*
X139308195Y-144474731D01*
X139350944Y-144492438D01*
X139416622Y-144536323D01*
X139472477Y-144592178D01*
X139516362Y-144657856D01*
X139546590Y-144730834D01*
X139562000Y-144808304D01*
X139562000Y-144887296D01*
X139546590Y-144964766D01*
X139516362Y-145037744D01*
X139472477Y-145103422D01*
X139416622Y-145159277D01*
X139350944Y-145203162D01*
X139308195Y-145220869D01*
X139277967Y-145233390D01*
X139239231Y-145241095D01*
X139200496Y-145248800D01*
X139121504Y-145248800D01*
X139082769Y-145241095D01*
X139044033Y-145233390D01*
X139013805Y-145220869D01*
X138971056Y-145203162D01*
X138905378Y-145159277D01*
X138849523Y-145103422D01*
X138805638Y-145037744D01*
X138775410Y-144964766D01*
X138760000Y-144887296D01*
X138760000Y-144808304D01*
X138775410Y-144730834D01*
X138805638Y-144657856D01*
X138849523Y-144592178D01*
X138905378Y-144536323D01*
X138971056Y-144492438D01*
X139013805Y-144474731D01*
X139044033Y-144462210D01*
X139082769Y-144454505D01*
X139121504Y-144446800D01*
X139200496Y-144446800D01*
X139239231Y-144454505D01*
G37*
G36*
X138439499Y-139483245D02*
G01*
X138476995Y-139494620D01*
X138511554Y-139513092D01*
X138541847Y-139537953D01*
X138566708Y-139568246D01*
X138585180Y-139602805D01*
X138596555Y-139640301D01*
X138601000Y-139685438D01*
X138601000Y-140324162D01*
X138596555Y-140369299D01*
X138585180Y-140406795D01*
X138566708Y-140441354D01*
X138541847Y-140471647D01*
X138511554Y-140496508D01*
X138476995Y-140514980D01*
X138439499Y-140526355D01*
X138394362Y-140530800D01*
X137655638Y-140530800D01*
X137610501Y-140526355D01*
X137573005Y-140514980D01*
X137538446Y-140496508D01*
X137508153Y-140471647D01*
X137483292Y-140441354D01*
X137464820Y-140406795D01*
X137453445Y-140369299D01*
X137449000Y-140324162D01*
X137449000Y-139685438D01*
X137453445Y-139640301D01*
X137464820Y-139602805D01*
X137483292Y-139568246D01*
X137508153Y-139537953D01*
X137538446Y-139513092D01*
X137573005Y-139494620D01*
X137610501Y-139483245D01*
X137655638Y-139478800D01*
X138394362Y-139478800D01*
X138439499Y-139483245D01*
G37*
G36*
X140189499Y-139483245D02*
G01*
X140226995Y-139494620D01*
X140261554Y-139513092D01*
X140291847Y-139537953D01*
X140316708Y-139568246D01*
X140335180Y-139602805D01*
X140346555Y-139640301D01*
X140351000Y-139685438D01*
X140351000Y-140324162D01*
X140346555Y-140369299D01*
X140335180Y-140406795D01*
X140316708Y-140441354D01*
X140291847Y-140471647D01*
X140261554Y-140496508D01*
X140226995Y-140514980D01*
X140189499Y-140526355D01*
X140144362Y-140530800D01*
X139405638Y-140530800D01*
X139360501Y-140526355D01*
X139323005Y-140514980D01*
X139288446Y-140496508D01*
X139258153Y-140471647D01*
X139233292Y-140441354D01*
X139214820Y-140406795D01*
X139203445Y-140369299D01*
X139199000Y-140324162D01*
X139199000Y-139685438D01*
X139203445Y-139640301D01*
X139214820Y-139602805D01*
X139233292Y-139568246D01*
X139258153Y-139537953D01*
X139288446Y-139513092D01*
X139323005Y-139494620D01*
X139360501Y-139483245D01*
X139405638Y-139478800D01*
X140144362Y-139478800D01*
X140189499Y-139483245D01*
G37*
G36*
X134890000Y-139974800D02*
G01*
X133588000Y-139974800D01*
X133588000Y-137372800D01*
X134890000Y-137372800D01*
X134890000Y-139974800D01*
G37*
G36*
X132390000Y-139974800D02*
G01*
X131088000Y-139974800D01*
X131088000Y-137372800D01*
X132390000Y-137372800D01*
X132390000Y-139974800D01*
G37*
G36*
X138439499Y-137832245D02*
G01*
X138476995Y-137843620D01*
X138511554Y-137862092D01*
X138541847Y-137886953D01*
X138566708Y-137917246D01*
X138585180Y-137951805D01*
X138596555Y-137989301D01*
X138601000Y-138034438D01*
X138601000Y-138673162D01*
X138596555Y-138718299D01*
X138585180Y-138755795D01*
X138566708Y-138790354D01*
X138541847Y-138820647D01*
X138511554Y-138845508D01*
X138476995Y-138863980D01*
X138439499Y-138875355D01*
X138394362Y-138879800D01*
X137655638Y-138879800D01*
X137610501Y-138875355D01*
X137573005Y-138863980D01*
X137538446Y-138845508D01*
X137508153Y-138820647D01*
X137483292Y-138790354D01*
X137464820Y-138755795D01*
X137453445Y-138718299D01*
X137449000Y-138673162D01*
X137449000Y-138034438D01*
X137453445Y-137989301D01*
X137464820Y-137951805D01*
X137483292Y-137917246D01*
X137508153Y-137886953D01*
X137538446Y-137862092D01*
X137573005Y-137843620D01*
X137610501Y-137832245D01*
X137655638Y-137827800D01*
X138394362Y-137827800D01*
X138439499Y-137832245D01*
G37*
G36*
X140189499Y-137832245D02*
G01*
X140226995Y-137843620D01*
X140261554Y-137862092D01*
X140291847Y-137886953D01*
X140316708Y-137917246D01*
X140335180Y-137951805D01*
X140346555Y-137989301D01*
X140351000Y-138034438D01*
X140351000Y-138673162D01*
X140346555Y-138718299D01*
X140335180Y-138755795D01*
X140316708Y-138790354D01*
X140291847Y-138820647D01*
X140261554Y-138845508D01*
X140226995Y-138863980D01*
X140189499Y-138875355D01*
X140144362Y-138879800D01*
X139405638Y-138879800D01*
X139360501Y-138875355D01*
X139323005Y-138863980D01*
X139288446Y-138845508D01*
X139258153Y-138820647D01*
X139233292Y-138790354D01*
X139214820Y-138755795D01*
X139203445Y-138718299D01*
X139199000Y-138673162D01*
X139199000Y-138034438D01*
X139203445Y-137989301D01*
X139214820Y-137951805D01*
X139233292Y-137917246D01*
X139258153Y-137886953D01*
X139288446Y-137862092D01*
X139323005Y-137843620D01*
X139360501Y-137832245D01*
X139405638Y-137827800D01*
X140144362Y-137827800D01*
X140189499Y-137832245D01*
G37*
G36*
X122002999Y-136625745D02*
G01*
X122040495Y-136637120D01*
X122075054Y-136655592D01*
X122105347Y-136680453D01*
X122130208Y-136710746D01*
X122148680Y-136745305D01*
X122160055Y-136782801D01*
X122164500Y-136827938D01*
X122164500Y-137466662D01*
X122160055Y-137511799D01*
X122148680Y-137549295D01*
X122130208Y-137583854D01*
X122105347Y-137614147D01*
X122075054Y-137639008D01*
X122040495Y-137657480D01*
X122002999Y-137668855D01*
X121957862Y-137673300D01*
X121219138Y-137673300D01*
X121174001Y-137668855D01*
X121136505Y-137657480D01*
X121101946Y-137639008D01*
X121071653Y-137614147D01*
X121046792Y-137583854D01*
X121028320Y-137549295D01*
X121016945Y-137511799D01*
X121012500Y-137466662D01*
X121012500Y-136827938D01*
X121016945Y-136782801D01*
X121028320Y-136745305D01*
X121046792Y-136710746D01*
X121071653Y-136680453D01*
X121101946Y-136655592D01*
X121136505Y-136637120D01*
X121174001Y-136625745D01*
X121219138Y-136621300D01*
X121957862Y-136621300D01*
X122002999Y-136625745D01*
G37*
G36*
X120252999Y-136625745D02*
G01*
X120290495Y-136637120D01*
X120325054Y-136655592D01*
X120355347Y-136680453D01*
X120380208Y-136710746D01*
X120398680Y-136745305D01*
X120410055Y-136782801D01*
X120414500Y-136827938D01*
X120414500Y-137466662D01*
X120410055Y-137511799D01*
X120398680Y-137549295D01*
X120380208Y-137583854D01*
X120355347Y-137614147D01*
X120325054Y-137639008D01*
X120290495Y-137657480D01*
X120252999Y-137668855D01*
X120207862Y-137673300D01*
X119469138Y-137673300D01*
X119424001Y-137668855D01*
X119386505Y-137657480D01*
X119351946Y-137639008D01*
X119321653Y-137614147D01*
X119296792Y-137583854D01*
X119278320Y-137549295D01*
X119266945Y-137511799D01*
X119262500Y-137466662D01*
X119262500Y-136827938D01*
X119266945Y-136782801D01*
X119278320Y-136745305D01*
X119296792Y-136710746D01*
X119321653Y-136680453D01*
X119351946Y-136655592D01*
X119386505Y-136637120D01*
X119424001Y-136625745D01*
X119469138Y-136621300D01*
X120207862Y-136621300D01*
X120252999Y-136625745D01*
G37*
G36*
X129033719Y-136610505D02*
G01*
X129071215Y-136621880D01*
X129105774Y-136640352D01*
X129136067Y-136665213D01*
X129160928Y-136695506D01*
X129179400Y-136730065D01*
X129190775Y-136767561D01*
X129195220Y-136812698D01*
X129195220Y-137451422D01*
X129190775Y-137496559D01*
X129179400Y-137534055D01*
X129160928Y-137568614D01*
X129136067Y-137598907D01*
X129105774Y-137623768D01*
X129071215Y-137642240D01*
X129033719Y-137653615D01*
X128988582Y-137658060D01*
X128249858Y-137658060D01*
X128204721Y-137653615D01*
X128167225Y-137642240D01*
X128132666Y-137623768D01*
X128102373Y-137598907D01*
X128077512Y-137568614D01*
X128059040Y-137534055D01*
X128047665Y-137496559D01*
X128043220Y-137451422D01*
X128043220Y-136812698D01*
X128047665Y-136767561D01*
X128059040Y-136730065D01*
X128077512Y-136695506D01*
X128102373Y-136665213D01*
X128132666Y-136640352D01*
X128167225Y-136621880D01*
X128204721Y-136610505D01*
X128249858Y-136606060D01*
X128988582Y-136606060D01*
X129033719Y-136610505D01*
G37*
G36*
X127283719Y-136610505D02*
G01*
X127321215Y-136621880D01*
X127355774Y-136640352D01*
X127386067Y-136665213D01*
X127410928Y-136695506D01*
X127429400Y-136730065D01*
X127440775Y-136767561D01*
X127445220Y-136812698D01*
X127445220Y-137451422D01*
X127440775Y-137496559D01*
X127429400Y-137534055D01*
X127410928Y-137568614D01*
X127386067Y-137598907D01*
X127355774Y-137623768D01*
X127321215Y-137642240D01*
X127283719Y-137653615D01*
X127238582Y-137658060D01*
X126499858Y-137658060D01*
X126454721Y-137653615D01*
X126417225Y-137642240D01*
X126382666Y-137623768D01*
X126352373Y-137598907D01*
X126327512Y-137568614D01*
X126309040Y-137534055D01*
X126297665Y-137496559D01*
X126293220Y-137451422D01*
X126293220Y-136812698D01*
X126297665Y-136767561D01*
X126309040Y-136730065D01*
X126327512Y-136695506D01*
X126352373Y-136665213D01*
X126382666Y-136640352D01*
X126417225Y-136621880D01*
X126454721Y-136610505D01*
X126499858Y-136606060D01*
X127238582Y-136606060D01*
X127283719Y-136610505D01*
G37*
G36*
X133762000Y-136508300D02*
G01*
X131160000Y-136508300D01*
X131160000Y-135206300D01*
X133762000Y-135206300D01*
X133762000Y-136508300D01*
G37*
G36*
X121241500Y-135846800D02*
G01*
X120439500Y-135846800D01*
X120439500Y-134219800D01*
X121241500Y-134219800D01*
X121241500Y-135846800D01*
G37*
G36*
X122511500Y-135846800D02*
G01*
X121709500Y-135846800D01*
X121709500Y-134219800D01*
X122511500Y-134219800D01*
X122511500Y-135846800D01*
G37*
G36*
X125051500Y-135846800D02*
G01*
X124249500Y-135846800D01*
X124249500Y-134219800D01*
X125051500Y-134219800D01*
X125051500Y-135846800D01*
G37*
G36*
X123781500Y-135846800D02*
G01*
X122979500Y-135846800D01*
X122979500Y-134219800D01*
X123781500Y-134219800D01*
X123781500Y-135846800D01*
G37*
G36*
X138170600Y-133621389D02*
G01*
X138203652Y-133631415D01*
X138234103Y-133647692D01*
X138260799Y-133669601D01*
X138282708Y-133696297D01*
X138298985Y-133726748D01*
X138309011Y-133759800D01*
X138313000Y-133800303D01*
X138313000Y-135236497D01*
X138309011Y-135277000D01*
X138298985Y-135310052D01*
X138282708Y-135340503D01*
X138260799Y-135367199D01*
X138234103Y-135389108D01*
X138203652Y-135405385D01*
X138170600Y-135415411D01*
X138130097Y-135419400D01*
X136443903Y-135419400D01*
X136403400Y-135415411D01*
X136370348Y-135405385D01*
X136339897Y-135389108D01*
X136313201Y-135367199D01*
X136291292Y-135340503D01*
X136275015Y-135310052D01*
X136264989Y-135277000D01*
X136261000Y-135236497D01*
X136261000Y-133800303D01*
X136264989Y-133759800D01*
X136275015Y-133726748D01*
X136291292Y-133696297D01*
X136313201Y-133669601D01*
X136339897Y-133647692D01*
X136370348Y-133631415D01*
X136403400Y-133621389D01*
X136443903Y-133617400D01*
X138130097Y-133617400D01*
X138170600Y-133621389D01*
G37*
G36*
X133762000Y-134008300D02*
G01*
X131160000Y-134008300D01*
X131160000Y-132706300D01*
X133762000Y-132706300D01*
X133762000Y-134008300D01*
G37*
G36*
X124497500Y-133628800D02*
G01*
X120993500Y-133628800D01*
X120993500Y-131013800D01*
X124497500Y-131013800D01*
X124497500Y-133628800D01*
G37*
G36*
X137522442Y-131123918D02*
G01*
X137588627Y-131130437D01*
X137758466Y-131181957D01*
X137914991Y-131265622D01*
X137950729Y-131294952D01*
X138052186Y-131378214D01*
X138135448Y-131479671D01*
X138164778Y-131515409D01*
X138248443Y-131671934D01*
X138299963Y-131841773D01*
X138317359Y-132018400D01*
X138299963Y-132195027D01*
X138248443Y-132364866D01*
X138164778Y-132521391D01*
X138135448Y-132557129D01*
X138052186Y-132658586D01*
X137950729Y-132741848D01*
X137914991Y-132771178D01*
X137849341Y-132806269D01*
X137769383Y-132849008D01*
X137758466Y-132854843D01*
X137588627Y-132906363D01*
X137522442Y-132912882D01*
X137456260Y-132919400D01*
X137117740Y-132919400D01*
X137051558Y-132912882D01*
X136985373Y-132906363D01*
X136815534Y-132854843D01*
X136804618Y-132849008D01*
X136724659Y-132806269D01*
X136659009Y-132771178D01*
X136623271Y-132741848D01*
X136521814Y-132658586D01*
X136438552Y-132557129D01*
X136409222Y-132521391D01*
X136325557Y-132364866D01*
X136274037Y-132195027D01*
X136256641Y-132018400D01*
X136274037Y-131841773D01*
X136325557Y-131671934D01*
X136409222Y-131515409D01*
X136438552Y-131479671D01*
X136521814Y-131378214D01*
X136623271Y-131294952D01*
X136659009Y-131265622D01*
X136815534Y-131181957D01*
X136985373Y-131130437D01*
X137051558Y-131123918D01*
X137117740Y-131117400D01*
X137456260Y-131117400D01*
X137522442Y-131123918D01*
G37*
G36*
X130285499Y-131735745D02*
G01*
X130322995Y-131747120D01*
X130357554Y-131765592D01*
X130387847Y-131790453D01*
X130412708Y-131820746D01*
X130431180Y-131855305D01*
X130442555Y-131892801D01*
X130447000Y-131937938D01*
X130447000Y-132676662D01*
X130442555Y-132721799D01*
X130431180Y-132759295D01*
X130412708Y-132793854D01*
X130387847Y-132824147D01*
X130357554Y-132849008D01*
X130322995Y-132867480D01*
X130285499Y-132878855D01*
X130240362Y-132883300D01*
X129601638Y-132883300D01*
X129556501Y-132878855D01*
X129519005Y-132867480D01*
X129484446Y-132849008D01*
X129454153Y-132824147D01*
X129429292Y-132793854D01*
X129410820Y-132759295D01*
X129399445Y-132721799D01*
X129395000Y-132676662D01*
X129395000Y-131937938D01*
X129399445Y-131892801D01*
X129410820Y-131855305D01*
X129429292Y-131820746D01*
X129454153Y-131790453D01*
X129484446Y-131765592D01*
X129519005Y-131747120D01*
X129556501Y-131735745D01*
X129601638Y-131731300D01*
X130240362Y-131731300D01*
X130285499Y-131735745D01*
G37*
G36*
X133762000Y-131408300D02*
G01*
X131160000Y-131408300D01*
X131160000Y-130106300D01*
X133762000Y-130106300D01*
X133762000Y-131408300D01*
G37*
G36*
X130285499Y-129985745D02*
G01*
X130322995Y-129997120D01*
X130357554Y-130015592D01*
X130387847Y-130040453D01*
X130412708Y-130070746D01*
X130431180Y-130105305D01*
X130442555Y-130142801D01*
X130447000Y-130187938D01*
X130447000Y-130926662D01*
X130442555Y-130971799D01*
X130431180Y-131009295D01*
X130412708Y-131043854D01*
X130387847Y-131074147D01*
X130357554Y-131099008D01*
X130322995Y-131117480D01*
X130285499Y-131128855D01*
X130240362Y-131133300D01*
X129601638Y-131133300D01*
X129556501Y-131128855D01*
X129519005Y-131117480D01*
X129484446Y-131099008D01*
X129454153Y-131074147D01*
X129429292Y-131043854D01*
X129410820Y-131009295D01*
X129399445Y-130971799D01*
X129395000Y-130926662D01*
X129395000Y-130187938D01*
X129399445Y-130142801D01*
X129410820Y-130105305D01*
X129429292Y-130070746D01*
X129454153Y-130040453D01*
X129484446Y-130015592D01*
X129519005Y-129997120D01*
X129556501Y-129985745D01*
X129601638Y-129981300D01*
X130240362Y-129981300D01*
X130285499Y-129985745D01*
G37*
G36*
X125051500Y-130422800D02*
G01*
X124249500Y-130422800D01*
X124249500Y-128795800D01*
X125051500Y-128795800D01*
X125051500Y-130422800D01*
G37*
G36*
X121241500Y-130422800D02*
G01*
X120439500Y-130422800D01*
X120439500Y-128795800D01*
X121241500Y-128795800D01*
X121241500Y-130422800D01*
G37*
G36*
X123781500Y-130422800D02*
G01*
X122979500Y-130422800D01*
X122979500Y-128795800D01*
X123781500Y-128795800D01*
X123781500Y-130422800D01*
G37*
G36*
X122511500Y-130422800D02*
G01*
X121709500Y-130422800D01*
X121709500Y-128795800D01*
X122511500Y-128795800D01*
X122511500Y-130422800D01*
G37*
G36*
X137522442Y-128623918D02*
G01*
X137588627Y-128630437D01*
X137758466Y-128681957D01*
X137914991Y-128765622D01*
X137950729Y-128794952D01*
X138052186Y-128878214D01*
X138135448Y-128979671D01*
X138164778Y-129015409D01*
X138248443Y-129171934D01*
X138299963Y-129341773D01*
X138317359Y-129518400D01*
X138299963Y-129695027D01*
X138248443Y-129864866D01*
X138164778Y-130021391D01*
X138149134Y-130040453D01*
X138052186Y-130158586D01*
X137950729Y-130241848D01*
X137914991Y-130271178D01*
X137758466Y-130354843D01*
X137588627Y-130406363D01*
X137522442Y-130412882D01*
X137456260Y-130419400D01*
X137117740Y-130419400D01*
X137051558Y-130412882D01*
X136985373Y-130406363D01*
X136815534Y-130354843D01*
X136659009Y-130271178D01*
X136623271Y-130241848D01*
X136521814Y-130158586D01*
X136424866Y-130040453D01*
X136409222Y-130021391D01*
X136325557Y-129864866D01*
X136274037Y-129695027D01*
X136256641Y-129518400D01*
X136274037Y-129341773D01*
X136325557Y-129171934D01*
X136409222Y-129015409D01*
X136438552Y-128979671D01*
X136521814Y-128878214D01*
X136623271Y-128794952D01*
X136659009Y-128765622D01*
X136815534Y-128681957D01*
X136985373Y-128630437D01*
X137051558Y-128623918D01*
X137117740Y-128617400D01*
X137456260Y-128617400D01*
X137522442Y-128623918D01*
G37*
G36*
X133762000Y-128908300D02*
G01*
X131160000Y-128908300D01*
X131160000Y-127606300D01*
X133762000Y-127606300D01*
X133762000Y-128908300D01*
G37*
G36*
X131809499Y-125957245D02*
G01*
X131846995Y-125968620D01*
X131881554Y-125987092D01*
X131911847Y-126011953D01*
X131936708Y-126042246D01*
X131955180Y-126076805D01*
X131966555Y-126114301D01*
X131971000Y-126159438D01*
X131971000Y-126898162D01*
X131966555Y-126943299D01*
X131955180Y-126980795D01*
X131936708Y-127015354D01*
X131911847Y-127045647D01*
X131881554Y-127070508D01*
X131846995Y-127088980D01*
X131809499Y-127100355D01*
X131764362Y-127104800D01*
X131125638Y-127104800D01*
X131080501Y-127100355D01*
X131043005Y-127088980D01*
X131008446Y-127070508D01*
X130978153Y-127045647D01*
X130953292Y-127015354D01*
X130934820Y-126980795D01*
X130923445Y-126943299D01*
X130919000Y-126898162D01*
X130919000Y-126159438D01*
X130923445Y-126114301D01*
X130934820Y-126076805D01*
X130953292Y-126042246D01*
X130978153Y-126011953D01*
X131008446Y-125987092D01*
X131043005Y-125968620D01*
X131080501Y-125957245D01*
X131125638Y-125952800D01*
X131764362Y-125952800D01*
X131809499Y-125957245D01*
G37*
G36*
X120839000Y-126795800D02*
G01*
X118937000Y-126795800D01*
X118937000Y-124193800D01*
X120839000Y-124193800D01*
X120839000Y-126795800D01*
G37*
G36*
X124796999Y-125132245D02*
G01*
X124834495Y-125143620D01*
X124869054Y-125162092D01*
X124899347Y-125186953D01*
X124924208Y-125217246D01*
X124942680Y-125251805D01*
X124954055Y-125289301D01*
X124958500Y-125334438D01*
X124958500Y-125973162D01*
X124954055Y-126018299D01*
X124942680Y-126055795D01*
X124924208Y-126090354D01*
X124899347Y-126120647D01*
X124869054Y-126145508D01*
X124834495Y-126163980D01*
X124796999Y-126175355D01*
X124751862Y-126179800D01*
X124013138Y-126179800D01*
X123968001Y-126175355D01*
X123930505Y-126163980D01*
X123895946Y-126145508D01*
X123865653Y-126120647D01*
X123840792Y-126090354D01*
X123822320Y-126055795D01*
X123810945Y-126018299D01*
X123806500Y-125973162D01*
X123806500Y-125334438D01*
X123810945Y-125289301D01*
X123822320Y-125251805D01*
X123840792Y-125217246D01*
X123865653Y-125186953D01*
X123895946Y-125162092D01*
X123930505Y-125143620D01*
X123968001Y-125132245D01*
X124013138Y-125127800D01*
X124751862Y-125127800D01*
X124796999Y-125132245D01*
G37*
G36*
X123046999Y-125132245D02*
G01*
X123084495Y-125143620D01*
X123119054Y-125162092D01*
X123149347Y-125186953D01*
X123174208Y-125217246D01*
X123192680Y-125251805D01*
X123204055Y-125289301D01*
X123208500Y-125334438D01*
X123208500Y-125973162D01*
X123204055Y-126018299D01*
X123192680Y-126055795D01*
X123174208Y-126090354D01*
X123149347Y-126120647D01*
X123119054Y-126145508D01*
X123084495Y-126163980D01*
X123046999Y-126175355D01*
X123001862Y-126179800D01*
X122263138Y-126179800D01*
X122218001Y-126175355D01*
X122180505Y-126163980D01*
X122145946Y-126145508D01*
X122115653Y-126120647D01*
X122090792Y-126090354D01*
X122072320Y-126055795D01*
X122060945Y-126018299D01*
X122056500Y-125973162D01*
X122056500Y-125334438D01*
X122060945Y-125289301D01*
X122072320Y-125251805D01*
X122090792Y-125217246D01*
X122115653Y-125186953D01*
X122145946Y-125162092D01*
X122180505Y-125143620D01*
X122218001Y-125132245D01*
X122263138Y-125127800D01*
X123001862Y-125127800D01*
X123046999Y-125132245D01*
G37*
G36*
X128353100Y-124375789D02*
G01*
X128386152Y-124385815D01*
X128416603Y-124402092D01*
X128443299Y-124424001D01*
X128465208Y-124450697D01*
X128481485Y-124481148D01*
X128491511Y-124514200D01*
X128495500Y-124554703D01*
X128495500Y-125990897D01*
X128491511Y-126031400D01*
X128481485Y-126064452D01*
X128465208Y-126094903D01*
X128443299Y-126121599D01*
X128416603Y-126143508D01*
X128386152Y-126159785D01*
X128353100Y-126169811D01*
X128312597Y-126173800D01*
X126576403Y-126173800D01*
X126535900Y-126169811D01*
X126502848Y-126159785D01*
X126472397Y-126143508D01*
X126445701Y-126121599D01*
X126423792Y-126094903D01*
X126407515Y-126064452D01*
X126397489Y-126031400D01*
X126393500Y-125990897D01*
X126393500Y-124554703D01*
X126397489Y-124514200D01*
X126407515Y-124481148D01*
X126423792Y-124450697D01*
X126445701Y-124424001D01*
X126472397Y-124402092D01*
X126502848Y-124385815D01*
X126535900Y-124375789D01*
X126576403Y-124371800D01*
X128312597Y-124371800D01*
X128353100Y-124375789D01*
G37*
G36*
X137077899Y-125106845D02*
G01*
X137115395Y-125118220D01*
X137149954Y-125136692D01*
X137180247Y-125161553D01*
X137205108Y-125191846D01*
X137223580Y-125226405D01*
X137234955Y-125263901D01*
X137239400Y-125309038D01*
X137239400Y-125947762D01*
X137234955Y-125992897D01*
X137223580Y-126030395D01*
X137205108Y-126064954D01*
X137180247Y-126095247D01*
X137149954Y-126120108D01*
X137115395Y-126138580D01*
X137077899Y-126149955D01*
X137032762Y-126154400D01*
X136294038Y-126154400D01*
X136248901Y-126149955D01*
X136211405Y-126138580D01*
X136176846Y-126120108D01*
X136146553Y-126095247D01*
X136121692Y-126064954D01*
X136103220Y-126030395D01*
X136091845Y-125992897D01*
X136087400Y-125947762D01*
X136087400Y-125309038D01*
X136091845Y-125263901D01*
X136103220Y-125226405D01*
X136121692Y-125191846D01*
X136146553Y-125161553D01*
X136176846Y-125136692D01*
X136211405Y-125118220D01*
X136248901Y-125106845D01*
X136294038Y-125102400D01*
X137032762Y-125102400D01*
X137077899Y-125106845D01*
G37*
G36*
X135327899Y-125106845D02*
G01*
X135365395Y-125118220D01*
X135399954Y-125136692D01*
X135430247Y-125161553D01*
X135455108Y-125191846D01*
X135473580Y-125226405D01*
X135484955Y-125263901D01*
X135489400Y-125309038D01*
X135489400Y-125947762D01*
X135484955Y-125992897D01*
X135473580Y-126030395D01*
X135455108Y-126064954D01*
X135430247Y-126095247D01*
X135399954Y-126120108D01*
X135365395Y-126138580D01*
X135327899Y-126149955D01*
X135282762Y-126154400D01*
X134544038Y-126154400D01*
X134498901Y-126149955D01*
X134461405Y-126138580D01*
X134426846Y-126120108D01*
X134396553Y-126095247D01*
X134371692Y-126064954D01*
X134353220Y-126030395D01*
X134341845Y-125992897D01*
X134337400Y-125947762D01*
X134337400Y-125309038D01*
X134341845Y-125263901D01*
X134353220Y-125226405D01*
X134371692Y-125191846D01*
X134396553Y-125161553D01*
X134426846Y-125136692D01*
X134461405Y-125118220D01*
X134498901Y-125106845D01*
X134544038Y-125102400D01*
X135282762Y-125102400D01*
X135327899Y-125106845D01*
G37*
G36*
X139861299Y-124992045D02*
G01*
X139898795Y-125003420D01*
X139933354Y-125021892D01*
X139963647Y-125046753D01*
X139988508Y-125077046D01*
X140006980Y-125111605D01*
X140018355Y-125149101D01*
X140022800Y-125194238D01*
X140022800Y-125932962D01*
X140018355Y-125978099D01*
X140006980Y-126015595D01*
X139988508Y-126050154D01*
X139963647Y-126080447D01*
X139933354Y-126105308D01*
X139898795Y-126123780D01*
X139861299Y-126135155D01*
X139816162Y-126139600D01*
X139177438Y-126139600D01*
X139132301Y-126135155D01*
X139094805Y-126123780D01*
X139060246Y-126105308D01*
X139029953Y-126080447D01*
X139005092Y-126050154D01*
X138986620Y-126015595D01*
X138975245Y-125978099D01*
X138970800Y-125932962D01*
X138970800Y-125194238D01*
X138975245Y-125149101D01*
X138986620Y-125111605D01*
X139005092Y-125077046D01*
X139029953Y-125046753D01*
X139060246Y-125021892D01*
X139094805Y-125003420D01*
X139132301Y-124992045D01*
X139177438Y-124987600D01*
X139816162Y-124987600D01*
X139861299Y-124992045D01*
G37*
G36*
X131809499Y-124207245D02*
G01*
X131846995Y-124218620D01*
X131881554Y-124237092D01*
X131911847Y-124261953D01*
X131936708Y-124292246D01*
X131955180Y-124326805D01*
X131966555Y-124364301D01*
X131971000Y-124409438D01*
X131971000Y-125148162D01*
X131966555Y-125193299D01*
X131955180Y-125230795D01*
X131936708Y-125265354D01*
X131911847Y-125295647D01*
X131881554Y-125320508D01*
X131846995Y-125338980D01*
X131809499Y-125350355D01*
X131764362Y-125354800D01*
X131125638Y-125354800D01*
X131080501Y-125350355D01*
X131043005Y-125338980D01*
X131008446Y-125320508D01*
X130978153Y-125295647D01*
X130953292Y-125265354D01*
X130934820Y-125230795D01*
X130923445Y-125193299D01*
X130919000Y-125148162D01*
X130919000Y-124409438D01*
X130923445Y-124364301D01*
X130934820Y-124326805D01*
X130953292Y-124292246D01*
X130978153Y-124261953D01*
X131008446Y-124237092D01*
X131043005Y-124218620D01*
X131080501Y-124207245D01*
X131125638Y-124202800D01*
X131764362Y-124202800D01*
X131809499Y-124207245D01*
G37*
G36*
X133993899Y-123391845D02*
G01*
X134031395Y-123403220D01*
X134065954Y-123421692D01*
X134096247Y-123446553D01*
X134121108Y-123476846D01*
X134139580Y-123511405D01*
X134150955Y-123548901D01*
X134155400Y-123594038D01*
X134155400Y-124332762D01*
X134150955Y-124377899D01*
X134139580Y-124415395D01*
X134121108Y-124449954D01*
X134096247Y-124480247D01*
X134065954Y-124505108D01*
X134031395Y-124523580D01*
X133993899Y-124534955D01*
X133948762Y-124539400D01*
X133310038Y-124539400D01*
X133264901Y-124534955D01*
X133227405Y-124523580D01*
X133192846Y-124505108D01*
X133162553Y-124480247D01*
X133137692Y-124449954D01*
X133119220Y-124415395D01*
X133107845Y-124377899D01*
X133103400Y-124332762D01*
X133103400Y-123594038D01*
X133107845Y-123548901D01*
X133119220Y-123511405D01*
X133137692Y-123476846D01*
X133162553Y-123446553D01*
X133192846Y-123421692D01*
X133227405Y-123403220D01*
X133264901Y-123391845D01*
X133310038Y-123387400D01*
X133948762Y-123387400D01*
X133993899Y-123391845D01*
G37*
G36*
X139861299Y-123242045D02*
G01*
X139898795Y-123253420D01*
X139933354Y-123271892D01*
X139963647Y-123296753D01*
X139988508Y-123327046D01*
X140006980Y-123361605D01*
X140018355Y-123399101D01*
X140022800Y-123444238D01*
X140022800Y-124182962D01*
X140018355Y-124228099D01*
X140006980Y-124265595D01*
X139988508Y-124300154D01*
X139963647Y-124330447D01*
X139933354Y-124355308D01*
X139898795Y-124373780D01*
X139861299Y-124385155D01*
X139816162Y-124389600D01*
X139177438Y-124389600D01*
X139132301Y-124385155D01*
X139094805Y-124373780D01*
X139060246Y-124355308D01*
X139029953Y-124330447D01*
X139005092Y-124300154D01*
X138986620Y-124265595D01*
X138975245Y-124228099D01*
X138970800Y-124182962D01*
X138970800Y-123444238D01*
X138975245Y-123399101D01*
X138986620Y-123361605D01*
X139005092Y-123327046D01*
X139029953Y-123296753D01*
X139060246Y-123271892D01*
X139094805Y-123253420D01*
X139132301Y-123242045D01*
X139177438Y-123237600D01*
X139816162Y-123237600D01*
X139861299Y-123242045D01*
G37*
G36*
X136546466Y-122331847D02*
G01*
X136562011Y-122350789D01*
X136580953Y-122366334D01*
X136602564Y-122377885D01*
X136626013Y-122384998D01*
X136650399Y-122387400D01*
X137575200Y-122387400D01*
X137575200Y-123789400D01*
X136650399Y-123789400D01*
X136626013Y-123791802D01*
X136602564Y-123798915D01*
X136580953Y-123810466D01*
X136562011Y-123826011D01*
X136546466Y-123844953D01*
X136544089Y-123849400D01*
X135794711Y-123849400D01*
X135792334Y-123844953D01*
X135776789Y-123826011D01*
X135757847Y-123810466D01*
X135736236Y-123798915D01*
X135712787Y-123791802D01*
X135688401Y-123789400D01*
X134763600Y-123789400D01*
X134763600Y-122387400D01*
X135688401Y-122387400D01*
X135712787Y-122384998D01*
X135736236Y-122377885D01*
X135757847Y-122366334D01*
X135776789Y-122350789D01*
X135792334Y-122331847D01*
X135794711Y-122327400D01*
X136544089Y-122327400D01*
X136546466Y-122331847D01*
G37*
G36*
X131809499Y-122528245D02*
G01*
X131846995Y-122539620D01*
X131881554Y-122558092D01*
X131911847Y-122582953D01*
X131936708Y-122613246D01*
X131955180Y-122647805D01*
X131966555Y-122685301D01*
X131971000Y-122730438D01*
X131971000Y-123469162D01*
X131966555Y-123514299D01*
X131955180Y-123551795D01*
X131936708Y-123586354D01*
X131911847Y-123616647D01*
X131881554Y-123641508D01*
X131846995Y-123659980D01*
X131809499Y-123671355D01*
X131764362Y-123675800D01*
X131125638Y-123675800D01*
X131080501Y-123671355D01*
X131043005Y-123659980D01*
X131008446Y-123641508D01*
X130978153Y-123616647D01*
X130953292Y-123586354D01*
X130934820Y-123551795D01*
X130923445Y-123514299D01*
X130919000Y-123469162D01*
X130919000Y-122730438D01*
X130923445Y-122685301D01*
X130934820Y-122647805D01*
X130953292Y-122613246D01*
X130978153Y-122582953D01*
X131008446Y-122558092D01*
X131043005Y-122539620D01*
X131080501Y-122528245D01*
X131125638Y-122523800D01*
X131764362Y-122523800D01*
X131809499Y-122528245D01*
G37*
G36*
X127704942Y-121878318D02*
G01*
X127771127Y-121884837D01*
X127940966Y-121936357D01*
X128097491Y-122020022D01*
X128133229Y-122049352D01*
X128234686Y-122132614D01*
X128302954Y-122215800D01*
X128347278Y-122269809D01*
X128430943Y-122426334D01*
X128482463Y-122596173D01*
X128499859Y-122772800D01*
X128482463Y-122949427D01*
X128430943Y-123119266D01*
X128347278Y-123275791D01*
X128336109Y-123289400D01*
X128234686Y-123412986D01*
X128166234Y-123469162D01*
X128097491Y-123525578D01*
X127940966Y-123609243D01*
X127771127Y-123660763D01*
X127704942Y-123667282D01*
X127638760Y-123673800D01*
X127250240Y-123673800D01*
X127184058Y-123667282D01*
X127117873Y-123660763D01*
X126948034Y-123609243D01*
X126791509Y-123525578D01*
X126722766Y-123469162D01*
X126654314Y-123412986D01*
X126552891Y-123289400D01*
X126541722Y-123275791D01*
X126458057Y-123119266D01*
X126406537Y-122949427D01*
X126389141Y-122772800D01*
X126406537Y-122596173D01*
X126458057Y-122426334D01*
X126541722Y-122269809D01*
X126586046Y-122215800D01*
X126654314Y-122132614D01*
X126755771Y-122049352D01*
X126791509Y-122020022D01*
X126948034Y-121936357D01*
X127117873Y-121884837D01*
X127184058Y-121878318D01*
X127250240Y-121871800D01*
X127638760Y-121871800D01*
X127704942Y-121878318D01*
G37*
G36*
X124945000Y-123117800D02*
G01*
X123943000Y-123117800D01*
X123943000Y-122215800D01*
X124945000Y-122215800D01*
X124945000Y-123117800D01*
G37*
G36*
X120839000Y-122795800D02*
G01*
X118937000Y-122795800D01*
X118937000Y-120193800D01*
X120839000Y-120193800D01*
X120839000Y-122795800D01*
G37*
G36*
X133993899Y-121641845D02*
G01*
X134031395Y-121653220D01*
X134065954Y-121671692D01*
X134096247Y-121696553D01*
X134121108Y-121726846D01*
X134139580Y-121761405D01*
X134150955Y-121798901D01*
X134155400Y-121844038D01*
X134155400Y-122582762D01*
X134150955Y-122627899D01*
X134139580Y-122665395D01*
X134121108Y-122699954D01*
X134096247Y-122730247D01*
X134065954Y-122755108D01*
X134031395Y-122773580D01*
X133993899Y-122784955D01*
X133948762Y-122789400D01*
X133310038Y-122789400D01*
X133264901Y-122784955D01*
X133227405Y-122773580D01*
X133192846Y-122755108D01*
X133162553Y-122730247D01*
X133137692Y-122699954D01*
X133119220Y-122665395D01*
X133107845Y-122627899D01*
X133103400Y-122582762D01*
X133103400Y-121844038D01*
X133107845Y-121798901D01*
X133119220Y-121761405D01*
X133137692Y-121726846D01*
X133162553Y-121696553D01*
X133192846Y-121671692D01*
X133227405Y-121653220D01*
X133264901Y-121641845D01*
X133310038Y-121637400D01*
X133948762Y-121637400D01*
X133993899Y-121641845D01*
G37*
G36*
X138985499Y-121474645D02*
G01*
X139022995Y-121486020D01*
X139057554Y-121504492D01*
X139087847Y-121529353D01*
X139112708Y-121559646D01*
X139131180Y-121594205D01*
X139142555Y-121631701D01*
X139147000Y-121676838D01*
X139147000Y-122315562D01*
X139142555Y-122360699D01*
X139131180Y-122398195D01*
X139112708Y-122432754D01*
X139087847Y-122463047D01*
X139057554Y-122487908D01*
X139022995Y-122506380D01*
X138985499Y-122517755D01*
X138940362Y-122522200D01*
X138201638Y-122522200D01*
X138156501Y-122517755D01*
X138119005Y-122506380D01*
X138084446Y-122487908D01*
X138054153Y-122463047D01*
X138029292Y-122432754D01*
X138010820Y-122398195D01*
X137999445Y-122360699D01*
X137995000Y-122315562D01*
X137995000Y-121676838D01*
X137999445Y-121631701D01*
X138010820Y-121594205D01*
X138029292Y-121559646D01*
X138054153Y-121529353D01*
X138084446Y-121504492D01*
X138119005Y-121486020D01*
X138156501Y-121474645D01*
X138201638Y-121470200D01*
X138940362Y-121470200D01*
X138985499Y-121474645D01*
G37*
G36*
X140735499Y-121474645D02*
G01*
X140772995Y-121486020D01*
X140807554Y-121504492D01*
X140837847Y-121529353D01*
X140862708Y-121559646D01*
X140881180Y-121594205D01*
X140892555Y-121631701D01*
X140897000Y-121676838D01*
X140897000Y-122315562D01*
X140892555Y-122360699D01*
X140881180Y-122398195D01*
X140862708Y-122432754D01*
X140837847Y-122463047D01*
X140807554Y-122487908D01*
X140772995Y-122506380D01*
X140735499Y-122517755D01*
X140690362Y-122522200D01*
X139951638Y-122522200D01*
X139906501Y-122517755D01*
X139869005Y-122506380D01*
X139834446Y-122487908D01*
X139804153Y-122463047D01*
X139779292Y-122432754D01*
X139760820Y-122398195D01*
X139749445Y-122360699D01*
X139745000Y-122315562D01*
X139745000Y-121676838D01*
X139749445Y-121631701D01*
X139760820Y-121594205D01*
X139779292Y-121559646D01*
X139804153Y-121529353D01*
X139834446Y-121504492D01*
X139869005Y-121486020D01*
X139906501Y-121474645D01*
X139951638Y-121470200D01*
X140690362Y-121470200D01*
X140735499Y-121474645D01*
G37*
G36*
X122945000Y-122167800D02*
G01*
X121943000Y-122167800D01*
X121943000Y-121265800D01*
X122945000Y-121265800D01*
X122945000Y-122167800D01*
G37*
G36*
X131809499Y-120778245D02*
G01*
X131846995Y-120789620D01*
X131881554Y-120808092D01*
X131911847Y-120832953D01*
X131936708Y-120863246D01*
X131955180Y-120897805D01*
X131966555Y-120935301D01*
X131971000Y-120980438D01*
X131971000Y-121719162D01*
X131966555Y-121764299D01*
X131955180Y-121801795D01*
X131936708Y-121836354D01*
X131911847Y-121866647D01*
X131881554Y-121891508D01*
X131846995Y-121909980D01*
X131809499Y-121921355D01*
X131764362Y-121925800D01*
X131125638Y-121925800D01*
X131080501Y-121921355D01*
X131043005Y-121909980D01*
X131008446Y-121891508D01*
X130978153Y-121866647D01*
X130953292Y-121836354D01*
X130934820Y-121801795D01*
X130923445Y-121764299D01*
X130919000Y-121719162D01*
X130919000Y-120980438D01*
X130923445Y-120935301D01*
X130934820Y-120897805D01*
X130953292Y-120863246D01*
X130978153Y-120832953D01*
X131008446Y-120808092D01*
X131043005Y-120789620D01*
X131080501Y-120778245D01*
X131125638Y-120773800D01*
X131764362Y-120773800D01*
X131809499Y-120778245D01*
G37*
G36*
X124945000Y-121217800D02*
G01*
X123943000Y-121217800D01*
X123943000Y-120315800D01*
X124945000Y-120315800D01*
X124945000Y-121217800D01*
G37*
G36*
X135645000Y-120361900D02*
G01*
X134643000Y-120361900D01*
X134643000Y-119459900D01*
X135645000Y-119459900D01*
X135645000Y-120361900D01*
G37*
G36*
X137645000Y-119411900D02*
G01*
X136643000Y-119411900D01*
X136643000Y-118509900D01*
X137645000Y-118509900D01*
X137645000Y-119411900D01*
G37*
G36*
X135645000Y-118461900D02*
G01*
X134643000Y-118461900D01*
X134643000Y-117559900D01*
X135645000Y-117559900D01*
X135645000Y-118461900D01*
G37*
G36*
X124780127Y-115687337D02*
G01*
X124949966Y-115738857D01*
X125106491Y-115822522D01*
X125142229Y-115851852D01*
X125243686Y-115935114D01*
X125307486Y-116012856D01*
X125356278Y-116072309D01*
X125439943Y-116228834D01*
X125491463Y-116398674D01*
X125504500Y-116531043D01*
X125504500Y-116869558D01*
X125491463Y-117001927D01*
X125439943Y-117171766D01*
X125356278Y-117328291D01*
X125326948Y-117364029D01*
X125243686Y-117465486D01*
X125106489Y-117578079D01*
X124949967Y-117661742D01*
X124949965Y-117661743D01*
X124780126Y-117713263D01*
X124603500Y-117730659D01*
X124426873Y-117713263D01*
X124257034Y-117661743D01*
X124100509Y-117578078D01*
X124058250Y-117543397D01*
X123963314Y-117465486D01*
X123850721Y-117328289D01*
X123767058Y-117171767D01*
X123767057Y-117171765D01*
X123715537Y-117001926D01*
X123702500Y-116869557D01*
X123702500Y-116531042D01*
X123715537Y-116398673D01*
X123767057Y-116228834D01*
X123850722Y-116072309D01*
X123963315Y-115935115D01*
X124100510Y-115822522D01*
X124257035Y-115738857D01*
X124426874Y-115687337D01*
X124603500Y-115669941D01*
X124780127Y-115687337D01*
G37*
G36*
X122280127Y-115687337D02*
G01*
X122449966Y-115738857D01*
X122606491Y-115822522D01*
X122642229Y-115851852D01*
X122743686Y-115935114D01*
X122807486Y-116012856D01*
X122856278Y-116072309D01*
X122939943Y-116228834D01*
X122991463Y-116398674D01*
X123004500Y-116531043D01*
X123004500Y-116869558D01*
X122991463Y-117001927D01*
X122939943Y-117171766D01*
X122856278Y-117328291D01*
X122826948Y-117364029D01*
X122743686Y-117465486D01*
X122606489Y-117578079D01*
X122449967Y-117661742D01*
X122449965Y-117661743D01*
X122280126Y-117713263D01*
X122103500Y-117730659D01*
X121926873Y-117713263D01*
X121757034Y-117661743D01*
X121600509Y-117578078D01*
X121558250Y-117543397D01*
X121463314Y-117465486D01*
X121350721Y-117328289D01*
X121267058Y-117171767D01*
X121267057Y-117171765D01*
X121215537Y-117001926D01*
X121202500Y-116869557D01*
X121202500Y-116531042D01*
X121215537Y-116398673D01*
X121267057Y-116228834D01*
X121350722Y-116072309D01*
X121463315Y-115935115D01*
X121600510Y-115822522D01*
X121757035Y-115738857D01*
X121926874Y-115687337D01*
X122103500Y-115669941D01*
X122280127Y-115687337D01*
G37*
G36*
X127280127Y-115687337D02*
G01*
X127449966Y-115738857D01*
X127606491Y-115822522D01*
X127642229Y-115851852D01*
X127743686Y-115935114D01*
X127807486Y-116012856D01*
X127856278Y-116072309D01*
X127939943Y-116228834D01*
X127991463Y-116398674D01*
X128004500Y-116531043D01*
X128004500Y-116869558D01*
X127991463Y-117001927D01*
X127939943Y-117171766D01*
X127856278Y-117328291D01*
X127826948Y-117364029D01*
X127743686Y-117465486D01*
X127606489Y-117578079D01*
X127449967Y-117661742D01*
X127449965Y-117661743D01*
X127280126Y-117713263D01*
X127103500Y-117730659D01*
X126926873Y-117713263D01*
X126757034Y-117661743D01*
X126600509Y-117578078D01*
X126558250Y-117543397D01*
X126463314Y-117465486D01*
X126350721Y-117328289D01*
X126267058Y-117171767D01*
X126267057Y-117171765D01*
X126215537Y-117001926D01*
X126202500Y-116869557D01*
X126202500Y-116531042D01*
X126215537Y-116398673D01*
X126267057Y-116228834D01*
X126350722Y-116072309D01*
X126463315Y-115935115D01*
X126600510Y-115822522D01*
X126757035Y-115738857D01*
X126926874Y-115687337D01*
X127103500Y-115669941D01*
X127280127Y-115687337D01*
G37*
G36*
X130362100Y-115678289D02*
G01*
X130395152Y-115688315D01*
X130425603Y-115704592D01*
X130452299Y-115726501D01*
X130474208Y-115753197D01*
X130490485Y-115783648D01*
X130500511Y-115816700D01*
X130504500Y-115857203D01*
X130504500Y-117543397D01*
X130500511Y-117583900D01*
X130490485Y-117616952D01*
X130474208Y-117647403D01*
X130452299Y-117674099D01*
X130425603Y-117696008D01*
X130395152Y-117712285D01*
X130362100Y-117722311D01*
X130321597Y-117726300D01*
X128885403Y-117726300D01*
X128844900Y-117722311D01*
X128811848Y-117712285D01*
X128781397Y-117696008D01*
X128754701Y-117674099D01*
X128732792Y-117647403D01*
X128716515Y-117616952D01*
X128706489Y-117583900D01*
X128702500Y-117543397D01*
X128702500Y-115857203D01*
X128706489Y-115816700D01*
X128716515Y-115783648D01*
X128732792Y-115753197D01*
X128754701Y-115726501D01*
X128781397Y-115704592D01*
X128811848Y-115688315D01*
X128844900Y-115678289D01*
X128885403Y-115674300D01*
X130321597Y-115674300D01*
X130362100Y-115678289D01*
G37*
G36*
X139877012Y-114318327D02*
G01*
X140026312Y-114348024D01*
X140190284Y-114415944D01*
X140337854Y-114514547D01*
X140463353Y-114640046D01*
X140561956Y-114787616D01*
X140629876Y-114951588D01*
X140664500Y-115125659D01*
X140664500Y-115303141D01*
X140629876Y-115477212D01*
X140561956Y-115641184D01*
X140463353Y-115788754D01*
X140337854Y-115914253D01*
X140190284Y-116012856D01*
X140026312Y-116080776D01*
X139877012Y-116110473D01*
X139852242Y-116115400D01*
X139674758Y-116115400D01*
X139649988Y-116110473D01*
X139500688Y-116080776D01*
X139336716Y-116012856D01*
X139189146Y-115914253D01*
X139063647Y-115788754D01*
X138965044Y-115641184D01*
X138897124Y-115477212D01*
X138862500Y-115303141D01*
X138862500Y-115125659D01*
X138897124Y-114951588D01*
X138965044Y-114787616D01*
X139063647Y-114640046D01*
X139189146Y-114514547D01*
X139336716Y-114415944D01*
X139500688Y-114348024D01*
X139649988Y-114318327D01*
X139674758Y-114313400D01*
X139852242Y-114313400D01*
X139877012Y-114318327D01*
G37*
G36*
X137337012Y-114318327D02*
G01*
X137486312Y-114348024D01*
X137650284Y-114415944D01*
X137797854Y-114514547D01*
X137923353Y-114640046D01*
X138021956Y-114787616D01*
X138089876Y-114951588D01*
X138124500Y-115125659D01*
X138124500Y-115303141D01*
X138089876Y-115477212D01*
X138021956Y-115641184D01*
X137923353Y-115788754D01*
X137797854Y-115914253D01*
X137650284Y-116012856D01*
X137486312Y-116080776D01*
X137337012Y-116110473D01*
X137312242Y-116115400D01*
X137134758Y-116115400D01*
X137109988Y-116110473D01*
X136960688Y-116080776D01*
X136796716Y-116012856D01*
X136649146Y-115914253D01*
X136523647Y-115788754D01*
X136425044Y-115641184D01*
X136357124Y-115477212D01*
X136322500Y-115303141D01*
X136322500Y-115125659D01*
X136357124Y-114951588D01*
X136425044Y-114787616D01*
X136523647Y-114640046D01*
X136649146Y-114514547D01*
X136796716Y-114415944D01*
X136960688Y-114348024D01*
X137109988Y-114318327D01*
X137134758Y-114313400D01*
X137312242Y-114313400D01*
X137337012Y-114318327D01*
G37*
G36*
X135584500Y-116115400D02*
G01*
X133782500Y-116115400D01*
X133782500Y-114313400D01*
X135584500Y-114313400D01*
X135584500Y-116115400D01*
G37*
G36*
X121644919Y-112521145D02*
G01*
X121682415Y-112532520D01*
X121716974Y-112550992D01*
X121747267Y-112575853D01*
X121772128Y-112606146D01*
X121790600Y-112640705D01*
X121801975Y-112678201D01*
X121806420Y-112723338D01*
X121806420Y-113362062D01*
X121801975Y-113407199D01*
X121790600Y-113444695D01*
X121772128Y-113479254D01*
X121747267Y-113509547D01*
X121716974Y-113534408D01*
X121682415Y-113552880D01*
X121644919Y-113564255D01*
X121599782Y-113568700D01*
X120861058Y-113568700D01*
X120815921Y-113564255D01*
X120778425Y-113552880D01*
X120743866Y-113534408D01*
X120713573Y-113509547D01*
X120688712Y-113479254D01*
X120670240Y-113444695D01*
X120658865Y-113407199D01*
X120654420Y-113362062D01*
X120654420Y-112723338D01*
X120658865Y-112678201D01*
X120670240Y-112640705D01*
X120688712Y-112606146D01*
X120713573Y-112575853D01*
X120743866Y-112550992D01*
X120778425Y-112532520D01*
X120815921Y-112521145D01*
X120861058Y-112516700D01*
X121599782Y-112516700D01*
X121644919Y-112521145D01*
G37*
G36*
X123394919Y-112521145D02*
G01*
X123432415Y-112532520D01*
X123466974Y-112550992D01*
X123497267Y-112575853D01*
X123522128Y-112606146D01*
X123540600Y-112640705D01*
X123551975Y-112678201D01*
X123556420Y-112723338D01*
X123556420Y-113362062D01*
X123551975Y-113407199D01*
X123540600Y-113444695D01*
X123522128Y-113479254D01*
X123497267Y-113509547D01*
X123466974Y-113534408D01*
X123432415Y-113552880D01*
X123394919Y-113564255D01*
X123349782Y-113568700D01*
X122611058Y-113568700D01*
X122565921Y-113564255D01*
X122528425Y-113552880D01*
X122493866Y-113534408D01*
X122463573Y-113509547D01*
X122438712Y-113479254D01*
X122420240Y-113444695D01*
X122408865Y-113407199D01*
X122404420Y-113362062D01*
X122404420Y-112723338D01*
X122408865Y-112678201D01*
X122420240Y-112640705D01*
X122438712Y-112606146D01*
X122463573Y-112575853D01*
X122493866Y-112550992D01*
X122528425Y-112532520D01*
X122565921Y-112521145D01*
X122611058Y-112516700D01*
X123349782Y-112516700D01*
X123394919Y-112521145D01*
G37*
G36*
X125099319Y-112495745D02*
G01*
X125136815Y-112507120D01*
X125171374Y-112525592D01*
X125201667Y-112550453D01*
X125226528Y-112580746D01*
X125245000Y-112615305D01*
X125256375Y-112652801D01*
X125260820Y-112697938D01*
X125260820Y-113336662D01*
X125256375Y-113381799D01*
X125245000Y-113419295D01*
X125226528Y-113453854D01*
X125201667Y-113484147D01*
X125171374Y-113509008D01*
X125136815Y-113527480D01*
X125099319Y-113538855D01*
X125054182Y-113543300D01*
X124315458Y-113543300D01*
X124270321Y-113538855D01*
X124232825Y-113527480D01*
X124198266Y-113509008D01*
X124167973Y-113484147D01*
X124143112Y-113453854D01*
X124124640Y-113419295D01*
X124113265Y-113381799D01*
X124108820Y-113336662D01*
X124108820Y-112697938D01*
X124113265Y-112652801D01*
X124124640Y-112615305D01*
X124143112Y-112580746D01*
X124167973Y-112550453D01*
X124198266Y-112525592D01*
X124232825Y-112507120D01*
X124270321Y-112495745D01*
X124315458Y-112491300D01*
X125054182Y-112491300D01*
X125099319Y-112495745D01*
G37*
G36*
X126849319Y-112495745D02*
G01*
X126886815Y-112507120D01*
X126921374Y-112525592D01*
X126951667Y-112550453D01*
X126976528Y-112580746D01*
X126995000Y-112615305D01*
X127006375Y-112652801D01*
X127010820Y-112697938D01*
X127010820Y-113336662D01*
X127006375Y-113381799D01*
X126995000Y-113419295D01*
X126976528Y-113453854D01*
X126951667Y-113484147D01*
X126921374Y-113509008D01*
X126886815Y-113527480D01*
X126849319Y-113538855D01*
X126804182Y-113543300D01*
X126065458Y-113543300D01*
X126020321Y-113538855D01*
X125982825Y-113527480D01*
X125948266Y-113509008D01*
X125917973Y-113484147D01*
X125893112Y-113453854D01*
X125874640Y-113419295D01*
X125863265Y-113381799D01*
X125858820Y-113336662D01*
X125858820Y-112697938D01*
X125863265Y-112652801D01*
X125874640Y-112615305D01*
X125893112Y-112580746D01*
X125917973Y-112550453D01*
X125948266Y-112525592D01*
X125982825Y-112507120D01*
X126020321Y-112495745D01*
X126065458Y-112491300D01*
X126804182Y-112491300D01*
X126849319Y-112495745D01*
G37*
G36*
X123394919Y-110997145D02*
G01*
X123432415Y-111008520D01*
X123466974Y-111026992D01*
X123497267Y-111051853D01*
X123522128Y-111082146D01*
X123540600Y-111116705D01*
X123551975Y-111154201D01*
X123556420Y-111199338D01*
X123556420Y-111838062D01*
X123551975Y-111883199D01*
X123540600Y-111920695D01*
X123522128Y-111955254D01*
X123497267Y-111985547D01*
X123466974Y-112010408D01*
X123432415Y-112028880D01*
X123394919Y-112040255D01*
X123349782Y-112044700D01*
X122611058Y-112044700D01*
X122565921Y-112040255D01*
X122528425Y-112028880D01*
X122493866Y-112010408D01*
X122463573Y-111985547D01*
X122438712Y-111955254D01*
X122420240Y-111920695D01*
X122408865Y-111883199D01*
X122404420Y-111838062D01*
X122404420Y-111199338D01*
X122408865Y-111154201D01*
X122420240Y-111116705D01*
X122438712Y-111082146D01*
X122463573Y-111051853D01*
X122493866Y-111026992D01*
X122528425Y-111008520D01*
X122565921Y-110997145D01*
X122611058Y-110992700D01*
X123349782Y-110992700D01*
X123394919Y-110997145D01*
G37*
G36*
X121644919Y-110997145D02*
G01*
X121682415Y-111008520D01*
X121716974Y-111026992D01*
X121747267Y-111051853D01*
X121772128Y-111082146D01*
X121790600Y-111116705D01*
X121801975Y-111154201D01*
X121806420Y-111199338D01*
X121806420Y-111838062D01*
X121801975Y-111883199D01*
X121790600Y-111920695D01*
X121772128Y-111955254D01*
X121747267Y-111985547D01*
X121716974Y-112010408D01*
X121682415Y-112028880D01*
X121644919Y-112040255D01*
X121599782Y-112044700D01*
X120861058Y-112044700D01*
X120815921Y-112040255D01*
X120778425Y-112028880D01*
X120743866Y-112010408D01*
X120713573Y-111985547D01*
X120688712Y-111955254D01*
X120670240Y-111920695D01*
X120658865Y-111883199D01*
X120654420Y-111838062D01*
X120654420Y-111199338D01*
X120658865Y-111154201D01*
X120670240Y-111116705D01*
X120688712Y-111082146D01*
X120713573Y-111051853D01*
X120743866Y-111026992D01*
X120778425Y-111008520D01*
X120815921Y-110997145D01*
X120861058Y-110992700D01*
X121599782Y-110992700D01*
X121644919Y-110997145D01*
G37*
G36*
X126849319Y-110971745D02*
G01*
X126886815Y-110983120D01*
X126921374Y-111001592D01*
X126951667Y-111026453D01*
X126976528Y-111056746D01*
X126995000Y-111091305D01*
X127006375Y-111128801D01*
X127010820Y-111173938D01*
X127010820Y-111812662D01*
X127006375Y-111857799D01*
X126995000Y-111895295D01*
X126976528Y-111929854D01*
X126951667Y-111960147D01*
X126921374Y-111985008D01*
X126886815Y-112003480D01*
X126849319Y-112014855D01*
X126804182Y-112019300D01*
X126065458Y-112019300D01*
X126020321Y-112014855D01*
X125982825Y-112003480D01*
X125948266Y-111985008D01*
X125917973Y-111960147D01*
X125893112Y-111929854D01*
X125874640Y-111895295D01*
X125863265Y-111857799D01*
X125858820Y-111812662D01*
X125858820Y-111173938D01*
X125863265Y-111128801D01*
X125874640Y-111091305D01*
X125893112Y-111056746D01*
X125917973Y-111026453D01*
X125948266Y-111001592D01*
X125982825Y-110983120D01*
X126020321Y-110971745D01*
X126065458Y-110967300D01*
X126804182Y-110967300D01*
X126849319Y-110971745D01*
G37*
G36*
X125099319Y-110971745D02*
G01*
X125136815Y-110983120D01*
X125171374Y-111001592D01*
X125201667Y-111026453D01*
X125226528Y-111056746D01*
X125245000Y-111091305D01*
X125256375Y-111128801D01*
X125260820Y-111173938D01*
X125260820Y-111812662D01*
X125256375Y-111857799D01*
X125245000Y-111895295D01*
X125226528Y-111929854D01*
X125201667Y-111960147D01*
X125171374Y-111985008D01*
X125136815Y-112003480D01*
X125099319Y-112014855D01*
X125054182Y-112019300D01*
X124315458Y-112019300D01*
X124270321Y-112014855D01*
X124232825Y-112003480D01*
X124198266Y-111985008D01*
X124167973Y-111960147D01*
X124143112Y-111929854D01*
X124124640Y-111895295D01*
X124113265Y-111857799D01*
X124108820Y-111812662D01*
X124108820Y-111173938D01*
X124113265Y-111128801D01*
X124124640Y-111091305D01*
X124143112Y-111056746D01*
X124167973Y-111026453D01*
X124198266Y-111001592D01*
X124232825Y-110983120D01*
X124270321Y-110971745D01*
X124315458Y-110967300D01*
X125054182Y-110967300D01*
X125099319Y-110971745D01*
G37*
G36*
X136559299Y-110600405D02*
G01*
X136596795Y-110611780D01*
X136631354Y-110630252D01*
X136661647Y-110655113D01*
X136686508Y-110685406D01*
X136704980Y-110719965D01*
X136716355Y-110757461D01*
X136720800Y-110802598D01*
X136720800Y-111541322D01*
X136716355Y-111586459D01*
X136704980Y-111623955D01*
X136686508Y-111658514D01*
X136661647Y-111688807D01*
X136631354Y-111713668D01*
X136596795Y-111732140D01*
X136559299Y-111743515D01*
X136514162Y-111747960D01*
X135875438Y-111747960D01*
X135830301Y-111743515D01*
X135792805Y-111732140D01*
X135758246Y-111713668D01*
X135727953Y-111688807D01*
X135703092Y-111658514D01*
X135684620Y-111623955D01*
X135673245Y-111586459D01*
X135668800Y-111541322D01*
X135668800Y-110802598D01*
X135673245Y-110757461D01*
X135684620Y-110719965D01*
X135703092Y-110685406D01*
X135727953Y-110655113D01*
X135758246Y-110630252D01*
X135792805Y-110611780D01*
X135830301Y-110600405D01*
X135875438Y-110595960D01*
X136514162Y-110595960D01*
X136559299Y-110600405D01*
G37*
G36*
X140011643Y-108604319D02*
G01*
X140077827Y-108610837D01*
X140247666Y-108662357D01*
X140404191Y-108746022D01*
X140439929Y-108775352D01*
X140541386Y-108858614D01*
X140624648Y-108960071D01*
X140653978Y-108995809D01*
X140737643Y-109152334D01*
X140789163Y-109322173D01*
X140806559Y-109498800D01*
X140789163Y-109675427D01*
X140737643Y-109845266D01*
X140737642Y-109845268D01*
X140728480Y-109862408D01*
X140653978Y-110001791D01*
X140624648Y-110037529D01*
X140541386Y-110138986D01*
X140439929Y-110222248D01*
X140404191Y-110251578D01*
X140247666Y-110335243D01*
X140077827Y-110386763D01*
X140011642Y-110393282D01*
X139945460Y-110399800D01*
X139606940Y-110399800D01*
X139540758Y-110393282D01*
X139474573Y-110386763D01*
X139304734Y-110335243D01*
X139148209Y-110251578D01*
X139112471Y-110222248D01*
X139011014Y-110138986D01*
X138927752Y-110037529D01*
X138898422Y-110001791D01*
X138823920Y-109862408D01*
X138814758Y-109845268D01*
X138814757Y-109845266D01*
X138763237Y-109675427D01*
X138745841Y-109498800D01*
X138763237Y-109322173D01*
X138814757Y-109152334D01*
X138898422Y-108995809D01*
X138927752Y-108960071D01*
X139011014Y-108858614D01*
X139112471Y-108775352D01*
X139148209Y-108746022D01*
X139304734Y-108662357D01*
X139474573Y-108610837D01*
X139540757Y-108604319D01*
X139606940Y-108597800D01*
X139945460Y-108597800D01*
X140011643Y-108604319D01*
G37*
G36*
X136559299Y-108850405D02*
G01*
X136596795Y-108861780D01*
X136631354Y-108880252D01*
X136661647Y-108905113D01*
X136686508Y-108935406D01*
X136704980Y-108969965D01*
X136716355Y-109007461D01*
X136720800Y-109052598D01*
X136720800Y-109791322D01*
X136716355Y-109836459D01*
X136704980Y-109873955D01*
X136686508Y-109908514D01*
X136661647Y-109938807D01*
X136631354Y-109963668D01*
X136596795Y-109982140D01*
X136559299Y-109993515D01*
X136514162Y-109997960D01*
X135875438Y-109997960D01*
X135830301Y-109993515D01*
X135792805Y-109982140D01*
X135758246Y-109963668D01*
X135727953Y-109938807D01*
X135703092Y-109908514D01*
X135684620Y-109873955D01*
X135673245Y-109836459D01*
X135668800Y-109791322D01*
X135668800Y-109052598D01*
X135673245Y-109007461D01*
X135684620Y-108969965D01*
X135703092Y-108935406D01*
X135727953Y-108905113D01*
X135758246Y-108880252D01*
X135792805Y-108861780D01*
X135830301Y-108850405D01*
X135875438Y-108845960D01*
X136514162Y-108845960D01*
X136559299Y-108850405D01*
G37*
G36*
X125814351Y-108265584D02*
G01*
X125830743Y-108270557D01*
X125845855Y-108278634D01*
X125859098Y-108289502D01*
X125869967Y-108302747D01*
X125874061Y-108310406D01*
X125887674Y-108330780D01*
X125905001Y-108348107D01*
X125925376Y-108361721D01*
X125948014Y-108371098D01*
X125972048Y-108375879D01*
X125996552Y-108375879D01*
X126020585Y-108371099D01*
X126043224Y-108361721D01*
X126063598Y-108348108D01*
X126080925Y-108330781D01*
X126094539Y-108310406D01*
X126098633Y-108302747D01*
X126109502Y-108289502D01*
X126122745Y-108278634D01*
X126137857Y-108270557D01*
X126154249Y-108265584D01*
X126177441Y-108263300D01*
X126591159Y-108263300D01*
X126614351Y-108265584D01*
X126630743Y-108270557D01*
X126645855Y-108278634D01*
X126659098Y-108289502D01*
X126669967Y-108302747D01*
X126674061Y-108310406D01*
X126687674Y-108330780D01*
X126705001Y-108348107D01*
X126725376Y-108361721D01*
X126748014Y-108371098D01*
X126772048Y-108375879D01*
X126796552Y-108375879D01*
X126820585Y-108371099D01*
X126843224Y-108361721D01*
X126863598Y-108348108D01*
X126880925Y-108330781D01*
X126894539Y-108310406D01*
X126898633Y-108302747D01*
X126909502Y-108289502D01*
X126922745Y-108278634D01*
X126937857Y-108270557D01*
X126954249Y-108265584D01*
X126977441Y-108263300D01*
X127391159Y-108263300D01*
X127414351Y-108265584D01*
X127430743Y-108270557D01*
X127445855Y-108278634D01*
X127459098Y-108289502D01*
X127469967Y-108302747D01*
X127474061Y-108310406D01*
X127487674Y-108330780D01*
X127505001Y-108348107D01*
X127525376Y-108361721D01*
X127548014Y-108371098D01*
X127572048Y-108375879D01*
X127596552Y-108375879D01*
X127620585Y-108371099D01*
X127643224Y-108361721D01*
X127663598Y-108348108D01*
X127680925Y-108330781D01*
X127694539Y-108310406D01*
X127698633Y-108302747D01*
X127709502Y-108289502D01*
X127722745Y-108278634D01*
X127737857Y-108270557D01*
X127754249Y-108265584D01*
X127777441Y-108263300D01*
X128191159Y-108263300D01*
X128214351Y-108265584D01*
X128230743Y-108270557D01*
X128245855Y-108278634D01*
X128259098Y-108289502D01*
X128269967Y-108302747D01*
X128274061Y-108310406D01*
X128287674Y-108330780D01*
X128305001Y-108348107D01*
X128325376Y-108361721D01*
X128348014Y-108371098D01*
X128372048Y-108375879D01*
X128396552Y-108375879D01*
X128420585Y-108371099D01*
X128443224Y-108361721D01*
X128463598Y-108348108D01*
X128480925Y-108330781D01*
X128494539Y-108310406D01*
X128498633Y-108302747D01*
X128509502Y-108289502D01*
X128522745Y-108278634D01*
X128537857Y-108270557D01*
X128554249Y-108265584D01*
X128577441Y-108263300D01*
X128991159Y-108263300D01*
X129014351Y-108265584D01*
X129030743Y-108270557D01*
X129045855Y-108278634D01*
X129059098Y-108289502D01*
X129069967Y-108302747D01*
X129074061Y-108310406D01*
X129087674Y-108330780D01*
X129105001Y-108348107D01*
X129125376Y-108361721D01*
X129148014Y-108371098D01*
X129172048Y-108375879D01*
X129196552Y-108375879D01*
X129220585Y-108371099D01*
X129243224Y-108361721D01*
X129263598Y-108348108D01*
X129280925Y-108330781D01*
X129294539Y-108310406D01*
X129298633Y-108302747D01*
X129309502Y-108289502D01*
X129322745Y-108278634D01*
X129337857Y-108270557D01*
X129354249Y-108265584D01*
X129377441Y-108263300D01*
X129791159Y-108263300D01*
X129814351Y-108265584D01*
X129830743Y-108270557D01*
X129845855Y-108278634D01*
X129859098Y-108289502D01*
X129869967Y-108302747D01*
X129874061Y-108310406D01*
X129887674Y-108330780D01*
X129905001Y-108348107D01*
X129925376Y-108361721D01*
X129948014Y-108371098D01*
X129972048Y-108375879D01*
X129996552Y-108375879D01*
X130020585Y-108371099D01*
X130043224Y-108361721D01*
X130063598Y-108348108D01*
X130080925Y-108330781D01*
X130094539Y-108310406D01*
X130098633Y-108302747D01*
X130109502Y-108289502D01*
X130122745Y-108278634D01*
X130137857Y-108270557D01*
X130154249Y-108265584D01*
X130177441Y-108263300D01*
X130591159Y-108263300D01*
X130614351Y-108265584D01*
X130630743Y-108270557D01*
X130645855Y-108278634D01*
X130659098Y-108289502D01*
X130669967Y-108302747D01*
X130674061Y-108310406D01*
X130687674Y-108330780D01*
X130705001Y-108348107D01*
X130725376Y-108361721D01*
X130748014Y-108371098D01*
X130772048Y-108375879D01*
X130796552Y-108375879D01*
X130820585Y-108371099D01*
X130843224Y-108361721D01*
X130863598Y-108348108D01*
X130880925Y-108330781D01*
X130894539Y-108310406D01*
X130898633Y-108302747D01*
X130909502Y-108289502D01*
X130922745Y-108278634D01*
X130937857Y-108270557D01*
X130954249Y-108265584D01*
X130977441Y-108263300D01*
X131391159Y-108263300D01*
X131414351Y-108265584D01*
X131430743Y-108270557D01*
X131445855Y-108278634D01*
X131459098Y-108289502D01*
X131469966Y-108302745D01*
X131478043Y-108317857D01*
X131483016Y-108334249D01*
X131485300Y-108357441D01*
X131485300Y-109771159D01*
X131483016Y-109794351D01*
X131478043Y-109810743D01*
X131469966Y-109825855D01*
X131459098Y-109839098D01*
X131445855Y-109849966D01*
X131430743Y-109858043D01*
X131414351Y-109863016D01*
X131391159Y-109865300D01*
X130977441Y-109865300D01*
X130954249Y-109863016D01*
X130937857Y-109858043D01*
X130922745Y-109849966D01*
X130909502Y-109839098D01*
X130898633Y-109825853D01*
X130894539Y-109818194D01*
X130880926Y-109797820D01*
X130863599Y-109780493D01*
X130843224Y-109766879D01*
X130820586Y-109757502D01*
X130796552Y-109752721D01*
X130772048Y-109752721D01*
X130748015Y-109757501D01*
X130725376Y-109766879D01*
X130705002Y-109780492D01*
X130687675Y-109797819D01*
X130674061Y-109818194D01*
X130669967Y-109825853D01*
X130659098Y-109839098D01*
X130645855Y-109849966D01*
X130630743Y-109858043D01*
X130614351Y-109863016D01*
X130591159Y-109865300D01*
X130177441Y-109865300D01*
X130154249Y-109863016D01*
X130137857Y-109858043D01*
X130122745Y-109849966D01*
X130109502Y-109839098D01*
X130098633Y-109825853D01*
X130094539Y-109818194D01*
X130080926Y-109797820D01*
X130063599Y-109780493D01*
X130043224Y-109766879D01*
X130020586Y-109757502D01*
X129996552Y-109752721D01*
X129972048Y-109752721D01*
X129948015Y-109757501D01*
X129925376Y-109766879D01*
X129905002Y-109780492D01*
X129887675Y-109797819D01*
X129874061Y-109818194D01*
X129869967Y-109825853D01*
X129859098Y-109839098D01*
X129845855Y-109849966D01*
X129830743Y-109858043D01*
X129814351Y-109863016D01*
X129791159Y-109865300D01*
X129377441Y-109865300D01*
X129354249Y-109863016D01*
X129337857Y-109858043D01*
X129322745Y-109849966D01*
X129309502Y-109839098D01*
X129298633Y-109825853D01*
X129294539Y-109818194D01*
X129280926Y-109797820D01*
X129263599Y-109780493D01*
X129243224Y-109766879D01*
X129220586Y-109757502D01*
X129196552Y-109752721D01*
X129172048Y-109752721D01*
X129148015Y-109757501D01*
X129125376Y-109766879D01*
X129105002Y-109780492D01*
X129087675Y-109797819D01*
X129074061Y-109818194D01*
X129069967Y-109825853D01*
X129059098Y-109839098D01*
X129045855Y-109849966D01*
X129030743Y-109858043D01*
X129014351Y-109863016D01*
X128991159Y-109865300D01*
X128577441Y-109865300D01*
X128554249Y-109863016D01*
X128537857Y-109858043D01*
X128522745Y-109849966D01*
X128509502Y-109839098D01*
X128498633Y-109825853D01*
X128494539Y-109818194D01*
X128480926Y-109797820D01*
X128463599Y-109780493D01*
X128443224Y-109766879D01*
X128420586Y-109757502D01*
X128396552Y-109752721D01*
X128372048Y-109752721D01*
X128348015Y-109757501D01*
X128325376Y-109766879D01*
X128305002Y-109780492D01*
X128287675Y-109797819D01*
X128274061Y-109818194D01*
X128269967Y-109825853D01*
X128259098Y-109839098D01*
X128245855Y-109849966D01*
X128230743Y-109858043D01*
X128214351Y-109863016D01*
X128191159Y-109865300D01*
X127777441Y-109865300D01*
X127754249Y-109863016D01*
X127737857Y-109858043D01*
X127722745Y-109849966D01*
X127709502Y-109839098D01*
X127698633Y-109825853D01*
X127694539Y-109818194D01*
X127680926Y-109797820D01*
X127663599Y-109780493D01*
X127643224Y-109766879D01*
X127620586Y-109757502D01*
X127596552Y-109752721D01*
X127572048Y-109752721D01*
X127548015Y-109757501D01*
X127525376Y-109766879D01*
X127505002Y-109780492D01*
X127487675Y-109797819D01*
X127474061Y-109818194D01*
X127469967Y-109825853D01*
X127459098Y-109839098D01*
X127445855Y-109849966D01*
X127430743Y-109858043D01*
X127414351Y-109863016D01*
X127391159Y-109865300D01*
X126977441Y-109865300D01*
X126954249Y-109863016D01*
X126937857Y-109858043D01*
X126922745Y-109849966D01*
X126909502Y-109839098D01*
X126898633Y-109825853D01*
X126894539Y-109818194D01*
X126880926Y-109797820D01*
X126863599Y-109780493D01*
X126843224Y-109766879D01*
X126820586Y-109757502D01*
X126796552Y-109752721D01*
X126772048Y-109752721D01*
X126748015Y-109757501D01*
X126725376Y-109766879D01*
X126705002Y-109780492D01*
X126687675Y-109797819D01*
X126674061Y-109818194D01*
X126669967Y-109825853D01*
X126659098Y-109839098D01*
X126645855Y-109849966D01*
X126630743Y-109858043D01*
X126614351Y-109863016D01*
X126591159Y-109865300D01*
X126177441Y-109865300D01*
X126154249Y-109863016D01*
X126137857Y-109858043D01*
X126122745Y-109849966D01*
X126109502Y-109839098D01*
X126098633Y-109825853D01*
X126094539Y-109818194D01*
X126080926Y-109797820D01*
X126063599Y-109780493D01*
X126043224Y-109766879D01*
X126020586Y-109757502D01*
X125996552Y-109752721D01*
X125972048Y-109752721D01*
X125948015Y-109757501D01*
X125925376Y-109766879D01*
X125905002Y-109780492D01*
X125887675Y-109797819D01*
X125874061Y-109818194D01*
X125869967Y-109825853D01*
X125859098Y-109839098D01*
X125845855Y-109849966D01*
X125830743Y-109858043D01*
X125814351Y-109863016D01*
X125791159Y-109865300D01*
X125377441Y-109865300D01*
X125354249Y-109863016D01*
X125337857Y-109858043D01*
X125322745Y-109849966D01*
X125309502Y-109839098D01*
X125298634Y-109825855D01*
X125290557Y-109810743D01*
X125285584Y-109794351D01*
X125283300Y-109771159D01*
X125283300Y-108357441D01*
X125285584Y-108334249D01*
X125290557Y-108317857D01*
X125298634Y-108302745D01*
X125309502Y-108289502D01*
X125322745Y-108278634D01*
X125337857Y-108270557D01*
X125354249Y-108265584D01*
X125377441Y-108263300D01*
X125791159Y-108263300D01*
X125814351Y-108265584D01*
G37*
G36*
X121035259Y-108723845D02*
G01*
X121072755Y-108735220D01*
X121107314Y-108753692D01*
X121137607Y-108778553D01*
X121162468Y-108808846D01*
X121180940Y-108843405D01*
X121192315Y-108880901D01*
X121196760Y-108926038D01*
X121196760Y-109564762D01*
X121192315Y-109609899D01*
X121180940Y-109647395D01*
X121162468Y-109681954D01*
X121137607Y-109712247D01*
X121107314Y-109737108D01*
X121072755Y-109755580D01*
X121035259Y-109766955D01*
X120990122Y-109771400D01*
X120251398Y-109771400D01*
X120206261Y-109766955D01*
X120168765Y-109755580D01*
X120134206Y-109737108D01*
X120103913Y-109712247D01*
X120079052Y-109681954D01*
X120060580Y-109647395D01*
X120049205Y-109609899D01*
X120044760Y-109564762D01*
X120044760Y-108926038D01*
X120049205Y-108880901D01*
X120060580Y-108843405D01*
X120079052Y-108808846D01*
X120103913Y-108778553D01*
X120134206Y-108753692D01*
X120168765Y-108735220D01*
X120206261Y-108723845D01*
X120251398Y-108719400D01*
X120990122Y-108719400D01*
X121035259Y-108723845D01*
G37*
G36*
X119285259Y-108723845D02*
G01*
X119322755Y-108735220D01*
X119357314Y-108753692D01*
X119387607Y-108778553D01*
X119412468Y-108808846D01*
X119430940Y-108843405D01*
X119442315Y-108880901D01*
X119446760Y-108926038D01*
X119446760Y-109564762D01*
X119442315Y-109609899D01*
X119430940Y-109647395D01*
X119412468Y-109681954D01*
X119387607Y-109712247D01*
X119357314Y-109737108D01*
X119322755Y-109755580D01*
X119285259Y-109766955D01*
X119240122Y-109771400D01*
X118501398Y-109771400D01*
X118456261Y-109766955D01*
X118418765Y-109755580D01*
X118384206Y-109737108D01*
X118353913Y-109712247D01*
X118329052Y-109681954D01*
X118310580Y-109647395D01*
X118299205Y-109609899D01*
X118294760Y-109564762D01*
X118294760Y-108926038D01*
X118299205Y-108880901D01*
X118310580Y-108843405D01*
X118329052Y-108808846D01*
X118353913Y-108778553D01*
X118384206Y-108753692D01*
X118418765Y-108735220D01*
X118456261Y-108723845D01*
X118501398Y-108719400D01*
X119240122Y-108719400D01*
X119285259Y-108723845D01*
G37*
G36*
X121032719Y-107159205D02*
G01*
X121070215Y-107170580D01*
X121104774Y-107189052D01*
X121135067Y-107213913D01*
X121159928Y-107244206D01*
X121178400Y-107278765D01*
X121189775Y-107316261D01*
X121194220Y-107361398D01*
X121194220Y-108000122D01*
X121189775Y-108045259D01*
X121178400Y-108082755D01*
X121159928Y-108117314D01*
X121135067Y-108147607D01*
X121104774Y-108172468D01*
X121070215Y-108190940D01*
X121032719Y-108202315D01*
X120987582Y-108206760D01*
X120248858Y-108206760D01*
X120203721Y-108202315D01*
X120166225Y-108190940D01*
X120131666Y-108172468D01*
X120101373Y-108147607D01*
X120076512Y-108117314D01*
X120058040Y-108082755D01*
X120046665Y-108045259D01*
X120042220Y-108000122D01*
X120042220Y-107361398D01*
X120046665Y-107316261D01*
X120058040Y-107278765D01*
X120076512Y-107244206D01*
X120101373Y-107213913D01*
X120131666Y-107189052D01*
X120166225Y-107170580D01*
X120203721Y-107159205D01*
X120248858Y-107154760D01*
X120987582Y-107154760D01*
X121032719Y-107159205D01*
G37*
G36*
X119282719Y-107159205D02*
G01*
X119320215Y-107170580D01*
X119354774Y-107189052D01*
X119385067Y-107213913D01*
X119409928Y-107244206D01*
X119428400Y-107278765D01*
X119439775Y-107316261D01*
X119444220Y-107361398D01*
X119444220Y-108000122D01*
X119439775Y-108045259D01*
X119428400Y-108082755D01*
X119409928Y-108117314D01*
X119385067Y-108147607D01*
X119354774Y-108172468D01*
X119320215Y-108190940D01*
X119282719Y-108202315D01*
X119237582Y-108206760D01*
X118498858Y-108206760D01*
X118453721Y-108202315D01*
X118416225Y-108190940D01*
X118381666Y-108172468D01*
X118351373Y-108147607D01*
X118326512Y-108117314D01*
X118308040Y-108082755D01*
X118296665Y-108045259D01*
X118292220Y-108000122D01*
X118292220Y-107361398D01*
X118296665Y-107316261D01*
X118308040Y-107278765D01*
X118326512Y-107244206D01*
X118351373Y-107213913D01*
X118381666Y-107189052D01*
X118416225Y-107170580D01*
X118453721Y-107159205D01*
X118498858Y-107154760D01*
X119237582Y-107154760D01*
X119282719Y-107159205D01*
G37*
G36*
X124939351Y-101790584D02*
G01*
X124955743Y-101795557D01*
X124970855Y-101803634D01*
X124984098Y-101814502D01*
X124994966Y-101827745D01*
X125003043Y-101842857D01*
X125008016Y-101859249D01*
X125010300Y-101882441D01*
X125010300Y-102296159D01*
X125008016Y-102319351D01*
X125003043Y-102335743D01*
X124994966Y-102350855D01*
X124984098Y-102364098D01*
X124970853Y-102374967D01*
X124963194Y-102379061D01*
X124942820Y-102392674D01*
X124925493Y-102410001D01*
X124911879Y-102430376D01*
X124902502Y-102453014D01*
X124897721Y-102477048D01*
X124897721Y-102501552D01*
X124902501Y-102525585D01*
X124911879Y-102548224D01*
X124925492Y-102568598D01*
X124942819Y-102585925D01*
X124963194Y-102599539D01*
X124970853Y-102603633D01*
X124984098Y-102614502D01*
X124994966Y-102627745D01*
X125003043Y-102642857D01*
X125008016Y-102659249D01*
X125010300Y-102682441D01*
X125010300Y-103096159D01*
X125008016Y-103119351D01*
X125003043Y-103135743D01*
X124994966Y-103150855D01*
X124984098Y-103164098D01*
X124970853Y-103174967D01*
X124963194Y-103179061D01*
X124942820Y-103192674D01*
X124925493Y-103210001D01*
X124911879Y-103230376D01*
X124902502Y-103253014D01*
X124897721Y-103277048D01*
X124897721Y-103301552D01*
X124902501Y-103325585D01*
X124911879Y-103348224D01*
X124925492Y-103368598D01*
X124942819Y-103385925D01*
X124963194Y-103399539D01*
X124970853Y-103403633D01*
X124984098Y-103414502D01*
X124994966Y-103427745D01*
X125003043Y-103442857D01*
X125008016Y-103459249D01*
X125010300Y-103482441D01*
X125010300Y-103896159D01*
X125008016Y-103919351D01*
X125003043Y-103935743D01*
X124994966Y-103950855D01*
X124984098Y-103964098D01*
X124970853Y-103974967D01*
X124963194Y-103979061D01*
X124942820Y-103992674D01*
X124925493Y-104010001D01*
X124911879Y-104030376D01*
X124902502Y-104053014D01*
X124897721Y-104077048D01*
X124897721Y-104101552D01*
X124902501Y-104125585D01*
X124911879Y-104148224D01*
X124925492Y-104168598D01*
X124942819Y-104185925D01*
X124963194Y-104199539D01*
X124970853Y-104203633D01*
X124984098Y-104214502D01*
X124994966Y-104227745D01*
X125003043Y-104242857D01*
X125008016Y-104259249D01*
X125010300Y-104282441D01*
X125010300Y-104696159D01*
X125008016Y-104719351D01*
X125003043Y-104735743D01*
X124994966Y-104750855D01*
X124984098Y-104764098D01*
X124970853Y-104774967D01*
X124963194Y-104779061D01*
X124942820Y-104792674D01*
X124925493Y-104810001D01*
X124911879Y-104830376D01*
X124902502Y-104853014D01*
X124897721Y-104877048D01*
X124897721Y-104901552D01*
X124902501Y-104925585D01*
X124911879Y-104948224D01*
X124925492Y-104968598D01*
X124942819Y-104985925D01*
X124963194Y-104999539D01*
X124970853Y-105003633D01*
X124984098Y-105014502D01*
X124994966Y-105027745D01*
X125003043Y-105042857D01*
X125008016Y-105059249D01*
X125010300Y-105082441D01*
X125010300Y-105496159D01*
X125008016Y-105519351D01*
X125003043Y-105535743D01*
X124994966Y-105550855D01*
X124984098Y-105564098D01*
X124970853Y-105574967D01*
X124963194Y-105579061D01*
X124942820Y-105592674D01*
X124925493Y-105610001D01*
X124911879Y-105630376D01*
X124902502Y-105653014D01*
X124897721Y-105677048D01*
X124897721Y-105701552D01*
X124902501Y-105725585D01*
X124911879Y-105748224D01*
X124925492Y-105768598D01*
X124942819Y-105785925D01*
X124963194Y-105799539D01*
X124970853Y-105803633D01*
X124984098Y-105814502D01*
X124994966Y-105827745D01*
X125003043Y-105842857D01*
X125008016Y-105859249D01*
X125010300Y-105882441D01*
X125010300Y-106296159D01*
X125008016Y-106319351D01*
X125003043Y-106335743D01*
X124994966Y-106350855D01*
X124984098Y-106364098D01*
X124970853Y-106374967D01*
X124963194Y-106379061D01*
X124942820Y-106392674D01*
X124925493Y-106410001D01*
X124911879Y-106430376D01*
X124902502Y-106453014D01*
X124897721Y-106477048D01*
X124897721Y-106501552D01*
X124902501Y-106525585D01*
X124911879Y-106548224D01*
X124925492Y-106568598D01*
X124942819Y-106585925D01*
X124963194Y-106599539D01*
X124970853Y-106603633D01*
X124984098Y-106614502D01*
X124994966Y-106627745D01*
X125003043Y-106642857D01*
X125008016Y-106659249D01*
X125010300Y-106682441D01*
X125010300Y-107096159D01*
X125008016Y-107119351D01*
X125003043Y-107135743D01*
X124994966Y-107150855D01*
X124984098Y-107164098D01*
X124970853Y-107174967D01*
X124963194Y-107179061D01*
X124942820Y-107192674D01*
X124925493Y-107210001D01*
X124911879Y-107230376D01*
X124902502Y-107253014D01*
X124897721Y-107277048D01*
X124897721Y-107301552D01*
X124902501Y-107325585D01*
X124911879Y-107348224D01*
X124925492Y-107368598D01*
X124942819Y-107385925D01*
X124963194Y-107399539D01*
X124970853Y-107403633D01*
X124984098Y-107414502D01*
X124994966Y-107427745D01*
X125003043Y-107442857D01*
X125008016Y-107459249D01*
X125010300Y-107482441D01*
X125010300Y-107896159D01*
X125008016Y-107919351D01*
X125003043Y-107935743D01*
X124994966Y-107950855D01*
X124984098Y-107964098D01*
X124970855Y-107974966D01*
X124955743Y-107983043D01*
X124939351Y-107988016D01*
X124916159Y-107990300D01*
X123502441Y-107990300D01*
X123479249Y-107988016D01*
X123462857Y-107983043D01*
X123447745Y-107974966D01*
X123434502Y-107964098D01*
X123423634Y-107950855D01*
X123415557Y-107935743D01*
X123410584Y-107919351D01*
X123408300Y-107896159D01*
X123408300Y-107482441D01*
X123410584Y-107459249D01*
X123415557Y-107442857D01*
X123423634Y-107427745D01*
X123434502Y-107414502D01*
X123447747Y-107403633D01*
X123455406Y-107399539D01*
X123475780Y-107385926D01*
X123493107Y-107368599D01*
X123506721Y-107348224D01*
X123516098Y-107325586D01*
X123520879Y-107301552D01*
X123520879Y-107277048D01*
X123516099Y-107253015D01*
X123506721Y-107230376D01*
X123493108Y-107210002D01*
X123475781Y-107192675D01*
X123455406Y-107179061D01*
X123447747Y-107174967D01*
X123434502Y-107164098D01*
X123423634Y-107150855D01*
X123415557Y-107135743D01*
X123410584Y-107119351D01*
X123408300Y-107096159D01*
X123408300Y-106682441D01*
X123410584Y-106659249D01*
X123415557Y-106642857D01*
X123423634Y-106627745D01*
X123434502Y-106614502D01*
X123447747Y-106603633D01*
X123455406Y-106599539D01*
X123475780Y-106585926D01*
X123493107Y-106568599D01*
X123506721Y-106548224D01*
X123516098Y-106525586D01*
X123520879Y-106501552D01*
X123520879Y-106477048D01*
X123516099Y-106453015D01*
X123506721Y-106430376D01*
X123493108Y-106410002D01*
X123475781Y-106392675D01*
X123455406Y-106379061D01*
X123447747Y-106374967D01*
X123434502Y-106364098D01*
X123423634Y-106350855D01*
X123415557Y-106335743D01*
X123410584Y-106319351D01*
X123408300Y-106296159D01*
X123408300Y-105882441D01*
X123410584Y-105859249D01*
X123415557Y-105842857D01*
X123423634Y-105827745D01*
X123434502Y-105814502D01*
X123447747Y-105803633D01*
X123455406Y-105799539D01*
X123475780Y-105785926D01*
X123493107Y-105768599D01*
X123506721Y-105748224D01*
X123516098Y-105725586D01*
X123520879Y-105701552D01*
X123520879Y-105677048D01*
X123516099Y-105653015D01*
X123506721Y-105630376D01*
X123493108Y-105610002D01*
X123475781Y-105592675D01*
X123455406Y-105579061D01*
X123447747Y-105574967D01*
X123434502Y-105564098D01*
X123423634Y-105550855D01*
X123415557Y-105535743D01*
X123410584Y-105519351D01*
X123408300Y-105496159D01*
X123408300Y-105082441D01*
X123410584Y-105059249D01*
X123415557Y-105042857D01*
X123423634Y-105027745D01*
X123434502Y-105014502D01*
X123447747Y-105003633D01*
X123455406Y-104999539D01*
X123475780Y-104985926D01*
X123493107Y-104968599D01*
X123506721Y-104948224D01*
X123516098Y-104925586D01*
X123520879Y-104901552D01*
X123520879Y-104877048D01*
X123516099Y-104853015D01*
X123506721Y-104830376D01*
X123493108Y-104810002D01*
X123475781Y-104792675D01*
X123455406Y-104779061D01*
X123447747Y-104774967D01*
X123434502Y-104764098D01*
X123423634Y-104750855D01*
X123415557Y-104735743D01*
X123410584Y-104719351D01*
X123408300Y-104696159D01*
X123408300Y-104282441D01*
X123410584Y-104259249D01*
X123415557Y-104242857D01*
X123423634Y-104227745D01*
X123434502Y-104214502D01*
X123447747Y-104203633D01*
X123455406Y-104199539D01*
X123475780Y-104185926D01*
X123493107Y-104168599D01*
X123506721Y-104148224D01*
X123516098Y-104125586D01*
X123520879Y-104101552D01*
X123520879Y-104077048D01*
X123516099Y-104053015D01*
X123506721Y-104030376D01*
X123493108Y-104010002D01*
X123475781Y-103992675D01*
X123455406Y-103979061D01*
X123447747Y-103974967D01*
X123434502Y-103964098D01*
X123423634Y-103950855D01*
X123415557Y-103935743D01*
X123410584Y-103919351D01*
X123408300Y-103896159D01*
X123408300Y-103482441D01*
X123410584Y-103459249D01*
X123415557Y-103442857D01*
X123423634Y-103427745D01*
X123434502Y-103414502D01*
X123447747Y-103403633D01*
X123455406Y-103399539D01*
X123475780Y-103385926D01*
X123493107Y-103368599D01*
X123506721Y-103348224D01*
X123516098Y-103325586D01*
X123520879Y-103301552D01*
X123520879Y-103277048D01*
X123516099Y-103253015D01*
X123506721Y-103230376D01*
X123493108Y-103210002D01*
X123475781Y-103192675D01*
X123455406Y-103179061D01*
X123447747Y-103174967D01*
X123434502Y-103164098D01*
X123423634Y-103150855D01*
X123415557Y-103135743D01*
X123410584Y-103119351D01*
X123408300Y-103096159D01*
X123408300Y-102682441D01*
X123410584Y-102659249D01*
X123415557Y-102642857D01*
X123423634Y-102627745D01*
X123434502Y-102614502D01*
X123447747Y-102603633D01*
X123455406Y-102599539D01*
X123475780Y-102585926D01*
X123493107Y-102568599D01*
X123506721Y-102548224D01*
X123516098Y-102525586D01*
X123520879Y-102501552D01*
X123520879Y-102477048D01*
X123516099Y-102453015D01*
X123506721Y-102430376D01*
X123493108Y-102410002D01*
X123475781Y-102392675D01*
X123455406Y-102379061D01*
X123447747Y-102374967D01*
X123434502Y-102364098D01*
X123423634Y-102350855D01*
X123415557Y-102335743D01*
X123410584Y-102319351D01*
X123408300Y-102296159D01*
X123408300Y-101882441D01*
X123410584Y-101859249D01*
X123415557Y-101842857D01*
X123423634Y-101827745D01*
X123434502Y-101814502D01*
X123447745Y-101803634D01*
X123462857Y-101795557D01*
X123479249Y-101790584D01*
X123502441Y-101788300D01*
X124916159Y-101788300D01*
X124939351Y-101790584D01*
G37*
G36*
X133289351Y-101790584D02*
G01*
X133305743Y-101795557D01*
X133320855Y-101803634D01*
X133334098Y-101814502D01*
X133344966Y-101827745D01*
X133353043Y-101842857D01*
X133358016Y-101859249D01*
X133360300Y-101882441D01*
X133360300Y-102296159D01*
X133358016Y-102319351D01*
X133353043Y-102335743D01*
X133344966Y-102350855D01*
X133334098Y-102364098D01*
X133320853Y-102374967D01*
X133313194Y-102379061D01*
X133292820Y-102392674D01*
X133275493Y-102410001D01*
X133261879Y-102430376D01*
X133252502Y-102453014D01*
X133247721Y-102477048D01*
X133247721Y-102501552D01*
X133252501Y-102525585D01*
X133261879Y-102548224D01*
X133275492Y-102568598D01*
X133292819Y-102585925D01*
X133313194Y-102599539D01*
X133320853Y-102603633D01*
X133334098Y-102614502D01*
X133344966Y-102627745D01*
X133353043Y-102642857D01*
X133358016Y-102659249D01*
X133360300Y-102682441D01*
X133360300Y-103096159D01*
X133358016Y-103119351D01*
X133353043Y-103135743D01*
X133344966Y-103150855D01*
X133334098Y-103164098D01*
X133320853Y-103174967D01*
X133313194Y-103179061D01*
X133292820Y-103192674D01*
X133275493Y-103210001D01*
X133261879Y-103230376D01*
X133252502Y-103253014D01*
X133247721Y-103277048D01*
X133247721Y-103301552D01*
X133252501Y-103325585D01*
X133261879Y-103348224D01*
X133275492Y-103368598D01*
X133292819Y-103385925D01*
X133313194Y-103399539D01*
X133320853Y-103403633D01*
X133334098Y-103414502D01*
X133344966Y-103427745D01*
X133353043Y-103442857D01*
X133358016Y-103459249D01*
X133360300Y-103482441D01*
X133360300Y-103896159D01*
X133358016Y-103919351D01*
X133353043Y-103935743D01*
X133344966Y-103950855D01*
X133334098Y-103964098D01*
X133320853Y-103974967D01*
X133313194Y-103979061D01*
X133292820Y-103992674D01*
X133275493Y-104010001D01*
X133261879Y-104030376D01*
X133252502Y-104053014D01*
X133247721Y-104077048D01*
X133247721Y-104101552D01*
X133252501Y-104125585D01*
X133261879Y-104148224D01*
X133275492Y-104168598D01*
X133292819Y-104185925D01*
X133313194Y-104199539D01*
X133320853Y-104203633D01*
X133334098Y-104214502D01*
X133344966Y-104227745D01*
X133353043Y-104242857D01*
X133358016Y-104259249D01*
X133360300Y-104282441D01*
X133360300Y-104696159D01*
X133358016Y-104719351D01*
X133353043Y-104735743D01*
X133344966Y-104750855D01*
X133334098Y-104764098D01*
X133320853Y-104774967D01*
X133313194Y-104779061D01*
X133292820Y-104792674D01*
X133275493Y-104810001D01*
X133261879Y-104830376D01*
X133252502Y-104853014D01*
X133247721Y-104877048D01*
X133247721Y-104901552D01*
X133252501Y-104925585D01*
X133261879Y-104948224D01*
X133275492Y-104968598D01*
X133292819Y-104985925D01*
X133313194Y-104999539D01*
X133320853Y-105003633D01*
X133334098Y-105014502D01*
X133344966Y-105027745D01*
X133353043Y-105042857D01*
X133358016Y-105059249D01*
X133360300Y-105082441D01*
X133360300Y-105496159D01*
X133358016Y-105519351D01*
X133353043Y-105535743D01*
X133344966Y-105550855D01*
X133334098Y-105564098D01*
X133320853Y-105574967D01*
X133313194Y-105579061D01*
X133292820Y-105592674D01*
X133275493Y-105610001D01*
X133261879Y-105630376D01*
X133252502Y-105653014D01*
X133247721Y-105677048D01*
X133247721Y-105701552D01*
X133252501Y-105725585D01*
X133261879Y-105748224D01*
X133275492Y-105768598D01*
X133292819Y-105785925D01*
X133313194Y-105799539D01*
X133320853Y-105803633D01*
X133334098Y-105814502D01*
X133344966Y-105827745D01*
X133353043Y-105842857D01*
X133358016Y-105859249D01*
X133360300Y-105882441D01*
X133360300Y-106296159D01*
X133358016Y-106319351D01*
X133353043Y-106335743D01*
X133344966Y-106350855D01*
X133334098Y-106364098D01*
X133320853Y-106374967D01*
X133313194Y-106379061D01*
X133292820Y-106392674D01*
X133275493Y-106410001D01*
X133261879Y-106430376D01*
X133252502Y-106453014D01*
X133247721Y-106477048D01*
X133247721Y-106501552D01*
X133252501Y-106525585D01*
X133261879Y-106548224D01*
X133275492Y-106568598D01*
X133292819Y-106585925D01*
X133313194Y-106599539D01*
X133320853Y-106603633D01*
X133334098Y-106614502D01*
X133344966Y-106627745D01*
X133353043Y-106642857D01*
X133358016Y-106659249D01*
X133360300Y-106682441D01*
X133360300Y-107096159D01*
X133358016Y-107119351D01*
X133353043Y-107135743D01*
X133344966Y-107150855D01*
X133334098Y-107164098D01*
X133320853Y-107174967D01*
X133313194Y-107179061D01*
X133292820Y-107192674D01*
X133275493Y-107210001D01*
X133261879Y-107230376D01*
X133252502Y-107253014D01*
X133247721Y-107277048D01*
X133247721Y-107301552D01*
X133252501Y-107325585D01*
X133261879Y-107348224D01*
X133275492Y-107368598D01*
X133292819Y-107385925D01*
X133313194Y-107399539D01*
X133320853Y-107403633D01*
X133334098Y-107414502D01*
X133344966Y-107427745D01*
X133353043Y-107442857D01*
X133358016Y-107459249D01*
X133360300Y-107482441D01*
X133360300Y-107896159D01*
X133358016Y-107919351D01*
X133353043Y-107935743D01*
X133344966Y-107950855D01*
X133334098Y-107964098D01*
X133320855Y-107974966D01*
X133305743Y-107983043D01*
X133289351Y-107988016D01*
X133266159Y-107990300D01*
X131852441Y-107990300D01*
X131829249Y-107988016D01*
X131812857Y-107983043D01*
X131797745Y-107974966D01*
X131784502Y-107964098D01*
X131773634Y-107950855D01*
X131765557Y-107935743D01*
X131760584Y-107919351D01*
X131758300Y-107896159D01*
X131758300Y-107482441D01*
X131760584Y-107459249D01*
X131765557Y-107442857D01*
X131773634Y-107427745D01*
X131784502Y-107414502D01*
X131797747Y-107403633D01*
X131805406Y-107399539D01*
X131825780Y-107385926D01*
X131843107Y-107368599D01*
X131856721Y-107348224D01*
X131866098Y-107325586D01*
X131870879Y-107301552D01*
X131870879Y-107277048D01*
X131866099Y-107253015D01*
X131856721Y-107230376D01*
X131843108Y-107210002D01*
X131825781Y-107192675D01*
X131805406Y-107179061D01*
X131797747Y-107174967D01*
X131784502Y-107164098D01*
X131773634Y-107150855D01*
X131765557Y-107135743D01*
X131760584Y-107119351D01*
X131758300Y-107096159D01*
X131758300Y-106682441D01*
X131760584Y-106659249D01*
X131765557Y-106642857D01*
X131773634Y-106627745D01*
X131784502Y-106614502D01*
X131797747Y-106603633D01*
X131805406Y-106599539D01*
X131825780Y-106585926D01*
X131843107Y-106568599D01*
X131856721Y-106548224D01*
X131866098Y-106525586D01*
X131870879Y-106501552D01*
X131870879Y-106477048D01*
X131866099Y-106453015D01*
X131856721Y-106430376D01*
X131843108Y-106410002D01*
X131825781Y-106392675D01*
X131805406Y-106379061D01*
X131797747Y-106374967D01*
X131784502Y-106364098D01*
X131773634Y-106350855D01*
X131765557Y-106335743D01*
X131760584Y-106319351D01*
X131758300Y-106296159D01*
X131758300Y-105882441D01*
X131760584Y-105859249D01*
X131765557Y-105842857D01*
X131773634Y-105827745D01*
X131784502Y-105814502D01*
X131797747Y-105803633D01*
X131805406Y-105799539D01*
X131825780Y-105785926D01*
X131843107Y-105768599D01*
X131856721Y-105748224D01*
X131866098Y-105725586D01*
X131870879Y-105701552D01*
X131870879Y-105677048D01*
X131866099Y-105653015D01*
X131856721Y-105630376D01*
X131843108Y-105610002D01*
X131825781Y-105592675D01*
X131805406Y-105579061D01*
X131797747Y-105574967D01*
X131784502Y-105564098D01*
X131773634Y-105550855D01*
X131765557Y-105535743D01*
X131760584Y-105519351D01*
X131758300Y-105496159D01*
X131758300Y-105082441D01*
X131760584Y-105059249D01*
X131765557Y-105042857D01*
X131773634Y-105027745D01*
X131784502Y-105014502D01*
X131797747Y-105003633D01*
X131805406Y-104999539D01*
X131825780Y-104985926D01*
X131843107Y-104968599D01*
X131856721Y-104948224D01*
X131866098Y-104925586D01*
X131870879Y-104901552D01*
X131870879Y-104877048D01*
X131866099Y-104853015D01*
X131856721Y-104830376D01*
X131843108Y-104810002D01*
X131825781Y-104792675D01*
X131805406Y-104779061D01*
X131797747Y-104774967D01*
X131784502Y-104764098D01*
X131773634Y-104750855D01*
X131765557Y-104735743D01*
X131760584Y-104719351D01*
X131758300Y-104696159D01*
X131758300Y-104282441D01*
X131760584Y-104259249D01*
X131765557Y-104242857D01*
X131773634Y-104227745D01*
X131784502Y-104214502D01*
X131797747Y-104203633D01*
X131805406Y-104199539D01*
X131825780Y-104185926D01*
X131843107Y-104168599D01*
X131856721Y-104148224D01*
X131866098Y-104125586D01*
X131870879Y-104101552D01*
X131870879Y-104077048D01*
X131866099Y-104053015D01*
X131856721Y-104030376D01*
X131843108Y-104010002D01*
X131825781Y-103992675D01*
X131805406Y-103979061D01*
X131797747Y-103974967D01*
X131784502Y-103964098D01*
X131773634Y-103950855D01*
X131765557Y-103935743D01*
X131760584Y-103919351D01*
X131758300Y-103896159D01*
X131758300Y-103482441D01*
X131760584Y-103459249D01*
X131765557Y-103442857D01*
X131773634Y-103427745D01*
X131784502Y-103414502D01*
X131797747Y-103403633D01*
X131805406Y-103399539D01*
X131825780Y-103385926D01*
X131843107Y-103368599D01*
X131856721Y-103348224D01*
X131866098Y-103325586D01*
X131870879Y-103301552D01*
X131870879Y-103277048D01*
X131866099Y-103253015D01*
X131856721Y-103230376D01*
X131843108Y-103210002D01*
X131825781Y-103192675D01*
X131805406Y-103179061D01*
X131797747Y-103174967D01*
X131784502Y-103164098D01*
X131773634Y-103150855D01*
X131765557Y-103135743D01*
X131760584Y-103119351D01*
X131758300Y-103096159D01*
X131758300Y-102682441D01*
X131760584Y-102659249D01*
X131765557Y-102642857D01*
X131773634Y-102627745D01*
X131784502Y-102614502D01*
X131797747Y-102603633D01*
X131805406Y-102599539D01*
X131825780Y-102585926D01*
X131843107Y-102568599D01*
X131856721Y-102548224D01*
X131866098Y-102525586D01*
X131870879Y-102501552D01*
X131870879Y-102477048D01*
X131866099Y-102453015D01*
X131856721Y-102430376D01*
X131843108Y-102410002D01*
X131825781Y-102392675D01*
X131805406Y-102379061D01*
X131797747Y-102374967D01*
X131784502Y-102364098D01*
X131773634Y-102350855D01*
X131765557Y-102335743D01*
X131760584Y-102319351D01*
X131758300Y-102296159D01*
X131758300Y-101882441D01*
X131760584Y-101859249D01*
X131765557Y-101842857D01*
X131773634Y-101827745D01*
X131784502Y-101814502D01*
X131797745Y-101803634D01*
X131812857Y-101795557D01*
X131829249Y-101790584D01*
X131852441Y-101788300D01*
X133266159Y-101788300D01*
X133289351Y-101790584D01*
G37*
G36*
X140011643Y-106104319D02*
G01*
X140077827Y-106110837D01*
X140247666Y-106162357D01*
X140404191Y-106246022D01*
X140432386Y-106269161D01*
X140541386Y-106358614D01*
X140612526Y-106445300D01*
X140653978Y-106495809D01*
X140737643Y-106652334D01*
X140789163Y-106822173D01*
X140806559Y-106998800D01*
X140789163Y-107175427D01*
X140737643Y-107345266D01*
X140653978Y-107501791D01*
X140624648Y-107537529D01*
X140541386Y-107638986D01*
X140439929Y-107722248D01*
X140404191Y-107751578D01*
X140247666Y-107835243D01*
X140077827Y-107886763D01*
X140011642Y-107893282D01*
X139945460Y-107899800D01*
X139606940Y-107899800D01*
X139540758Y-107893282D01*
X139474573Y-107886763D01*
X139304734Y-107835243D01*
X139148209Y-107751578D01*
X139112471Y-107722248D01*
X139011014Y-107638986D01*
X138927752Y-107537529D01*
X138898422Y-107501791D01*
X138814757Y-107345266D01*
X138763237Y-107175427D01*
X138745841Y-106998800D01*
X138763237Y-106822173D01*
X138814757Y-106652334D01*
X138898422Y-106495809D01*
X138939874Y-106445300D01*
X139011014Y-106358614D01*
X139120014Y-106269161D01*
X139148209Y-106246022D01*
X139304734Y-106162357D01*
X139474573Y-106110837D01*
X139540757Y-106104319D01*
X139606940Y-106097800D01*
X139945460Y-106097800D01*
X140011643Y-106104319D01*
G37*
G36*
X135030219Y-106429725D02*
G01*
X135067715Y-106441100D01*
X135102274Y-106459572D01*
X135132567Y-106484433D01*
X135157428Y-106514726D01*
X135175900Y-106549285D01*
X135187275Y-106586781D01*
X135191720Y-106631918D01*
X135191720Y-107370642D01*
X135187275Y-107415779D01*
X135175900Y-107453275D01*
X135157428Y-107487834D01*
X135132567Y-107518127D01*
X135102274Y-107542988D01*
X135067715Y-107561460D01*
X135030219Y-107572835D01*
X134985082Y-107577280D01*
X134346358Y-107577280D01*
X134301221Y-107572835D01*
X134263725Y-107561460D01*
X134229166Y-107542988D01*
X134198873Y-107518127D01*
X134174012Y-107487834D01*
X134155540Y-107453275D01*
X134144165Y-107415779D01*
X134139720Y-107370642D01*
X134139720Y-106631918D01*
X134144165Y-106586781D01*
X134155540Y-106549285D01*
X134174012Y-106514726D01*
X134198873Y-106484433D01*
X134229166Y-106459572D01*
X134263725Y-106441100D01*
X134301221Y-106429725D01*
X134346358Y-106425280D01*
X134985082Y-106425280D01*
X135030219Y-106429725D01*
G37*
G36*
X135030219Y-104679725D02*
G01*
X135067715Y-104691100D01*
X135102274Y-104709572D01*
X135132567Y-104734433D01*
X135157428Y-104764726D01*
X135175900Y-104799285D01*
X135187275Y-104836781D01*
X135191720Y-104881918D01*
X135191720Y-105620642D01*
X135187275Y-105665779D01*
X135175900Y-105703275D01*
X135157428Y-105737834D01*
X135132567Y-105768127D01*
X135102274Y-105792988D01*
X135067715Y-105811460D01*
X135030219Y-105822835D01*
X134985082Y-105827280D01*
X134346358Y-105827280D01*
X134301221Y-105822835D01*
X134263725Y-105811460D01*
X134229166Y-105792988D01*
X134198873Y-105768127D01*
X134174012Y-105737834D01*
X134155540Y-105703275D01*
X134144165Y-105665779D01*
X134139720Y-105620642D01*
X134139720Y-104881918D01*
X134144165Y-104836781D01*
X134155540Y-104799285D01*
X134174012Y-104764726D01*
X134198873Y-104734433D01*
X134229166Y-104709572D01*
X134263725Y-104691100D01*
X134301221Y-104679725D01*
X134346358Y-104675280D01*
X134985082Y-104675280D01*
X135030219Y-104679725D01*
G37*
G36*
X136569459Y-104352005D02*
G01*
X136606955Y-104363380D01*
X136641514Y-104381852D01*
X136671807Y-104406713D01*
X136696668Y-104437006D01*
X136715140Y-104471565D01*
X136726515Y-104509061D01*
X136730960Y-104554198D01*
X136730960Y-105292922D01*
X136726515Y-105338059D01*
X136715140Y-105375555D01*
X136696668Y-105410114D01*
X136671807Y-105440407D01*
X136641514Y-105465268D01*
X136606955Y-105483740D01*
X136569459Y-105495115D01*
X136524322Y-105499560D01*
X135885598Y-105499560D01*
X135840461Y-105495115D01*
X135802965Y-105483740D01*
X135768406Y-105465268D01*
X135738113Y-105440407D01*
X135713252Y-105410114D01*
X135694780Y-105375555D01*
X135683405Y-105338059D01*
X135678960Y-105292922D01*
X135678960Y-104554198D01*
X135683405Y-104509061D01*
X135694780Y-104471565D01*
X135713252Y-104437006D01*
X135738113Y-104406713D01*
X135768406Y-104381852D01*
X135802965Y-104363380D01*
X135840461Y-104352005D01*
X135885598Y-104347560D01*
X136524322Y-104347560D01*
X136569459Y-104352005D01*
G37*
G36*
X140011642Y-103604318D02*
G01*
X140077827Y-103610837D01*
X140247666Y-103662357D01*
X140404191Y-103746022D01*
X140437697Y-103773520D01*
X140541386Y-103858614D01*
X140594564Y-103923413D01*
X140653978Y-103995809D01*
X140737643Y-104152334D01*
X140789163Y-104322173D01*
X140806559Y-104498800D01*
X140789163Y-104675427D01*
X140737643Y-104845266D01*
X140653978Y-105001791D01*
X140652466Y-105003633D01*
X140541386Y-105138986D01*
X140439929Y-105222248D01*
X140404191Y-105251578D01*
X140247666Y-105335243D01*
X140077827Y-105386763D01*
X140011642Y-105393282D01*
X139945460Y-105399800D01*
X139606940Y-105399800D01*
X139540758Y-105393282D01*
X139474573Y-105386763D01*
X139304734Y-105335243D01*
X139148209Y-105251578D01*
X139112471Y-105222248D01*
X139011014Y-105138986D01*
X138899934Y-105003633D01*
X138898422Y-105001791D01*
X138814757Y-104845266D01*
X138763237Y-104675427D01*
X138745841Y-104498800D01*
X138763237Y-104322173D01*
X138814757Y-104152334D01*
X138898422Y-103995809D01*
X138957836Y-103923413D01*
X139011014Y-103858614D01*
X139114703Y-103773520D01*
X139148209Y-103746022D01*
X139304734Y-103662357D01*
X139474573Y-103610837D01*
X139540758Y-103604318D01*
X139606940Y-103597800D01*
X139945460Y-103597800D01*
X140011642Y-103604318D01*
G37*
G36*
X120517142Y-102969318D02*
G01*
X120583327Y-102975837D01*
X120753166Y-103027357D01*
X120753168Y-103027358D01*
X120831375Y-103069161D01*
X120909691Y-103111022D01*
X120924789Y-103123413D01*
X121046886Y-103223614D01*
X121110847Y-103301552D01*
X121159478Y-103360809D01*
X121243143Y-103517334D01*
X121294663Y-103687173D01*
X121312059Y-103863800D01*
X121294663Y-104040427D01*
X121243143Y-104210266D01*
X121159478Y-104366791D01*
X121138885Y-104391883D01*
X121046886Y-104503986D01*
X120979544Y-104559251D01*
X120909691Y-104616578D01*
X120753166Y-104700243D01*
X120583327Y-104751763D01*
X120517143Y-104758281D01*
X120450960Y-104764800D01*
X120112440Y-104764800D01*
X120046257Y-104758281D01*
X119980073Y-104751763D01*
X119810234Y-104700243D01*
X119653709Y-104616578D01*
X119583856Y-104559251D01*
X119516514Y-104503986D01*
X119424515Y-104391883D01*
X119403922Y-104366791D01*
X119320257Y-104210266D01*
X119268737Y-104040427D01*
X119251341Y-103863800D01*
X119268737Y-103687173D01*
X119320257Y-103517334D01*
X119403922Y-103360809D01*
X119452553Y-103301552D01*
X119516514Y-103223614D01*
X119638611Y-103123413D01*
X119653709Y-103111022D01*
X119732025Y-103069161D01*
X119810232Y-103027358D01*
X119810234Y-103027357D01*
X119980073Y-102975837D01*
X120046258Y-102969318D01*
X120112440Y-102962800D01*
X120450960Y-102962800D01*
X120517142Y-102969318D01*
G37*
G36*
X135020059Y-102888965D02*
G01*
X135057555Y-102900340D01*
X135092114Y-102918812D01*
X135122407Y-102943673D01*
X135147268Y-102973966D01*
X135165740Y-103008525D01*
X135177115Y-103046021D01*
X135181560Y-103091158D01*
X135181560Y-103829882D01*
X135177115Y-103875019D01*
X135165740Y-103912515D01*
X135147268Y-103947074D01*
X135122407Y-103977367D01*
X135092114Y-104002228D01*
X135057555Y-104020700D01*
X135020059Y-104032075D01*
X134974922Y-104036520D01*
X134336198Y-104036520D01*
X134291061Y-104032075D01*
X134253565Y-104020700D01*
X134219006Y-104002228D01*
X134188713Y-103977367D01*
X134163852Y-103947074D01*
X134145380Y-103912515D01*
X134134005Y-103875019D01*
X134129560Y-103829882D01*
X134129560Y-103091158D01*
X134134005Y-103046021D01*
X134145380Y-103008525D01*
X134163852Y-102973966D01*
X134188713Y-102943673D01*
X134219006Y-102918812D01*
X134253565Y-102900340D01*
X134291061Y-102888965D01*
X134336198Y-102884520D01*
X134974922Y-102884520D01*
X135020059Y-102888965D01*
G37*
G36*
X136569459Y-102602005D02*
G01*
X136606955Y-102613380D01*
X136641514Y-102631852D01*
X136671807Y-102656713D01*
X136696668Y-102687006D01*
X136715140Y-102721565D01*
X136726515Y-102759061D01*
X136730960Y-102804198D01*
X136730960Y-103542922D01*
X136726515Y-103588059D01*
X136715140Y-103625555D01*
X136696668Y-103660114D01*
X136671807Y-103690407D01*
X136641514Y-103715268D01*
X136606955Y-103733740D01*
X136569459Y-103745115D01*
X136524322Y-103749560D01*
X135885598Y-103749560D01*
X135840461Y-103745115D01*
X135802965Y-103733740D01*
X135768406Y-103715268D01*
X135738113Y-103690407D01*
X135713252Y-103660114D01*
X135694780Y-103625555D01*
X135683405Y-103588059D01*
X135678960Y-103542922D01*
X135678960Y-102804198D01*
X135683405Y-102759061D01*
X135694780Y-102721565D01*
X135713252Y-102687006D01*
X135738113Y-102656713D01*
X135768406Y-102631852D01*
X135802965Y-102613380D01*
X135840461Y-102602005D01*
X135885598Y-102597560D01*
X136524322Y-102597560D01*
X136569459Y-102602005D01*
G37*
G36*
X140011643Y-101104319D02*
G01*
X140077827Y-101110837D01*
X140247666Y-101162357D01*
X140404191Y-101246022D01*
X140439929Y-101275352D01*
X140541386Y-101358614D01*
X140614594Y-101447820D01*
X140653978Y-101495809D01*
X140737643Y-101652334D01*
X140789163Y-101822173D01*
X140806559Y-101998800D01*
X140789163Y-102175427D01*
X140737643Y-102345266D01*
X140653978Y-102501791D01*
X140634450Y-102525586D01*
X140541386Y-102638986D01*
X140440762Y-102721565D01*
X140404191Y-102751578D01*
X140247666Y-102835243D01*
X140077827Y-102886763D01*
X140011642Y-102893282D01*
X139945460Y-102899800D01*
X139606940Y-102899800D01*
X139540758Y-102893282D01*
X139474573Y-102886763D01*
X139304734Y-102835243D01*
X139148209Y-102751578D01*
X139111638Y-102721565D01*
X139011014Y-102638986D01*
X138917950Y-102525586D01*
X138898422Y-102501791D01*
X138814757Y-102345266D01*
X138763237Y-102175427D01*
X138745841Y-101998800D01*
X138763237Y-101822173D01*
X138814757Y-101652334D01*
X138898422Y-101495809D01*
X138937806Y-101447820D01*
X139011014Y-101358614D01*
X139112471Y-101275352D01*
X139148209Y-101246022D01*
X139304734Y-101162357D01*
X139474573Y-101110837D01*
X139540758Y-101104318D01*
X139606940Y-101097800D01*
X139945460Y-101097800D01*
X140011643Y-101104319D01*
G37*
G36*
X135020059Y-101138965D02*
G01*
X135057555Y-101150340D01*
X135092114Y-101168812D01*
X135122407Y-101193673D01*
X135147268Y-101223966D01*
X135165740Y-101258525D01*
X135177115Y-101296021D01*
X135181560Y-101341158D01*
X135181560Y-102079882D01*
X135177115Y-102125019D01*
X135165740Y-102162515D01*
X135147268Y-102197074D01*
X135122407Y-102227367D01*
X135092114Y-102252228D01*
X135057555Y-102270700D01*
X135020059Y-102282075D01*
X134974922Y-102286520D01*
X134336198Y-102286520D01*
X134291061Y-102282075D01*
X134253565Y-102270700D01*
X134219006Y-102252228D01*
X134188713Y-102227367D01*
X134163852Y-102197074D01*
X134145380Y-102162515D01*
X134134005Y-102125019D01*
X134129560Y-102079882D01*
X134129560Y-101341158D01*
X134134005Y-101296021D01*
X134145380Y-101258525D01*
X134163852Y-101223966D01*
X134188713Y-101193673D01*
X134219006Y-101168812D01*
X134253565Y-101150340D01*
X134291061Y-101138965D01*
X134336198Y-101134520D01*
X134974922Y-101134520D01*
X135020059Y-101138965D01*
G37*
G36*
X120517143Y-100469319D02*
G01*
X120583327Y-100475837D01*
X120753166Y-100527357D01*
X120909691Y-100611022D01*
X120945429Y-100640352D01*
X121046886Y-100723614D01*
X121130148Y-100825071D01*
X121159478Y-100860809D01*
X121159479Y-100860811D01*
X121204234Y-100944540D01*
X121243143Y-101017334D01*
X121294663Y-101187173D01*
X121312059Y-101363800D01*
X121294663Y-101540427D01*
X121243143Y-101710266D01*
X121159478Y-101866791D01*
X121146634Y-101882441D01*
X121046886Y-102003986D01*
X120960562Y-102074829D01*
X120909691Y-102116578D01*
X120753166Y-102200243D01*
X120583327Y-102251763D01*
X120517143Y-102258281D01*
X120450960Y-102264800D01*
X120112440Y-102264800D01*
X120046257Y-102258281D01*
X119980073Y-102251763D01*
X119810234Y-102200243D01*
X119653709Y-102116578D01*
X119602838Y-102074829D01*
X119516514Y-102003986D01*
X119416766Y-101882441D01*
X119403922Y-101866791D01*
X119320257Y-101710266D01*
X119268737Y-101540427D01*
X119251341Y-101363800D01*
X119268737Y-101187173D01*
X119320257Y-101017334D01*
X119359167Y-100944540D01*
X119403921Y-100860811D01*
X119403922Y-100860809D01*
X119433252Y-100825071D01*
X119516514Y-100723614D01*
X119617971Y-100640352D01*
X119653709Y-100611022D01*
X119810234Y-100527357D01*
X119980073Y-100475837D01*
X120046257Y-100469319D01*
X120112440Y-100462800D01*
X120450960Y-100462800D01*
X120517143Y-100469319D01*
G37*
G36*
X136569459Y-100933165D02*
G01*
X136606955Y-100944540D01*
X136641514Y-100963012D01*
X136671807Y-100987873D01*
X136696668Y-101018166D01*
X136715140Y-101052725D01*
X136726515Y-101090221D01*
X136730960Y-101135358D01*
X136730960Y-101874082D01*
X136726515Y-101919219D01*
X136715140Y-101956715D01*
X136696668Y-101991274D01*
X136671807Y-102021567D01*
X136641514Y-102046428D01*
X136606955Y-102064900D01*
X136569459Y-102076275D01*
X136524322Y-102080720D01*
X135885598Y-102080720D01*
X135840461Y-102076275D01*
X135802965Y-102064900D01*
X135768406Y-102046428D01*
X135738113Y-102021567D01*
X135713252Y-101991274D01*
X135694780Y-101956715D01*
X135683405Y-101919219D01*
X135678960Y-101874082D01*
X135678960Y-101135358D01*
X135683405Y-101090221D01*
X135694780Y-101052725D01*
X135713252Y-101018166D01*
X135738113Y-100987873D01*
X135768406Y-100963012D01*
X135802965Y-100944540D01*
X135840461Y-100933165D01*
X135885598Y-100928720D01*
X136524322Y-100928720D01*
X136569459Y-100933165D01*
G37*
G36*
X125814351Y-99915584D02*
G01*
X125830743Y-99920557D01*
X125845855Y-99928634D01*
X125859098Y-99939502D01*
X125869967Y-99952747D01*
X125874061Y-99960406D01*
X125887674Y-99980780D01*
X125905001Y-99998107D01*
X125925376Y-100011721D01*
X125948014Y-100021098D01*
X125972048Y-100025879D01*
X125996552Y-100025879D01*
X126020585Y-100021099D01*
X126043224Y-100011721D01*
X126063598Y-99998108D01*
X126080925Y-99980781D01*
X126094539Y-99960406D01*
X126098633Y-99952747D01*
X126109502Y-99939502D01*
X126122745Y-99928634D01*
X126137857Y-99920557D01*
X126154249Y-99915584D01*
X126177441Y-99913300D01*
X126591159Y-99913300D01*
X126614351Y-99915584D01*
X126630743Y-99920557D01*
X126645855Y-99928634D01*
X126659098Y-99939502D01*
X126669967Y-99952747D01*
X126674061Y-99960406D01*
X126687674Y-99980780D01*
X126705001Y-99998107D01*
X126725376Y-100011721D01*
X126748014Y-100021098D01*
X126772048Y-100025879D01*
X126796552Y-100025879D01*
X126820585Y-100021099D01*
X126843224Y-100011721D01*
X126863598Y-99998108D01*
X126880925Y-99980781D01*
X126894539Y-99960406D01*
X126898633Y-99952747D01*
X126909502Y-99939502D01*
X126922745Y-99928634D01*
X126937857Y-99920557D01*
X126954249Y-99915584D01*
X126977441Y-99913300D01*
X127391159Y-99913300D01*
X127414351Y-99915584D01*
X127430743Y-99920557D01*
X127445855Y-99928634D01*
X127459098Y-99939502D01*
X127469967Y-99952747D01*
X127474061Y-99960406D01*
X127487674Y-99980780D01*
X127505001Y-99998107D01*
X127525376Y-100011721D01*
X127548014Y-100021098D01*
X127572048Y-100025879D01*
X127596552Y-100025879D01*
X127620585Y-100021099D01*
X127643224Y-100011721D01*
X127663598Y-99998108D01*
X127680925Y-99980781D01*
X127694539Y-99960406D01*
X127698633Y-99952747D01*
X127709502Y-99939502D01*
X127722745Y-99928634D01*
X127737857Y-99920557D01*
X127754249Y-99915584D01*
X127777441Y-99913300D01*
X128191159Y-99913300D01*
X128214351Y-99915584D01*
X128230743Y-99920557D01*
X128245855Y-99928634D01*
X128259098Y-99939502D01*
X128269967Y-99952747D01*
X128274061Y-99960406D01*
X128287674Y-99980780D01*
X128305001Y-99998107D01*
X128325376Y-100011721D01*
X128348014Y-100021098D01*
X128372048Y-100025879D01*
X128396552Y-100025879D01*
X128420585Y-100021099D01*
X128443224Y-100011721D01*
X128463598Y-99998108D01*
X128480925Y-99980781D01*
X128494539Y-99960406D01*
X128498633Y-99952747D01*
X128509502Y-99939502D01*
X128522745Y-99928634D01*
X128537857Y-99920557D01*
X128554249Y-99915584D01*
X128577441Y-99913300D01*
X128991159Y-99913300D01*
X129014351Y-99915584D01*
X129030743Y-99920557D01*
X129045855Y-99928634D01*
X129059098Y-99939502D01*
X129069967Y-99952747D01*
X129074061Y-99960406D01*
X129087674Y-99980780D01*
X129105001Y-99998107D01*
X129125376Y-100011721D01*
X129148014Y-100021098D01*
X129172048Y-100025879D01*
X129196552Y-100025879D01*
X129220585Y-100021099D01*
X129243224Y-100011721D01*
X129263598Y-99998108D01*
X129280925Y-99980781D01*
X129294539Y-99960406D01*
X129298633Y-99952747D01*
X129309502Y-99939502D01*
X129322745Y-99928634D01*
X129337857Y-99920557D01*
X129354249Y-99915584D01*
X129377441Y-99913300D01*
X129791159Y-99913300D01*
X129814351Y-99915584D01*
X129830743Y-99920557D01*
X129845855Y-99928634D01*
X129859098Y-99939502D01*
X129869967Y-99952747D01*
X129874061Y-99960406D01*
X129887674Y-99980780D01*
X129905001Y-99998107D01*
X129925376Y-100011721D01*
X129948014Y-100021098D01*
X129972048Y-100025879D01*
X129996552Y-100025879D01*
X130020585Y-100021099D01*
X130043224Y-100011721D01*
X130063598Y-99998108D01*
X130080925Y-99980781D01*
X130094539Y-99960406D01*
X130098633Y-99952747D01*
X130109502Y-99939502D01*
X130122745Y-99928634D01*
X130137857Y-99920557D01*
X130154249Y-99915584D01*
X130177441Y-99913300D01*
X130591159Y-99913300D01*
X130614351Y-99915584D01*
X130630743Y-99920557D01*
X130645855Y-99928634D01*
X130659098Y-99939502D01*
X130669967Y-99952747D01*
X130674061Y-99960406D01*
X130687674Y-99980780D01*
X130705001Y-99998107D01*
X130725376Y-100011721D01*
X130748014Y-100021098D01*
X130772048Y-100025879D01*
X130796552Y-100025879D01*
X130820585Y-100021099D01*
X130843224Y-100011721D01*
X130863598Y-99998108D01*
X130880925Y-99980781D01*
X130894539Y-99960406D01*
X130898633Y-99952747D01*
X130909502Y-99939502D01*
X130922745Y-99928634D01*
X130937857Y-99920557D01*
X130954249Y-99915584D01*
X130977441Y-99913300D01*
X131391159Y-99913300D01*
X131414351Y-99915584D01*
X131430743Y-99920557D01*
X131445855Y-99928634D01*
X131459098Y-99939502D01*
X131469966Y-99952745D01*
X131478043Y-99967857D01*
X131483016Y-99984249D01*
X131485300Y-100007441D01*
X131485300Y-101421159D01*
X131483016Y-101444351D01*
X131478043Y-101460743D01*
X131469966Y-101475855D01*
X131459098Y-101489098D01*
X131445855Y-101499966D01*
X131430743Y-101508043D01*
X131414351Y-101513016D01*
X131391159Y-101515300D01*
X130977441Y-101515300D01*
X130954249Y-101513016D01*
X130937857Y-101508043D01*
X130922745Y-101499966D01*
X130909502Y-101489098D01*
X130898633Y-101475853D01*
X130894539Y-101468194D01*
X130880926Y-101447820D01*
X130863599Y-101430493D01*
X130843224Y-101416879D01*
X130820586Y-101407502D01*
X130796552Y-101402721D01*
X130772048Y-101402721D01*
X130748015Y-101407501D01*
X130725376Y-101416879D01*
X130705002Y-101430492D01*
X130687675Y-101447819D01*
X130674061Y-101468194D01*
X130669967Y-101475853D01*
X130659098Y-101489098D01*
X130645855Y-101499966D01*
X130630743Y-101508043D01*
X130614351Y-101513016D01*
X130591159Y-101515300D01*
X130177441Y-101515300D01*
X130154249Y-101513016D01*
X130137857Y-101508043D01*
X130122745Y-101499966D01*
X130109502Y-101489098D01*
X130098633Y-101475853D01*
X130094539Y-101468194D01*
X130080926Y-101447820D01*
X130063599Y-101430493D01*
X130043224Y-101416879D01*
X130020586Y-101407502D01*
X129996552Y-101402721D01*
X129972048Y-101402721D01*
X129948015Y-101407501D01*
X129925376Y-101416879D01*
X129905002Y-101430492D01*
X129887675Y-101447819D01*
X129874061Y-101468194D01*
X129869967Y-101475853D01*
X129859098Y-101489098D01*
X129845855Y-101499966D01*
X129830743Y-101508043D01*
X129814351Y-101513016D01*
X129791159Y-101515300D01*
X129377441Y-101515300D01*
X129354249Y-101513016D01*
X129337857Y-101508043D01*
X129322745Y-101499966D01*
X129309502Y-101489098D01*
X129298633Y-101475853D01*
X129294539Y-101468194D01*
X129280926Y-101447820D01*
X129263599Y-101430493D01*
X129243224Y-101416879D01*
X129220586Y-101407502D01*
X129196552Y-101402721D01*
X129172048Y-101402721D01*
X129148015Y-101407501D01*
X129125376Y-101416879D01*
X129105002Y-101430492D01*
X129087675Y-101447819D01*
X129074061Y-101468194D01*
X129069967Y-101475853D01*
X129059098Y-101489098D01*
X129045855Y-101499966D01*
X129030743Y-101508043D01*
X129014351Y-101513016D01*
X128991159Y-101515300D01*
X128577441Y-101515300D01*
X128554249Y-101513016D01*
X128537857Y-101508043D01*
X128522745Y-101499966D01*
X128509502Y-101489098D01*
X128498633Y-101475853D01*
X128494539Y-101468194D01*
X128480926Y-101447820D01*
X128463599Y-101430493D01*
X128443224Y-101416879D01*
X128420586Y-101407502D01*
X128396552Y-101402721D01*
X128372048Y-101402721D01*
X128348015Y-101407501D01*
X128325376Y-101416879D01*
X128305002Y-101430492D01*
X128287675Y-101447819D01*
X128274061Y-101468194D01*
X128269967Y-101475853D01*
X128259098Y-101489098D01*
X128245855Y-101499966D01*
X128230743Y-101508043D01*
X128214351Y-101513016D01*
X128191159Y-101515300D01*
X127777441Y-101515300D01*
X127754249Y-101513016D01*
X127737857Y-101508043D01*
X127722745Y-101499966D01*
X127709502Y-101489098D01*
X127698633Y-101475853D01*
X127694539Y-101468194D01*
X127680926Y-101447820D01*
X127663599Y-101430493D01*
X127643224Y-101416879D01*
X127620586Y-101407502D01*
X127596552Y-101402721D01*
X127572048Y-101402721D01*
X127548015Y-101407501D01*
X127525376Y-101416879D01*
X127505002Y-101430492D01*
X127487675Y-101447819D01*
X127474061Y-101468194D01*
X127469967Y-101475853D01*
X127459098Y-101489098D01*
X127445855Y-101499966D01*
X127430743Y-101508043D01*
X127414351Y-101513016D01*
X127391159Y-101515300D01*
X126977441Y-101515300D01*
X126954249Y-101513016D01*
X126937857Y-101508043D01*
X126922745Y-101499966D01*
X126909502Y-101489098D01*
X126898633Y-101475853D01*
X126894539Y-101468194D01*
X126880926Y-101447820D01*
X126863599Y-101430493D01*
X126843224Y-101416879D01*
X126820586Y-101407502D01*
X126796552Y-101402721D01*
X126772048Y-101402721D01*
X126748015Y-101407501D01*
X126725376Y-101416879D01*
X126705002Y-101430492D01*
X126687675Y-101447819D01*
X126674061Y-101468194D01*
X126669967Y-101475853D01*
X126659098Y-101489098D01*
X126645855Y-101499966D01*
X126630743Y-101508043D01*
X126614351Y-101513016D01*
X126591159Y-101515300D01*
X126177441Y-101515300D01*
X126154249Y-101513016D01*
X126137857Y-101508043D01*
X126122745Y-101499966D01*
X126109502Y-101489098D01*
X126098633Y-101475853D01*
X126094539Y-101468194D01*
X126080926Y-101447820D01*
X126063599Y-101430493D01*
X126043224Y-101416879D01*
X126020586Y-101407502D01*
X125996552Y-101402721D01*
X125972048Y-101402721D01*
X125948015Y-101407501D01*
X125925376Y-101416879D01*
X125905002Y-101430492D01*
X125887675Y-101447819D01*
X125874061Y-101468194D01*
X125869967Y-101475853D01*
X125859098Y-101489098D01*
X125845855Y-101499966D01*
X125830743Y-101508043D01*
X125814351Y-101513016D01*
X125791159Y-101515300D01*
X125377441Y-101515300D01*
X125354249Y-101513016D01*
X125337857Y-101508043D01*
X125322745Y-101499966D01*
X125309502Y-101489098D01*
X125298634Y-101475855D01*
X125290557Y-101460743D01*
X125285584Y-101444351D01*
X125283300Y-101421159D01*
X125283300Y-100007441D01*
X125285584Y-99984249D01*
X125290557Y-99967857D01*
X125298634Y-99952745D01*
X125309502Y-99939502D01*
X125322745Y-99928634D01*
X125337857Y-99920557D01*
X125354249Y-99915584D01*
X125377441Y-99913300D01*
X125791159Y-99913300D01*
X125814351Y-99915584D01*
G37*
G36*
X140011642Y-98604318D02*
G01*
X140077827Y-98610837D01*
X140247666Y-98662357D01*
X140404191Y-98746022D01*
X140439929Y-98775352D01*
X140541386Y-98858614D01*
X140624648Y-98960071D01*
X140653978Y-98995809D01*
X140737643Y-99152334D01*
X140789163Y-99322173D01*
X140806559Y-99498800D01*
X140789163Y-99675427D01*
X140737643Y-99845266D01*
X140653978Y-100001791D01*
X140638133Y-100021098D01*
X140541386Y-100138986D01*
X140450181Y-100213835D01*
X140404191Y-100251578D01*
X140247666Y-100335243D01*
X140077827Y-100386763D01*
X140011642Y-100393282D01*
X139945460Y-100399800D01*
X139606940Y-100399800D01*
X139540758Y-100393282D01*
X139474573Y-100386763D01*
X139304734Y-100335243D01*
X139148209Y-100251578D01*
X139102219Y-100213835D01*
X139011014Y-100138986D01*
X138914267Y-100021098D01*
X138898422Y-100001791D01*
X138814757Y-99845266D01*
X138763237Y-99675427D01*
X138745841Y-99498800D01*
X138763237Y-99322173D01*
X138814757Y-99152334D01*
X138898422Y-98995809D01*
X138927752Y-98960071D01*
X139011014Y-98858614D01*
X139112471Y-98775352D01*
X139148209Y-98746022D01*
X139304734Y-98662357D01*
X139474573Y-98610837D01*
X139540758Y-98604318D01*
X139606940Y-98597800D01*
X139945460Y-98597800D01*
X140011642Y-98604318D01*
G37*
G36*
X136569459Y-99183165D02*
G01*
X136606955Y-99194540D01*
X136641514Y-99213012D01*
X136671807Y-99237873D01*
X136696668Y-99268166D01*
X136715140Y-99302725D01*
X136726515Y-99340221D01*
X136730960Y-99385358D01*
X136730960Y-100124082D01*
X136726515Y-100169219D01*
X136715140Y-100206715D01*
X136696668Y-100241274D01*
X136671807Y-100271567D01*
X136641514Y-100296428D01*
X136606955Y-100314900D01*
X136569459Y-100326275D01*
X136524322Y-100330720D01*
X135885598Y-100330720D01*
X135840461Y-100326275D01*
X135802965Y-100314900D01*
X135768406Y-100296428D01*
X135738113Y-100271567D01*
X135713252Y-100241274D01*
X135694780Y-100206715D01*
X135683405Y-100169219D01*
X135678960Y-100124082D01*
X135678960Y-99385358D01*
X135683405Y-99340221D01*
X135694780Y-99302725D01*
X135713252Y-99268166D01*
X135738113Y-99237873D01*
X135768406Y-99213012D01*
X135802965Y-99194540D01*
X135840461Y-99183165D01*
X135885598Y-99178720D01*
X136524322Y-99178720D01*
X136569459Y-99183165D01*
G37*
G36*
X120517143Y-97969319D02*
G01*
X120583327Y-97975837D01*
X120753166Y-98027357D01*
X120909691Y-98111022D01*
X120913858Y-98114442D01*
X121046886Y-98223614D01*
X121110443Y-98301060D01*
X121159478Y-98360809D01*
X121243143Y-98517334D01*
X121294663Y-98687173D01*
X121312059Y-98863800D01*
X121294663Y-99040427D01*
X121247913Y-99194540D01*
X121243142Y-99210268D01*
X121228387Y-99237873D01*
X121159478Y-99366791D01*
X121144240Y-99385358D01*
X121046886Y-99503986D01*
X120945429Y-99587248D01*
X120909691Y-99616578D01*
X120753166Y-99700243D01*
X120583327Y-99751763D01*
X120517142Y-99758282D01*
X120450960Y-99764800D01*
X120112440Y-99764800D01*
X120046257Y-99758281D01*
X119980073Y-99751763D01*
X119810234Y-99700243D01*
X119653709Y-99616578D01*
X119617971Y-99587248D01*
X119516514Y-99503986D01*
X119419160Y-99385358D01*
X119403922Y-99366791D01*
X119335013Y-99237873D01*
X119320258Y-99210268D01*
X119315487Y-99194540D01*
X119268737Y-99040427D01*
X119251341Y-98863800D01*
X119268737Y-98687173D01*
X119320257Y-98517334D01*
X119403922Y-98360809D01*
X119452957Y-98301060D01*
X119516514Y-98223614D01*
X119649542Y-98114442D01*
X119653709Y-98111022D01*
X119810234Y-98027357D01*
X119980073Y-97975837D01*
X120046257Y-97969319D01*
X120112440Y-97962800D01*
X120450960Y-97962800D01*
X120517143Y-97969319D01*
G37*
G36*
X135030659Y-97273525D02*
G01*
X135068155Y-97284900D01*
X135102714Y-97303372D01*
X135133007Y-97328233D01*
X135157868Y-97358526D01*
X135176340Y-97393085D01*
X135187715Y-97430581D01*
X135192160Y-97475718D01*
X135192160Y-98114442D01*
X135187715Y-98159579D01*
X135176340Y-98197075D01*
X135157868Y-98231634D01*
X135133007Y-98261927D01*
X135102714Y-98286788D01*
X135068155Y-98305260D01*
X135030659Y-98316635D01*
X134985522Y-98321080D01*
X134246798Y-98321080D01*
X134201661Y-98316635D01*
X134164165Y-98305260D01*
X134129606Y-98286788D01*
X134099313Y-98261927D01*
X134074452Y-98231634D01*
X134055980Y-98197075D01*
X134044605Y-98159579D01*
X134040160Y-98114442D01*
X134040160Y-97475718D01*
X134044605Y-97430581D01*
X134055980Y-97393085D01*
X134074452Y-97358526D01*
X134099313Y-97328233D01*
X134129606Y-97303372D01*
X134164165Y-97284900D01*
X134201661Y-97273525D01*
X134246798Y-97269080D01*
X134985522Y-97269080D01*
X135030659Y-97273525D01*
G37*
G36*
X133280659Y-97273525D02*
G01*
X133318155Y-97284900D01*
X133352714Y-97303372D01*
X133383007Y-97328233D01*
X133407868Y-97358526D01*
X133426340Y-97393085D01*
X133437715Y-97430581D01*
X133442160Y-97475718D01*
X133442160Y-98114442D01*
X133437715Y-98159579D01*
X133426340Y-98197075D01*
X133407868Y-98231634D01*
X133383007Y-98261927D01*
X133352714Y-98286788D01*
X133318155Y-98305260D01*
X133280659Y-98316635D01*
X133235522Y-98321080D01*
X132496798Y-98321080D01*
X132451661Y-98316635D01*
X132414165Y-98305260D01*
X132379606Y-98286788D01*
X132349313Y-98261927D01*
X132324452Y-98231634D01*
X132305980Y-98197075D01*
X132294605Y-98159579D01*
X132290160Y-98114442D01*
X132290160Y-97475718D01*
X132294605Y-97430581D01*
X132305980Y-97393085D01*
X132324452Y-97358526D01*
X132349313Y-97328233D01*
X132379606Y-97303372D01*
X132414165Y-97284900D01*
X132451661Y-97273525D01*
X132496798Y-97269080D01*
X133235522Y-97269080D01*
X133280659Y-97273525D01*
G37*
G36*
X131591499Y-97273525D02*
G01*
X131628995Y-97284900D01*
X131663554Y-97303372D01*
X131693847Y-97328233D01*
X131718708Y-97358526D01*
X131737180Y-97393085D01*
X131748555Y-97430581D01*
X131753000Y-97475718D01*
X131753000Y-98114442D01*
X131748555Y-98159579D01*
X131737180Y-98197075D01*
X131718708Y-98231634D01*
X131693847Y-98261927D01*
X131663554Y-98286788D01*
X131628995Y-98305260D01*
X131591499Y-98316635D01*
X131546362Y-98321080D01*
X130807638Y-98321080D01*
X130762501Y-98316635D01*
X130725005Y-98305260D01*
X130690446Y-98286788D01*
X130660153Y-98261927D01*
X130635292Y-98231634D01*
X130616820Y-98197075D01*
X130605445Y-98159579D01*
X130601000Y-98114442D01*
X130601000Y-97475718D01*
X130605445Y-97430581D01*
X130616820Y-97393085D01*
X130635292Y-97358526D01*
X130660153Y-97328233D01*
X130690446Y-97303372D01*
X130725005Y-97284900D01*
X130762501Y-97273525D01*
X130807638Y-97269080D01*
X131546362Y-97269080D01*
X131591499Y-97273525D01*
G37*
G36*
X129841499Y-97273525D02*
G01*
X129878995Y-97284900D01*
X129913554Y-97303372D01*
X129943847Y-97328233D01*
X129968708Y-97358526D01*
X129987180Y-97393085D01*
X129998555Y-97430581D01*
X130003000Y-97475718D01*
X130003000Y-98114442D01*
X129998555Y-98159579D01*
X129987180Y-98197075D01*
X129968708Y-98231634D01*
X129943847Y-98261927D01*
X129913554Y-98286788D01*
X129878995Y-98305260D01*
X129841499Y-98316635D01*
X129796362Y-98321080D01*
X129057638Y-98321080D01*
X129012501Y-98316635D01*
X128975005Y-98305260D01*
X128940446Y-98286788D01*
X128910153Y-98261927D01*
X128885292Y-98231634D01*
X128866820Y-98197075D01*
X128855445Y-98159579D01*
X128851000Y-98114442D01*
X128851000Y-97475718D01*
X128855445Y-97430581D01*
X128866820Y-97393085D01*
X128885292Y-97358526D01*
X128910153Y-97328233D01*
X128940446Y-97303372D01*
X128975005Y-97284900D01*
X129012501Y-97273525D01*
X129057638Y-97269080D01*
X129796362Y-97269080D01*
X129841499Y-97273525D01*
G37*
G36*
X124634499Y-97273525D02*
G01*
X124671995Y-97284900D01*
X124706554Y-97303372D01*
X124736847Y-97328233D01*
X124761708Y-97358526D01*
X124780180Y-97393085D01*
X124791555Y-97430581D01*
X124796000Y-97475718D01*
X124796000Y-98114442D01*
X124791555Y-98159579D01*
X124780180Y-98197075D01*
X124761708Y-98231634D01*
X124736847Y-98261927D01*
X124706554Y-98286788D01*
X124671995Y-98305260D01*
X124634499Y-98316635D01*
X124589362Y-98321080D01*
X123850638Y-98321080D01*
X123805501Y-98316635D01*
X123768005Y-98305260D01*
X123733446Y-98286788D01*
X123703153Y-98261927D01*
X123678292Y-98231634D01*
X123659820Y-98197075D01*
X123648445Y-98159579D01*
X123644000Y-98114442D01*
X123644000Y-97475718D01*
X123648445Y-97430581D01*
X123659820Y-97393085D01*
X123678292Y-97358526D01*
X123703153Y-97328233D01*
X123733446Y-97303372D01*
X123768005Y-97284900D01*
X123805501Y-97273525D01*
X123850638Y-97269080D01*
X124589362Y-97269080D01*
X124634499Y-97273525D01*
G37*
G36*
X126384499Y-97273525D02*
G01*
X126421995Y-97284900D01*
X126456554Y-97303372D01*
X126486847Y-97328233D01*
X126511708Y-97358526D01*
X126530180Y-97393085D01*
X126541555Y-97430581D01*
X126546000Y-97475718D01*
X126546000Y-98114442D01*
X126541555Y-98159579D01*
X126530180Y-98197075D01*
X126511708Y-98231634D01*
X126486847Y-98261927D01*
X126456554Y-98286788D01*
X126421995Y-98305260D01*
X126384499Y-98316635D01*
X126339362Y-98321080D01*
X125600638Y-98321080D01*
X125555501Y-98316635D01*
X125518005Y-98305260D01*
X125483446Y-98286788D01*
X125453153Y-98261927D01*
X125428292Y-98231634D01*
X125409820Y-98197075D01*
X125398445Y-98159579D01*
X125394000Y-98114442D01*
X125394000Y-97475718D01*
X125398445Y-97430581D01*
X125409820Y-97393085D01*
X125428292Y-97358526D01*
X125453153Y-97328233D01*
X125483446Y-97303372D01*
X125518005Y-97284900D01*
X125555501Y-97273525D01*
X125600638Y-97269080D01*
X126339362Y-97269080D01*
X126384499Y-97273525D01*
G37*
G36*
X139983178Y-96101515D02*
G01*
X140077827Y-96110837D01*
X140247666Y-96162357D01*
X140247668Y-96162358D01*
X140288359Y-96184108D01*
X140404191Y-96246022D01*
X140439929Y-96275352D01*
X140541386Y-96358614D01*
X140624648Y-96460071D01*
X140653978Y-96495809D01*
X140737643Y-96652334D01*
X140789163Y-96822173D01*
X140806559Y-96998800D01*
X140789163Y-97175427D01*
X140737643Y-97345266D01*
X140653978Y-97501791D01*
X140629120Y-97532080D01*
X140541386Y-97638986D01*
X140439929Y-97722248D01*
X140404191Y-97751578D01*
X140247666Y-97835243D01*
X140077827Y-97886763D01*
X140011642Y-97893282D01*
X139945460Y-97899800D01*
X139606940Y-97899800D01*
X139540758Y-97893282D01*
X139474573Y-97886763D01*
X139304734Y-97835243D01*
X139148209Y-97751578D01*
X139112471Y-97722248D01*
X139011014Y-97638986D01*
X138923280Y-97532080D01*
X138898422Y-97501791D01*
X138814757Y-97345266D01*
X138763237Y-97175427D01*
X138745841Y-96998800D01*
X138763237Y-96822173D01*
X138814757Y-96652334D01*
X138898422Y-96495809D01*
X138927752Y-96460071D01*
X139011014Y-96358614D01*
X139112471Y-96275352D01*
X139148209Y-96246022D01*
X139264041Y-96184108D01*
X139304732Y-96162358D01*
X139304734Y-96162357D01*
X139474573Y-96110837D01*
X139569222Y-96101515D01*
X139606940Y-96097800D01*
X139945460Y-96097800D01*
X139983178Y-96101515D01*
G37*
G36*
X120517143Y-95469319D02*
G01*
X120583327Y-95475837D01*
X120753166Y-95527357D01*
X120909691Y-95611022D01*
X120945429Y-95640352D01*
X121046886Y-95723614D01*
X121130148Y-95825071D01*
X121159478Y-95860809D01*
X121243143Y-96017334D01*
X121294663Y-96187173D01*
X121312059Y-96363800D01*
X121294663Y-96540427D01*
X121243143Y-96710266D01*
X121159478Y-96866791D01*
X121130148Y-96902529D01*
X121046886Y-97003986D01*
X120945429Y-97087248D01*
X120909691Y-97116578D01*
X120753166Y-97200243D01*
X120583327Y-97251763D01*
X120517143Y-97258281D01*
X120450960Y-97264800D01*
X120112440Y-97264800D01*
X120046257Y-97258281D01*
X119980073Y-97251763D01*
X119810234Y-97200243D01*
X119653709Y-97116578D01*
X119617971Y-97087248D01*
X119516514Y-97003986D01*
X119433252Y-96902529D01*
X119403922Y-96866791D01*
X119320257Y-96710266D01*
X119268737Y-96540427D01*
X119251341Y-96363800D01*
X119268737Y-96187173D01*
X119320257Y-96017334D01*
X119403922Y-95860809D01*
X119433252Y-95825071D01*
X119516514Y-95723614D01*
X119617971Y-95640352D01*
X119653709Y-95611022D01*
X119810234Y-95527357D01*
X119980073Y-95475837D01*
X120046257Y-95469319D01*
X120112440Y-95462800D01*
X120450960Y-95462800D01*
X120517143Y-95469319D01*
G37*
G36*
X136584699Y-95070845D02*
G01*
X136622195Y-95082220D01*
X136656754Y-95100692D01*
X136687047Y-95125553D01*
X136711908Y-95155846D01*
X136730380Y-95190405D01*
X136741755Y-95227901D01*
X136746200Y-95273038D01*
X136746200Y-96011762D01*
X136741755Y-96056899D01*
X136730380Y-96094395D01*
X136711908Y-96128954D01*
X136687047Y-96159247D01*
X136656754Y-96184108D01*
X136622195Y-96202580D01*
X136584699Y-96213955D01*
X136539562Y-96218400D01*
X135900838Y-96218400D01*
X135855701Y-96213955D01*
X135818205Y-96202580D01*
X135783646Y-96184108D01*
X135753353Y-96159247D01*
X135728492Y-96128954D01*
X135710020Y-96094395D01*
X135698645Y-96056899D01*
X135694200Y-96011762D01*
X135694200Y-95273038D01*
X135698645Y-95227901D01*
X135710020Y-95190405D01*
X135728492Y-95155846D01*
X135753353Y-95125553D01*
X135783646Y-95100692D01*
X135818205Y-95082220D01*
X135855701Y-95070845D01*
X135900838Y-95066400D01*
X136539562Y-95066400D01*
X136584699Y-95070845D01*
G37*
G36*
X140011642Y-93604318D02*
G01*
X140077827Y-93610837D01*
X140247666Y-93662357D01*
X140404191Y-93746022D01*
X140437434Y-93773304D01*
X140541386Y-93858614D01*
X140624648Y-93960071D01*
X140653978Y-93995809D01*
X140737643Y-94152334D01*
X140789163Y-94322173D01*
X140806559Y-94498800D01*
X140789163Y-94675427D01*
X140737643Y-94845266D01*
X140653978Y-95001791D01*
X140624648Y-95037529D01*
X140541386Y-95138986D01*
X140439929Y-95222248D01*
X140404191Y-95251578D01*
X140404189Y-95251579D01*
X140258598Y-95329400D01*
X140247666Y-95335243D01*
X140077827Y-95386763D01*
X140011643Y-95393281D01*
X139945460Y-95399800D01*
X139606940Y-95399800D01*
X139540757Y-95393281D01*
X139474573Y-95386763D01*
X139304734Y-95335243D01*
X139293803Y-95329400D01*
X139148211Y-95251579D01*
X139148209Y-95251578D01*
X139112471Y-95222248D01*
X139011014Y-95138986D01*
X138927752Y-95037529D01*
X138898422Y-95001791D01*
X138814757Y-94845266D01*
X138763237Y-94675427D01*
X138745841Y-94498800D01*
X138763237Y-94322173D01*
X138814757Y-94152334D01*
X138898422Y-93995809D01*
X138927752Y-93960071D01*
X139011014Y-93858614D01*
X139114966Y-93773304D01*
X139148209Y-93746022D01*
X139304734Y-93662357D01*
X139474573Y-93610837D01*
X139540758Y-93604318D01*
X139606940Y-93597800D01*
X139945460Y-93597800D01*
X140011642Y-93604318D01*
G37*
G36*
X127193002Y-93382501D02*
G01*
X127332794Y-93440405D01*
X127338776Y-93442883D01*
X127469968Y-93530542D01*
X127581538Y-93642112D01*
X127669197Y-93773304D01*
X127669198Y-93773306D01*
X127729579Y-93919078D01*
X127760360Y-94073827D01*
X127760360Y-94231613D01*
X127729579Y-94386362D01*
X127680857Y-94503986D01*
X127669197Y-94532136D01*
X127581538Y-94663328D01*
X127469968Y-94774898D01*
X127338776Y-94862557D01*
X127338775Y-94862558D01*
X127338774Y-94862558D01*
X127193002Y-94922939D01*
X127038253Y-94953720D01*
X126880467Y-94953720D01*
X126725718Y-94922939D01*
X126579946Y-94862558D01*
X126579945Y-94862558D01*
X126579944Y-94862557D01*
X126448752Y-94774898D01*
X126337182Y-94663328D01*
X126249523Y-94532136D01*
X126237863Y-94503986D01*
X126189141Y-94386362D01*
X126158360Y-94231613D01*
X126158360Y-94073827D01*
X126189141Y-93919078D01*
X126249522Y-93773306D01*
X126249523Y-93773304D01*
X126337182Y-93642112D01*
X126448752Y-93530542D01*
X126579944Y-93442883D01*
X126585926Y-93440405D01*
X126725718Y-93382501D01*
X126880467Y-93351720D01*
X127038253Y-93351720D01*
X127193002Y-93382501D01*
G37*
G36*
X132073002Y-93382501D02*
G01*
X132212794Y-93440405D01*
X132218776Y-93442883D01*
X132349968Y-93530542D01*
X132461538Y-93642112D01*
X132549197Y-93773304D01*
X132549198Y-93773306D01*
X132609579Y-93919078D01*
X132640360Y-94073827D01*
X132640360Y-94231613D01*
X132609579Y-94386362D01*
X132560857Y-94503986D01*
X132549197Y-94532136D01*
X132461538Y-94663328D01*
X132349968Y-94774898D01*
X132218776Y-94862557D01*
X132218775Y-94862558D01*
X132218774Y-94862558D01*
X132073002Y-94922939D01*
X131918253Y-94953720D01*
X131760467Y-94953720D01*
X131605718Y-94922939D01*
X131459946Y-94862558D01*
X131459945Y-94862558D01*
X131459944Y-94862557D01*
X131328752Y-94774898D01*
X131217182Y-94663328D01*
X131129523Y-94532136D01*
X131117863Y-94503986D01*
X131069141Y-94386362D01*
X131038360Y-94231613D01*
X131038360Y-94073827D01*
X131069141Y-93919078D01*
X131129522Y-93773306D01*
X131129523Y-93773304D01*
X131217182Y-93642112D01*
X131328752Y-93530542D01*
X131459944Y-93442883D01*
X131465926Y-93440405D01*
X131605718Y-93382501D01*
X131760467Y-93351720D01*
X131918253Y-93351720D01*
X132073002Y-93382501D01*
G37*
G36*
X120517143Y-92969319D02*
G01*
X120583327Y-92975837D01*
X120753166Y-93027357D01*
X120909691Y-93111022D01*
X120945429Y-93140352D01*
X121046886Y-93223614D01*
X121123032Y-93316400D01*
X121159478Y-93360809D01*
X121243143Y-93517334D01*
X121294663Y-93687173D01*
X121312059Y-93863800D01*
X121294663Y-94040427D01*
X121243143Y-94210266D01*
X121159478Y-94366791D01*
X121139307Y-94391369D01*
X121046886Y-94503986D01*
X120945429Y-94587248D01*
X120909691Y-94616578D01*
X120753166Y-94700243D01*
X120583327Y-94751763D01*
X120517142Y-94758282D01*
X120450960Y-94764800D01*
X120112440Y-94764800D01*
X120046258Y-94758282D01*
X119980073Y-94751763D01*
X119810234Y-94700243D01*
X119653709Y-94616578D01*
X119617971Y-94587248D01*
X119516514Y-94503986D01*
X119424093Y-94391369D01*
X119403922Y-94366791D01*
X119320257Y-94210266D01*
X119268737Y-94040427D01*
X119251341Y-93863800D01*
X119268737Y-93687173D01*
X119320257Y-93517334D01*
X119403922Y-93360809D01*
X119440368Y-93316400D01*
X119516514Y-93223614D01*
X119617971Y-93140352D01*
X119653709Y-93111022D01*
X119810234Y-93027357D01*
X119980073Y-92975837D01*
X120046257Y-92969319D01*
X120112440Y-92962800D01*
X120450960Y-92962800D01*
X120517143Y-92969319D01*
G37*
G36*
X136584699Y-93320845D02*
G01*
X136622195Y-93332220D01*
X136656754Y-93350692D01*
X136687047Y-93375553D01*
X136711908Y-93405846D01*
X136730380Y-93440405D01*
X136741755Y-93477901D01*
X136746200Y-93523038D01*
X136746200Y-94261762D01*
X136741755Y-94306899D01*
X136730380Y-94344395D01*
X136711908Y-94378954D01*
X136687047Y-94409247D01*
X136656754Y-94434108D01*
X136622195Y-94452580D01*
X136584699Y-94463955D01*
X136539562Y-94468400D01*
X135900838Y-94468400D01*
X135855701Y-94463955D01*
X135818205Y-94452580D01*
X135783646Y-94434108D01*
X135753353Y-94409247D01*
X135728492Y-94378954D01*
X135710020Y-94344395D01*
X135698645Y-94306899D01*
X135694200Y-94261762D01*
X135694200Y-93523038D01*
X135698645Y-93477901D01*
X135710020Y-93440405D01*
X135728492Y-93405846D01*
X135753353Y-93375553D01*
X135783646Y-93350692D01*
X135818205Y-93332220D01*
X135855701Y-93320845D01*
X135900838Y-93316400D01*
X136539562Y-93316400D01*
X136584699Y-93320845D01*
G37*
G36*
X140659800Y-91101789D02*
G01*
X140692852Y-91111815D01*
X140723303Y-91128092D01*
X140749999Y-91150001D01*
X140771908Y-91176697D01*
X140788185Y-91207148D01*
X140798211Y-91240200D01*
X140802200Y-91280703D01*
X140802200Y-92716897D01*
X140798211Y-92757400D01*
X140788185Y-92790452D01*
X140771908Y-92820903D01*
X140749999Y-92847599D01*
X140723303Y-92869508D01*
X140692852Y-92885785D01*
X140659800Y-92895811D01*
X140619297Y-92899800D01*
X138933103Y-92899800D01*
X138892600Y-92895811D01*
X138859548Y-92885785D01*
X138829097Y-92869508D01*
X138802401Y-92847599D01*
X138780492Y-92820903D01*
X138764215Y-92790452D01*
X138754189Y-92757400D01*
X138750200Y-92716897D01*
X138750200Y-91280703D01*
X138754189Y-91240200D01*
X138764215Y-91207148D01*
X138780492Y-91176697D01*
X138802401Y-91150001D01*
X138829097Y-91128092D01*
X138859548Y-91111815D01*
X138892600Y-91101789D01*
X138933103Y-91097800D01*
X140619297Y-91097800D01*
X140659800Y-91101789D01*
G37*
G36*
X121165300Y-90466789D02*
G01*
X121198352Y-90476815D01*
X121228803Y-90493092D01*
X121255499Y-90515001D01*
X121277408Y-90541697D01*
X121293685Y-90572148D01*
X121303711Y-90605200D01*
X121307700Y-90645703D01*
X121307700Y-92081897D01*
X121303711Y-92122400D01*
X121293685Y-92155452D01*
X121277408Y-92185903D01*
X121255499Y-92212599D01*
X121228803Y-92234508D01*
X121198352Y-92250785D01*
X121165300Y-92260811D01*
X121124797Y-92264800D01*
X119438603Y-92264800D01*
X119398100Y-92260811D01*
X119365048Y-92250785D01*
X119334597Y-92234508D01*
X119307901Y-92212599D01*
X119285992Y-92185903D01*
X119269715Y-92155452D01*
X119259689Y-92122400D01*
X119255700Y-92081897D01*
X119255700Y-90645703D01*
X119259689Y-90605200D01*
X119269715Y-90572148D01*
X119285992Y-90541697D01*
X119307901Y-90515001D01*
X119334597Y-90493092D01*
X119365048Y-90476815D01*
X119398100Y-90466789D01*
X119438603Y-90462800D01*
X121124797Y-90462800D01*
X121165300Y-90466789D01*
G37*
G36*
X126074679Y-89943085D02*
G01*
X126112175Y-89954460D01*
X126146734Y-89972932D01*
X126177027Y-89997793D01*
X126201888Y-90028086D01*
X126220360Y-90062645D01*
X126231735Y-90100141D01*
X126236180Y-90145278D01*
X126236180Y-90784002D01*
X126231735Y-90829139D01*
X126220360Y-90866635D01*
X126201888Y-90901194D01*
X126177027Y-90931487D01*
X126146734Y-90956348D01*
X126112175Y-90974820D01*
X126074679Y-90986195D01*
X126029542Y-90990640D01*
X125290818Y-90990640D01*
X125245681Y-90986195D01*
X125208185Y-90974820D01*
X125173626Y-90956348D01*
X125143333Y-90931487D01*
X125118472Y-90901194D01*
X125100000Y-90866635D01*
X125088625Y-90829139D01*
X125084180Y-90784002D01*
X125084180Y-90145278D01*
X125088625Y-90100141D01*
X125100000Y-90062645D01*
X125118472Y-90028086D01*
X125143333Y-89997793D01*
X125173626Y-89972932D01*
X125208185Y-89954460D01*
X125245681Y-89943085D01*
X125290818Y-89938640D01*
X126029542Y-89938640D01*
X126074679Y-89943085D01*
G37*
G36*
X127824679Y-89943085D02*
G01*
X127862175Y-89954460D01*
X127896734Y-89972932D01*
X127927027Y-89997793D01*
X127951888Y-90028086D01*
X127970360Y-90062645D01*
X127981735Y-90100141D01*
X127986180Y-90145278D01*
X127986180Y-90784002D01*
X127981735Y-90829139D01*
X127970360Y-90866635D01*
X127951888Y-90901194D01*
X127927027Y-90931487D01*
X127896734Y-90956348D01*
X127862175Y-90974820D01*
X127824679Y-90986195D01*
X127779542Y-90990640D01*
X127040818Y-90990640D01*
X126995681Y-90986195D01*
X126958185Y-90974820D01*
X126923626Y-90956348D01*
X126893333Y-90931487D01*
X126868472Y-90901194D01*
X126850000Y-90866635D01*
X126838625Y-90829139D01*
X126834180Y-90784002D01*
X126834180Y-90145278D01*
X126838625Y-90100141D01*
X126850000Y-90062645D01*
X126868472Y-90028086D01*
X126893333Y-89997793D01*
X126923626Y-89972932D01*
X126958185Y-89954460D01*
X126995681Y-89943085D01*
X127040818Y-89938640D01*
X127779542Y-89938640D01*
X127824679Y-89943085D01*
G37*
G36*
X132333179Y-89879585D02*
G01*
X132370675Y-89890960D01*
X132405234Y-89909432D01*
X132435527Y-89934293D01*
X132460388Y-89964586D01*
X132478860Y-89999145D01*
X132490235Y-90036641D01*
X132494680Y-90081778D01*
X132494680Y-90720502D01*
X132490235Y-90765639D01*
X132478860Y-90803135D01*
X132460388Y-90837694D01*
X132435527Y-90867987D01*
X132405234Y-90892848D01*
X132370675Y-90911320D01*
X132333179Y-90922695D01*
X132288042Y-90927140D01*
X131549318Y-90927140D01*
X131504181Y-90922695D01*
X131466685Y-90911320D01*
X131432126Y-90892848D01*
X131401833Y-90867987D01*
X131376972Y-90837694D01*
X131358500Y-90803135D01*
X131347125Y-90765639D01*
X131342680Y-90720502D01*
X131342680Y-90081778D01*
X131347125Y-90036641D01*
X131358500Y-89999145D01*
X131376972Y-89964586D01*
X131401833Y-89934293D01*
X131432126Y-89909432D01*
X131466685Y-89890960D01*
X131504181Y-89879585D01*
X131549318Y-89875140D01*
X132288042Y-89875140D01*
X132333179Y-89879585D01*
G37*
G36*
X130583179Y-89879585D02*
G01*
X130620675Y-89890960D01*
X130655234Y-89909432D01*
X130685527Y-89934293D01*
X130710388Y-89964586D01*
X130728860Y-89999145D01*
X130740235Y-90036641D01*
X130744680Y-90081778D01*
X130744680Y-90720502D01*
X130740235Y-90765639D01*
X130728860Y-90803135D01*
X130710388Y-90837694D01*
X130685527Y-90867987D01*
X130655234Y-90892848D01*
X130620675Y-90911320D01*
X130583179Y-90922695D01*
X130538042Y-90927140D01*
X129799318Y-90927140D01*
X129754181Y-90922695D01*
X129716685Y-90911320D01*
X129682126Y-90892848D01*
X129651833Y-90867987D01*
X129626972Y-90837694D01*
X129608500Y-90803135D01*
X129597125Y-90765639D01*
X129592680Y-90720502D01*
X129592680Y-90081778D01*
X129597125Y-90036641D01*
X129608500Y-89999145D01*
X129626972Y-89964586D01*
X129651833Y-89934293D01*
X129682126Y-89909432D01*
X129716685Y-89890960D01*
X129754181Y-89879585D01*
X129799318Y-89875140D01*
X130538042Y-89875140D01*
X130583179Y-89879585D01*
G37*
G36*
X135446483Y-82676920D02*
G01*
X135948282Y-82776734D01*
X136539926Y-83021801D01*
X137072392Y-83377584D01*
X137525216Y-83830408D01*
X137880999Y-84362874D01*
X138102628Y-84897934D01*
X138126066Y-84954519D01*
X138247121Y-85563100D01*
X138251000Y-85582604D01*
X138251000Y-86222996D01*
X138126066Y-86851082D01*
X137880999Y-87442726D01*
X137525216Y-87975192D01*
X137072392Y-88428016D01*
X136539926Y-88783799D01*
X135948282Y-89028866D01*
X135634239Y-89091333D01*
X135320197Y-89153800D01*
X134679803Y-89153800D01*
X134365761Y-89091333D01*
X134051718Y-89028866D01*
X133460074Y-88783799D01*
X132927608Y-88428016D01*
X132474784Y-87975192D01*
X132119001Y-87442726D01*
X131873934Y-86851082D01*
X131749000Y-86222996D01*
X131749000Y-85582604D01*
X131752880Y-85563100D01*
X131873934Y-84954519D01*
X131897372Y-84897934D01*
X132119001Y-84362874D01*
X132474784Y-83830408D01*
X132927608Y-83377584D01*
X133460074Y-83021801D01*
X134051718Y-82776734D01*
X134553517Y-82676920D01*
X134679803Y-82651800D01*
X135320197Y-82651800D01*
X135446483Y-82676920D01*
G37*
G36*
X139937499Y-86998725D02*
G01*
X139974995Y-87010100D01*
X140009554Y-87028572D01*
X140039847Y-87053433D01*
X140064708Y-87083726D01*
X140083180Y-87118285D01*
X140094555Y-87155781D01*
X140099000Y-87200918D01*
X140099000Y-87939642D01*
X140094555Y-87984779D01*
X140083180Y-88022275D01*
X140064708Y-88056834D01*
X140039847Y-88087127D01*
X140009554Y-88111988D01*
X139974995Y-88130460D01*
X139937499Y-88141835D01*
X139892362Y-88146280D01*
X139253638Y-88146280D01*
X139208501Y-88141835D01*
X139171005Y-88130460D01*
X139136446Y-88111988D01*
X139106153Y-88087127D01*
X139081292Y-88056834D01*
X139062820Y-88022275D01*
X139051445Y-87984779D01*
X139047000Y-87939642D01*
X139047000Y-87200918D01*
X139051445Y-87155781D01*
X139062820Y-87118285D01*
X139081292Y-87083726D01*
X139106153Y-87053433D01*
X139136446Y-87028572D01*
X139171005Y-87010100D01*
X139208501Y-86998725D01*
X139253638Y-86994280D01*
X139892362Y-86994280D01*
X139937499Y-86998725D01*
G37*
G36*
X126078707Y-84356437D02*
G01*
X126248546Y-84407957D01*
X126405071Y-84491622D01*
X126440809Y-84520952D01*
X126542266Y-84604214D01*
X126599619Y-84674100D01*
X126654858Y-84741409D01*
X126738523Y-84897934D01*
X126790043Y-85067774D01*
X126790043Y-85067776D01*
X126803080Y-85200141D01*
X126803080Y-85538660D01*
X126800673Y-85563100D01*
X126790043Y-85671027D01*
X126738523Y-85840866D01*
X126654858Y-85997391D01*
X126625528Y-86033129D01*
X126542266Y-86134586D01*
X126405069Y-86247179D01*
X126270236Y-86319249D01*
X126248545Y-86330843D01*
X126078706Y-86382363D01*
X125902080Y-86399759D01*
X125725453Y-86382363D01*
X125555614Y-86330843D01*
X125399089Y-86247178D01*
X125356830Y-86212497D01*
X125261894Y-86134586D01*
X125149301Y-85997389D01*
X125065638Y-85840867D01*
X125065637Y-85840865D01*
X125014117Y-85671026D01*
X125003487Y-85563100D01*
X125001080Y-85538659D01*
X125001080Y-85200140D01*
X125014117Y-85067775D01*
X125014117Y-85067773D01*
X125065637Y-84897934D01*
X125149302Y-84741409D01*
X125261895Y-84604215D01*
X125399090Y-84491622D01*
X125555615Y-84407957D01*
X125725454Y-84356437D01*
X125902080Y-84339041D01*
X126078707Y-84356437D01*
G37*
G36*
X123578707Y-84356437D02*
G01*
X123748546Y-84407957D01*
X123905071Y-84491622D01*
X123940809Y-84520952D01*
X124042266Y-84604214D01*
X124099619Y-84674100D01*
X124154858Y-84741409D01*
X124238523Y-84897934D01*
X124290043Y-85067774D01*
X124290043Y-85067776D01*
X124303080Y-85200141D01*
X124303080Y-85538660D01*
X124300673Y-85563100D01*
X124290043Y-85671027D01*
X124238523Y-85840866D01*
X124154858Y-85997391D01*
X124125528Y-86033129D01*
X124042266Y-86134586D01*
X123905069Y-86247179D01*
X123770236Y-86319249D01*
X123748545Y-86330843D01*
X123578706Y-86382363D01*
X123402080Y-86399759D01*
X123225453Y-86382363D01*
X123055614Y-86330843D01*
X122899089Y-86247178D01*
X122856830Y-86212497D01*
X122761894Y-86134586D01*
X122649301Y-85997389D01*
X122565638Y-85840867D01*
X122565637Y-85840865D01*
X122514117Y-85671026D01*
X122503487Y-85563100D01*
X122501080Y-85538659D01*
X122501080Y-85200140D01*
X122514117Y-85067775D01*
X122514117Y-85067773D01*
X122565637Y-84897934D01*
X122649302Y-84741409D01*
X122761895Y-84604215D01*
X122899090Y-84491622D01*
X123055615Y-84407957D01*
X123225454Y-84356437D01*
X123402080Y-84339041D01*
X123578707Y-84356437D01*
G37*
G36*
X121078707Y-84356437D02*
G01*
X121248546Y-84407957D01*
X121405071Y-84491622D01*
X121440809Y-84520952D01*
X121542266Y-84604214D01*
X121599619Y-84674100D01*
X121654858Y-84741409D01*
X121738523Y-84897934D01*
X121790043Y-85067774D01*
X121790043Y-85067776D01*
X121803080Y-85200141D01*
X121803080Y-85538660D01*
X121800673Y-85563100D01*
X121790043Y-85671027D01*
X121738523Y-85840866D01*
X121654858Y-85997391D01*
X121625528Y-86033129D01*
X121542266Y-86134586D01*
X121405069Y-86247179D01*
X121270236Y-86319249D01*
X121248545Y-86330843D01*
X121078706Y-86382363D01*
X120902080Y-86399759D01*
X120725453Y-86382363D01*
X120555614Y-86330843D01*
X120399089Y-86247178D01*
X120356830Y-86212497D01*
X120261894Y-86134586D01*
X120149301Y-85997389D01*
X120065638Y-85840867D01*
X120065637Y-85840865D01*
X120014117Y-85671026D01*
X120003487Y-85563100D01*
X120001080Y-85538659D01*
X120001080Y-85200140D01*
X120014117Y-85067775D01*
X120014117Y-85067773D01*
X120065637Y-84897934D01*
X120149302Y-84741409D01*
X120261895Y-84604215D01*
X120399090Y-84491622D01*
X120555615Y-84407957D01*
X120725454Y-84356437D01*
X120902080Y-84339041D01*
X121078707Y-84356437D01*
G37*
G36*
X139937499Y-85248725D02*
G01*
X139974995Y-85260100D01*
X140009554Y-85278572D01*
X140039847Y-85303433D01*
X140064708Y-85333726D01*
X140083180Y-85368285D01*
X140094555Y-85405781D01*
X140099000Y-85450918D01*
X140099000Y-86189642D01*
X140094555Y-86234779D01*
X140083180Y-86272275D01*
X140064708Y-86306834D01*
X140039847Y-86337127D01*
X140009554Y-86361988D01*
X139974995Y-86380460D01*
X139937499Y-86391835D01*
X139892362Y-86396280D01*
X139253638Y-86396280D01*
X139208501Y-86391835D01*
X139171005Y-86380460D01*
X139136446Y-86361988D01*
X139106153Y-86337127D01*
X139081292Y-86306834D01*
X139062820Y-86272275D01*
X139051445Y-86234779D01*
X139047000Y-86189642D01*
X139047000Y-85450918D01*
X139051445Y-85405781D01*
X139062820Y-85368285D01*
X139081292Y-85333726D01*
X139106153Y-85303433D01*
X139136446Y-85278572D01*
X139171005Y-85260100D01*
X139208501Y-85248725D01*
X139253638Y-85244280D01*
X139892362Y-85244280D01*
X139937499Y-85248725D01*
G37*
G36*
X129160680Y-84347389D02*
G01*
X129193732Y-84357415D01*
X129224183Y-84373692D01*
X129250879Y-84395601D01*
X129272788Y-84422297D01*
X129289065Y-84452748D01*
X129299091Y-84485800D01*
X129303080Y-84526303D01*
X129303080Y-86212497D01*
X129299091Y-86253000D01*
X129289065Y-86286052D01*
X129272788Y-86316503D01*
X129250879Y-86343199D01*
X129224183Y-86365108D01*
X129193732Y-86381385D01*
X129160680Y-86391411D01*
X129120177Y-86395400D01*
X127683983Y-86395400D01*
X127643480Y-86391411D01*
X127610428Y-86381385D01*
X127579977Y-86365108D01*
X127553281Y-86343199D01*
X127531372Y-86316503D01*
X127515095Y-86286052D01*
X127505069Y-86253000D01*
X127501080Y-86212497D01*
X127501080Y-84526303D01*
X127505069Y-84485800D01*
X127515095Y-84452748D01*
X127531372Y-84422297D01*
X127553281Y-84395601D01*
X127579977Y-84373692D01*
X127610428Y-84357415D01*
X127643480Y-84347389D01*
X127683983Y-84343400D01*
X129120177Y-84343400D01*
X129160680Y-84347389D01*
G37*
G36*
X141461499Y-84415545D02*
G01*
X141498995Y-84426920D01*
X141533554Y-84445392D01*
X141563847Y-84470253D01*
X141588708Y-84500546D01*
X141607180Y-84535105D01*
X141618555Y-84572601D01*
X141623000Y-84617738D01*
X141623000Y-85356462D01*
X141618555Y-85401599D01*
X141607180Y-85439095D01*
X141588708Y-85473654D01*
X141563847Y-85503947D01*
X141533554Y-85528808D01*
X141498995Y-85547280D01*
X141461499Y-85558655D01*
X141416362Y-85563100D01*
X140777638Y-85563100D01*
X140732501Y-85558655D01*
X140695005Y-85547280D01*
X140660446Y-85528808D01*
X140630153Y-85503947D01*
X140605292Y-85473654D01*
X140586820Y-85439095D01*
X140575445Y-85401599D01*
X140571000Y-85356462D01*
X140571000Y-84617738D01*
X140575445Y-84572601D01*
X140586820Y-84535105D01*
X140605292Y-84500546D01*
X140630153Y-84470253D01*
X140660446Y-84445392D01*
X140695005Y-84426920D01*
X140732501Y-84415545D01*
X140777638Y-84411100D01*
X141416362Y-84411100D01*
X141461499Y-84415545D01*
G37*
G36*
X141461499Y-82665545D02*
G01*
X141498995Y-82676920D01*
X141533554Y-82695392D01*
X141563847Y-82720253D01*
X141588708Y-82750546D01*
X141607180Y-82785105D01*
X141618555Y-82822601D01*
X141623000Y-82867738D01*
X141623000Y-83606462D01*
X141618555Y-83651599D01*
X141607180Y-83689095D01*
X141588708Y-83723654D01*
X141563847Y-83753947D01*
X141533554Y-83778808D01*
X141498995Y-83797280D01*
X141461499Y-83808655D01*
X141416362Y-83813100D01*
X140777638Y-83813100D01*
X140732501Y-83808655D01*
X140695005Y-83797280D01*
X140660446Y-83778808D01*
X140630153Y-83753947D01*
X140605292Y-83723654D01*
X140586820Y-83689095D01*
X140575445Y-83651599D01*
X140571000Y-83606462D01*
X140571000Y-82867738D01*
X140575445Y-82822601D01*
X140586820Y-82785105D01*
X140605292Y-82750546D01*
X140630153Y-82720253D01*
X140660446Y-82695392D01*
X140695005Y-82676920D01*
X140732501Y-82665545D01*
X140777638Y-82661100D01*
X141416362Y-82661100D01*
X141461499Y-82665545D01*
G37*
M02*
